<?xml version="1.0" standalone="no"?>
<!DOCTYPE svg PUBLIC "-//W3C//DTD SVG 1.1//EN" "http://www.w3.org/Graphics/SVG/1.1/DTD/svg11.dtd" >
<svg xmlns="http://www.w3.org/2000/svg" xmlns:xlink="http://www.w3.org/1999/xlink" version="1.1">
<metadata>
Created by FontForge 20150715 at Tue Nov  3 08:14:55 2015
 By Jimmy Wärting
Copyright \(c\) 2014 by Andriy Konstantynov. All rights reserved.
</metadata>
<defs>
<font id="AngleciaProDisplay-MediumItalic" horiz-adv-x="573" >
  <font-face 
    font-family="Anglecia Pro Display"
    font-weight="500"
    font-style="italic"
    font-stretch="normal"
    units-per-em="1000"
    panose-1="2 5 0 3 8 0 0 0 0 0"
    ascent="780"
    descent="-220"
    x-height="504"
    cap-height="700"
    bbox="-120.259 -250 1329 1003"
    underline-thickness="50"
    underline-position="-100"
    slope="-12"
    unicode-range="U+0020-FB04"
  />
<missing-glyph horiz-adv-x="213" 
 />
    <glyph glyph-name="ff" unicode="ff" horiz-adv-x="671" 
d="M-1 -137l-9 -47c37 0 65 61 96 205l94 457h-60l2 10l63 19l6 29c11 52 43 93 97 124s119 46 196 46c37 0 69 -7 96 -20c39 25 87 38 142 38c39 0 72 -7 98 -22c27 -15 37 -37 30 -68c-7 -35 -32 -58 -67 -58c-39 0 -60 28 -51 73l10 53c-9 5 -17 7 -23 7
c-41 0 -74 -53 -93 -142l-14 -67h158l-5 -22h-157l-98 -478c-12 -57 -46 -103 -102 -136c-56 -34 -123 -51 -202 -51c-42 0 -76 8 -103 23c-37 -27 -80 -41 -128 -41c-72 0 -102 29 -94 73c8 36 38 61 71 61c36 0 55 -26 47 -66zM385 0l98 478h-178l-94 -457
c-15 -73 -43 -128 -83 -166c19 -18 46 -27 80 -27c92 0 156 68 177 172zM465 500l24 7l12 60c8 42 26 75 54 100c-20 16 -44 24 -73 24c-87 0 -146 -62 -166 -155l-7 -36h156z" />
    <glyph glyph-name="fi" unicode="fi" horiz-adv-x="580" 
d="M-1 -137l-9 -47c37 0 65 61 96 205l94 457h-60l2 10l63 19l11 54c20 100 125 163 293 163c49 0 87 -8 116 -23s41 -40 34 -73c-9 -41 -39 -66 -78 -66c-43 0 -67 31 -58 79l12 56c-11 8 -25 12 -44 12c-79 0 -130 -56 -150 -148l-12 -61h119l171 7l12 -14l-85 -417
c-6 -25 0 -37 19 -37c15 0 34 10 59 30l5 -8c-53 -44 -103 -66 -152 -66c-43 0 -68 23 -60 66l83 405l-47 12h-128l-94 -457c-31 -145 -113 -226 -236 -226c-72 0 -102 29 -94 73c8 36 38 61 71 61c36 0 55 -26 47 -66z" />
    <glyph glyph-name="fl" unicode="fl" horiz-adv-x="579" 
d="M-1 -137l-9 -47c37 0 65 61 96 205l94 457h-60l2 10l63 19l12 60c22 105 114 157 277 157c34 0 64 -2 89 -7l90 10l12 -14l-130 -637c-6 -25 1 -37 20 -37c14 0 33 10 58 30l6 -8c-53 -44 -104 -66 -153 -66c-43 0 -68 23 -60 66l126 616c-14 20 -37 30 -70 30
c-75 0 -122 -52 -139 -140l-14 -67h138l-4 -22h-138l-94 -457c-31 -145 -113 -226 -236 -226c-72 0 -102 29 -94 73c8 36 38 61 71 61c36 0 55 -26 47 -66z" />
    <glyph glyph-name="ffi" unicode="ffi" horiz-adv-x="883" 
d="M-1 -137l-9 -47c37 0 65 61 96 205l94 457h-60l2 10l63 19l6 29c11 52 43 93 96 124c54 31 117 46 190 46c48 0 85 -10 111 -30c49 32 117 48 204 48c49 0 88 -8 117 -23s40 -40 33 -73c-8 -40 -38 -66 -78 -66c-41 0 -67 31 -58 79l12 56c-11 8 -26 12 -44 12
c-79 0 -130 -56 -150 -148l-12 -61h118l172 7l11 -14l-85 -417c-5 -25 2 -37 21 -37c15 0 34 10 57 30l6 -8c-53 -44 -103 -66 -152 -66c-44 0 -69 23 -60 66l82 405l-46 12h-128l-98 -478c-12 -57 -46 -103 -102 -136c-56 -34 -123 -51 -202 -51c-42 0 -76 8 -103 23
c-37 -27 -80 -41 -128 -41c-72 0 -102 29 -94 73c8 36 38 61 71 61c36 0 55 -26 47 -66zM385 0l98 478h-178l-94 -457c-15 -73 -43 -128 -83 -166c19 -18 46 -27 80 -27c92 0 156 68 177 172zM465 500l24 7l10 54c8 39 29 71 63 98c-20 21 -47 32 -82 32
c-84 0 -145 -63 -164 -155l-7 -36h156z" />
    <glyph glyph-name="ffl" unicode="ffl" horiz-adv-x="892" 
d="M-1 -137l-9 -47c37 0 65 61 96 205l94 457h-60l2 10l63 19l6 29c11 52 43 93 96 124c54 31 118 46 192 46c46 0 81 -8 106 -25c47 29 110 43 191 43c35 0 65 -2 89 -7l91 10l11 -14l-129 -637c-6 -25 1 -37 20 -37c15 0 34 10 57 30l6 -8c-53 -44 -103 -66 -151 -66
c-44 0 -69 23 -61 66l126 616c-14 20 -37 30 -70 30c-73 0 -120 -52 -139 -140l-14 -67h138l-4 -22h-138l-98 -478c-12 -57 -46 -103 -102 -136c-56 -34 -123 -51 -202 -51c-42 0 -76 8 -103 23c-37 -27 -80 -41 -128 -41c-72 0 -102 29 -94 73c8 36 38 61 71 61
c36 0 55 -26 47 -66zM385 0l98 478h-178l-94 -457c-15 -73 -43 -128 -83 -166c19 -18 46 -27 80 -27c92 0 156 68 177 172zM465 500l24 7l12 60c7 39 26 71 58 97c-21 18 -47 27 -79 27c-84 0 -145 -63 -164 -155l-7 -36h156z" />
    <glyph glyph-name="f_f_j" unicode="ffj" horiz-adv-x="883" 
d="M-1 -137l-9 -47c37 0 65 61 96 205l94 457h-60l2 10l63 19l6 29c11 52 43 93 96 124c54 31 117 46 190 46c48 0 85 -10 111 -30c49 32 117 48 204 48c49 0 88 -8 117 -23s40 -40 33 -73c-8 -40 -38 -66 -78 -66c-41 0 -67 31 -58 79l12 56c-11 8 -26 12 -44 12
c-79 0 -130 -56 -150 -148l-12 -61h118l172 7l11 -14l-94 -463c-12 -57 -46 -103 -101 -136c-55 -34 -122 -51 -200 -51c-41 0 -77 8 -106 24c-57 -36 -125 -54 -206 -54c-42 0 -76 8 -103 23c-37 -27 -80 -41 -128 -41c-72 0 -102 29 -94 73c8 36 38 61 71 61
c36 0 55 -26 47 -66zM385 0l98 478h-178l-94 -457c-15 -73 -43 -128 -83 -166c19 -18 46 -27 80 -27c92 0 156 68 177 172zM693 30l89 436l-46 12h-128l-98 -478c-9 -45 -33 -84 -72 -116c23 -17 50 -26 81 -26c91 0 153 68 174 172zM465 500l24 7l10 54c8 39 29 71 63 98
c-20 21 -47 32 -82 32c-84 0 -145 -63 -164 -155l-7 -36h156z" />
    <glyph glyph-name="f_j" unicode="fj" horiz-adv-x="580" 
d="M309 500h119l171 7l12 -14l-101 -493c-12 -57 -46 -103 -102 -136c-56 -34 -123 -51 -202 -51c-42 0 -76 8 -103 23c-37 -27 -80 -41 -128 -41c-72 0 -102 29 -94 73c8 36 38 61 71 61c36 0 55 -26 47 -66l-9 -47c37 0 65 61 96 205l94 457h-60l2 10l63 19l11 54
c20 100 125 163 293 163c49 0 87 -8 116 -23s41 -40 34 -73c-9 -41 -39 -66 -78 -66c-43 0 -67 31 -58 79l12 56c-11 8 -25 12 -44 12c-79 0 -130 -56 -150 -148zM385 0l95 466l-47 12h-128l-94 -457c-15 -73 -43 -128 -83 -166c19 -18 46 -27 80 -27c92 0 156 68 177 172z
" />
    <glyph glyph-name=".notdef" horiz-adv-x="213" 
 />
    <glyph glyph-name="NULL" horiz-adv-x="0" 
 />
    <glyph glyph-name="CR" horiz-adv-x="333" 
 />
    <glyph glyph-name="space" unicode=" " horiz-adv-x="213" 
 />
    <glyph glyph-name="exclam" unicode="!" horiz-adv-x="220" 
d="M168 203h-25c12 105 20 193 24 264c5 71 6 111 4 120s-1 24 2 46c8 41 45 71 85 71c41 0 64 -30 56 -71c-1 -6 -7 -19 -16 -40c-17 -41 -69 -181 -130 -390zM60 63c8 37 43 67 80 67c39 0 61 -28 53 -67c-7 -39 -42 -67 -79 -67s-61 28 -54 67z" />
    <glyph glyph-name="quotedbl" unicode="&#x22;" horiz-adv-x="300" 
d="M199 490h-23c9 93 -2 158 1 169c5 27 27 45 54 45c25 0 41 -18 36 -45c-1 -5 -9 -23 -25 -56s-30 -70 -43 -113zM330 490h-23c9 93 -2 158 1 169c5 25 27 45 54 45c25 0 41 -18 36 -45c-1 -5 -9 -23 -25 -56s-30 -70 -43 -113z" />
    <glyph glyph-name="numbersign" unicode="#" horiz-adv-x="557" 
d="M271 450h-112l7 34h122l107 216h36l-108 -216h186l108 216h37l-108 -216h78l-6 -34h-89l-100 -200h112l-8 -34h-121l-106 -216h-37l107 216h-186l-107 -216h-36l106 216h-78l7 34h89zM493 450h-186l-100 -200h186z" />
    <glyph glyph-name="dollar" unicode="$" horiz-adv-x="588" 
d="M294 -6l-9 -44h-24l10 44c-62 2 -117 17 -164 45h-53l26 128h18c3 -63 30 -109 67 -130c37 -20 70 -28 109 -28l63 286l-1 1l-36 11l-33 12c-29 12 -36 17 -59 30c-23 15 -29 26 -42 45c-17 26 -21 64 -11 109c24 119 118 202 273 203l10 44h24l-10 -45
c53 -3 100 -17 142 -44h54l-26 -128h-18c-2 57 -19 97 -50 120c-31 24 -66 37 -105 38l-59 -266l2 -1h2c32 -11 45 -16 73 -28s42 -19 63 -34c46 -32 71 -83 54 -160c-24 -121 -123 -204 -290 -208zM474 155c7 37 2 65 -16 82c-18 18 -51 35 -99 51l-61 -278
c93 7 159 60 176 145zM267 556c-15 -68 17 -94 101 -123l57 257c-83 -7 -143 -59 -158 -134z" />
    <glyph glyph-name="percent" unicode="%" horiz-adv-x="723" 
d="M149 525c11 55 34 98 68 131s73 50 116 50c88 0 132 -70 111 -181c-11 -55 -34 -99 -68 -132s-73 -49 -117 -49c-87 0 -133 70 -110 181zM228 525c-21 -113 -7 -166 34 -166s81 57 104 166c20 113 5 166 -36 166s-81 -58 -102 -166zM735 700l-559 -700h-43l559 700h43z
M608 356c87 0 131 -72 110 -181c-11 -55 -34 -99 -69 -132c-34 -33 -73 -49 -116 -49s-75 16 -96 49c-20 33 -24 77 -13 132c23 111 96 181 184 181zM502 175c-21 -113 -6 -166 35 -166s80 57 103 166c20 113 6 166 -35 166c-43 0 -82 -58 -103 -166z" />
    <glyph glyph-name="ampersand" unicode="&#x26;" horiz-adv-x="725" 
d="M501 71c-54 -51 -121 -76 -200 -76c-73 0 -128 18 -165 54c-37 37 -49 85 -37 146c12 56 38 99 81 131s78 49 135 72c-30 56 -40 109 -30 159c19 92 89 148 204 148c104 0 142 -48 127 -121c-13 -65 -66 -120 -159 -166l46 -77c54 43 92 64 113 64c12 0 30 -8 54 -23
s44 -23 59 -23c30 0 63 15 100 45l9 -12c-73 -61 -122 -93 -149 -96c-14 -48 -39 -95 -76 -142c27 -49 46 -80 57 -94c12 -14 23 -21 33 -21c14 0 33 10 58 30l6 -8c-53 -43 -104 -65 -153 -65c-51 0 -84 15 -113 75zM340 25c59 0 109 21 151 64l-147 253
c-67 -40 -108 -83 -124 -160c-23 -105 17 -157 120 -157zM408 593c-8 -43 2 -91 31 -144c85 37 140 79 152 140c13 57 -23 97 -82 97c-54 0 -88 -31 -101 -93zM516 318l86 -145c33 43 54 85 64 125c-7 2 -21 10 -44 23c-22 13 -40 20 -54 20c-13 0 -31 -8 -52 -23z" />
    <glyph glyph-name="quotesingle" unicode="'" horiz-adv-x="173" 
d="M199 490h-23c9 93 -2 158 1 169c5 27 27 45 54 45c25 0 41 -18 36 -45c-1 -5 -9 -23 -25 -56s-30 -70 -43 -113z" />
    <glyph glyph-name="parenleft" unicode="(" horiz-adv-x="278" 
d="M108 275c21 105 55 195 103 270c49 75 112 145 190 210l10 -11c-89 -129 -152 -286 -189 -469c-20 -95 -30 -179 -31 -252s9 -146 28 -217l-14 -11c-34 43 -60 86 -78 130c-36 87 -51 209 -19 350z" />
    <glyph glyph-name="parenright" unicode=")" horiz-adv-x="278" 
d="M290 275c-21 -105 -56 -196 -104 -271s-111 -144 -188 -209l-9 11c87 130 150 286 188 469c37 183 38 340 2 469l14 11c34 -42 60 -85 78 -129c36 -88 51 -210 19 -351z" />
    <glyph glyph-name="asterisk" unicode="*" horiz-adv-x="423" 
d="M316 498c-25 -32 -46 -61 -62 -88c-15 -27 -24 -41 -26 -43c-15 -16 -38 -20 -51 -8c-13 11 -12 33 3 49l40 30c26 19 54 42 84 71c-34 9 -65 14 -93 15c-27 2 -42 3 -45 4c-43 11 -5 83 34 67c4 -1 16 -10 36 -26c21 -15 46 -30 77 -44c11 79 3 139 4 144
c6 45 82 45 69 0c-2 -13 -29 -59 -54 -144c84 33 127 66 139 69c23 7 40 -3 41 -22c3 -19 -12 -39 -32 -44c-13 -5 -59 1 -146 -20c17 -28 35 -51 53 -70c19 -18 29 -28 30 -30c9 -21 3 -37 -18 -50c-17 -11 -39 -8 -47 9c-5 10 -7 56 -36 131z" />
    <glyph glyph-name="plus" unicode="+" horiz-adv-x="448" 
d="M264 283h-171l7 34h171l35 173h34l-35 -173h171l-7 -34h-171l-35 -173h-34z" />
    <glyph glyph-name="comma" unicode="," horiz-adv-x="206" 
d="M38 -119l-10 12c36 29 71 75 75 96c1 5 1 9 -1 11c-37 0 -61 26 -53 65c8 37 40 65 79 65c37 0 61 -27 52 -72c-9 -47 -57 -106 -142 -177z" />
    <glyph glyph-name="hyphen" unicode="-" horiz-adv-x="299" 
d="M318 271h-227l7 34h227z" />
    <glyph glyph-name="period" unicode="." horiz-adv-x="206" 
d="M53 63c9 39 43 67 80 67c39 0 61 -30 53 -67c-7 -39 -41 -67 -80 -67c-37 0 -60 30 -53 67z" />
    <glyph glyph-name="slash" unicode="/" horiz-adv-x="344" 
d="M495 750l-478 -850h-36l478 850h36z" />
    <glyph glyph-name="zero" unicode="0" horiz-adv-x="650" 
d="M148 350c22 108 66 194 131 259s139 97 222 97s144 -32 183 -97s47 -151 25 -259c-22 -109 -66 -195 -131 -260c-65 -64 -139 -96 -222 -96s-144 32 -183 96c-39 65 -47 151 -25 260zM280 350c-44 -231 -11 -341 80 -341c89 0 173 118 217 341c44 231 12 341 -79 341
c-89 0 -173 -118 -218 -341z" />
    <glyph glyph-name="one" unicode="1" horiz-adv-x="369" 
d="M334 0h-292l2 12l87 19l129 628h-95l3 16l212 32l12 -14l-135 -662l79 -19z" />
    <glyph glyph-name="two" unicode="2" horiz-adv-x="528" 
d="M494 0h-462l8 45l68 54l62 50c33 27 55 46 64 55l55 51c27 25 45 43 54 56l43 53c19 23 32 43 40 60c17 35 38 81 47 124c17 91 -12 141 -87 141c-25 0 -51 -8 -79 -25l-20 -99c-9 -48 -43 -77 -86 -77c-41 0 -64 26 -55 71c9 43 37 78 84 105c48 27 104 40 168 40
c148 0 221 -62 197 -178c-13 -67 -62 -137 -115 -192c-27 -27 -62 -56 -105 -89s-82 -60 -116 -82s-78 -49 -131 -82h325l59 96h17z" />
    <glyph glyph-name="three" unicode="3" horiz-adv-x="593" 
d="M341 664l-19 -94c-9 -47 -43 -76 -86 -76c-40 0 -64 27 -55 71c6 31 24 57 54 79c61 45 137 62 212 62c139 0 214 -69 191 -178c-19 -88 -89 -148 -194 -169c111 -20 170 -83 151 -179c-12 -57 -45 -102 -98 -136c-53 -33 -117 -50 -194 -50c-39 0 -76 5 -110 14
c-67 19 -118 64 -106 127c9 45 43 70 84 70c43 0 65 -29 56 -76l-19 -93c20 -15 46 -22 77 -22c88 0 159 58 182 165c23 116 -34 169 -146 169h-42l4 22h42c103 0 165 53 186 160c20 103 -16 155 -88 155c-30 0 -57 -7 -82 -21z" />
    <glyph glyph-name="four" unicode="4" horiz-adv-x="582" 
d="M529 0h-244l2 12l64 19l24 119h-300l3 15c79 107 141 202 185 283c45 82 76 166 93 252h126c-19 -95 -60 -182 -122 -263s-148 -169 -257 -266h277l46 226l133 110l11 -14l-66 -322h70l-4 -21h-70l-24 -119l55 -19z" />
    <glyph glyph-name="five" unicode="5" horiz-adv-x="554" 
d="M224 121l-18 -89c21 -15 43 -22 68 -22c83 0 144 73 169 194c25 127 -13 202 -128 202c-47 0 -89 -12 -126 -37l-9 13l92 316c147 0 263 6 350 17l-19 -98h-314l-91 -226c50 29 107 43 171 43c163 0 231 -84 203 -219c-27 -136 -136 -220 -297 -220
c-59 0 -107 11 -146 34c-38 23 -53 55 -44 97c9 45 42 71 83 71c43 0 65 -29 56 -76z" />
    <glyph glyph-name="six" unicode="6" horiz-adv-x="586" 
d="M277 375c41 32 91 48 150 48c69 0 121 -19 156 -58s46 -90 33 -155s-45 -118 -97 -157c-51 -39 -113 -58 -184 -58c-171 0 -240 121 -200 314c49 243 227 376 496 396l8 -10c-208 -41 -313 -149 -362 -320zM266 327c-36 -174 -28 -317 63 -317c73 0 136 77 161 201
c24 119 -13 191 -90 191c-53 0 -103 -28 -134 -75z" />
    <glyph glyph-name="seven" unicode="7" horiz-adv-x="545" 
d="M302 0h-126c20 99 64 189 121 268c29 39 58 76 87 110l98 116c36 44 67 85 92 123h-341l-64 -96h-17l36 179h448l-3 -15c-23 -44 -63 -116 -122 -215c-58 -99 -104 -184 -138 -257c-33 -72 -57 -143 -71 -213z" />
    <glyph glyph-name="eight" unicode="8" horiz-adv-x="576" 
d="M626 544c-15 -72 -65 -125 -150 -159c92 -41 133 -89 113 -188c-25 -123 -121 -203 -300 -203c-156 0 -220 64 -200 167c19 89 85 139 186 178c-73 35 -107 80 -87 171c23 117 109 196 266 196c136 0 193 -63 172 -162zM353 308l-25 9l-30 11c-56 -33 -89 -74 -105 -154
c-23 -109 14 -164 111 -164s163 53 182 144c10 45 2 81 -23 99c-13 12 -23 20 -46 29c-21 11 -35 15 -64 26zM410 412l30 -12c47 33 76 78 89 137c10 49 7 87 -8 113c-15 27 -43 40 -82 40s-72 -12 -99 -37c-27 -24 -44 -55 -52 -94s-3 -68 16 -88c19 -19 54 -39 106 -59z
" />
    <glyph glyph-name="nine" unicode="9" horiz-adv-x="584" 
d="M478 325c-41 -31 -90 -47 -148 -47c-139 0 -214 81 -189 209c13 66 46 119 98 158c53 40 115 60 188 60c168 0 236 -115 195 -310c-50 -248 -221 -381 -512 -399l-8 10c116 19 202 55 259 111c59 57 92 120 117 208zM490 373c21 87 27 162 18 224c-8 62 -34 93 -78 93
c-77 0 -141 -80 -166 -205c-24 -117 14 -187 91 -187c55 0 100 25 135 75z" />
    <glyph glyph-name="colon" unicode=":" horiz-adv-x="206" 
d="M53 63c9 39 43 67 80 67c39 0 61 -30 53 -67c-7 -39 -41 -67 -80 -67c-37 0 -60 30 -53 67zM131 437c7 39 40 67 79 67s61 -28 53 -67c-7 -37 -41 -67 -80 -67c-37 0 -60 28 -52 67z" />
    <glyph glyph-name="semicolon" unicode=";" horiz-adv-x="206" 
d="M38 -119l-10 12c36 29 71 75 75 96c1 5 1 9 -1 11c-37 0 -61 26 -53 65c8 37 40 65 79 65c37 0 61 -27 52 -72c-9 -47 -57 -106 -142 -177zM126 437c7 39 40 67 79 67s61 -28 53 -67c-7 -37 -41 -67 -80 -67c-37 0 -60 28 -52 67z" />
    <glyph glyph-name="less" unicode="&#x3c;" horiz-adv-x="448" 
d="M105 288l373 160l8 -31l-330 -142l271 -142l-20 -30l-307 160z" />
    <glyph glyph-name="equal" unicode="=" horiz-adv-x="448" 
d="M484 355h-375l6 34h375zM454 211h-376l8 34h375z" />
    <glyph glyph-name="greater" unicode="&#x3e;" horiz-adv-x="448" 
d="M404 275l-272 142l21 31l306 -160l-5 -25l-372 -160l-9 30z" />
    <glyph glyph-name="question" unicode="?" horiz-adv-x="510" 
d="M311 203h-24c3 76 27 133 59 169c46 52 106 96 125 186c16 77 -14 131 -82 131c-23 0 -48 -8 -74 -23l-19 -96c-11 -48 -44 -76 -87 -76c-41 0 -64 26 -55 71c8 42 35 76 82 101s101 38 162 38c144 0 218 -62 197 -167c-12 -60 -56 -109 -105 -142
c-72 -48 -160 -100 -179 -192zM339 63c-8 -39 -41 -67 -80 -67c-59 -5 -74 77 -24 115c47 42 119 10 104 -48z" />
    <glyph glyph-name="at" unicode="@" horiz-adv-x="887" 
d="M788 -41l9 -12c-85 -71 -199 -106 -340 -106c-128 0 -222 32 -282 96s-79 152 -56 264c23 109 76 195 159 258s191 94 323 94c131 0 222 -30 273 -90c52 -60 68 -140 47 -240c-29 -144 -115 -228 -244 -228c-67 0 -102 19 -106 57l-2 2c-45 -39 -93 -59 -146 -59
c-104 0 -144 81 -119 204c29 145 127 224 274 224c36 0 71 -6 106 -19l55 21l10 -14l-71 -351c-6 -28 1 -42 22 -42c47 0 92 74 115 190c44 216 -23 322 -219 322c-199 0 -331 -119 -372 -323c-21 -103 -10 -185 34 -244s125 -89 242 -89c123 0 219 28 288 85zM571 73
l65 315c-23 13 -44 20 -65 20c-73 0 -127 -68 -152 -195c-23 -108 0 -183 63 -183c31 0 60 14 89 43z" />
    <glyph glyph-name="A" unicode="A" horiz-adv-x="754" 
d="M508 700h38l143 -669l60 -19l-2 -12h-262l2 12l68 19l-40 196h-286l-124 -196l84 -19l-1 -12h-181l2 12l73 19zM510 249l-64 320l-204 -320h268z" />
    <glyph glyph-name="B" unicode="B" horiz-adv-x="662" 
d="M157 690l2 10h331c145 0 230 -67 207 -174c-17 -87 -91 -147 -195 -167c112 -20 172 -84 152 -176c-11 -57 -45 -101 -102 -134c-56 -33 -124 -49 -205 -49h-330l1 10l67 16l133 648zM282 348l-67 -326h113c99 0 172 55 195 162c23 108 -29 164 -129 164h-112zM462 678
h-113l-63 -308h112c83 0 147 53 167 154s-20 154 -103 154z" />
    <glyph glyph-name="C" unicode="C" horiz-adv-x="693" 
d="M692 108l8 -12c-79 -68 -172 -102 -279 -102c-105 0 -183 32 -232 96s-63 151 -40 260s71 195 146 259c75 65 164 97 267 97c83 0 146 -19 190 -56l54 26l7 -10l-29 -144h-17c-3 64 -30 111 -70 131c-40 21 -74 28 -113 28c-147 0 -253 -110 -297 -326
c-41 -203 16 -325 189 -325c83 0 155 26 216 78z" />
    <glyph glyph-name="D" unicode="D" horiz-adv-x="727" 
d="M157 690l2 10h326c102 0 178 -31 227 -94s63 -148 41 -256s-70 -193 -145 -256s-163 -94 -265 -94h-326l1 10l67 16l133 648zM481 678h-132l-134 -656h131c125 0 227 111 271 327c44 217 -12 329 -136 329z" />
    <glyph glyph-name="E" unicode="E" horiz-adv-x="617" 
d="M282 350l-67 -328h291l73 106h17l-25 -128h-554l1 10l67 16l133 648l-61 16l2 10h544l-26 -128h-17l-30 106h-281l-63 -306h227l39 82h17l-38 -185h-16l-6 81h-227z" />
    <glyph glyph-name="F" unicode="F" horiz-adv-x="593" 
d="M493 269l-6 81h-205l-65 -319l90 -19l-2 -12h-288l2 12l68 19l131 643l-61 16l2 10h530l-26 -128h-17l-30 106h-267l-63 -306h205l40 82h15l-37 -185h-16z" />
    <glyph glyph-name="G" unicode="G" horiz-adv-x="743" 
d="M826 327l-66 -20l-56 -274l-17 -14l-59 23c-62 -32 -130 -48 -204 -48c-107 0 -186 32 -235 95c-49 64 -63 151 -40 260s72 196 147 260c76 65 166 97 270 97c83 0 146 -19 190 -56l54 26l8 -10l-29 -144h-17c-3 64 -31 111 -72 131c-40 21 -75 28 -114 28
c-149 0 -255 -110 -300 -333c-21 -99 -18 -178 8 -238c27 -59 77 -89 152 -89c50 0 95 13 134 38l50 248l-60 20l3 12h255z" />
    <glyph glyph-name="H" unicode="H" horiz-adv-x="751" 
d="M17 0l2 12l68 19l130 637l-60 20l2 12h258l-2 -12l-68 -20l-62 -301h329l62 301l-61 20l3 12h258l-2 -12l-68 -20l-131 -637l61 -19l-2 -12h-259l2 12l68 19l65 314h-329l-64 -314l60 -19l-2 -12h-258z" />
    <glyph glyph-name="I" unicode="I" horiz-adv-x="292" 
d="M412 688l-66 -20l-130 -637l58 -19l-2 -12h-255l2 12l69 19l130 637l-60 20l2 12h254z" />
    <glyph glyph-name="J" unicode="J" horiz-adv-x="292" 
d="M86 21l133 647l-61 20l2 12h254l-3 -12l-65 -20l-133 -647c-20 -99 -93 -165 -222 -226l-10 11c54 63 89 134 105 215z" />
    <glyph glyph-name="K" unicode="K" horiz-adv-x="700" 
d="M412 688l-68 -20l-70 -344l392 344l-79 20l2 12h187l-3 -12l-76 -20l-243 -214l181 -425l56 -17l-2 -12h-182l-159 367l-81 -72l-53 -264l60 -19l-2 -12h-258l2 12l68 19l131 637l-61 20l2 12h259z" />
    <glyph glyph-name="L" unicode="L" horiz-adv-x="586" 
d="M347 668l-132 -646h257l72 106h18l-26 -128h-519l1 10l67 16l132 642l-60 20l2 12h258l-2 -12z" />
    <glyph glyph-name="M" unicode="M" horiz-adv-x="925" 
d="M1009 688l-66 -20l-86 -637l58 -19l-2 -12h-255l2 12l68 19l76 564l-372 -595h-38l-134 596l-157 -567l58 -19l-2 -10h-147l1 10l68 19l176 639l-60 20l2 12h171l122 -569l354 569h165z" />
    <glyph glyph-name="N" unicode="N" horiz-adv-x="689" 
d="M17 0l1 10l68 19l131 639l-60 20l2 12h199l264 -522l102 493l-61 19l2 10h150l-2 -10l-67 -19l-137 -671h-36l-336 657l-129 -628l60 -19l-1 -10h-150z" />
    <glyph glyph-name="O" unicode="O" horiz-adv-x="760" 
d="M148 350c22 108 70 194 145 259s163 97 263 97c101 0 175 -32 223 -97c49 -65 62 -151 40 -259c-22 -109 -71 -195 -146 -260c-75 -64 -162 -96 -262 -96s-174 32 -223 96c-49 65 -62 151 -40 260zM553 691c-120 0 -223 -118 -268 -342s8 -340 129 -340s224 116 269 340
s-9 342 -130 342z" />
    <glyph glyph-name="P" unicode="P" horiz-adv-x="627" 
d="M436 678h-87l-132 -647l97 -19l-2 -12h-295l2 12l68 19l131 643l-61 16l2 10h296c81 0 142 -18 184 -54c43 -36 58 -85 45 -147s-48 -111 -105 -147s-125 -54 -206 -54h-73l-11 15l2 7h72c93 0 165 62 189 179s-23 179 -116 179z" />
    <glyph glyph-name="Q" unicode="Q" horiz-adv-x="760" 
d="M769 -64l7 -9c-47 -39 -101 -58 -163 -58c-20 0 -40 2 -59 7c-37 8 -60 17 -93 38c-17 11 -29 19 -38 26l-37 31c-16 14 -27 24 -34 29c-83 11 -143 48 -181 110c-37 63 -46 142 -26 239c22 109 70 195 145 260s163 97 263 97c101 0 175 -32 223 -97
c49 -65 62 -151 40 -259c-18 -90 -55 -165 -111 -225s-123 -99 -201 -117c17 -7 45 -24 85 -53s74 -43 101 -43c34 0 60 8 79 24zM282 349c-45 -223 8 -333 131 -333s222 112 267 333c45 224 -9 342 -129 342c-121 0 -224 -118 -269 -342z" />
    <glyph glyph-name="R" unicode="R" horiz-adv-x="672" 
d="M684 510c-20 -96 -100 -164 -212 -181c24 -9 43 -33 57 -73l79 -227l55 -17l-2 -12h-177l-109 323h-98l-60 -292l60 -19l-2 -12h-258l2 12l68 19l131 643l-61 16l2 10h309c153 0 240 -73 216 -190zM449 678h-100l-68 -333h100c84 0 148 55 171 166s-19 167 -103 167z" />
    <glyph glyph-name="S" unicode="S" horiz-adv-x="588" 
d="M63 9l-8 10l30 148h19c3 -63 29 -109 65 -130c37 -20 72 -28 109 -28c103 0 177 55 196 146c8 44 1 73 -25 92c-15 11 -23 17 -47 26c-23 9 -35 14 -66 23l-36 11l-33 12c-29 12 -35 17 -59 30c-23 15 -29 26 -42 45c-17 26 -21 64 -11 109c23 120 120 203 275 203
c62 0 114 -15 157 -45l52 29l8 -10l-30 -147h-18c-6 132 -98 158 -157 158c-89 0 -159 -56 -175 -135c-8 -40 -3 -66 25 -87c15 -10 28 -18 41 -23s33 -13 61 -22c33 -12 44 -16 73 -28s40 -19 63 -35c47 -33 70 -79 55 -158c-25 -125 -127 -209 -300 -209
c-69 0 -125 15 -170 45z" />
    <glyph glyph-name="T" unicode="T" horiz-adv-x="672" 
d="M742 572l-29 106h-174l-132 -647l60 -19l-2 -12h-258l2 12l68 19l133 647h-174l-73 -106h-17l26 128h613l-26 -128h-17z" />
    <glyph glyph-name="U" unicode="U" horiz-adv-x="715" 
d="M864 690l-68 -19l-84 -411c-17 -82 -55 -147 -116 -195c-60 -47 -131 -71 -214 -71s-146 24 -187 72s-53 113 -36 194l83 408l-60 20l2 12h258l-2 -12l-68 -20l-83 -408c-29 -141 35 -220 152 -220c61 0 114 19 160 58s76 93 90 162l84 411l-61 19l2 10h150z" />
    <glyph glyph-name="V" unicode="V" horiz-adv-x="754" 
d="M395 0h-38l-150 668l-60 20l2 12h262l-2 -12l-68 -20l115 -537l335 537l-85 20l3 12h181l-3 -12l-73 -20z" />
    <glyph glyph-name="W" unicode="W" horiz-adv-x="1188" 
d="M839 0h-38l-107 503l-307 -503h-38l-142 668l-60 20l2 12h262l-2 -12l-68 -20l107 -537l240 399l-30 138l-60 20l2 12h263l-2 -12l-69 -20l108 -537l324 537l-84 20l3 12h181l-3 -12l-73 -20z" />
    <glyph glyph-name="X" unicode="X" horiz-adv-x="737" 
d="M466 12l69 19l-145 295l-274 -295l81 -19l-2 -12h-181l2 12l76 19l288 312l-159 325l-56 20l2 12h259l-2 -12l-69 -20l131 -271l243 271l-81 20l3 12h181l-2 -12l-77 -20l-257 -289l173 -348l56 -19l-2 -12h-259z" />
    <glyph glyph-name="Y" unicode="Y" horiz-adv-x="722" 
d="M409 688l-69 -20l137 -337l278 337l-80 20l2 12h181l-3 -12l-76 -20l-297 -362l-56 -275l57 -19l-2 -12h-256l2 12l69 19l56 275l-148 362l-57 20l2 12h262z" />
    <glyph glyph-name="Z" unicode="Z" horiz-adv-x="608" 
d="M576 0h-539l3 15l530 663h-316l-75 -106h-17l26 128h523l-3 -15l-530 -663h331l75 106h18z" />
    <glyph glyph-name="bracketleft" unicode="[" horiz-adv-x="297" 
d="M431 738l-115 -20l-182 -887l108 -19l-3 -12h-223l193 950h224z" />
    <glyph glyph-name="backslash" unicode="\" horiz-adv-x="344" 
d="M191 750l131 -850h-37l-131 850h37z" />
    <glyph glyph-name="bracketright" unicode="]" horiz-adv-x="297" 
d="M-22 -188l114 19l182 887l-108 20l3 12h224l-194 -950h-223z" />
    <glyph glyph-name="asciicircum" unicode="^" horiz-adv-x="391" 
d="M132 507l198 198h18l117 -198l-12 -11l-131 125l-181 -125z" />
    <glyph glyph-name="underscore" unicode="_" horiz-adv-x="625" 
d="M607 -84h-622l7 34h621z" />
    <glyph glyph-name="grave" unicode="`" horiz-adv-x="278" 
d="M167 641l81 67l106 -150l-13 -11z" />
    <glyph glyph-name="a" unicode="a" horiz-adv-x="585" 
d="M625 69l5 -8c-53 -44 -103 -66 -151 -66c-45 0 -71 23 -59 66l5 21l-2 3c-58 -60 -121 -90 -190 -90c-115 0 -156 95 -127 242c36 175 148 267 323 267c45 0 88 -8 127 -23l64 26l12 -14l-85 -417c-6 -25 0 -37 19 -37c15 0 34 10 59 30zM429 114l71 351
c-26 16 -52 24 -79 24c-88 0 -152 -82 -184 -234c-13 -65 -14 -118 -3 -159c12 -41 35 -61 68 -61c41 0 83 26 127 79z" />
    <glyph glyph-name="b" unicode="b" horiz-adv-x="584" 
d="M149 180l103 504l-56 13l2 13l174 17l11 -14l-43 -213l-20 -83l2 -3c57 57 119 85 187 85c116 0 158 -94 129 -235c-36 -175 -151 -269 -311 -269c-143 0 -203 62 -178 185zM330 10c80 0 146 88 178 241c13 61 14 111 3 152s-33 61 -66 61c-42 0 -85 -26 -129 -79
l-49 -240c-20 -97 2 -135 63 -135z" />
    <glyph glyph-name="c" unicode="c" horiz-adv-x="548" 
d="M461 378l19 89c-21 15 -43 22 -66 22c-81 0 -144 -84 -172 -220c-31 -152 7 -240 127 -240c55 0 106 20 154 60l9 -12c-67 -55 -140 -82 -221 -82c-163 0 -232 98 -200 254c32 159 142 255 305 255c98 0 204 -41 185 -131c-9 -45 -43 -71 -84 -71c-43 0 -65 28 -56 76z
" />
    <glyph glyph-name="d" unicode="d" horiz-adv-x="585" 
d="M626 69l5 -8c-53 -44 -103 -66 -151 -66c-44 0 -69 23 -61 66l8 27l-2 3c-59 -64 -122 -96 -189 -96c-116 0 -159 95 -128 243c33 169 141 266 296 266c37 0 70 -8 101 -24l41 204l-56 13l2 13l174 17l11 -14l-129 -637c-6 -25 0 -37 19 -37c15 0 34 10 59 30zM430 114
l72 351c-27 16 -54 24 -80 24c-88 0 -152 -82 -184 -234c-27 -129 -3 -220 62 -220c43 0 86 26 130 79z" />
    <glyph glyph-name="e" unicode="e" horiz-adv-x="534" 
d="M238 250c-30 -147 16 -220 137 -220c56 0 108 20 155 59l9 -12c-67 -55 -141 -82 -223 -82c-167 0 -237 100 -206 252c16 79 52 142 108 188s126 69 211 69c113 0 180 -43 161 -134c-7 -35 -21 -57 -68 -82s-143 -38 -284 -38zM413 489c-68 0 -137 -72 -172 -224
c151 0 218 29 234 112c13 63 -7 112 -62 112z" />
    <glyph glyph-name="f" unicode="f" horiz-adv-x="383" 
d="M14 -137l-9 -47c37 0 65 61 96 205l94 457h-74l2 10l77 19l12 60c22 105 95 157 220 157c41 0 74 -7 100 -22c27 -15 37 -37 30 -68c-7 -35 -34 -58 -67 -58c-39 0 -61 28 -52 73l11 53c-9 5 -17 7 -24 7c-40 0 -75 -54 -92 -142l-14 -67h158l-4 -22h-158l-94 -457
c-31 -145 -113 -226 -236 -226c-72 0 -102 29 -94 73c8 36 38 61 71 61c35 0 54 -26 47 -66z" />
    <glyph glyph-name="g" unicode="g" horiz-adv-x="559" 
d="M622 488l-73 -21h-40c43 -30 58 -72 47 -126c-10 -49 -38 -87 -83 -116s-99 -43 -163 -43c-52 0 -94 9 -126 28c-22 -21 -35 -42 -38 -62c-7 -35 13 -52 61 -52h165c119 0 164 -45 145 -130c-22 -113 -127 -169 -315 -169c-131 0 -199 29 -187 88c7 39 45 74 114 105
c-44 15 -61 48 -50 101c9 48 37 80 94 127c-40 29 -55 70 -44 123c10 49 38 88 83 117s100 44 163 44c8 0 20 -1 36 -2h213zM364 -18h-174c-12 0 -21 0 -26 1c-28 -27 -44 -53 -48 -77c-13 -67 27 -92 115 -92c111 0 190 39 203 102c9 39 -11 66 -70 66zM247 342
c-20 -96 7 -145 66 -145s106 50 125 145c20 95 -7 145 -66 145c-57 0 -106 -50 -125 -145z" />
    <glyph glyph-name="h" unicode="h" horiz-adv-x="605" 
d="M622 69l6 -8c-53 -44 -104 -66 -153 -66c-44 0 -68 23 -59 66l51 251c21 101 4 152 -51 152c-37 0 -95 -33 -138 -84l-77 -380h-110l-13 15l137 669l-56 13l2 13l174 17l11 -14l-43 -213l-21 -89l2 -3c57 60 137 96 200 96c97 0 133 -67 112 -174l-52 -254
c-5 -25 2 -37 20 -37c14 0 33 10 58 30z" />
    <glyph glyph-name="i" unicode="i" horiz-adv-x="277" 
d="M84 431l-6 8c53 44 103 66 152 66c44 0 69 -23 60 -66l-74 -363c-5 -25 2 -37 21 -37c15 0 34 10 57 30l6 -8c-48 -40 -108 -66 -151 -66c-44 0 -70 23 -61 66l74 363c6 25 -1 37 -20 37c-14 0 -33 -10 -58 -30zM278 719c47 0 73 -32 64 -79c-10 -72 -112 -106 -148 -57
c-40 46 15 142 84 136z" />
    <glyph glyph-name="j" unicode="j" horiz-adv-x="278" 
d="M-1 -137l-9 -47c37 0 65 61 96 205l82 403c6 25 0 37 -19 37c-15 0 -34 -10 -59 -30l-6 8c53 44 104 66 153 66c43 0 68 -23 59 -66l-85 -418c-31 -145 -113 -226 -236 -226c-72 0 -102 29 -94 73c8 36 38 61 71 61c36 0 55 -26 47 -66zM284 719c47 0 73 -32 64 -79
c-10 -72 -112 -106 -148 -57c-40 46 15 142 84 136z" />
    <glyph glyph-name="k" unicode="k" horiz-adv-x="557" 
d="M335 727l11 -14l-145 -713h-110l-13 15l137 669l-56 13l2 13zM470 437l7 36c-36 -9 -82 -51 -138 -127l130 -272c11 -23 27 -35 46 -35c15 0 34 10 57 30l7 -8c-43 -35 -102 -65 -143 -65s-73 24 -94 72l-81 174c1 1 8 15 23 40s29 48 44 69c44 65 124 159 196 153
c45 0 77 -29 68 -73c-7 -36 -38 -61 -74 -61c-39 0 -57 26 -48 67z" />
    <glyph glyph-name="l" unicode="l" horiz-adv-x="277" 
d="M301 69l6 -8c-53 -44 -103 -66 -152 -66c-44 0 -69 23 -60 66l127 623l-56 13l2 13l174 17l11 -14l-130 -637c-5 -25 2 -37 20 -37c14 0 33 10 58 30z" />
    <glyph glyph-name="m" unicode="m" horiz-adv-x="875" 
d="M84 431l-6 8c53 44 103 66 152 66c44 0 69 -23 60 -66l-9 -30l2 -3c55 64 128 98 185 98c61 0 95 -33 104 -100c59 63 135 100 195 100c91 0 122 -67 99 -174l-52 -254c-5 -25 2 -37 20 -37c14 0 33 10 58 30l6 -8c-53 -44 -103 -66 -152 -66c-44 0 -69 23 -60 66l51 251
c21 101 6 152 -45 152c-32 0 -81 -30 -121 -81c1 -17 0 -35 -4 -53l-67 -330h-111l-12 15l61 297c21 101 7 152 -41 152c-35 0 -82 -34 -119 -87l-77 -377h-110l-13 15l84 409c6 25 -1 37 -20 37c-14 0 -33 -10 -58 -30z" />
    <glyph glyph-name="n" unicode="n" horiz-adv-x="605" 
d="M84 431l-6 8c53 44 103 66 152 66c44 0 69 -23 60 -66l-8 -28l2 -3c57 61 137 96 201 96c97 0 132 -69 111 -174l-52 -254c-5 -25 2 -37 20 -37c14 0 33 10 58 30l6 -8c-53 -44 -104 -66 -153 -66c-43 0 -68 23 -59 66l51 251c10 41 11 77 2 107c-8 30 -27 45 -56 45
c-40 0 -94 -33 -135 -84l-77 -380h-110l-13 15l84 409c6 25 -1 37 -20 37c-14 0 -33 -10 -58 -30z" />
    <glyph glyph-name="o" unicode="o" horiz-adv-x="579" 
d="M111 249c15 77 51 138 107 185c57 47 123 70 198 70s131 -23 168 -70s48 -108 32 -185c-15 -77 -51 -139 -107 -185s-122 -69 -197 -69s-132 23 -169 69s-48 108 -32 185zM238 249c-29 -161 1 -239 77 -239c77 0 143 83 174 239c31 161 0 240 -76 240
c-77 0 -143 -83 -175 -240z" />
    <glyph glyph-name="p" unicode="p" horiz-adv-x="584" 
d="M249 -200h-273l3 12l62 19l121 593c6 25 -1 37 -20 37c-14 0 -33 -10 -58 -30l-6 8c53 44 103 66 152 66c44 0 69 -23 60 -66l-7 -22l2 -3c57 60 119 90 188 90c116 0 158 -95 127 -243c-33 -169 -141 -266 -293 -266c-43 0 -77 8 -102 24l-39 -188l85 -19zM279 385
l-71 -351c26 -16 52 -24 79 -24c88 0 152 82 183 234c27 129 4 220 -61 220c-43 0 -87 -26 -130 -79z" />
    <glyph glyph-name="q" unicode="q" 
d="M632 493l-136 -662l56 -19l-2 -12h-244l2 12l63 19l35 169l19 82l-2 3c-58 -60 -121 -90 -190 -90c-115 0 -156 95 -127 242c36 175 148 267 323 267c45 0 88 -8 127 -23l64 26zM429 114l71 351c-26 16 -52 24 -79 24c-88 0 -152 -82 -184 -234c-13 -65 -14 -118 -3 -159
c12 -41 35 -61 68 -61c41 0 83 26 127 79z" />
    <glyph glyph-name="r" unicode="r" horiz-adv-x="489" 
d="M84 431l-6 8c53 44 103 66 152 66c44 0 69 -23 60 -66l-12 -45l2 -3c3 7 7 14 27 39c27 37 70 72 127 74c65 0 113 -43 98 -112c-9 -49 -41 -75 -84 -75c-44 0 -65 29 -56 77l15 75c-4 2 -8 3 -13 3c-19 0 -38 -10 -59 -31c-20 -21 -36 -41 -47 -61l-16 -31l-71 -349
h-110l-13 15l84 409c6 25 -1 37 -20 37c-14 0 -33 -10 -58 -30z" />
    <glyph glyph-name="s" unicode="s" horiz-adv-x="468" 
d="M394 415l13 57c-19 11 -41 17 -64 17c-64 0 -110 -36 -119 -85c-11 -49 17 -67 88 -92c60 -23 100 -42 119 -57c34 -28 46 -66 36 -113c-19 -91 -93 -147 -234 -147c-112 0 -173 36 -160 99c8 37 35 58 67 58c36 0 53 -25 44 -68l-11 -57c17 -11 39 -17 66 -17
c71 0 124 35 135 90c11 52 -22 74 -102 102c-29 10 -51 18 -66 24c-14 7 -29 16 -46 28c-32 24 -39 56 -30 103c19 89 89 147 222 147c105 0 166 -35 154 -99c-8 -37 -36 -58 -68 -58c-35 0 -52 25 -44 68z" />
    <glyph glyph-name="t" unicode="t" horiz-adv-x="393" 
d="M186 478h-60l2 10c73 17 139 61 196 131l12 -15l-21 -104h159l-4 -22h-159l-71 -345c-15 -69 5 -103 58 -103c30 0 58 11 85 34l10 -11c-47 -39 -99 -58 -156 -58c-97 0 -139 55 -123 138z" />
    <glyph glyph-name="u" unicode="u" horiz-adv-x="600" 
d="M84 431l-6 8c53 44 103 66 152 66c44 0 69 -23 60 -66l-55 -270c-19 -75 -2 -134 51 -134c47 0 92 28 137 84l78 381h110l12 -15l-84 -409c-5 -25 2 -37 20 -37c14 0 33 10 58 30l6 -8c-53 -44 -103 -66 -152 -66c-44 0 -69 23 -60 66l8 26l-2 4
c-59 -64 -124 -96 -195 -96c-95 0 -135 63 -116 155l56 274c6 25 -1 37 -20 37c-14 0 -33 -10 -58 -30z" />
    <glyph glyph-name="v" unicode="v" horiz-adv-x="582" 
d="M322 0h-40l-102 426c-5 23 -18 35 -37 35c-15 0 -35 -10 -59 -30l-6 8c53 44 103 66 148 66c41 0 64 -20 76 -73l79 -358c15 17 33 38 54 64c22 26 52 66 91 121s61 95 66 119h-38c-40 0 -62 26 -55 63c7 36 38 62 75 62c41 0 65 -35 54 -88c-6 -29 -21 -62 -44 -101
s-49 -76 -78 -111c-57 -71 -117 -138 -156 -175z" />
    <glyph glyph-name="w" unicode="w" horiz-adv-x="905" 
d="M655 0h-39l-65 274c-27 -39 -59 -81 -97 -127c-38 -45 -69 -81 -94 -107l-38 -40h-40l-102 426c-5 23 -18 35 -37 35c-15 0 -35 -10 -59 -30l-6 8c53 44 103 66 148 66c41 0 64 -20 76 -73l78 -357c72 88 127 162 166 223l-32 128c-6 23 -19 35 -38 35
c-15 0 -34 -10 -59 -30l-6 8c53 44 103 66 149 66c41 0 64 -20 76 -73l77 -357c11 12 22 26 66 82c22 29 42 55 59 79c17 25 34 51 49 78c16 27 25 49 28 64h-38c-41 0 -62 26 -54 63c7 36 37 62 74 62c41 0 65 -35 53 -88c-6 -29 -20 -62 -43 -101
c-22 -39 -47 -76 -75 -111c-55 -71 -113 -138 -150 -175z" />
    <glyph glyph-name="x" unicode="x" horiz-adv-x="563" 
d="M163 61l-6 -29c43 15 91 80 146 196l-84 196c-11 25 -24 37 -40 37c-15 0 -34 -10 -57 -30l-6 8c51 44 93 66 128 66c43 0 74 -22 93 -66l48 -114c59 119 122 179 190 179c44 0 71 -29 62 -74c-7 -36 -38 -60 -74 -60c-37 0 -57 27 -48 67l6 30
c-41 -14 -83 -68 -127 -162l99 -229c10 -25 23 -37 39 -37c15 0 33 10 56 30l6 -8c-52 -44 -95 -66 -129 -66c-41 0 -71 22 -90 66l-64 148c-21 -48 -45 -90 -81 -137s-82 -77 -127 -77c-44 0 -71 28 -62 73c7 36 38 61 74 61c37 0 57 -27 48 -68z" />
    <glyph glyph-name="y" unicode="y" horiz-adv-x="582" 
d="M112 -129l-7 -35c2 -3 5 -4 10 -4c11 0 35 14 71 43s72 63 109 102l-108 449c-5 23 -17 35 -36 35c-17 0 -37 -10 -60 -30l-6 8c53 44 103 66 148 66c40 0 65 -24 76 -73l80 -366c15 17 33 39 54 66c22 27 52 69 90 125c39 57 61 97 66 121h-38c-40 0 -62 26 -55 63
c7 36 38 62 75 62c41 0 64 -34 55 -86c-9 -41 -37 -98 -86 -169s-103 -140 -163 -206c-60 -65 -121 -122 -184 -171c-62 -49 -109 -73 -142 -73c-36 0 -73 22 -64 74c8 39 33 60 68 60c36 0 55 -24 47 -61z" />
    <glyph glyph-name="z" unicode="z" horiz-adv-x="492" 
d="M114 359l-10 12c58 49 102 84 132 104c31 20 54 30 71 30c43 0 96 -20 137 -20c49 0 84 8 103 23l10 -12l-382 -385l2 -3c25 11 47 16 64 16c15 0 37 -6 65 -18s50 -18 67 -18c40 0 86 22 139 66l10 -12c-121 -101 -201 -152 -241 -152c-11 0 -30 6 -55 18
c-25 13 -50 19 -75 19c-40 0 -93 -16 -117 -36l-10 12l385 386l-2 4c-18 -7 -38 -11 -59 -11c-15 0 -37 4 -64 12c-27 9 -49 13 -67 13c-31 0 -65 -16 -103 -48z" />
    <glyph glyph-name="braceleft" unicode="{" horiz-adv-x="365" 
d="M153 275c84 -27 122 -114 97 -235c-31 -156 -12 -230 41 -230l-3 -15c-61 0 -107 22 -136 66s-35 103 -20 177c29 155 11 229 -42 229l4 16c53 0 103 78 134 229c15 74 46 133 93 177s102 66 163 66l-3 -15c-53 0 -104 -79 -135 -230c-24 -123 -98 -208 -193 -235z" />
    <glyph glyph-name="bar" unicode="|" horiz-adv-x="186" 
d="M262 750l-193 -950h-34l194 950h33z" />
    <glyph glyph-name="braceright" unicode="}" horiz-adv-x="365" 
d="M326 275c-85 27 -123 112 -98 235c31 156 12 230 -41 230l3 15c61 0 106 -22 135 -66s36 -103 21 -177c-29 -155 -11 -229 42 -229l-4 -16c-53 0 -103 -78 -134 -229c-15 -74 -46 -133 -93 -177s-101 -66 -162 -66l3 15c53 0 103 78 134 230c25 121 98 208 194 235z" />
    <glyph glyph-name="asciitilde" unicode="~" horiz-adv-x="479" 
d="M90 237l-11 13c51 43 90 72 116 88s47 24 64 24c15 0 37 -9 64 -26s50 -25 68 -25c39 0 79 17 121 52l10 -12c-93 -77 -155 -115 -187 -115c-13 0 -34 9 -63 26c-28 17 -51 26 -70 26c-36 0 -73 -17 -112 -51z" />
    <glyph glyph-name="exclamdown" unicode="&#xa1;" horiz-adv-x="220" 
d="M205 500h25c-17 -129 -30 -235 -37 -318s-11 -138 -12 -164c0 -26 -1 -43 -3 -51c-8 -41 -43 -71 -84 -71c-40 0 -64 30 -56 71c1 9 7 26 17 52c20 52 78 225 150 481zM178 630c7 37 42 67 79 67c39 0 61 -28 54 -67c-8 -39 -42 -67 -81 -67c-37 0 -60 30 -52 67z" />
    <glyph glyph-name="cent" unicode="&#xa2;" horiz-adv-x="554" 
d="M313 -5l-9 -45h-24l9 46c-148 7 -210 104 -179 253c31 151 131 245 282 254l10 47h24l-10 -46h2c103 2 204 -43 187 -131c-9 -45 -43 -71 -84 -71c-43 0 -65 28 -56 76l18 89c-21 15 -44 22 -68 22h-2l-92 -455c12 -3 28 -5 47 -5c55 0 106 20 154 60l9 -12
c-65 -54 -138 -81 -218 -82zM236 269c-25 -123 -4 -199 63 -228l90 445c-72 -15 -128 -96 -153 -217z" />
    <glyph glyph-name="sterling" unicode="&#xa3;" 
d="M146 342h-60l1 10l63 12l24 114c28 140 129 226 278 226c54 0 100 -11 137 -34s52 -55 43 -97c-9 -45 -43 -71 -84 -71c-44 0 -64 28 -55 76l17 89c-17 15 -36 22 -57 22c-71 0 -127 -72 -151 -191l-27 -134h193l-4 -22h-193c-18 -85 -54 -170 -109 -254
c30 16 57 24 80 24c19 0 46 -9 81 -26s64 -25 87 -25c49 0 99 17 152 52l10 -11c-111 -77 -186 -115 -227 -115c-18 0 -46 8 -83 25s-67 26 -91 26c-44 0 -91 -17 -141 -50l-9 12c23 16 44 30 63 42z" />
    <glyph glyph-name="currency" unicode="&#xa4;" horiz-adv-x="503" 
d="M146 300c9 43 27 80 56 109l-55 71l29 24l55 -70c34 25 73 37 117 37c43 0 77 -12 101 -36l83 69l19 -24l-82 -69c17 -31 21 -68 12 -111c-9 -45 -29 -82 -59 -111l56 -69l-29 -24l-55 70c-35 -23 -73 -35 -116 -35c-44 0 -78 12 -101 36l-84 -71l-20 24l86 71
c-18 29 -22 66 -13 109zM184 300c-16 -77 25 -131 101 -131c79 0 142 54 158 131c17 80 -24 134 -103 134c-77 0 -140 -54 -156 -134z" />
    <glyph glyph-name="yen" unicode="&#xa5;" horiz-adv-x="722" 
d="M337 235h-122l7 34h122l8 37l-148 362l-57 20l2 12h262l-2 -12l-69 -20l137 -337l278 337l-80 20l2 12h181l-3 -12l-76 -20l-297 -362l-8 -37h123l-6 -34h-124l-17 -86h123l-7 -34h-123l-17 -84l57 -19l-2 -12h-256l2 12l69 19l17 84h-123l7 34h123z" />
    <glyph glyph-name="brokenbar" unicode="&#xa6;" horiz-adv-x="186" 
d="M229 750h33l-86 -425h-34zM155 225l-86 -425h-34l86 425h34z" />
    <glyph glyph-name="section" unicode="&#xa7;" horiz-adv-x="510" 
d="M188 439c-30 27 -40 61 -31 102c20 100 117 163 260 163c60 0 108 -13 144 -38s50 -59 42 -101c-9 -45 -44 -71 -85 -71c-43 0 -64 29 -55 76l19 96c-19 15 -40 23 -63 23c-35 0 -66 -12 -91 -37s-41 -54 -48 -87c-13 -64 28 -108 85 -132c83 -35 193 -64 172 -163
c-8 -37 -31 -74 -68 -110c31 -27 41 -61 32 -102c-19 -100 -120 -163 -264 -163c-61 0 -109 13 -145 38s-50 59 -42 101c9 45 43 71 84 71c43 0 65 -29 56 -76l-19 -96c19 -15 41 -23 64 -23c36 0 67 13 94 38s43 54 50 87c34 175 -295 122 -261 290c9 43 33 81 70 114z
M454 172c11 17 19 34 22 51c5 25 -2 48 -21 68s-42 35 -69 46l-98 41c-37 17 -66 33 -86 48c-12 -18 -20 -36 -23 -55c-5 -25 2 -47 21 -67c19 -19 43 -34 70 -45s60 -24 97 -40c38 -16 67 -32 87 -47z" />
    <glyph glyph-name="dieresis" unicode="&#xa8;" horiz-adv-x="277" 
d="M89 623c9 41 44 71 84 71s65 -30 56 -71c-8 -40 -43 -70 -84 -70c-40 0 -64 30 -56 70zM314 623c8 41 43 71 84 71c40 0 64 -30 56 -71c-8 -40 -44 -70 -84 -70c-41 0 -64 30 -56 70z" />
    <glyph glyph-name="copyright" unicode="&#xa9;" horiz-adv-x="792" 
d="M143 350c20 98 72 182 155 251s174 104 272 104s175 -35 230 -104s73 -153 53 -251c-21 -98 -73 -182 -156 -251s-174 -104 -272 -104s-175 35 -230 104s-73 153 -52 251zM184 350c-18 -87 -3 -161 46 -222s116 -92 203 -92s168 31 242 92s120 135 137 222
c18 87 2 161 -47 222s-116 92 -203 92s-167 -31 -241 -92s-120 -135 -137 -222zM605 230l4 -6c-40 -35 -87 -52 -141 -52c-107 0 -160 69 -139 178s105 178 209 178c42 0 74 -9 95 -26l29 13l4 -5l-15 -74h-8c-3 53 -34 79 -92 79c-74 0 -122 -54 -145 -161
c-21 -108 10 -162 93 -162c41 0 76 13 106 38z" />
    <glyph glyph-name="ordfeminine" unicode="&#xaa;" horiz-adv-x="305" 
d="M413 485l3 -4c-26 -22 -52 -33 -79 -33c-25 0 -40 12 -33 33l3 10l-2 1c-28 -29 -59 -44 -92 -44c-57 0 -79 48 -63 121c19 89 73 133 164 133c21 0 41 -4 62 -11l35 13l6 -8l-43 -206c-2 -13 2 -19 11 -19c7 0 17 5 28 14zM308 506l36 177c-11 7 -23 11 -36 11
c-41 0 -70 -39 -85 -116c-13 -63 -4 -108 27 -108c19 0 39 12 58 36z" />
    <glyph glyph-name="guillemotleft" unicode="&#xab;" horiz-adv-x="410" 
d="M225 115l-138 156l4 18l201 155l8 -10l-127 -154l64 -154zM381 115l-138 156l4 18l200 155l9 -10l-127 -154l64 -154z" />
    <glyph glyph-name="logicalnot" unicode="&#xac;" horiz-adv-x="497" 
d="M495 333h-391l6 34h425l-27 -134h-33z" />
    <glyph glyph-name="uni00AD" unicode="&#xad;" horiz-adv-x="299" 
d="M321 283h-228l7 34h227z" />
    <glyph glyph-name="registered" unicode="&#xae;" horiz-adv-x="792" 
d="M143 350c20 98 72 182 155 251s174 104 272 104s175 -35 230 -104s73 -153 53 -251c-21 -98 -73 -182 -156 -251s-174 -104 -272 -104s-175 35 -230 104s-73 153 -52 251zM184 350c-18 -87 -3 -161 46 -222s116 -92 203 -92s168 31 242 92s120 135 137 222
c18 87 2 161 -47 222s-116 92 -203 92s-167 -31 -241 -92s-120 -135 -137 -222zM653 440c-11 -47 -49 -81 -106 -90c14 -5 24 -17 30 -37l39 -112l28 -9l-1 -7h-96l-54 161h-45l-30 -144l31 -10l-1 -7h-138l1 7l35 10l65 319l-31 9l1 5h160c79 0 124 -36 112 -95zM531 523
h-47l-34 -165h47c40 0 71 27 83 83c12 55 -9 82 -49 82z" />
    <glyph glyph-name="overscore" unicode="&#xaf;" horiz-adv-x="299" 
d="M398 593h-255l7 34h254z" />
    <glyph glyph-name="degree" unicode="&#xb0;" horiz-adv-x="253" 
d="M165 608c11 57 57 97 113 97c57 0 88 -38 77 -97c-12 -56 -59 -96 -116 -96c-56 0 -86 40 -74 96zM206 608c-8 -36 8 -60 40 -60c33 0 61 24 68 60s-10 61 -43 61c-32 0 -58 -25 -65 -61z" />
    <glyph glyph-name="plusminus" unicode="&#xb1;" horiz-adv-x="448" 
d="M275 333h-171l6 34h171l35 173h34l-35 -173h171l-7 -34h-171l-35 -173h-34zM421 50h-375l6 34h376z" />
    <glyph glyph-name="twosuperior" unicode="&#xb2;" horiz-adv-x="276" 
d="M325 350h-234l4 25c35 28 61 49 76 62c16 13 36 32 59 55c48 47 69 86 78 133c9 46 -3 69 -38 69c-12 0 -24 -4 -35 -11l-10 -49c-6 -28 -22 -42 -48 -42c-24 0 -34 13 -30 38c9 44 65 72 129 72c76 0 113 -32 101 -89c-8 -40 -34 -77 -83 -116c-24 -19 -47 -36 -68 -50
s-48 -31 -83 -52h161l32 49h8z" />
    <glyph glyph-name="threesuperior" unicode="&#xb3;" horiz-adv-x="309" 
d="M253 683l-10 -48c-5 -28 -21 -42 -46 -42c-23 0 -35 15 -30 39c5 23 22 41 49 53c28 12 57 18 88 18c71 0 108 -34 97 -89c-9 -45 -42 -74 -97 -85c56 -9 85 -41 76 -89c-12 -57 -71 -93 -148 -93c-32 0 -60 6 -84 18c-23 12 -33 30 -28 53c6 25 21 38 46 38
c23 0 35 -16 30 -41l-10 -48c11 -7 22 -10 35 -10c41 0 76 30 88 83c11 56 -12 84 -70 84h-22l2 11h22c49 0 79 27 90 80c11 52 -7 77 -40 77c-14 0 -27 -3 -38 -9z" />
    <glyph glyph-name="acute" unicode="&#xb4;" horiz-adv-x="278" 
d="M159 547l-9 11l168 150l53 -67z" />
    <glyph glyph-name="mu" unicode="&#xb5;" horiz-adv-x="612" 
d="M61 -97l114 561l-56 13l3 13l173 17l12 -14l-67 -324c-17 -80 1 -134 64 -134c46 0 89 19 130 58l76 371l-56 13l3 13l173 17l11 -14l-93 -457l56 -14l-3 -13l-172 -12l-12 14l15 56l-3 3c-54 -50 -114 -75 -179 -75c-42 0 -72 14 -90 41c4 -83 17 -124 12 -133
c-7 -35 -34 -57 -67 -57c-32 0 -51 24 -44 57z" />
    <glyph glyph-name="paragraph" unicode="&#xb6;" horiz-adv-x="496" 
d="M370 53l32 155c-87 0 -153 22 -198 66c-45 45 -59 105 -43 180c15 75 54 135 117 179c63 45 138 67 225 67h143l-2 -12l-64 -20l-126 -615c-23 -113 -98 -189 -226 -258l-10 11c89 73 132 146 152 247z" />
    <glyph glyph-name="middot" unicode="&#xb7;" horiz-adv-x="206" 
d="M102 300c8 39 41 67 80 67s61 -28 53 -67s-43 -67 -80 -67s-60 28 -53 67z" />
    <glyph glyph-name="cedilla" unicode="&#xb8;" horiz-adv-x="183" 
d="M1 -113l87 113h18l-37 -49c57 0 83 -16 77 -47c-6 -32 -48 -78 -126 -138l-6 8c35 27 54 54 59 79s-11 34 -72 34z" />
    <glyph glyph-name="onesuperior" unicode="&#xb9;" horiz-adv-x="199" 
d="M250 350h-154l1 7l44 10l63 311h-46l1 9l113 17l6 -8l-67 -329l40 -10z" />
    <glyph glyph-name="ordmasculine" unicode="&#xba;" horiz-adv-x="300" 
d="M151 575c16 76 78 127 154 127s117 -50 101 -127s-77 -127 -153 -127s-118 50 -102 127zM222 575c-15 -80 -5 -120 32 -120c38 0 65 40 82 120c16 81 3 120 -33 120c-37 0 -64 -40 -81 -120z" />
    <glyph glyph-name="guillemotright" unicode="&#xbb;" horiz-adv-x="410" 
d="M299 444l137 -155l-3 -18l-201 -156l-9 11l127 154l-64 154zM143 444l137 -155l-4 -18l-200 -156l-8 11l126 154l-63 154z" />
    <glyph glyph-name="onequarter" unicode="&#xbc;" horiz-adv-x="584" 
d="M552 0h-130l1 7l32 10l12 58h-148l2 7c77 107 124 196 139 268h70c-20 -95 -83 -168 -195 -264h135l22 106l74 62l6 -8l-33 -160h35l-2 -11h-35l-12 -58l28 -10zM250 350h-154l1 7l44 10l63 311h-46l1 9l113 17l6 -8l-67 -329l40 -10zM598 700l-448 -700h-36l447 700h37z
" />
    <glyph glyph-name="onehalf" unicode="&#xbd;" horiz-adv-x="624" 
d="M250 350h-154l1 7l44 10l63 311h-46l1 9l113 17l6 -8l-67 -329l40 -10zM598 700l-448 -700h-36l447 700h37zM598 0h-235l4 25c35 28 61 49 76 62c16 13 36 32 59 55c48 47 69 86 78 133c9 44 -3 69 -38 69c-11 0 -23 -4 -35 -11l-10 -49c-6 -28 -22 -42 -48 -42
c-21 0 -34 14 -29 38c9 44 64 72 128 72c76 0 113 -32 101 -89c-8 -40 -34 -77 -83 -116c-24 -19 -47 -36 -68 -50s-48 -31 -83 -52h162l31 49h8z" />
    <glyph glyph-name="threequarters" unicode="&#xbe;" horiz-adv-x="659" 
d="M253 683l-10 -48c-5 -28 -21 -42 -46 -42c-23 0 -35 15 -30 39c5 23 22 41 49 53c28 12 57 18 88 18c71 0 108 -34 97 -89c-9 -45 -42 -74 -97 -85c56 -9 85 -41 76 -89c-12 -57 -71 -93 -148 -93c-32 0 -60 6 -84 18c-23 12 -33 30 -28 53c6 25 21 38 46 38
c23 0 35 -16 30 -41l-10 -48c11 -7 22 -10 35 -10c41 0 76 30 88 83c11 56 -12 84 -70 84h-22l2 11h22c49 0 79 27 90 80c11 52 -7 77 -40 77c-14 0 -27 -3 -38 -9zM632 0h-130l1 7l32 10l12 58h-148l2 7c77 107 123 196 138 268h70c-20 -95 -81 -168 -194 -264h134l22 106
l75 62l6 -8l-33 -160h35l-3 -11h-34l-12 -58l28 -10zM677 700l-448 -700h-36l447 700h37z" />
    <glyph glyph-name="questiondown" unicode="&#xbf;" horiz-adv-x="510" 
d="M369 500h24c-7 -92 -34 -161 -67 -205c-48 -61 -110 -117 -133 -226c-20 -93 9 -158 78 -158c23 0 47 8 73 23l19 96c9 48 43 76 86 76c41 0 65 -26 56 -71c-8 -42 -36 -76 -83 -101s-101 -38 -161 -38c-145 0 -217 76 -190 201c39 196 253 194 298 403zM471 630
c-7 -37 -41 -67 -80 -67c-37 0 -60 28 -52 67c7 39 42 67 79 67c39 0 61 -28 53 -67z" />
    <glyph glyph-name="Agrave" unicode="&#xc0;" horiz-adv-x="754" 
d="M508 700h38l143 -669l60 -19l-2 -12h-262l2 12l68 19l-40 196h-286l-124 -196l84 -19l-1 -12h-181l2 12l73 19zM510 249l-64 320l-204 -320h268zM429 824l79 68l107 -150l-12 -11z" />
    <glyph glyph-name="Aacute" unicode="&#xc1;" horiz-adv-x="754" 
d="M508 700h38l143 -669l60 -19l-2 -12h-262l2 12l68 19l-40 196h-286l-124 -196l84 -19l-1 -12h-181l2 12l73 19zM510 249l-64 320l-204 -320h268zM459 731l-8 11l167 150l54 -68z" />
    <glyph glyph-name="Acircumflex" unicode="&#xc2;" horiz-adv-x="754" 
d="M508 700h38l143 -669l60 -19l-2 -12h-262l2 12l68 19l-40 196h-286l-124 -196l84 -19l-1 -12h-181l2 12l73 19zM510 249l-64 320l-204 -320h268zM389 742l165 150h18l103 -150l-12 -11l-117 76l-148 -76z" />
    <glyph glyph-name="Atilde" unicode="&#xc3;" horiz-adv-x="754" 
d="M508 700h38l143 -669l60 -19l-2 -12h-262l2 12l68 19l-40 196h-286l-124 -196l84 -19l-1 -12h-181l2 12l73 19zM510 249l-64 320l-204 -320h268zM374 758l-11 12c87 72 124 95 151 95c13 0 30 -8 52 -23c23 -15 42 -23 57 -23c30 0 63 15 100 45l9 -12
c-75 -65 -127 -97 -155 -97c-11 0 -29 8 -52 23s-43 23 -59 23c-27 0 -57 -14 -92 -43z" />
    <glyph glyph-name="Adieresis" unicode="&#xc4;" horiz-adv-x="754" 
d="M508 700h38l143 -669l60 -19l-2 -12h-262l2 12l68 19l-40 196h-286l-124 -196l84 -19l-1 -12h-181l2 12l73 19zM510 249l-64 320l-204 -320h268zM364 807c8 41 43 70 83 70c41 0 65 -29 56 -70c-8 -40 -43 -70 -84 -70c-40 0 -63 30 -55 70zM588 807c8 41 44 70 84 70
s65 -30 56 -70c-8 -40 -44 -70 -84 -70c-41 0 -64 30 -56 70z" />
    <glyph glyph-name="Aring" unicode="&#xc5;" horiz-adv-x="754" 
d="M508 700h38l143 -669l60 -19l-2 -12h-262l2 12l68 19l-40 196h-286l-124 -196l84 -19l-1 -12h-181l2 12l73 19zM510 249l-64 320l-204 -320h268zM463 809c9 49 51 81 100 81c51 0 78 -32 69 -81c-11 -51 -51 -82 -102 -82c-49 0 -78 31 -67 82zM507 809
c-24 -78 69 -80 80 0c7 37 -4 60 -28 60s-45 -24 -52 -60z" />
    <glyph glyph-name="AE" unicode="&#xc6;" horiz-adv-x="829" 
d="M349 10l66 16l9 201h-197l-122 -196l84 -19l-1 -12h-181l2 12l73 19l419 669h415l-26 -128h-17l-30 106h-278l-13 -306h174l40 82h15l-37 -185h-16l-6 81h-170l-13 -328h180l73 106h17l-26 -128h-436zM425 249l15 320l-200 -320h185z" />
    <glyph glyph-name="Ccedilla" unicode="&#xc7;" horiz-adv-x="693" 
d="M332 -113l83 107c-103 1 -179 34 -228 97c-48 64 -61 150 -38 259s71 195 146 259c75 65 164 97 267 97c83 0 146 -19 190 -56l54 26l7 -10l-29 -144h-17c-3 64 -30 111 -70 131c-40 21 -74 28 -113 28c-147 0 -253 -110 -297 -326c-41 -203 16 -325 189 -325
c83 0 155 26 216 78l8 -12c-75 -65 -164 -99 -267 -102l-32 -43c57 0 83 -16 77 -47c-7 -32 -49 -78 -126 -138l-6 8c35 29 54 55 59 79c5 25 -12 34 -73 34z" />
    <glyph glyph-name="Egrave" unicode="&#xc8;" horiz-adv-x="617" 
d="M282 350l-67 -328h291l73 106h17l-25 -128h-554l1 10l67 16l133 648l-61 16l2 10h544l-26 -128h-17l-30 106h-281l-63 -306h227l39 82h17l-38 -185h-16l-6 81h-227zM354 824l80 68l107 -150l-12 -11z" />
    <glyph glyph-name="Eacute" unicode="&#xc9;" horiz-adv-x="617" 
d="M282 350l-67 -328h291l73 106h17l-25 -128h-554l1 10l67 16l133 648l-61 16l2 10h544l-26 -128h-17l-30 106h-281l-63 -306h227l39 82h17l-38 -185h-16l-6 81h-227zM385 731l-8 11l167 150l54 -68z" />
    <glyph glyph-name="Ecircumflex" unicode="&#xca;" horiz-adv-x="617" 
d="M282 350l-67 -328h291l73 106h17l-25 -128h-554l1 10l67 16l133 648l-61 16l2 10h544l-26 -128h-17l-30 106h-281l-63 -306h227l39 82h17l-38 -185h-16l-6 81h-227zM316 742l164 150h19l103 -150l-13 -11l-116 76l-149 -76z" />
    <glyph glyph-name="Edieresis" unicode="&#xcb;" horiz-adv-x="617" 
d="M282 350l-67 -328h291l73 106h17l-25 -128h-554l1 10l67 16l133 648l-61 16l2 10h544l-26 -128h-17l-30 106h-281l-63 -306h227l39 82h17l-38 -185h-16l-6 81h-227zM290 807c9 41 44 70 84 70s65 -30 56 -70c-8 -40 -44 -70 -84 -70c-41 0 -64 30 -56 70zM515 807
c8 41 44 70 84 70s64 -29 56 -70c-8 -40 -44 -70 -84 -70c-41 0 -64 30 -56 70z" />
    <glyph glyph-name="Igrave" unicode="&#xcc;" horiz-adv-x="292" 
d="M412 688l-66 -20l-130 -637l58 -19l-2 -12h-255l2 12l69 19l130 637l-60 20l2 12h254zM192 824l80 68l107 -150l-13 -11z" />
    <glyph glyph-name="Iacute" unicode="&#xcd;" horiz-adv-x="292" 
d="M412 688l-66 -20l-130 -637l58 -19l-2 -12h-255l2 12l69 19l130 637l-60 20l2 12h254zM223 731l-8 11l167 150l53 -68z" />
    <glyph glyph-name="Icircumflex" unicode="&#xce;" horiz-adv-x="292" 
d="M412 688l-66 -20l-130 -637l58 -19l-2 -12h-254l2 12l68 19l130 637l-60 20l3 12h253zM154 742l164 150h18l104 -150l-13 -11l-117 76l-148 -76z" />
    <glyph glyph-name="Idieresis" unicode="&#xcf;" horiz-adv-x="292" 
d="M412 688l-66 -20l-130 -637l58 -19l-2 -12h-255l2 12l69 19l130 637l-60 20l2 12h254zM146 807c8 41 43 70 83 70c41 0 65 -29 57 -70c-8 -40 -44 -70 -85 -70c-40 0 -63 30 -55 70zM334 807c9 41 44 70 84 70s65 -29 57 -70c-9 -40 -45 -70 -85 -70s-64 30 -56 70z" />
    <glyph glyph-name="Eth" unicode="&#xd0;" horiz-adv-x="727" 
d="M151 345h-62l2 10l64 12l63 307l-61 16l2 10h326c102 0 178 -31 227 -94s63 -148 41 -256s-70 -193 -145 -256s-163 -94 -265 -94h-326l1 10l67 16zM481 678h-132l-64 -311h159l-4 -22h-159l-66 -323h131c125 0 227 111 271 327c44 217 -12 329 -136 329z" />
    <glyph glyph-name="Ntilde" unicode="&#xd1;" horiz-adv-x="689" 
d="M17 0l1 10l68 19l131 639l-60 20l2 12h199l264 -522l102 493l-61 19l2 10h150l-2 -10l-67 -19l-137 -671h-36l-336 657l-129 -628l60 -19l-1 -10h-150zM336 758l-10 12c75 63 126 95 151 95c12 0 29 -8 51 -23c23 -15 42 -23 57 -23c31 0 65 15 100 45l10 -12
c-75 -65 -127 -97 -156 -97c-11 0 -29 8 -52 23s-43 23 -58 23c-27 0 -58 -14 -93 -43z" />
    <glyph glyph-name="Ograve" unicode="&#xd2;" horiz-adv-x="760" 
d="M148 350c22 108 70 194 145 259s163 97 263 97c101 0 175 -32 223 -97c49 -65 62 -151 40 -259c-22 -109 -71 -195 -146 -260c-75 -64 -162 -96 -262 -96s-174 32 -223 96c-49 65 -62 151 -40 260zM553 691c-120 0 -223 -118 -268 -342s8 -340 129 -340s224 116 269 340
s-9 342 -130 342zM458 824l81 68l106 -150l-12 -11z" />
    <glyph glyph-name="Oacute" unicode="&#xd3;" horiz-adv-x="760" 
d="M148 350c22 108 70 194 145 259s163 97 263 97c101 0 175 -32 223 -97c49 -65 62 -151 40 -259c-22 -109 -71 -195 -146 -260c-75 -64 -162 -96 -262 -96s-174 32 -223 96c-49 65 -62 151 -40 260zM553 691c-120 0 -223 -118 -268 -342s8 -340 129 -340s224 116 269 340
s-9 342 -130 342zM489 731l-8 11l168 150l53 -68z" />
    <glyph glyph-name="Ocircumflex" unicode="&#xd4;" horiz-adv-x="760" 
d="M148 350c22 108 70 194 145 259s163 97 263 97c101 0 175 -32 223 -97c49 -65 62 -151 40 -259c-22 -109 -71 -195 -146 -260c-75 -64 -162 -96 -262 -96s-174 32 -223 96c-49 65 -62 151 -40 260zM553 691c-120 0 -223 -118 -268 -342s8 -340 129 -340s224 116 269 340
s-9 342 -130 342zM420 742l164 150h19l103 -150l-12 -11l-118 76l-147 -76z" />
    <glyph glyph-name="Otilde" unicode="&#xd5;" horiz-adv-x="760" 
d="M148 350c22 108 70 194 145 259s163 97 263 97c101 0 175 -32 223 -97c49 -65 62 -151 40 -259c-22 -109 -71 -195 -146 -260c-75 -64 -162 -96 -262 -96s-174 32 -223 96c-49 65 -62 151 -40 260zM553 691c-120 0 -223 -118 -268 -342s8 -340 129 -340s224 116 269 340
s-9 342 -130 342zM405 758l-10 12c75 63 125 95 150 95c13 0 30 -8 52 -23c23 -15 42 -23 57 -23c30 0 63 15 100 45l10 -12c-77 -65 -129 -97 -156 -97c-11 0 -29 8 -53 23c-23 15 -43 23 -58 23c-27 0 -57 -14 -92 -43z" />
    <glyph glyph-name="Odieresis" unicode="&#xd6;" horiz-adv-x="760" 
d="M148 350c22 108 70 194 145 259s163 97 263 97c101 0 175 -32 223 -97c49 -65 62 -151 40 -259c-22 -109 -71 -195 -146 -260c-75 -64 -162 -96 -262 -96s-174 32 -223 96c-49 65 -62 151 -40 260zM553 691c-120 0 -223 -118 -268 -342s8 -340 129 -340s224 116 269 340
s-9 342 -130 342zM395 807c8 41 43 70 84 70c40 0 64 -29 56 -70c-8 -40 -44 -70 -84 -70c-41 0 -64 30 -56 70zM620 807c8 41 43 70 83 70c41 0 65 -29 57 -70c-8 -40 -45 -70 -85 -70s-64 30 -55 70z" />
    <glyph glyph-name="multiply" unicode="&#xd7;" horiz-adv-x="448" 
d="M261 300l-120 152l29 24l120 -152l181 152l19 -24l-181 -152l119 -152l-28 -24l-120 152l-181 -152l-19 24z" />
    <glyph glyph-name="Oslash" unicode="&#xd8;" horiz-adv-x="760" 
d="M167 76l-84 -76h-39l106 96c-45 64 -57 149 -35 254c22 108 70 194 145 259s163 97 263 97c92 0 163 -28 212 -83l85 77h38l-107 -97c44 -65 56 -150 35 -253c-22 -109 -71 -195 -146 -260c-75 -64 -162 -96 -262 -96c-92 0 -162 27 -211 82zM650 349
c14 70 19 129 15 176l-424 -382c15 -89 61 -134 140 -134c121 0 224 116 269 340zM252 349c-14 -69 -19 -128 -15 -175l424 382c-16 90 -63 135 -141 135c-120 0 -223 -118 -268 -342z" />
    <glyph glyph-name="Ugrave" unicode="&#xd9;" horiz-adv-x="715" 
d="M864 690l-68 -19l-84 -411c-17 -82 -55 -147 -116 -195c-60 -47 -131 -71 -214 -71s-146 24 -187 72s-53 113 -36 194l83 408l-60 20l2 12h258l-2 -12l-68 -20l-83 -408c-29 -141 35 -220 152 -220c61 0 114 19 160 58s76 93 90 162l84 411l-61 19l2 10h150zM447 824
l79 68l107 -150l-12 -11z" />
    <glyph glyph-name="Uacute" unicode="&#xda;" horiz-adv-x="715" 
d="M864 690l-68 -19l-84 -411c-17 -82 -55 -147 -116 -195c-60 -47 -131 -71 -214 -71s-146 24 -187 72s-53 113 -36 194l83 408l-60 20l2 12h258l-2 -12l-68 -20l-83 -408c-29 -141 35 -220 152 -220c61 0 114 19 160 58s76 93 90 162l84 411l-61 19l2 10h150zM478 731
l-8 11l167 150l53 -68z" />
    <glyph glyph-name="Ucircumflex" unicode="&#xdb;" horiz-adv-x="715" 
d="M864 690l-68 -19l-84 -411c-17 -82 -55 -147 -116 -195c-60 -47 -131 -71 -214 -71s-146 24 -187 72s-53 113 -36 194l83 408l-60 20l2 12h258l-2 -12l-68 -20l-83 -408c-29 -141 35 -220 152 -220c61 0 114 19 160 58s76 93 90 162l84 411l-61 19l2 10h150zM408 742
l165 150h18l103 -150l-12 -11l-117 76l-148 -76z" />
    <glyph glyph-name="Udieresis" unicode="&#xdc;" horiz-adv-x="715" 
d="M864 690l-68 -19l-84 -411c-17 -82 -55 -147 -116 -195c-60 -47 -131 -71 -214 -71s-146 24 -187 72s-53 113 -36 194l83 408l-60 20l2 12h258l-2 -12l-68 -20l-83 -408c-29 -141 35 -220 152 -220c61 0 114 19 160 58s76 93 90 162l84 411l-61 19l2 10h150zM383 807
c8 41 43 70 84 70c40 0 64 -29 56 -70c-8 -40 -44 -70 -85 -70c-40 0 -63 30 -55 70zM608 807c8 41 43 70 83 70c41 0 65 -29 57 -70c-9 -40 -45 -70 -85 -70s-64 30 -55 70z" />
    <glyph glyph-name="Yacute" unicode="&#xdd;" horiz-adv-x="722" 
d="M409 688l-69 -20l137 -337l278 337l-80 20l2 12h181l-3 -12l-76 -20l-297 -362l-56 -275l57 -19l-2 -12h-256l2 12l69 19l56 275l-148 362l-57 20l2 12h262zM440 731l-9 11l168 150l53 -68z" />
    <glyph glyph-name="Thorn" unicode="&#xde;" horiz-adv-x="627" 
d="M413 688l-66 -20l-22 -108h101c81 0 143 -18 185 -54c42 -35 57 -84 44 -145c-12 -61 -46 -109 -103 -145c-57 -35 -126 -53 -207 -53h-72l-12 14l1 8h73c93 0 165 60 188 176c24 116 -23 177 -116 177h-87l-103 -507l97 -19l-2 -12h-295l2 12l68 19l130 637l-60 20l2 12
h256z" />
    <glyph glyph-name="germandbls" unicode="&#xdf;" horiz-adv-x="655" 
d="M444 10c63 0 108 37 119 94c11 52 -12 70 -85 98c-23 9 -29 12 -49 21c-19 11 -26 17 -39 29c-23 23 -32 59 -21 112s40 97 69 124c45 39 98 72 108 126c12 56 -22 95 -93 95c-73 0 -110 -41 -130 -142l-112 -546c-31 -145 -113 -226 -236 -226c-72 0 -102 29 -94 73
c8 36 38 61 71 61c36 0 55 -26 47 -66l-9 -47c37 0 65 61 96 205l111 546c21 105 100 157 235 157c132 0 169 -48 154 -113c-8 -40 -36 -76 -63 -99c-25 -21 -54 -58 -62 -95c-11 -52 13 -72 72 -96l25 -12l24 -12c23 -12 27 -18 43 -33c17 -15 20 -28 27 -48s5 -43 0 -71
c-20 -100 -91 -150 -212 -150c-103 0 -164 36 -151 100c7 36 35 57 67 57c36 0 53 -25 44 -68l-12 -57c17 -11 36 -17 56 -17z" />
    <glyph glyph-name="agrave" unicode="&#xe0;" horiz-adv-x="585" 
d="M625 69l5 -8c-53 -44 -103 -66 -151 -66c-45 0 -71 23 -59 66l5 21l-2 3c-58 -60 -121 -90 -190 -90c-115 0 -156 95 -127 242c36 175 148 267 323 267c45 0 88 -8 127 -23l64 26l12 -14l-85 -417c-6 -25 0 -37 19 -37c15 0 34 10 59 30zM429 114l71 351
c-26 16 -52 24 -79 24c-88 0 -152 -82 -184 -234c-13 -65 -14 -118 -3 -159c12 -41 35 -61 68 -61c41 0 83 26 127 79zM328 641l81 67l106 -150l-12 -11z" />
    <glyph glyph-name="aacute" unicode="&#xe1;" horiz-adv-x="585" 
d="M625 69l5 -8c-53 -44 -103 -66 -151 -66c-45 0 -71 23 -59 66l5 21l-2 3c-58 -60 -121 -90 -190 -90c-115 0 -156 95 -127 242c36 175 148 267 323 267c45 0 88 -8 127 -23l64 26l12 -14l-85 -417c-6 -25 0 -37 19 -37c15 0 34 10 59 30zM429 114l71 351
c-26 16 -52 24 -79 24c-88 0 -152 -82 -184 -234c-13 -65 -14 -118 -3 -159c12 -41 35 -61 68 -61c41 0 83 26 127 79zM354 547l-8 11l167 150l54 -67z" />
    <glyph glyph-name="acircumflex" unicode="&#xe2;" horiz-adv-x="585" 
d="M625 69l5 -8c-53 -44 -103 -66 -151 -66c-45 0 -71 23 -59 66l5 21l-2 3c-58 -60 -121 -90 -190 -90c-115 0 -156 95 -127 242c36 175 148 267 323 267c45 0 88 -8 127 -23l64 26l12 -14l-85 -417c-6 -25 0 -37 19 -37c15 0 34 10 59 30zM429 114l71 351
c-26 16 -52 24 -79 24c-88 0 -152 -82 -184 -234c-13 -65 -14 -118 -3 -159c12 -41 35 -61 68 -61c41 0 83 26 127 79zM290 558l164 150h18l104 -150l-13 -11l-117 77l-148 -77z" />
    <glyph glyph-name="atilde" unicode="&#xe3;" horiz-adv-x="585" 
d="M625 69l5 -8c-53 -44 -103 -66 -151 -66c-45 0 -71 23 -59 66l5 21l-2 3c-58 -60 -121 -90 -190 -90c-115 0 -156 95 -127 242c36 175 148 267 323 267c45 0 88 -8 127 -23l64 26l12 -14l-85 -417c-6 -25 0 -37 19 -37c15 0 34 10 59 30zM429 114l71 351
c-26 16 -52 24 -79 24c-88 0 -152 -82 -184 -234c-13 -65 -14 -118 -3 -159c12 -41 35 -61 68 -61c41 0 83 26 127 79zM273 574l-10 12c75 63 125 95 150 95c13 0 30 -8 53 -23s41 -23 56 -23c30 0 63 15 100 45l10 -12c-79 -65 -131 -97 -157 -97c-11 0 -29 8 -52 23
s-42 23 -58 23c-28 0 -59 -14 -92 -43z" />
    <glyph glyph-name="adieresis" unicode="&#xe4;" horiz-adv-x="585" 
d="M625 69l5 -8c-53 -44 -103 -66 -151 -66c-45 0 -71 23 -59 66l5 21l-2 3c-58 -60 -121 -90 -190 -90c-115 0 -156 95 -127 242c36 175 148 267 323 267c45 0 88 -8 127 -23l64 26l12 -14l-85 -417c-6 -25 0 -37 19 -37c15 0 34 10 59 30zM429 114l71 351
c-26 16 -52 24 -79 24c-88 0 -152 -82 -184 -234c-13 -65 -14 -118 -3 -159c12 -41 35 -61 68 -61c41 0 83 26 127 79zM264 623c9 41 44 71 84 71s65 -30 56 -71c-8 -40 -44 -70 -84 -70s-64 30 -56 70zM489 623c8 41 44 71 84 71s64 -30 56 -71c-9 -40 -44 -70 -84 -70
s-64 30 -56 70z" />
    <glyph glyph-name="aring" unicode="&#xe5;" horiz-adv-x="585" 
d="M625 69l5 -8c-53 -44 -103 -66 -151 -66c-45 0 -71 23 -59 66l5 21l-2 3c-58 -60 -121 -90 -190 -90c-115 0 -156 95 -127 242c36 175 148 267 323 267c45 0 88 -8 127 -23l64 26l12 -14l-85 -417c-6 -25 0 -37 19 -37c15 0 34 10 59 30zM429 114l71 351
c-26 16 -52 24 -79 24c-88 0 -152 -82 -184 -234c-13 -65 -14 -118 -3 -159c12 -41 35 -61 68 -61c41 0 83 26 127 79zM363 625c9 51 51 82 100 82c51 0 78 -31 69 -82c-11 -51 -51 -82 -102 -82c-49 0 -78 31 -67 82zM406 625c-7 -36 5 -60 28 -60c24 0 45 24 52 60
c8 37 -3 61 -27 61c-23 0 -45 -25 -53 -61z" />
    <glyph glyph-name="ae" unicode="&#xe6;" horiz-adv-x="799" 
d="M372 503c67 0 116 -14 145 -41c48 28 103 42 164 42c113 0 180 -43 161 -134c-7 -33 -21 -54 -62 -78s-127 -37 -252 -40l-31 -147c19 -50 62 -75 130 -75c56 0 108 20 155 59l9 -12c-67 -55 -141 -82 -223 -82s-141 23 -178 69c-61 -47 -128 -70 -199 -70
c-92 0 -129 41 -116 110c15 47 30 76 80 97c18 8 33 14 46 19s34 11 62 16l69 14l85 14l22 109c15 69 -11 114 -71 114c-21 0 -44 -6 -67 -19l-16 -82c-9 -47 -44 -76 -85 -76c-40 0 -62 27 -53 70c8 39 34 69 78 90c45 22 94 33 147 33zM381 87l33 162l-62 -10
c-12 -2 -28 -6 -47 -11s-32 -10 -40 -15c-26 -15 -55 -45 -60 -94c-12 -56 6 -84 55 -84c41 0 81 17 121 52zM547 350l-16 -83c125 5 180 34 196 110c13 63 -7 112 -62 112c-41 0 -79 -28 -114 -84c2 -15 1 -34 -4 -55z" />
    <glyph glyph-name="ccedilla" unicode="&#xe7;" horiz-adv-x="548" 
d="M216 -113l85 108c-156 4 -222 101 -190 254c32 159 142 255 305 255c98 0 204 -41 185 -131c-9 -45 -43 -71 -84 -71c-43 0 -65 28 -56 76l19 89c-21 15 -43 22 -66 22c-81 0 -144 -84 -172 -220c-31 -152 7 -240 127 -240c55 0 106 20 154 60l9 -12
c-64 -53 -135 -80 -213 -82l-33 -44c57 0 83 -16 77 -47c-7 -32 -49 -78 -126 -138l-6 8c35 29 54 55 59 79c5 25 -11 34 -74 34z" />
    <glyph glyph-name="egrave" unicode="&#xe8;" horiz-adv-x="534" 
d="M238 250c-30 -147 16 -220 137 -220c56 0 108 20 155 59l9 -12c-67 -55 -141 -82 -223 -82c-167 0 -237 100 -206 252c16 79 52 142 108 188s126 69 211 69c113 0 180 -43 161 -134c-7 -35 -21 -57 -68 -82s-143 -38 -284 -38zM413 489c-68 0 -137 -72 -172 -224
c151 0 218 29 234 112c13 63 -7 112 -62 112zM321 641l80 67l106 -150l-12 -11z" />
    <glyph glyph-name="eacute" unicode="&#xe9;" horiz-adv-x="534" 
d="M238 250c-30 -147 16 -220 137 -220c56 0 108 20 155 59l9 -12c-67 -55 -141 -82 -223 -82c-167 0 -237 100 -206 252c16 79 52 142 108 188s126 69 211 69c113 0 180 -43 161 -134c-7 -35 -21 -57 -68 -82s-143 -38 -284 -38zM413 489c-68 0 -137 -72 -172 -224
c151 0 218 29 234 112c13 63 -7 112 -62 112zM352 547l-9 11l168 150l53 -67z" />
    <glyph glyph-name="ecircumflex" unicode="&#xea;" horiz-adv-x="534" 
d="M238 250c-30 -147 16 -220 137 -220c56 0 108 20 155 59l9 -12c-67 -55 -141 -82 -223 -82c-167 0 -237 100 -206 252c16 79 52 142 108 188s126 69 211 69c113 0 180 -43 161 -134c-7 -35 -21 -57 -68 -82s-143 -38 -284 -38zM413 489c-68 0 -137 -72 -172 -224
c151 0 218 29 234 112c13 63 -7 112 -62 112zM283 558l164 150h18l104 -150l-12 -11l-118 77l-148 -77z" />
    <glyph glyph-name="edieresis" unicode="&#xeb;" horiz-adv-x="534" 
d="M238 250c-30 -147 16 -220 137 -220c56 0 108 20 155 59l9 -12c-67 -55 -141 -82 -223 -82c-167 0 -237 100 -206 252c16 79 52 142 108 188s126 69 211 69c113 0 180 -43 161 -134c-7 -35 -21 -57 -68 -82s-143 -38 -284 -38zM413 489c-68 0 -137 -72 -172 -224
c151 0 218 29 234 112c13 63 -7 112 -62 112zM257 623c8 41 43 71 83 71c41 0 65 -30 57 -71c-8 -40 -44 -70 -85 -70c-40 0 -63 30 -55 70zM482 623c8 41 43 71 83 71c41 0 64 -30 56 -71c-8 -40 -43 -70 -84 -70c-40 0 -63 30 -55 70z" />
    <glyph glyph-name="igrave" unicode="&#xec;" horiz-adv-x="277" 
d="M148 641l80 67l106 -150l-12 -11zM84 431l-6 8c53 44 103 66 152 66c44 0 69 -23 60 -66l-74 -363c-5 -25 2 -37 21 -37c15 0 34 10 57 30l6 -8c-48 -40 -108 -66 -151 -66c-44 0 -70 23 -61 66l74 363c6 25 -1 37 -20 37c-14 0 -33 -10 -58 -30z" />
    <glyph glyph-name="iacute" unicode="&#xed;" horiz-adv-x="277" 
d="M178 547l-8 11l167 150l54 -67zM84 431l-6 8c53 44 103 66 152 66c44 0 69 -23 60 -66l-74 -363c-5 -25 2 -37 21 -37c15 0 34 10 57 30l6 -8c-48 -40 -108 -66 -151 -66c-44 0 -70 23 -61 66l74 363c6 25 -1 37 -20 37c-14 0 -33 -10 -58 -30z" />
    <glyph glyph-name="icircumflex" unicode="&#xee;" horiz-adv-x="278" 
d="M84 431l-6 8c53 44 104 66 153 66c44 0 68 -23 59 -66l-74 -363c-5 -25 2 -37 21 -37c14 0 33 10 58 30l5 -8c-53 -44 -103 -66 -151 -66c-44 0 -70 23 -61 66l74 363c6 25 -1 37 -20 37c-14 0 -33 -10 -58 -30zM109 558l164 150h18l104 -150l-12 -11l-118 77l-148 -77z
" />
    <glyph glyph-name="idieresis" unicode="&#xef;" horiz-adv-x="277" 
d="M106 623c8 41 43 71 83 71c41 0 65 -30 57 -71c-8 -40 -44 -70 -84 -70s-64 30 -56 70zM277 623c8 41 43 71 83 71s65 -30 57 -71c-9 -40 -44 -70 -84 -70c-41 0 -65 30 -56 70zM84 431l-6 8c53 44 103 66 152 66c44 0 69 -23 60 -66l-74 -363c-5 -25 2 -37 20 -37
c14 0 33 10 58 30l6 -8c-53 -44 -103 -66 -152 -66c-44 0 -69 23 -60 66l74 363c6 25 -1 37 -20 37c-14 0 -33 -10 -58 -30z" />
    <glyph glyph-name="eth" unicode="&#xf0;" horiz-adv-x="582" 
d="M446 546l-19 24l72 60c-60 45 -132 71 -217 78l23 19c106 -11 184 -32 234 -63l77 64l19 -24l-71 -59c77 -65 100 -173 69 -324c-43 -219 -157 -326 -318 -326c-76 0 -132 23 -169 68c-37 46 -47 107 -32 184c16 78 52 140 107 187s120 70 195 70c85 0 143 -37 164 -94h4
c16 80 -4 147 -61 200zM488 249c29 161 1 240 -75 240c-75 0 -139 -83 -171 -240c-31 -161 -2 -239 73 -239c76 0 141 83 173 239z" />
    <glyph glyph-name="ntilde" unicode="&#xf1;" horiz-adv-x="605" 
d="M84 431l-6 8c53 44 103 66 152 66c44 0 69 -23 60 -66l-8 -28l2 -3c57 61 137 96 201 96c97 0 132 -69 111 -174l-52 -254c-5 -25 2 -37 20 -37c14 0 33 10 58 30l6 -8c-53 -44 -104 -66 -153 -66c-43 0 -68 23 -59 66l51 251c10 41 11 77 2 107c-8 30 -27 45 -56 45
c-40 0 -94 -33 -135 -84l-77 -380h-110l-13 15l84 409c6 25 -1 37 -20 37c-14 0 -33 -10 -58 -30zM255 574l-10 12c75 63 126 95 151 95c12 0 29 -8 52 -23s41 -23 56 -23c30 0 64 15 101 45l9 -12c-77 -65 -130 -97 -157 -97c-11 0 -29 8 -52 23s-42 23 -58 23
c-27 0 -57 -14 -92 -43z" />
    <glyph glyph-name="ograve" unicode="&#xf2;" horiz-adv-x="579" 
d="M111 249c15 77 51 138 107 185c57 47 123 70 198 70s131 -23 168 -70s48 -108 32 -185c-15 -77 -51 -139 -107 -185s-122 -69 -197 -69s-132 23 -169 69s-48 108 -32 185zM238 249c-29 -161 1 -239 77 -239c77 0 143 83 174 239c31 161 0 240 -76 240
c-77 0 -143 -83 -175 -240zM322 641l80 67l106 -150l-12 -11z" />
    <glyph glyph-name="oacute" unicode="&#xf3;" horiz-adv-x="579" 
d="M111 249c15 77 51 138 107 185c57 47 123 70 198 70s131 -23 168 -70s48 -108 32 -185c-15 -77 -51 -139 -107 -185s-122 -69 -197 -69s-132 23 -169 69s-48 108 -32 185zM238 249c-29 -161 1 -239 77 -239c77 0 143 83 174 239c31 161 0 240 -76 240
c-77 0 -143 -83 -175 -240zM352 547l-8 11l168 150l53 -67z" />
    <glyph glyph-name="ocircumflex" unicode="&#xf4;" horiz-adv-x="579" 
d="M111 249c15 77 51 138 107 185c57 47 123 70 198 70s131 -23 168 -70s48 -108 32 -185c-15 -77 -51 -139 -107 -185s-122 -69 -197 -69s-132 23 -169 69s-48 108 -32 185zM238 249c-29 -161 1 -239 77 -239c77 0 143 83 174 239c31 161 0 240 -76 240
c-77 0 -143 -83 -175 -240zM284 558l164 150h18l104 -150l-13 -11l-117 77l-148 -77z" />
    <glyph glyph-name="otilde" unicode="&#xf5;" horiz-adv-x="579" 
d="M111 249c15 77 51 138 107 185c57 47 123 70 198 70s131 -23 168 -70s48 -108 32 -185c-15 -77 -51 -139 -107 -185s-122 -69 -197 -69s-132 23 -169 69s-48 108 -32 185zM238 249c-29 -161 1 -239 77 -239c77 0 143 83 174 239c31 161 0 240 -76 240
c-77 0 -143 -83 -175 -240zM268 574l-10 12c75 63 126 95 151 95c12 0 29 -8 52 -23s41 -23 56 -23c30 0 64 15 101 45l9 -12c-79 -65 -131 -97 -157 -97c-11 0 -29 8 -52 23s-42 23 -58 23c-28 0 -59 -14 -92 -43z" />
    <glyph glyph-name="odieresis" unicode="&#xf6;" horiz-adv-x="579" 
d="M111 249c15 77 51 138 107 185c57 47 123 70 198 70s131 -23 168 -70s48 -108 32 -185c-15 -77 -51 -139 -107 -185s-122 -69 -197 -69s-132 23 -169 69s-48 108 -32 185zM238 249c-29 -161 1 -239 77 -239c77 0 143 83 174 239c31 161 0 240 -76 240
c-77 0 -143 -83 -175 -240zM258 623c8 41 43 71 83 71c41 0 65 -30 57 -71c-8 -40 -44 -70 -84 -70s-64 30 -56 70zM483 623c8 41 43 71 83 71c41 0 65 -30 56 -71c-8 -40 -43 -70 -83 -70c-41 0 -64 30 -56 70z" />
    <glyph glyph-name="divide" unicode="&#xf7;" horiz-adv-x="448" 
d="M470 288h-375l7 34h375zM268 224c35 0 54 -26 47 -59c-5 -33 -36 -58 -71 -58c-32 0 -52 25 -45 58s37 59 69 59zM256 445c7 33 37 59 69 59c33 0 55 -24 48 -59c-7 -33 -38 -58 -71 -58c-32 0 -51 25 -46 58z" />
    <glyph glyph-name="oslash" unicode="&#xf8;" horiz-adv-x="579" 
d="M132 49l-55 -49h-40l78 69c-35 46 -44 106 -28 180c15 77 51 138 107 185c57 47 123 70 198 70c65 0 117 -18 154 -54l57 50h41l-80 -71c33 -46 43 -106 28 -180c-15 -77 -51 -139 -107 -185s-122 -69 -197 -69c-67 0 -119 18 -156 54zM465 249c8 40 12 75 12 104
l-273 -241c7 -68 36 -102 87 -102c77 0 143 83 174 239zM214 249c-8 -40 -12 -74 -12 -103l274 242c-7 67 -36 101 -87 101c-77 0 -143 -83 -175 -240z" />
    <glyph glyph-name="ugrave" unicode="&#xf9;" horiz-adv-x="600" 
d="M84 431l-6 8c53 44 103 66 152 66c44 0 69 -23 60 -66l-55 -270c-19 -75 -2 -134 51 -134c47 0 92 28 137 84l78 381h110l12 -15l-84 -409c-5 -25 2 -37 20 -37c14 0 33 10 58 30l6 -8c-53 -44 -103 -66 -152 -66c-44 0 -69 23 -60 66l8 26l-2 4
c-59 -64 -124 -96 -195 -96c-95 0 -135 63 -116 155l56 274c6 25 -1 37 -20 37c-14 0 -33 -10 -58 -30zM308 641l81 67l106 -150l-12 -11z" />
    <glyph glyph-name="uacute" unicode="&#xfa;" horiz-adv-x="600" 
d="M84 431l-6 8c53 44 103 66 152 66c44 0 69 -23 60 -66l-55 -270c-19 -75 -2 -134 51 -134c47 0 92 28 137 84l78 381h110l12 -15l-84 -409c-5 -25 2 -37 20 -37c14 0 33 10 58 30l6 -8c-53 -44 -103 -66 -152 -66c-44 0 -69 23 -60 66l8 26l-2 4
c-59 -64 -124 -96 -195 -96c-95 0 -135 63 -116 155l56 274c6 25 -1 37 -20 37c-14 0 -33 -10 -58 -30zM339 547l-8 11l168 150l53 -67z" />
    <glyph glyph-name="ucircumflex" unicode="&#xfb;" horiz-adv-x="600" 
d="M84 431l-6 8c53 44 103 66 152 66c44 0 69 -23 60 -66l-55 -270c-19 -75 -2 -134 51 -134c47 0 92 28 137 84l78 381h110l12 -15l-84 -409c-5 -25 2 -37 20 -37c14 0 33 10 58 30l6 -8c-53 -44 -103 -66 -152 -66c-44 0 -69 23 -60 66l8 26l-2 4
c-59 -64 -124 -96 -195 -96c-95 0 -135 63 -116 155l56 274c6 25 -1 37 -20 37c-14 0 -33 -10 -58 -30zM270 558l164 150h19l103 -150l-12 -11l-118 77l-147 -77z" />
    <glyph glyph-name="udieresis" unicode="&#xfc;" horiz-adv-x="600" 
d="M84 431l-6 8c53 44 103 66 152 66c44 0 69 -23 60 -66l-55 -270c-19 -75 -2 -134 51 -134c47 0 92 28 137 84l78 381h110l12 -15l-84 -409c-5 -25 2 -37 20 -37c14 0 33 10 58 30l6 -8c-53 -44 -103 -66 -152 -66c-44 0 -69 23 -60 66l8 26l-2 4
c-59 -64 -124 -96 -195 -96c-95 0 -135 63 -116 155l56 274c6 25 -1 37 -20 37c-14 0 -33 -10 -58 -30zM244 623c9 41 44 71 84 71s65 -30 56 -71c-8 -40 -43 -70 -83 -70c-41 0 -65 30 -57 70zM469 623c8 41 44 71 84 71s65 -30 56 -71c-8 -40 -44 -70 -84 -70
s-64 30 -56 70z" />
    <glyph glyph-name="yacute" unicode="&#xfd;" horiz-adv-x="582" 
d="M112 -129l-7 -35c2 -3 5 -4 10 -4c11 0 35 14 71 43s72 63 109 102l-108 449c-5 23 -17 35 -36 35c-17 0 -37 -10 -60 -30l-6 8c53 44 103 66 148 66c40 0 65 -24 76 -73l80 -366c15 17 33 39 54 66c22 27 52 69 90 125c39 57 61 97 66 121h-38c-40 0 -62 26 -55 63
c7 36 38 62 75 62c41 0 64 -34 55 -86c-9 -41 -37 -98 -86 -169s-103 -140 -163 -206c-60 -65 -121 -122 -184 -171c-62 -49 -109 -73 -142 -73c-36 0 -73 22 -64 74c8 39 33 60 68 60c36 0 55 -24 47 -61zM337 547l-9 11l168 150l53 -67z" />
    <glyph glyph-name="thorn" unicode="&#xfe;" horiz-adv-x="584" 
d="M249 -200h-273l3 12l62 19l174 852l-57 13l3 13l174 17l11 -14l-43 -212l-16 -63l3 -3c52 47 109 70 172 70c123 0 169 -95 138 -243c-33 -169 -141 -266 -293 -266c-43 0 -77 8 -102 24l-39 -188l85 -19zM285 411l-77 -377c26 -16 52 -24 79 -24c88 0 152 82 183 234
c27 131 -3 220 -76 220c-39 0 -75 -18 -109 -53z" />
    <glyph glyph-name="ydieresis" unicode="&#xff;" horiz-adv-x="582" 
d="M112 -129l-7 -35c2 -3 5 -4 10 -4c11 0 35 14 71 43s72 63 109 102l-108 449c-5 23 -17 35 -36 35c-17 0 -37 -10 -60 -30l-6 8c53 44 103 66 148 66c40 0 65 -24 76 -73l80 -366c15 17 33 39 54 66c22 27 52 69 90 125c39 57 61 97 66 121h-38c-40 0 -62 26 -55 63
c7 36 38 62 75 62c41 0 64 -34 55 -86c-9 -41 -37 -98 -86 -169s-103 -140 -163 -206c-60 -65 -121 -122 -184 -171c-62 -49 -109 -73 -142 -73c-36 0 -73 22 -64 74c8 39 33 60 68 60c36 0 55 -24 47 -61zM243 623c8 41 43 71 83 71s65 -30 57 -71c-9 -40 -44 -70 -85 -70
c-40 0 -64 30 -55 70zM467 623c9 41 44 71 84 71s64 -30 56 -71c-8 -40 -43 -70 -84 -70s-64 30 -56 70z" />
    <glyph glyph-name="Amacron" unicode="&#x100;" horiz-adv-x="754" 
d="M508 700h38l143 -669l60 -19l-2 -12h-262l2 12l68 19l-40 196h-286l-124 -196l84 -19l-1 -12h-181l2 12l73 19zM510 249l-64 320l-204 -320h268zM671 793h-255l7 34h255z" />
    <glyph glyph-name="amacron" unicode="&#x101;" horiz-adv-x="585" 
d="M625 69l5 -8c-53 -44 -103 -66 -151 -66c-45 0 -71 23 -59 66l5 21l-2 3c-58 -60 -121 -90 -190 -90c-115 0 -156 95 -127 242c36 175 148 267 323 267c45 0 88 -8 127 -23l64 26l12 -14l-85 -417c-6 -25 0 -37 19 -37c15 0 34 10 59 30zM429 114l71 351
c-26 16 -52 24 -79 24c-88 0 -152 -82 -184 -234c-13 -65 -14 -118 -3 -159c12 -41 35 -61 68 -61c41 0 83 26 127 79zM567 593h-254l7 34h254z" />
    <glyph glyph-name="Abreve" unicode="&#x102;" horiz-adv-x="754" 
d="M508 700h38l143 -669l60 -19l-2 -12h-262l2 12l68 19l-40 196h-286l-124 -196l84 -19l-1 -12h-181l2 12l73 19zM510 249l-64 320l-204 -320h268zM605 825c7 37 36 61 69 61s51 -23 44 -55c-6 -31 -28 -55 -66 -71c-38 -15 -78 -23 -120 -23c-70 -2 -161 27 -148 94
c5 33 33 55 66 55c35 0 52 -24 45 -61c-15 -74 22 -73 40 -73c13 0 20 1 35 9c16 8 28 29 35 64z" />
    <glyph glyph-name="abreve" unicode="&#x103;" horiz-adv-x="585" 
d="M625 69l5 -8c-53 -44 -103 -66 -151 -66c-45 0 -71 23 -59 66l5 21l-2 3c-58 -60 -121 -90 -190 -90c-115 0 -156 95 -127 242c36 175 148 267 323 267c45 0 88 -8 127 -23l64 26l12 -14l-85 -417c-6 -25 0 -37 19 -37c15 0 34 10 59 30zM429 114l71 351
c-26 16 -52 24 -79 24c-88 0 -152 -82 -184 -234c-13 -65 -14 -118 -3 -159c12 -41 35 -61 68 -61c41 0 83 26 127 79zM506 642c7 36 35 60 68 60c35 0 52 -23 45 -55c-6 -31 -28 -54 -67 -70c-38 -16 -78 -24 -120 -24c-70 -2 -161 29 -148 95c7 32 34 54 67 54
s52 -24 45 -60c-15 -72 20 -73 39 -73c15 0 21 1 36 9c16 8 28 29 35 64z" />
    <glyph glyph-name="Aogonek" unicode="&#x104;" horiz-adv-x="754" 
d="M709 -166l4 -5c-42 -35 -79 -52 -110 -52c-37 0 -52 20 -44 61c11 56 54 110 127 162h-201l2 12l68 19l-40 196h-286l-124 -196l84 -19l-1 -12h-181l2 12l73 19l426 669h38l143 -669l60 -19l-2 -12h-48c-43 -47 -75 -107 -83 -144c-6 -29 4 -43 30 -43c25 0 46 7 63 21z
M510 249l-64 320l-204 -320h268z" />
    <glyph glyph-name="aogonek" unicode="&#x105;" horiz-adv-x="585" 
d="M583 -144l4 -5c-41 -35 -77 -52 -109 -52c-37 0 -52 20 -44 61c11 51 46 101 107 148c-24 -9 -45 -13 -62 -13c-45 0 -71 23 -59 66l5 21l-2 3c-58 -60 -121 -90 -190 -90c-115 0 -156 95 -127 242c36 175 148 267 323 267c45 0 88 -8 127 -23l64 26l12 -14l-85 -417
c-6 -25 0 -37 19 -37c15 0 34 10 59 30l5 -8c-19 -17 -39 -30 -58 -39h1c-43 -47 -75 -107 -83 -144c-5 -29 6 -43 31 -43s46 7 62 21zM429 114l71 351c-26 16 -52 24 -79 24c-88 0 -152 -82 -184 -234c-13 -65 -14 -118 -3 -159c12 -41 35 -61 68 -61c41 0 83 26 127 79z
" />
    <glyph glyph-name="Cacute" unicode="&#x106;" horiz-adv-x="693" 
d="M692 108l8 -12c-79 -68 -172 -102 -279 -102c-105 0 -183 32 -232 96s-63 151 -40 260s71 195 146 259c75 65 164 97 267 97c83 0 146 -19 190 -56l54 26l7 -10l-29 -144h-17c-3 64 -30 111 -70 131c-40 21 -74 28 -113 28c-147 0 -253 -110 -297 -326
c-41 -203 16 -325 189 -325c83 0 155 26 216 78zM498 731l-8 11l167 150l54 -68z" />
    <glyph glyph-name="cacute" unicode="&#x107;" horiz-adv-x="548" 
d="M461 378l19 89c-21 15 -43 22 -66 22c-81 0 -144 -84 -172 -220c-31 -152 7 -240 127 -240c55 0 106 20 154 60l9 -12c-67 -55 -140 -82 -221 -82c-163 0 -232 98 -200 254c32 159 142 255 305 255c98 0 204 -41 185 -131c-9 -45 -43 -71 -84 -71c-43 0 -65 28 -56 76z
M351 547l-8 11l168 150l53 -67z" />
    <glyph glyph-name="Ccircumflex" unicode="&#x108;" horiz-adv-x="693" 
d="M692 108l8 -12c-79 -68 -172 -102 -279 -102c-105 0 -183 32 -232 96s-63 151 -40 260s71 195 146 259c75 65 164 97 267 97c83 0 146 -19 190 -56l54 26l7 -10l-29 -144h-17c-3 64 -30 111 -70 131c-40 21 -74 28 -113 28c-147 0 -253 -110 -297 -326
c-41 -203 16 -325 189 -325c83 0 155 26 216 78zM426 742l165 150h18l104 -150l-13 -11l-117 76l-148 -76z" />
    <glyph glyph-name="ccircumflex" unicode="&#x109;" horiz-adv-x="548" 
d="M461 378l19 89c-21 15 -43 22 -66 22c-81 0 -144 -84 -172 -220c-31 -152 7 -240 127 -240c55 0 106 20 154 60l9 -12c-67 -55 -140 -82 -221 -82c-163 0 -232 98 -200 254c32 159 142 255 305 255c98 0 204 -41 185 -131c-9 -45 -43 -71 -84 -71c-43 0 -65 28 -56 76z
M282 558l165 150h18l104 -150l-13 -11l-117 77l-148 -77z" />
    <glyph glyph-name="Cdotaccent" unicode="&#x10a;" horiz-adv-x="693" 
d="M692 108l8 -12c-79 -68 -172 -102 -279 -102c-105 0 -183 32 -232 96s-63 151 -40 260s71 195 146 259c75 65 164 97 267 97c83 0 146 -19 190 -56l54 26l7 -10l-29 -144h-17c-3 64 -30 111 -70 131c-40 21 -74 28 -113 28c-147 0 -253 -110 -297 -326
c-41 -203 16 -325 189 -325c83 0 155 26 216 78zM510 823c9 43 46 74 89 74s67 -31 58 -74c-8 -41 -46 -73 -87 -73c-43 0 -68 30 -60 73z" />
    <glyph glyph-name="cdotaccent" unicode="&#x10b;" horiz-adv-x="548" 
d="M461 378l19 89c-21 15 -43 22 -66 22c-81 0 -144 -84 -172 -220c-31 -152 7 -240 127 -240c55 0 106 20 154 60l9 -12c-67 -55 -140 -82 -221 -82c-163 0 -232 98 -200 254c32 159 142 255 305 255c98 0 204 -41 185 -131c-9 -45 -43 -71 -84 -71c-43 0 -65 28 -56 76z
M368 640c9 43 46 73 89 73s67 -32 58 -73c-8 -43 -45 -74 -88 -74s-67 31 -59 74z" />
    <glyph glyph-name="Ccaron" unicode="&#x10c;" horiz-adv-x="693" 
d="M692 108l8 -12c-79 -68 -172 -102 -279 -102c-105 0 -183 32 -232 96s-63 151 -40 260s71 195 146 259c75 65 164 97 267 97c83 0 146 -19 190 -56l54 26l7 -10l-29 -144h-17c-3 64 -30 111 -70 131c-40 21 -74 28 -113 28c-147 0 -253 -110 -297 -326
c-41 -203 16 -325 189 -325c83 0 155 26 216 78zM739 881l-164 -150h-18l-104 150l13 11l117 -77l148 77z" />
    <glyph glyph-name="ccaron" unicode="&#x10d;" horiz-adv-x="548" 
d="M461 378l19 89c-21 15 -43 22 -66 22c-81 0 -144 -84 -172 -220c-31 -152 7 -240 127 -240c55 0 106 20 154 60l9 -12c-67 -55 -140 -82 -221 -82c-163 0 -232 98 -200 254c32 159 142 255 305 255c98 0 204 -41 185 -131c-9 -45 -43 -71 -84 -71c-43 0 -65 28 -56 76z
M597 697l-164 -150h-18l-104 150l12 11l117 -76l149 76z" />
    <glyph glyph-name="Dcaron" unicode="&#x10e;" horiz-adv-x="727" 
d="M157 690l2 10h326c102 0 178 -31 227 -94s63 -148 41 -256s-70 -193 -145 -256s-163 -94 -265 -94h-326l1 10l67 16l133 648zM481 678h-132l-134 -656h131c125 0 227 111 271 327c44 217 -12 329 -136 329zM675 881l-164 -150h-18l-104 150l12 11l117 -77l149 77z" />
    <glyph glyph-name="dcaron" unicode="&#x10f;" horiz-adv-x="691" 
d="M626 69l5 -8c-53 -44 -103 -66 -151 -66c-44 0 -69 23 -61 66l8 27l-2 3c-59 -64 -122 -96 -189 -96c-116 0 -159 95 -128 243c33 169 141 266 296 266c37 0 70 -8 101 -24l41 204l-56 13l2 13l174 17l11 -14l-129 -637c-6 -25 0 -37 19 -37c15 0 34 10 59 30zM430 114
l72 351c-27 16 -54 24 -80 24c-88 0 -152 -82 -184 -234c-27 -129 -3 -220 62 -220c43 0 86 26 130 79zM719 519l-9 12c29 25 58 62 61 79c1 3 0 7 -1 10c-47 -5 -58 59 -20 90c38 32 95 12 83 -44c-9 -41 -47 -90 -114 -147z" />
    <glyph glyph-name="Dcroat" unicode="&#x110;" horiz-adv-x="727" 
d="M151 345h-64l2 10l66 12l63 307l-61 16l2 10h326c102 0 178 -31 227 -94s63 -148 41 -256s-70 -193 -145 -256s-163 -94 -265 -94h-326l1 10l67 16zM481 678h-132l-64 -311h159l-4 -22h-159l-66 -323h131c125 0 227 111 271 327c44 217 -12 329 -136 329z" />
    <glyph glyph-name="dslash" unicode="&#x111;" horiz-adv-x="585" 
d="M626 69l5 -8c-53 -44 -103 -66 -151 -66c-44 0 -69 23 -61 66l8 27l-2 3c-59 -64 -122 -96 -189 -96c-116 0 -159 95 -128 243c33 169 141 266 296 266c37 0 70 -8 101 -24l23 113h-175l4 22h175l14 69l-56 13l2 13l174 17l11 -14l-20 -98l57 -12l-2 -10h-59l-105 -517
c-6 -25 0 -37 19 -37c15 0 34 10 59 30zM430 114l72 351c-27 16 -54 24 -80 24c-88 0 -152 -82 -184 -234c-27 -129 -3 -220 62 -220c43 0 86 26 130 79z" />
    <glyph glyph-name="Emacron" unicode="&#x112;" horiz-adv-x="617" 
d="M282 350l-67 -328h291l73 106h17l-25 -128h-554l1 10l67 16l133 648l-61 16l2 10h544l-26 -128h-17l-30 106h-281l-63 -306h227l39 82h17l-38 -185h-16l-6 81h-227zM598 793h-255l7 34h255z" />
    <glyph glyph-name="emacron" unicode="&#x113;" horiz-adv-x="534" 
d="M238 250c-30 -147 16 -220 137 -220c56 0 108 20 155 59l9 -12c-67 -55 -141 -82 -223 -82c-167 0 -237 100 -206 252c16 79 52 142 108 188s126 69 211 69c113 0 180 -43 161 -134c-7 -35 -21 -57 -68 -82s-143 -38 -284 -38zM413 489c-68 0 -137 -72 -172 -224
c151 0 218 29 234 112c13 63 -7 112 -62 112zM560 593h-255l7 34h255z" />
    <glyph glyph-name="Ebreve" unicode="&#x114;" horiz-adv-x="617" 
d="M282 350l-67 -328h291l73 106h17l-25 -128h-554l1 10l67 16l133 648l-61 16l2 10h544l-26 -128h-17l-30 106h-281l-63 -306h227l39 82h17l-38 -185h-16l-6 81h-227zM532 825c7 37 35 61 68 61c35 0 52 -23 45 -55c-6 -31 -28 -55 -66 -71c-38 -15 -78 -23 -120 -23
c-25 0 -50 3 -73 8c-45 12 -85 43 -76 86c7 33 34 55 67 55c35 0 52 -24 45 -61c-15 -72 21 -73 40 -73c13 0 20 1 35 9c16 8 28 29 35 64z" />
    <glyph glyph-name="ebreve" unicode="&#x115;" horiz-adv-x="534" 
d="M238 250c-30 -147 16 -220 137 -220c56 0 108 20 155 59l9 -12c-67 -55 -141 -82 -223 -82c-167 0 -237 100 -206 252c16 79 52 142 108 188s126 69 211 69c113 0 180 -43 161 -134c-7 -35 -21 -57 -68 -82s-143 -38 -284 -38zM413 489c-68 0 -137 -72 -172 -224
c151 0 218 29 234 112c13 63 -7 112 -62 112zM498 642c8 37 34 60 69 60c33 0 52 -23 45 -55c-7 -31 -29 -54 -68 -70c-38 -16 -78 -24 -119 -24s-78 8 -110 24s-45 40 -39 71c7 32 35 54 68 54s51 -23 44 -60c-15 -74 22 -73 40 -73c15 0 20 1 35 9c16 8 28 29 35 64z" />
    <glyph glyph-name="Edotaccent" unicode="&#x116;" horiz-adv-x="617" 
d="M282 350l-67 -328h291l73 106h17l-25 -128h-554l1 10l67 16l133 648l-61 16l2 10h544l-26 -128h-17l-30 106h-281l-63 -306h227l39 82h17l-38 -185h-16l-6 81h-227zM402 823c9 43 46 74 89 74s67 -31 58 -74c-8 -41 -46 -73 -87 -73c-43 0 -68 30 -60 73z" />
    <glyph glyph-name="edotaccent" unicode="&#x117;" horiz-adv-x="534" 
d="M238 250c-30 -147 16 -220 137 -220c56 0 108 20 155 59l9 -12c-67 -55 -141 -82 -223 -82c-167 0 -237 100 -206 252c16 79 52 142 108 188s126 69 211 69c113 0 180 -43 161 -134c-7 -35 -21 -57 -68 -82s-143 -38 -284 -38zM413 489c-68 0 -137 -72 -172 -224
c151 0 218 29 234 112c13 63 -7 112 -62 112zM369 640c9 43 46 73 89 73s67 -32 58 -73c-8 -43 -45 -74 -88 -74s-67 31 -59 74z" />
    <glyph glyph-name="Eogonek" unicode="&#x118;" horiz-adv-x="617" 
d="M535 -166l4 -5c-42 -35 -79 -52 -110 -52c-37 0 -52 20 -43 61c11 57 53 111 126 162h-495l1 10l67 16l133 648l-61 16l2 10h544l-26 -128h-17l-30 106h-281l-63 -306h227l39 82h17l-38 -185h-16l-6 81h-227l-67 -328h291l73 106h17l-25 -128h-46
c-43 -47 -75 -107 -83 -144c-6 -29 4 -43 30 -43c25 0 46 7 63 21z" />
    <glyph glyph-name="eogonek" unicode="&#x119;" horiz-adv-x="534" 
d="M492 -126l4 -5c-41 -35 -77 -52 -110 -52c-38 0 -52 20 -43 61c9 47 41 94 96 139c-39 -15 -80 -22 -123 -22c-167 0 -237 100 -206 252c16 79 52 142 108 188s126 69 211 69c113 0 180 -43 161 -134c-7 -35 -21 -57 -68 -82s-143 -38 -284 -38
c-30 -147 16 -220 137 -220c56 0 108 20 155 59l9 -12c-24 -19 -45 -34 -62 -43c-43 -48 -69 -94 -78 -138c-5 -29 6 -43 31 -43c24 0 45 7 62 21zM413 489c-68 0 -137 -72 -172 -224c151 0 218 29 234 112c13 63 -7 112 -62 112z" />
    <glyph glyph-name="Ecaron" unicode="&#x11a;" horiz-adv-x="617" 
d="M282 350l-67 -328h291l73 106h17l-25 -128h-554l1 10l67 16l133 648l-61 16l2 10h544l-26 -128h-17l-30 106h-281l-63 -306h227l39 82h17l-38 -185h-16l-6 81h-227zM630 881l-164 -150h-18l-104 150l13 11l117 -77l148 77z" />
    <glyph glyph-name="ecaron" unicode="&#x11b;" horiz-adv-x="534" 
d="M238 250c-30 -147 16 -220 137 -220c56 0 108 20 155 59l9 -12c-67 -55 -141 -82 -223 -82c-167 0 -237 100 -206 252c16 79 52 142 108 188s126 69 211 69c113 0 180 -43 161 -134c-7 -35 -21 -57 -68 -82s-143 -38 -284 -38zM413 489c-68 0 -137 -72 -172 -224
c151 0 218 29 234 112c13 63 -7 112 -62 112zM597 697l-164 -150h-19l-103 150l13 11l116 -76l149 76z" />
    <glyph glyph-name="Gcircumflex" unicode="&#x11c;" horiz-adv-x="743" 
d="M826 327l-66 -20l-56 -274l-17 -14l-59 23c-62 -32 -130 -48 -204 -48c-107 0 -186 32 -235 95c-49 64 -63 151 -40 260s72 196 147 260c76 65 166 97 270 97c83 0 146 -19 190 -56l54 26l8 -10l-29 -144h-17c-3 64 -31 111 -72 131c-40 21 -75 28 -114 28
c-149 0 -255 -110 -300 -333c-21 -99 -18 -178 8 -238c27 -59 77 -89 152 -89c50 0 95 13 134 38l50 248l-60 20l3 12h255zM429 742l165 150h18l103 -150l-12 -11l-117 76l-148 -76z" />
    <glyph glyph-name="gcircumflex" unicode="&#x11d;" horiz-adv-x="559" 
d="M622 488l-73 -21h-40c43 -30 58 -72 47 -126c-10 -49 -38 -87 -83 -116s-99 -43 -163 -43c-52 0 -94 9 -126 28c-22 -21 -35 -42 -38 -62c-7 -35 13 -52 61 -52h165c119 0 164 -45 145 -130c-22 -113 -127 -169 -315 -169c-131 0 -199 29 -187 88c7 39 45 74 114 105
c-44 15 -61 48 -50 101c9 48 37 80 94 127c-40 29 -55 70 -44 123c10 49 38 88 83 117s100 44 163 44c8 0 20 -1 36 -2h213zM364 -18h-174c-12 0 -21 0 -26 1c-28 -27 -44 -53 -48 -77c-13 -67 27 -92 115 -92c111 0 190 39 203 102c9 39 -11 66 -70 66zM247 342
c-20 -96 7 -145 66 -145s106 50 125 145c20 95 -7 145 -66 145c-57 0 -106 -50 -125 -145zM243 558l165 150h18l103 -150l-12 -11l-117 77l-148 -77z" />
    <glyph glyph-name="Gbreve" unicode="&#x11e;" horiz-adv-x="743" 
d="M826 327l-66 -20l-56 -274l-17 -14l-59 23c-62 -32 -130 -48 -204 -48c-107 0 -186 32 -235 95c-49 64 -63 151 -40 260s72 196 147 260c76 65 166 97 270 97c83 0 146 -19 190 -56l54 26l8 -10l-29 -144h-17c-3 64 -31 111 -72 131c-40 21 -75 28 -114 28
c-149 0 -255 -110 -300 -333c-21 -99 -18 -178 8 -238c27 -59 77 -89 152 -89c50 0 95 13 134 38l50 248l-60 20l3 12h255zM643 825c7 37 35 61 68 61c35 0 52 -23 45 -55c-6 -31 -28 -55 -66 -71c-38 -15 -78 -23 -120 -23c-25 0 -50 3 -73 8c-45 12 -85 43 -76 86
c7 33 34 55 67 55s52 -24 45 -61c-15 -74 22 -73 40 -73c13 0 20 1 35 9c16 8 28 29 35 64z" />
    <glyph glyph-name="gbreve" unicode="&#x11f;" horiz-adv-x="559" 
d="M622 488l-73 -21h-40c43 -30 58 -72 47 -126c-10 -49 -38 -87 -83 -116s-99 -43 -163 -43c-52 0 -94 9 -126 28c-22 -21 -35 -42 -38 -62c-7 -35 13 -52 61 -52h165c119 0 164 -45 145 -130c-22 -113 -127 -169 -315 -169c-131 0 -199 29 -187 88c7 39 45 74 114 105
c-44 15 -61 48 -50 101c9 48 37 80 94 127c-40 29 -55 70 -44 123c10 49 38 88 83 117s100 44 163 44c8 0 20 -1 36 -2h213zM364 -18h-174c-12 0 -21 0 -26 1c-28 -27 -44 -53 -48 -77c-13 -67 27 -92 115 -92c111 0 190 39 203 102c9 39 -11 66 -70 66zM247 342
c-20 -96 7 -145 66 -145s106 50 125 145c20 95 -7 145 -66 145c-57 0 -106 -50 -125 -145zM459 642c7 36 36 60 69 60s52 -23 45 -55c-7 -31 -29 -54 -68 -70c-38 -16 -78 -24 -119 -24c-70 -2 -161 29 -148 95c7 32 34 54 67 54s51 -23 44 -60c-15 -74 22 -73 40 -73
c13 0 20 1 35 9c16 8 28 29 35 64z" />
    <glyph glyph-name="Gdotaccent" unicode="&#x120;" horiz-adv-x="743" 
d="M826 327l-66 -20l-56 -274l-17 -14l-59 23c-62 -32 -130 -48 -204 -48c-107 0 -186 32 -235 95c-49 64 -63 151 -40 260s72 196 147 260c76 65 166 97 270 97c83 0 146 -19 190 -56l54 26l8 -10l-29 -144h-17c-3 64 -31 111 -72 131c-40 21 -75 28 -114 28
c-149 0 -255 -110 -300 -333c-21 -99 -18 -178 8 -238c27 -59 77 -89 152 -89c50 0 95 13 134 38l50 248l-60 20l3 12h255zM513 823c9 43 46 74 89 74s67 -31 58 -74c-8 -43 -45 -73 -88 -73c-41 0 -67 30 -59 73z" />
    <glyph glyph-name="gdotaccent" unicode="&#x121;" horiz-adv-x="559" 
d="M622 488l-73 -21h-40c43 -30 58 -72 47 -126c-10 -49 -38 -87 -83 -116s-99 -43 -163 -43c-52 0 -94 9 -126 28c-22 -21 -35 -42 -38 -62c-7 -35 13 -52 61 -52h165c119 0 164 -45 145 -130c-22 -113 -127 -169 -315 -169c-131 0 -199 29 -187 88c7 39 45 74 114 105
c-44 15 -61 48 -50 101c9 48 37 80 94 127c-40 29 -55 70 -44 123c10 49 38 88 83 117s100 44 163 44c8 0 20 -1 36 -2h213zM364 -18h-174c-12 0 -21 0 -26 1c-28 -27 -44 -53 -48 -77c-13 -67 27 -92 115 -92c111 0 190 39 203 102c9 39 -11 66 -70 66zM247 342
c-20 -96 7 -145 66 -145s106 50 125 145c20 95 -7 145 -66 145c-57 0 -106 -50 -125 -145zM330 640c9 43 46 73 89 73s67 -32 58 -73c-8 -43 -45 -74 -88 -74s-67 31 -59 74z" />
    <glyph glyph-name="Gcommaaccent" unicode="&#x122;" horiz-adv-x="743" 
d="M826 327l-66 -20l-56 -274l-17 -14l-59 23c-62 -32 -130 -48 -204 -48c-107 0 -186 32 -235 95c-49 64 -63 151 -40 260s72 196 147 260c76 65 166 97 270 97c83 0 146 -19 190 -56l54 26l8 -10l-29 -144h-17c-3 64 -31 111 -72 131c-40 21 -75 28 -114 28
c-149 0 -255 -110 -300 -333c-21 -99 -18 -178 8 -238c27 -59 77 -89 152 -89c50 0 95 13 134 38l50 248l-60 20l3 12h255zM342 -250l-9 12c29 24 58 61 62 78c1 5 0 8 -2 10c-31 0 -47 22 -42 53c5 29 34 52 63 52c31 0 51 -20 43 -59s-46 -88 -115 -146z" />
    <glyph glyph-name="gcommaaccent" unicode="&#x123;" horiz-adv-x="559" 
d="M622 488l-73 -21h-40c43 -30 58 -72 47 -126c-10 -49 -38 -87 -83 -116s-99 -43 -163 -43c-52 0 -94 9 -126 28c-22 -21 -35 -42 -38 -62c-7 -35 13 -52 61 -52h165c119 0 164 -45 145 -130c-22 -113 -127 -169 -315 -169c-131 0 -199 29 -187 88c7 39 45 74 114 105
c-44 15 -61 48 -50 101c9 48 37 80 94 127c-40 29 -55 70 -44 123c10 49 38 88 83 117s100 44 163 44c8 0 20 -1 36 -2h213zM364 -18h-174c-12 0 -21 0 -26 1c-28 -27 -44 -53 -48 -77c-13 -67 27 -92 115 -92c111 0 190 39 203 102c9 39 -11 66 -70 66zM247 342
c-20 -96 7 -145 66 -145s106 50 125 145c20 95 -7 145 -66 145c-57 0 -106 -50 -125 -145zM455 750l10 -12c-29 -24 -59 -61 -62 -78c-1 -5 -1 -9 1 -10c31 0 49 -22 42 -53s-33 -52 -64 -52c-29 0 -49 20 -41 59s46 87 114 146z" />
    <glyph glyph-name="Hcircumflex" unicode="&#x124;" horiz-adv-x="751" 
d="M17 0l2 12l68 19l130 637l-60 20l2 12h258l-2 -12l-68 -20l-62 -301h329l62 301l-61 20l3 12h258l-2 -12l-68 -20l-131 -637l61 -19l-2 -12h-259l2 12l68 19l65 314h-329l-64 -314l60 -19l-2 -12h-258zM383 742l164 150h19l103 -150l-13 -11l-117 76l-148 -76z" />
    <glyph glyph-name="hcircumflex" unicode="&#x125;" horiz-adv-x="605" 
d="M622 69l6 -8c-53 -44 -104 -66 -153 -66c-44 0 -68 23 -59 66l51 251c21 101 4 152 -51 152c-37 0 -95 -33 -138 -84l-77 -380h-110l-13 15l137 669l-56 13l2 13l174 17l11 -14l-43 -213l-21 -89l2 -3c57 60 137 96 200 96c97 0 133 -67 112 -174l-52 -254
c-5 -25 2 -37 20 -37c14 0 33 10 58 30zM319 756l164 150h18l104 -150l-12 -10l-118 76l-148 -76z" />
    <glyph glyph-name="Hbar" unicode="&#x126;" horiz-adv-x="735" 
d="M184 506h-64l2 10l67 12l28 140l-60 20l2 12h258l-2 -12l-68 -20l-29 -140h314l28 140l-60 20l3 12h258l-2 -12l-69 -20l-28 -140l62 -12l-2 -10h-65l-97 -475l60 -19l-1 -12h-259l2 12l68 19l65 314h-314l-64 -314l60 -19l-2 -12h-258l2 12l68 19zM314 506l-29 -139h313
l29 139h-313z" />
    <glyph glyph-name="hbar" unicode="&#x127;" horiz-adv-x="605" 
d="M622 69l6 -8c-53 -44 -104 -66 -153 -66c-44 0 -68 23 -59 66l51 251c21 101 4 152 -51 152c-37 0 -95 -33 -138 -84l-77 -380h-110l-13 15l117 571h-59l2 9l62 13l15 76l-56 13l2 13l174 17l11 -14l-21 -105h173l-4 -22h-174l-17 -86l-21 -89l2 -3c57 60 137 96 200 96
c97 0 133 -67 112 -174l-52 -254c-5 -25 2 -37 20 -37c14 0 33 10 58 30z" />
    <glyph glyph-name="Itilde" unicode="&#x128;" horiz-adv-x="292" 
d="M412 688l-66 -20l-130 -637l58 -19l-2 -12h-254l2 12l68 19l130 637l-60 20l3 12h253zM138 758l-10 12c75 63 126 95 151 95c12 0 29 -8 52 -23s41 -23 56 -23c30 0 63 15 100 45l10 -12c-77 -65 -129 -97 -156 -97c-11 0 -29 8 -52 23s-43 23 -59 23
c-27 0 -57 -14 -92 -43z" />
    <glyph glyph-name="itilde" unicode="&#x129;" horiz-adv-x="278" 
d="M93 574l-10 12c75 63 126 95 151 95c13 0 30 -8 52 -23c23 -15 42 -23 57 -23c29 0 63 15 100 45l9 -12c-77 -65 -129 -97 -156 -97c-11 0 -29 8 -52 23s-43 23 -58 23c-27 0 -58 -14 -93 -43zM84 431l-6 8c53 44 104 66 153 66c44 0 68 -23 59 -66l-74 -363
c-5 -25 2 -37 21 -37c14 0 33 10 58 30l5 -8c-53 -44 -103 -66 -151 -66c-44 0 -70 23 -61 66l74 363c6 25 -1 37 -20 37c-14 0 -33 -10 -58 -30z" />
    <glyph glyph-name="Imacron" unicode="&#x12a;" horiz-adv-x="292" 
d="M412 688l-66 -20l-130 -637l58 -19l-2 -12h-255l2 12l69 19l130 637l-60 20l2 12h254zM435 793h-255l7 34h255z" />
    <glyph glyph-name="imacron" unicode="&#x12b;" horiz-adv-x="277" 
d="M84 431l-6 8c53 44 103 66 152 66c44 0 69 -23 60 -66l-74 -363c-5 -25 2 -37 21 -37c15 0 34 10 57 30l6 -8c-48 -40 -108 -66 -151 -66c-44 0 -70 23 -61 66l74 363c6 25 -1 37 -20 37c-14 0 -33 -10 -58 -30zM387 593h-255l7 34h254z" />
    <glyph glyph-name="Ibreve" unicode="&#x12c;" horiz-adv-x="292" 
d="M412 688l-66 -20l-130 -637l58 -19l-2 -12h-254l2 12l68 19l130 637l-60 20l3 12h253zM370 825c7 37 35 61 68 61c35 0 52 -22 45 -55c-7 -31 -29 -55 -67 -71c-38 -15 -78 -23 -120 -23c-70 -2 -161 27 -148 94c7 33 34 55 67 55s52 -24 44 -61c-15 -74 22 -73 40 -73
c15 0 21 1 36 9c16 8 28 29 35 64z" />
    <glyph glyph-name="ibreve" unicode="&#x12d;" horiz-adv-x="277" 
d="M310 642c8 37 34 60 69 60c33 0 51 -23 44 -55c-6 -31 -28 -54 -67 -70c-38 -16 -78 -24 -119 -24s-78 8 -110 24s-45 40 -39 71c7 32 35 54 67 54c35 0 52 -23 45 -60c-15 -74 22 -73 40 -73c15 0 20 1 35 9c16 8 28 29 35 64zM84 431l-6 8c53 44 103 66 152 66
c44 0 69 -23 60 -66l-74 -363c-5 -25 2 -37 20 -37c15 0 35 10 58 30l6 -8c-48 -40 -108 -66 -151 -66c-44 0 -70 23 -61 66l74 363c6 25 -1 37 -20 37c-14 0 -33 -10 -58 -30z" />
    <glyph glyph-name="Iogonek" unicode="&#x12e;" horiz-adv-x="292" 
d="M233 -166l4 -5c-41 -35 -77 -52 -110 -52c-37 0 -52 20 -43 61c9 53 57 113 126 162h-193l2 12l69 19l130 637l-60 20l2 12h254l-2 -12l-66 -20l-130 -637l58 -19l-2 -12h-49c-43 -47 -75 -107 -83 -144c-6 -29 4 -43 31 -43c25 0 46 7 62 21z" />
    <glyph glyph-name="iogonek" unicode="&#x12f;" horiz-adv-x="277" 
d="M244 -149l4 -5c-42 -35 -79 -52 -110 -52c-37 0 -52 20 -44 61c11 53 48 104 112 151c-21 -7 -40 -11 -57 -11c-44 0 -70 23 -61 66l74 363c6 25 -1 37 -20 37c-14 0 -33 -10 -58 -30l-6 8c53 44 103 66 152 66c44 0 69 -23 60 -66l-74 -363c-5 -25 2 -37 21 -37
c15 0 34 10 57 30l6 -8c-23 -19 -45 -33 -68 -44h2c-43 -47 -75 -107 -83 -144c-6 -29 4 -43 30 -43c23 0 44 7 63 21zM278 719c47 0 73 -32 64 -79c-10 -72 -112 -106 -148 -57c-40 46 15 142 84 136z" />
    <glyph glyph-name="Idot" unicode="&#x130;" horiz-adv-x="292" 
d="M412 688l-66 -20l-130 -637l58 -19l-2 -12h-255l2 12l69 19l130 637l-60 20l2 12h254zM239 823c9 43 46 74 89 74s67 -31 58 -74c-8 -41 -44 -73 -87 -73s-68 30 -60 73z" />
    <glyph glyph-name="dotlessi" unicode="&#x131;" horiz-adv-x="277" 
d="M84 431l-6 8c53 44 103 66 152 66c44 0 69 -23 60 -66l-74 -363c-5 -25 2 -37 21 -37c15 0 34 10 57 30l6 -8c-48 -40 -108 -66 -151 -66c-44 0 -70 23 -61 66l74 363c6 25 -1 37 -20 37c-14 0 -33 -10 -58 -30z" />
    <glyph glyph-name="IJ" unicode="&#x132;" horiz-adv-x="581" 
d="M412 688l-66 -20l-130 -637l58 -19l-2 -12h-255l2 12l69 19l130 637l-60 20l2 12h254zM375 21l133 647l-61 20l3 12h253l-2 -12l-66 -20l-133 -647c-19 -99 -92 -165 -223 -226l-9 11c54 63 89 134 105 215z" />
    <glyph glyph-name="ij" unicode="&#x133;" horiz-adv-x="553" 
d="M84 431l-6 8c53 44 103 66 152 66c44 0 69 -23 60 -66l-74 -363c-5 -25 2 -37 21 -37c15 0 34 10 57 30l6 -8c-48 -40 -108 -66 -151 -66c-44 0 -70 23 -61 66l74 363c6 25 -1 37 -20 37c-14 0 -33 -10 -58 -30zM278 719c47 0 73 -32 64 -79c-10 -72 -112 -106 -148 -57
c-40 46 15 142 84 136zM267 -137l-9 -47c39 0 67 61 96 205l83 403c5 25 -2 37 -19 37c-15 0 -35 -10 -60 -30l-5 8c53 44 103 66 152 66c43 0 68 -23 60 -66l-85 -418c-31 -145 -113 -226 -237 -226c-72 0 -102 29 -94 73c7 36 38 61 71 61c36 0 55 -26 47 -66zM458 640
c9 45 49 79 96 79c45 0 71 -34 62 -79c-9 -47 -50 -80 -95 -80s-72 33 -63 80z" />
    <glyph glyph-name="Jcircumflex" unicode="&#x134;" horiz-adv-x="292" 
d="M86 21l133 647l-60 20l2 12h253l-3 -12l-65 -20l-133 -647c-20 -99 -93 -165 -222 -226l-9 11c53 63 88 134 104 215zM154 742l164 150h18l104 -150l-13 -11l-117 76l-148 -76z" />
    <glyph glyph-name="jcircumflex" unicode="&#x135;" horiz-adv-x="278" 
d="M-1 -137l-9 -47c37 0 65 61 96 205l82 403c6 25 0 37 -19 37c-15 0 -34 -10 -59 -30l-6 8c53 44 104 66 153 66c43 0 68 -23 59 -66l-85 -418c-31 -145 -113 -226 -236 -226c-72 0 -102 29 -94 73c8 36 38 61 71 61c36 0 55 -26 47 -66zM115 558l164 150h18l104 -150
l-12 -11l-118 77l-148 -77z" />
    <glyph glyph-name="Kcommaaccent" unicode="&#x136;" horiz-adv-x="700" 
d="M412 688l-68 -20l-70 -344l392 344l-79 20l2 12h187l-3 -12l-76 -20l-243 -214l181 -425l56 -17l-2 -12h-182l-159 367l-81 -72l-53 -264l60 -19l-2 -12h-258l2 12l68 19l131 637l-61 20l2 12h259zM267 -250l-9 12c29 24 58 61 62 78c1 4 0 7 -1 10c-31 0 -48 22 -43 53
c8 66 127 73 106 -7c-8 -39 -46 -88 -115 -146z" />
    <glyph glyph-name="kcommaaccent" unicode="&#x137;" horiz-adv-x="557" 
d="M335 727l11 -14l-145 -713h-110l-13 15l137 669l-56 13l2 13zM470 437l7 36c-36 -9 -82 -51 -138 -127l130 -272c11 -23 27 -35 46 -35c15 0 34 10 57 30l7 -8c-43 -35 -102 -65 -143 -65s-73 24 -94 72l-81 174c1 1 8 15 23 40s29 48 44 69c44 65 124 159 196 153
c45 0 77 -29 68 -73c-7 -36 -38 -61 -74 -61c-39 0 -57 26 -48 67zM200 -250l-9 12c29 24 58 61 62 78c1 5 0 8 -2 10c-29 0 -48 22 -41 53c5 29 32 52 63 52c29 0 49 -20 41 -59c-8 -41 -46 -90 -114 -146z" />
    <glyph glyph-name="Lacute" unicode="&#x139;" horiz-adv-x="586" 
d="M347 668l-132 -646h257l72 106h18l-26 -128h-519l1 10l67 16l132 642l-60 20l2 12h258l-2 -12zM223 731l-8 11l167 150l54 -68z" />
    <glyph glyph-name="lacute" unicode="&#x13a;" horiz-adv-x="277" 
d="M301 69l6 -8c-53 -44 -103 -66 -152 -66c-44 0 -69 23 -60 66l127 623l-56 13l2 13l174 17l11 -14l-130 -637c-5 -25 2 -37 20 -37c14 0 33 10 58 30zM226 746l-8 10l166 150l54 -67z" />
    <glyph glyph-name="Lcommaaccent" unicode="&#x13b;" horiz-adv-x="586" 
d="M347 668l-132 -646h257l72 106h18l-26 -128h-519l1 10l67 16l132 642l-60 20l2 12h258l-2 -12zM213 -250l-10 12c29 24 59 61 62 78c1 4 0 7 -1 10c-49 -4 -57 61 -20 91c38 30 95 12 83 -45c-8 -39 -46 -87 -114 -146z" />
    <glyph glyph-name="lcommaaccent" unicode="&#x13c;" horiz-adv-x="277" 
d="M294 69l6 -8c-53 -44 -103 -66 -152 -66c-44 0 -69 23 -60 66l127 623l-56 13l2 13l174 17l11 -14l-130 -637c-5 -25 2 -37 20 -37c14 0 33 10 58 30zM56 -250l-9 12c28 24 58 61 62 78c1 5 0 8 -2 10c-31 0 -47 22 -42 53c6 65 127 73 105 -7c-7 -39 -45 -88 -114 -146z
" />
    <glyph glyph-name="Lcaron" unicode="&#x13d;" horiz-adv-x="586" 
d="M347 668l-132 -646h257l73 106h17l-26 -128h-519l2 10l66 16l132 642l-60 20l3 12h258l-3 -12zM469 881l-165 -150h-18l-104 150l13 11l116 -77l149 77z" />
    <glyph glyph-name="lcaron" unicode="&#x13e;" horiz-adv-x="382" 
d="M301 69l6 -8c-53 -44 -103 -66 -152 -66c-44 0 -69 23 -60 66l127 623l-56 13l2 13l174 17l11 -14l-130 -637c-5 -25 2 -37 20 -37c14 0 33 10 58 30zM395 519l-10 12c29 25 59 62 62 78c1 5 0 8 -2 10c-29 0 -48 22 -41 53c5 29 32 52 63 52s49 -22 41 -59
c-7 -39 -45 -87 -113 -146z" />
    <glyph glyph-name="Ldot" unicode="&#x13f;" horiz-adv-x="586" 
d="M347 668l-132 -646h257l72 106h18l-26 -128h-519l1 10l67 16l132 642l-60 20l2 12h258l-2 -12zM440 350c8 39 42 67 79 67c39 0 61 -30 53 -67c-7 -39 -41 -67 -80 -67c-37 0 -59 28 -52 67z" />
    <glyph glyph-name="ldot" unicode="&#x140;" horiz-adv-x="446" 
d="M301 69l6 -8c-53 -44 -103 -66 -152 -66c-44 0 -69 23 -60 66l127 623l-56 13l2 13l174 17l11 -14l-130 -637c-5 -25 2 -37 20 -37c14 0 33 10 58 30zM359 300c8 39 41 67 80 67c37 0 60 -28 53 -67c-8 -39 -43 -67 -80 -67c-39 0 -61 30 -53 67z" />
    <glyph glyph-name="Lslash" unicode="&#x141;" horiz-adv-x="586" 
d="M133 258l-67 -57l-12 16l86 72l77 379l-60 20l2 12h258l-2 -12l-68 -20l-61 -294l151 127l13 -16l-170 -142l-65 -321h256l73 106h18l-26 -128h-519l1 10l67 16z" />
    <glyph glyph-name="lslash" unicode="&#x142;" horiz-adv-x="277" 
d="M294 69l6 -8c-53 -44 -103 -66 -152 -66c-44 0 -69 23 -60 66l42 207l-61 -52l-13 16l81 67l78 385l-56 13l2 13l174 17l11 -14l-64 -314l62 52l12 -16l-81 -67l-59 -292c-5 -25 2 -37 20 -37c14 0 33 10 58 30z" />
    <glyph glyph-name="Nacute" unicode="&#x143;" horiz-adv-x="689" 
d="M17 0l1 10l68 19l131 639l-60 20l2 12h199l264 -522l102 493l-61 19l2 10h150l-2 -10l-67 -19l-137 -671h-36l-336 657l-129 -628l60 -19l-1 -10h-150zM422 731l-9 11l168 150l53 -68z" />
    <glyph glyph-name="nacute" unicode="&#x144;" horiz-adv-x="605" 
d="M84 431l-6 8c53 44 103 66 152 66c44 0 69 -23 60 -66l-8 -28l2 -3c57 61 137 96 201 96c97 0 132 -69 111 -174l-52 -254c-5 -25 2 -37 20 -37c14 0 33 10 58 30l6 -8c-53 -44 -104 -66 -153 -66c-43 0 -68 23 -59 66l51 251c10 41 11 77 2 107c-8 30 -27 45 -56 45
c-40 0 -94 -33 -135 -84l-77 -380h-110l-13 15l84 409c6 25 -1 37 -20 37c-14 0 -33 -10 -58 -30zM341 547l-7 11l167 150l53 -67z" />
    <glyph glyph-name="Ncommaaccent" unicode="&#x145;" horiz-adv-x="689" 
d="M17 0l1 10l68 19l131 639l-60 20l2 12h199l264 -522l102 493l-61 19l2 10h150l-2 -10l-67 -19l-137 -671h-36l-336 657l-129 -628l60 -19l-1 -10h-150zM261 -250l-9 12c29 24 59 61 62 78c1 4 0 7 -1 10c-31 0 -49 22 -42 53c6 65 127 73 105 -7
c-9 -41 -47 -90 -115 -146z" />
    <glyph glyph-name="ncommaaccent" unicode="&#x146;" horiz-adv-x="605" 
d="M84 431l-6 8c53 44 103 66 152 66c44 0 69 -23 60 -66l-8 -28l2 -3c57 61 137 96 201 96c97 0 132 -69 111 -174l-52 -254c-5 -25 2 -37 20 -37c14 0 33 10 58 30l6 -8c-53 -44 -104 -66 -153 -66c-43 0 -68 23 -59 66l51 251c10 41 11 77 2 107c-8 30 -27 45 -56 45
c-40 0 -94 -33 -135 -84l-77 -380h-110l-13 15l84 409c6 25 -1 37 -20 37c-14 0 -33 -10 -58 -30zM219 -250l-9 12c29 24 58 61 62 78c1 5 0 8 -2 10c-29 0 -48 22 -41 53c6 65 127 73 105 -7c-9 -41 -47 -90 -115 -146z" />
    <glyph glyph-name="Ncaron" unicode="&#x147;" horiz-adv-x="689" 
d="M17 0l1 10l68 19l131 639l-60 20l2 12h199l264 -522l102 493l-61 19l2 10h150l-2 -10l-67 -19l-137 -671h-36l-336 657l-129 -628l60 -19l-1 -10h-150zM667 881l-164 -150h-19l-104 150l13 11l117 -77l148 77z" />
    <glyph glyph-name="ncaron" unicode="&#x148;" horiz-adv-x="605" 
d="M84 431l-6 8c53 44 103 66 152 66c44 0 69 -23 60 -66l-8 -28l2 -3c57 61 137 96 201 96c97 0 132 -69 111 -174l-52 -254c-5 -25 2 -37 20 -37c14 0 33 10 58 30l6 -8c-53 -44 -104 -66 -153 -66c-43 0 -68 23 -59 66l51 251c10 41 11 77 2 107c-8 30 -27 45 -56 45
c-40 0 -94 -33 -135 -84l-77 -380h-110l-13 15l84 409c6 25 -1 37 -20 37c-14 0 -33 -10 -58 -30zM587 697l-164 -150h-19l-103 150l12 11l117 -76l149 76z" />
    <glyph glyph-name="Eng" unicode="&#x14a;" horiz-adv-x="689" 
d="M17 0l1 10l68 19l131 639l-60 20l2 12h195l249 -614l121 585l-61 19l2 10h150l-2 -10l-67 -19l-133 -650c-20 -99 -94 -165 -225 -226l-10 11c52 59 87 131 105 215l4 23l-250 613l-129 -628l60 -19l-1 -10h-150z" />
    <glyph glyph-name="eng" unicode="&#x14b;" horiz-adv-x="605" 
d="M319 -137l-9 -47c39 0 68 62 97 205l60 291c10 41 11 77 2 107c-8 30 -27 45 -56 45c-40 0 -94 -33 -135 -84l-77 -380h-110l-13 15l84 409c6 25 -1 37 -20 37c-14 0 -33 -10 -58 -30l-6 8c53 44 103 66 152 66c44 0 69 -23 60 -66l-8 -28l2 -3c57 61 137 96 201 96
c97 0 132 -69 111 -174l-64 -309c-29 -145 -112 -226 -236 -226c-73 0 -102 29 -94 73c7 36 36 61 71 61s54 -26 46 -66z" />
    <glyph glyph-name="Omacron" unicode="&#x14c;" horiz-adv-x="760" 
d="M148 350c22 108 70 194 145 259s163 97 263 97c101 0 175 -32 223 -97c49 -65 62 -151 40 -259c-22 -109 -71 -195 -146 -260c-75 -64 -162 -96 -262 -96s-174 32 -223 96c-49 65 -62 151 -40 260zM553 691c-120 0 -223 -118 -268 -342s8 -340 129 -340s224 116 269 340
s-9 342 -130 342zM702 793h-254l6 34h254z" />
    <glyph glyph-name="omacron" unicode="&#x14d;" horiz-adv-x="579" 
d="M111 249c15 77 51 138 107 185c57 47 123 70 198 70s131 -23 168 -70s48 -108 32 -185c-15 -77 -51 -139 -107 -185s-122 -69 -197 -69s-132 23 -169 69s-48 108 -32 185zM238 249c-29 -161 1 -239 77 -239c77 0 143 83 174 239c31 161 0 240 -76 240
c-77 0 -143 -83 -175 -240zM561 593h-254l6 34h255z" />
    <glyph glyph-name="Obreve" unicode="&#x14e;" horiz-adv-x="760" 
d="M148 350c22 108 70 194 145 259s163 97 263 97c101 0 175 -32 223 -97c49 -65 62 -151 40 -259c-22 -109 -71 -195 -146 -260c-75 -64 -162 -96 -262 -96s-174 32 -223 96c-49 65 -62 151 -40 260zM553 691c-120 0 -223 -118 -268 -342s8 -340 129 -340s224 116 269 340
s-9 342 -130 342zM636 825c8 37 36 61 69 61s52 -23 45 -55c-7 -31 -29 -55 -68 -71c-38 -15 -78 -23 -119 -23s-78 8 -110 23c-32 16 -45 40 -39 71c7 33 35 55 68 55s51 -24 44 -61c-15 -74 22 -73 40 -73c15 0 20 1 35 9c16 8 28 29 35 64z" />
    <glyph glyph-name="obreve" unicode="&#x14f;" horiz-adv-x="579" 
d="M111 249c15 77 51 138 107 185c57 47 123 70 198 70s131 -23 168 -70s48 -108 32 -185c-15 -77 -51 -139 -107 -185s-122 -69 -197 -69s-132 23 -169 69s-48 108 -32 185zM238 249c-29 -161 1 -239 77 -239c77 0 143 83 174 239c31 161 0 240 -76 240
c-77 0 -143 -83 -175 -240zM500 642c7 36 35 60 68 60s52 -23 45 -55c-7 -31 -29 -54 -68 -70c-38 -16 -78 -24 -119 -24c-70 -2 -161 29 -148 95c5 32 34 54 67 54s51 -23 44 -60c-15 -74 22 -73 40 -73c15 0 21 1 36 9c16 8 28 29 35 64z" />
    <glyph glyph-name="Ohungarumlaut" unicode="&#x150;" horiz-adv-x="760" 
d="M148 350c22 108 70 194 145 259s163 97 263 97c101 0 175 -32 223 -97c49 -65 62 -151 40 -259c-22 -109 -71 -195 -146 -260c-75 -64 -162 -96 -262 -96s-174 32 -223 96c-49 65 -62 151 -40 260zM553 691c-120 0 -223 -118 -268 -342s8 -340 129 -340s224 116 269 340
s-9 342 -130 342zM395 731l-8 11l158 150l54 -68zM573 731l-8 11l158 150l53 -68z" />
    <glyph glyph-name="ohungarumlaut" unicode="&#x151;" horiz-adv-x="579" 
d="M111 249c15 77 51 138 107 185c57 47 123 70 198 70s131 -23 168 -70s48 -108 32 -185c-15 -77 -51 -139 -107 -185s-122 -69 -197 -69s-132 23 -169 69s-48 108 -32 185zM238 249c-29 -161 1 -239 77 -239c77 0 143 83 174 239c31 161 0 240 -76 240
c-77 0 -143 -83 -175 -240zM259 547l-9 11l158 150l54 -67zM436 547l-8 11l158 150l54 -67z" />
    <glyph glyph-name="OE" unicode="&#x152;" horiz-adv-x="989" 
d="M710 350l-68 -328h270l72 106h18l-26 -128h-492c-23 -4 -47 -6 -73 -6c-100 0 -174 32 -223 96c-49 65 -62 151 -40 260c22 108 70 194 145 259s163 97 263 97c25 0 48 -2 69 -6h483l-26 -128h-17l-29 106h-259l-63 -306h204l40 82h16l-37 -185h-17l-6 81h-204zM414 9
c42 0 79 20 112 59l116 563c-18 40 -48 60 -89 60c-120 0 -223 -118 -268 -342s8 -340 129 -340z" />
    <glyph glyph-name="oe" unicode="&#x153;" horiz-adv-x="896" 
d="M601 250c-30 -147 16 -220 138 -220c56 0 108 20 155 59l9 -12c-67 -55 -141 -82 -223 -82c-85 0 -142 27 -171 80c-53 -53 -119 -80 -197 -80c-75 0 -132 23 -169 69s-48 108 -32 185c15 77 51 138 107 185c57 47 123 70 198 70c79 0 133 -27 164 -82
c56 55 127 82 212 82c113 0 181 -43 162 -134c-8 -36 -22 -57 -69 -82s-141 -38 -284 -38zM315 10c60 0 115 53 152 157c-2 25 0 52 6 80c6 29 15 56 27 80c6 108 -23 162 -87 162c-77 0 -143 -83 -175 -240c-29 -161 1 -239 77 -239zM777 489c-68 0 -137 -73 -173 -224
c152 0 219 29 235 112c13 63 -7 112 -62 112z" />
    <glyph glyph-name="Racute" unicode="&#x154;" horiz-adv-x="672" 
d="M684 510c-20 -96 -100 -164 -212 -181c24 -9 43 -33 57 -73l79 -227l55 -17l-2 -12h-177l-109 323h-98l-60 -292l60 -19l-2 -12h-258l2 12l68 19l131 643l-61 16l2 10h309c153 0 240 -73 216 -190zM449 678h-100l-68 -333h100c84 0 148 55 171 166s-19 167 -103 167z
M406 731l-8 11l167 150l53 -68z" />
    <glyph glyph-name="racute" unicode="&#x155;" horiz-adv-x="497" 
d="M84 431l-6 8c53 44 103 66 152 66c44 0 69 -23 60 -66l-12 -45l2 -3c3 7 7 14 27 39c27 37 70 72 127 74c65 0 113 -43 98 -112c-9 -49 -41 -75 -84 -75c-44 0 -65 29 -56 77l15 75c-4 2 -8 3 -13 3c-19 0 -38 -10 -59 -31c-20 -21 -36 -41 -47 -61l-16 -31l-71 -349
h-110l-13 15l84 409c6 25 -1 37 -20 37c-14 0 -33 -10 -58 -30zM293 547l-8 11l167 150l53 -67z" />
    <glyph glyph-name="Rcommaaccent" unicode="&#x156;" horiz-adv-x="672" 
d="M684 510c-20 -96 -100 -164 -212 -181c24 -9 43 -33 57 -73l79 -227l55 -17l-2 -12h-177l-109 323h-98l-60 -292l60 -19l-2 -12h-258l2 12l68 19l131 643l-61 16l2 10h309c153 0 240 -73 216 -190zM449 678h-100l-68 -333h100c84 0 148 55 171 166s-19 167 -103 167z
M253 -250l-9 12c29 24 58 61 62 78c1 4 0 7 -1 10c-49 -4 -57 61 -20 91c38 30 95 12 83 -45c-8 -39 -46 -88 -115 -146z" />
    <glyph glyph-name="rcommaaccent" unicode="&#x157;" horiz-adv-x="497" 
d="M84 431l-6 8c53 44 103 66 152 66c44 0 69 -23 60 -66l-12 -45l2 -3c3 7 7 14 27 39c27 37 70 72 127 74c65 0 113 -43 98 -112c-9 -49 -41 -75 -84 -75c-44 0 -65 29 -56 77l15 75c-4 2 -8 3 -13 3c-19 0 -38 -10 -59 -31c-20 -21 -36 -41 -47 -61l-16 -31l-71 -349
h-110l-13 15l84 409c6 25 -1 37 -20 37c-14 0 -33 -10 -58 -30zM64 -250l-9 12c29 24 59 61 62 78c1 4 0 7 -1 10c-31 0 -49 22 -42 53c6 65 127 73 105 -7c-9 -41 -47 -90 -115 -146z" />
    <glyph glyph-name="Rcaron" unicode="&#x158;" horiz-adv-x="672" 
d="M684 510c-20 -96 -100 -164 -212 -181c24 -9 43 -33 57 -73l79 -227l55 -17l-2 -12h-177l-109 323h-98l-60 -292l60 -19l-2 -12h-258l2 12l68 19l131 643l-61 16l2 10h309c153 0 240 -73 216 -190zM449 678h-100l-68 -333h100c84 0 148 55 171 166s-19 167 -103 167z
M647 881l-165 -150h-18l-103 150l12 11l117 -77l148 77z" />
    <glyph glyph-name="rcaron" unicode="&#x159;" horiz-adv-x="497" 
d="M84 431l-6 8c53 44 103 66 152 66c44 0 69 -23 60 -66l-12 -45l2 -3c3 7 7 14 27 39c27 37 70 72 127 74c65 0 113 -43 98 -112c-9 -49 -41 -75 -84 -75c-44 0 -65 29 -56 77l15 75c-4 2 -8 3 -13 3c-19 0 -38 -10 -59 -31c-20 -21 -36 -41 -47 -61l-16 -31l-71 -349
h-110l-13 15l84 409c6 25 -1 37 -20 37c-14 0 -33 -10 -58 -30zM538 697l-164 -150h-19l-103 150l12 11l117 -76l148 76z" />
    <glyph glyph-name="Sacute" unicode="&#x15a;" horiz-adv-x="588" 
d="M63 9l-8 10l30 148h19c3 -63 29 -109 65 -130c37 -20 72 -28 109 -28c103 0 177 55 196 146c8 44 1 73 -25 92c-15 11 -23 17 -47 26c-23 9 -35 14 -66 23l-36 11l-33 12c-29 12 -35 17 -59 30c-23 15 -29 26 -42 45c-17 26 -21 64 -11 109c23 120 120 203 275 203
c62 0 114 -15 157 -45l52 29l8 -10l-30 -147h-18c-6 132 -98 158 -157 158c-89 0 -159 -56 -175 -135c-8 -40 -3 -66 25 -87c15 -10 28 -18 41 -23s33 -13 61 -22c33 -12 44 -16 73 -28s40 -19 63 -35c47 -33 70 -79 55 -158c-25 -125 -127 -209 -300 -209
c-69 0 -125 15 -170 45zM368 731l-8 11l167 150l54 -68z" />
    <glyph glyph-name="sacute" unicode="&#x15b;" horiz-adv-x="468" 
d="M394 415l13 57c-19 11 -41 17 -64 17c-64 0 -110 -36 -119 -85c-11 -49 17 -67 88 -92c60 -23 100 -42 119 -57c34 -28 46 -66 36 -113c-19 -91 -93 -147 -234 -147c-112 0 -173 36 -160 99c8 37 35 58 67 58c36 0 53 -25 44 -68l-11 -57c17 -11 39 -17 66 -17
c71 0 124 35 135 90c11 52 -22 74 -102 102c-29 10 -51 18 -66 24c-14 7 -29 16 -46 28c-32 24 -39 56 -30 103c19 89 89 147 222 147c105 0 166 -35 154 -99c-8 -37 -36 -58 -68 -58c-35 0 -52 25 -44 68zM284 547l-9 11l168 150l53 -67z" />
    <glyph glyph-name="Scircumflex" unicode="&#x15c;" horiz-adv-x="588" 
d="M63 9l-8 10l30 148h19c3 -63 29 -109 65 -130c37 -20 72 -28 109 -28c103 0 177 55 196 146c8 44 1 73 -25 92c-15 11 -23 17 -47 26c-23 9 -35 14 -66 23l-36 11l-33 12c-29 12 -35 17 -59 30c-23 15 -29 26 -42 45c-17 26 -21 64 -11 109c23 120 120 203 275 203
c62 0 114 -15 157 -45l52 29l8 -10l-30 -147h-18c-6 132 -98 158 -157 158c-89 0 -159 -56 -175 -135c-8 -40 -3 -66 25 -87c15 -10 28 -18 41 -23s33 -13 61 -22c33 -12 44 -16 73 -28s40 -19 63 -35c47 -33 70 -79 55 -158c-25 -125 -127 -209 -300 -209
c-69 0 -125 15 -170 45zM295 742l164 150h19l103 -150l-12 -11l-117 76l-149 -76z" />
    <glyph glyph-name="scircumflex" unicode="&#x15d;" horiz-adv-x="468" 
d="M394 415l13 57c-19 11 -41 17 -64 17c-64 0 -110 -36 -119 -85c-11 -49 17 -67 88 -92c60 -23 100 -42 119 -57c34 -28 46 -66 36 -113c-19 -91 -93 -147 -234 -147c-112 0 -173 36 -160 99c8 37 35 58 67 58c36 0 53 -25 44 -68l-11 -57c17 -11 39 -17 66 -17
c71 0 124 35 135 90c11 52 -22 74 -102 102c-29 10 -51 18 -66 24c-14 7 -29 16 -46 28c-32 24 -39 56 -30 103c19 89 89 147 222 147c105 0 166 -35 154 -99c-8 -37 -36 -58 -68 -58c-35 0 -52 25 -44 68zM214 558l164 150h19l103 -150l-13 -11l-117 77l-148 -77z" />
    <glyph glyph-name="Scedilla" unicode="&#x15e;" horiz-adv-x="588" 
d="M192 -113l83 107c-65 2 -119 17 -160 45l-52 -30l-8 10l30 148h19c3 -63 29 -109 65 -130c37 -20 72 -28 109 -28c103 0 177 55 196 146c8 44 1 73 -25 92c-15 11 -23 17 -47 26c-23 9 -35 14 -66 23l-36 11l-33 12c-29 12 -35 17 -59 30c-23 15 -29 26 -42 45
c-17 26 -21 64 -11 109c23 120 120 203 275 203c62 0 114 -15 157 -45l52 29l8 -10l-30 -147h-18c-6 132 -98 158 -157 158c-89 0 -159 -56 -175 -135c-8 -40 -3 -66 25 -87c15 -10 28 -18 41 -23s33 -13 61 -22c33 -12 44 -16 73 -28s40 -19 63 -35c47 -33 70 -79 55 -158
c-25 -123 -124 -206 -292 -209l-32 -43c57 0 83 -16 77 -47c-7 -32 -49 -78 -126 -138l-6 8c35 27 54 54 59 79s-12 34 -73 34z" />
    <glyph glyph-name="scedilla" unicode="&#x15f;" horiz-adv-x="468" 
d="M147 -113l84 108c-112 1 -171 36 -158 99c8 37 35 58 67 58c36 0 53 -25 44 -68l-11 -57c17 -11 39 -17 66 -17c71 0 124 35 135 90c11 52 -22 74 -102 102c-29 10 -51 18 -66 24c-14 7 -29 16 -46 28c-32 24 -39 56 -30 103c19 89 89 147 222 147c105 0 166 -35 154 -99
c-8 -37 -36 -58 -68 -58c-35 0 -52 25 -44 68l13 57c-19 11 -41 17 -64 17c-64 0 -110 -36 -119 -85c-11 -49 17 -67 88 -92c60 -23 100 -42 119 -57c34 -28 46 -66 36 -113c-19 -93 -92 -142 -218 -146l-33 -45c57 0 83 -16 77 -47c-7 -32 -49 -78 -126 -138l-6 8
c34 27 54 54 60 79c5 25 -13 34 -74 34z" />
    <glyph glyph-name="Scaron" unicode="&#x160;" horiz-adv-x="588" 
d="M63 9l-8 10l30 148h19c3 -63 29 -109 65 -130c37 -20 72 -28 109 -28c103 0 177 55 196 146c8 44 1 73 -25 92c-15 11 -23 17 -47 26c-23 9 -35 14 -66 23l-36 11l-33 12c-29 12 -35 17 -59 30c-23 15 -29 26 -42 45c-17 26 -21 64 -11 109c23 120 120 203 275 203
c62 0 114 -15 157 -45l52 29l8 -10l-30 -147h-18c-6 132 -98 158 -157 158c-89 0 -159 -56 -175 -135c-8 -40 -3 -66 25 -87c15 -10 28 -18 41 -23s33 -13 61 -22c33 -12 44 -16 73 -28s40 -19 63 -35c47 -33 70 -79 55 -158c-25 -125 -127 -209 -300 -209
c-69 0 -125 15 -170 45zM609 881l-164 -150h-18l-104 150l13 11l117 -77l148 77z" />
    <glyph glyph-name="scaron" unicode="&#x161;" horiz-adv-x="468" 
d="M394 415l13 57c-19 11 -41 17 -64 17c-64 0 -110 -36 -119 -85c-11 -49 17 -67 88 -92c60 -23 100 -42 119 -57c34 -28 46 -66 36 -113c-19 -91 -93 -147 -234 -147c-112 0 -173 36 -160 99c8 37 35 58 67 58c36 0 53 -25 44 -68l-11 -57c17 -11 39 -17 66 -17
c71 0 124 35 135 90c11 52 -22 74 -102 102c-29 10 -51 18 -66 24c-14 7 -29 16 -46 28c-32 24 -39 56 -30 103c19 89 89 147 222 147c105 0 166 -35 154 -99c-8 -37 -36 -58 -68 -58c-35 0 -52 25 -44 68zM528 697l-164 -150h-18l-104 150l13 11l117 -76l148 76z" />
    <glyph glyph-name="Tcommaaccent" unicode="&#x162;" horiz-adv-x="672" 
d="M742 572l-29 106h-174l-132 -647l60 -19l-2 -12h-258l2 12l68 19l133 647h-174l-73 -106h-17l26 128h613l-26 -128h-17zM253 -250l-9 12c29 24 58 61 62 78c1 4 0 7 -1 10c-31 0 -48 22 -43 53c7 65 128 73 106 -7c-9 -41 -47 -90 -115 -146z" />
    <glyph glyph-name="tcommaaccent" unicode="&#x163;" horiz-adv-x="393" 
d="M186 478h-60l2 10c73 17 139 61 196 131l12 -15l-21 -104h159l-4 -22h-159l-71 -345c-15 -69 5 -103 58 -103c30 0 58 11 85 34l10 -11c-47 -39 -99 -58 -156 -58c-97 0 -139 55 -123 138zM140 -250l-9 12c28 24 58 61 62 78c1 5 0 8 -2 10c-31 0 -47 22 -42 53
c7 31 33 52 64 52c29 0 49 -20 41 -59c-7 -39 -45 -88 -114 -146z" />
    <glyph glyph-name="Tcaron" unicode="&#x164;" horiz-adv-x="672" 
d="M742 572l-29 106h-174l-132 -647l60 -19l-2 -12h-258l2 12l68 19l133 647h-174l-73 -106h-17l26 128h613l-26 -128h-17zM658 881l-164 -150h-18l-104 150l12 11l117 -77l149 77z" />
    <glyph glyph-name="tcaron" unicode="&#x165;" horiz-adv-x="393" 
d="M186 478h-60l2 10c73 17 139 61 196 131l12 -15l-21 -104h159l-4 -22h-159l-71 -345c-15 -69 5 -103 58 -103c30 0 58 11 85 34l10 -11c-47 -39 -99 -58 -156 -58c-97 0 -139 55 -123 138zM422 547l-10 12c29 24 59 61 62 78c1 5 1 8 -1 10c-31 0 -48 21 -43 52
c8 67 127 74 106 -6c-4 -18 -14 -37 -29 -58s-28 -36 -39 -47s-27 -24 -46 -41z" />
    <glyph glyph-name="Tbar" unicode="&#x166;" horiz-adv-x="672" 
d="M343 350h-118l4 22h118l63 306h-174l-73 -106h-17l26 128h613l-26 -128h-17l-29 106h-174l-63 -306h117l-4 -22h-117l-65 -319l60 -19l-2 -12h-258l2 12l68 19z" />
    <glyph glyph-name="tbar" unicode="&#x167;" horiz-adv-x="393" 
d="M139 309h-60l2 10l62 12l31 147h-60l2 10c73 17 139 61 196 131l12 -15l-21 -104h159l-4 -22h-159l-31 -147h159l-4 -22h-159l-36 -176c-15 -69 5 -103 58 -103c30 0 58 11 85 34l10 -11c-47 -39 -99 -58 -156 -58c-97 0 -139 55 -123 138z" />
    <glyph glyph-name="Utilde" unicode="&#x168;" horiz-adv-x="715" 
d="M864 690l-68 -19l-84 -411c-17 -82 -55 -147 -116 -195c-60 -47 -131 -71 -214 -71s-146 24 -187 72s-53 113 -36 194l83 408l-60 20l2 12h258l-2 -12l-68 -20l-83 -408c-29 -141 35 -220 152 -220c61 0 114 19 160 58s76 93 90 162l84 411l-61 19l2 10h150zM393 758
l-10 12c87 72 123 95 151 95c12 0 29 -8 52 -23s41 -23 56 -23c30 0 63 15 100 45l10 -12c-77 -65 -129 -97 -156 -97c-11 0 -29 8 -52 23s-43 23 -58 23c-27 0 -58 -14 -93 -43z" />
    <glyph glyph-name="utilde" unicode="&#x169;" horiz-adv-x="600" 
d="M84 431l-6 8c53 44 103 66 152 66c44 0 69 -23 60 -66l-55 -270c-19 -75 -2 -134 51 -134c47 0 92 28 137 84l78 381h110l12 -15l-84 -409c-5 -25 2 -37 20 -37c14 0 33 10 58 30l6 -8c-53 -44 -103 -66 -152 -66c-44 0 -69 23 -60 66l8 26l-2 4
c-59 -64 -124 -96 -195 -96c-95 0 -135 63 -116 155l56 274c6 25 -1 37 -20 37c-14 0 -33 -10 -58 -30zM253 574l-10 12c75 63 125 95 150 95c13 0 30 -8 53 -23s41 -23 56 -23c30 0 63 15 100 45l10 -12c-77 -65 -130 -97 -157 -97c-11 0 -29 8 -52 23s-42 23 -58 23
c-28 0 -59 -14 -92 -43z" />
    <glyph glyph-name="Umacron" unicode="&#x16a;" horiz-adv-x="715" 
d="M864 690l-68 -19l-84 -411c-17 -82 -55 -147 -116 -195c-60 -47 -131 -71 -214 -71s-146 24 -187 72s-53 113 -36 194l83 408l-60 20l2 12h258l-2 -12l-68 -20l-83 -408c-29 -141 35 -220 152 -220c61 0 114 19 160 58s76 93 90 162l84 411l-61 19l2 10h150zM690 793
h-254l6 34h255z" />
    <glyph glyph-name="umacron" unicode="&#x16b;" horiz-adv-x="600" 
d="M84 431l-6 8c53 44 103 66 152 66c44 0 69 -23 60 -66l-55 -270c-19 -75 -2 -134 51 -134c47 0 92 28 137 84l78 381h110l12 -15l-84 -409c-5 -25 2 -37 20 -37c14 0 33 10 58 30l6 -8c-53 -44 -103 -66 -152 -66c-44 0 -69 23 -60 66l8 26l-2 4
c-59 -64 -124 -96 -195 -96c-95 0 -135 63 -116 155l56 274c6 25 -1 37 -20 37c-14 0 -33 -10 -58 -30zM547 593h-254l7 34h254z" />
    <glyph glyph-name="Ubreve" unicode="&#x16c;" horiz-adv-x="715" 
d="M864 690l-68 -19l-84 -411c-17 -82 -55 -147 -116 -195c-60 -47 -131 -71 -214 -71s-146 24 -187 72s-53 113 -36 194l83 408l-60 20l2 12h258l-2 -12l-68 -20l-83 -408c-29 -141 35 -220 152 -220c61 0 114 19 160 58s76 93 90 162l84 411l-61 19l2 10h150zM624 825
c8 37 36 61 69 61s52 -23 45 -55c-7 -31 -29 -55 -68 -71c-38 -15 -78 -23 -119 -23c-70 -2 -161 27 -148 94c7 33 34 55 67 55s51 -24 44 -61c-15 -74 22 -73 40 -73c13 0 20 1 35 9c16 8 28 29 35 64z" />
    <glyph glyph-name="ubreve" unicode="&#x16d;" horiz-adv-x="600" 
d="M84 431l-6 8c53 44 103 66 152 66c44 0 69 -23 60 -66l-55 -270c-19 -75 -2 -134 51 -134c47 0 92 28 137 84l78 381h110l12 -15l-84 -409c-5 -25 2 -37 20 -37c14 0 33 10 58 30l6 -8c-53 -44 -103 -66 -152 -66c-44 0 -69 23 -60 66l8 26l-2 4
c-59 -64 -124 -96 -195 -96c-95 0 -135 63 -116 155l56 274c6 25 -1 37 -20 37c-14 0 -33 -10 -58 -30zM486 642c7 36 35 60 68 60c35 0 52 -23 45 -55c-6 -31 -28 -54 -67 -70c-38 -16 -78 -24 -120 -24c-70 -2 -161 29 -148 95c7 32 34 54 67 54s52 -24 45 -60
c-15 -72 20 -73 39 -73c15 0 21 1 36 9c16 8 28 29 35 64z" />
    <glyph glyph-name="Uring" unicode="&#x16e;" horiz-adv-x="715" 
d="M864 690l-68 -19l-84 -411c-17 -82 -55 -147 -116 -195c-60 -47 -131 -71 -214 -71s-146 24 -187 72s-53 113 -36 194l83 408l-60 20l2 12h258l-2 -12l-68 -20l-83 -408c-29 -141 35 -220 152 -220c61 0 114 19 160 58s76 93 90 162l84 411l-61 19l2 10h150zM481 809
c9 49 51 81 100 81c51 0 78 -32 69 -81c-11 -51 -51 -82 -102 -82c-49 0 -78 31 -67 82zM525 809c-8 -36 4 -60 28 -60c33 -6 67 69 50 103c-18 38 -68 10 -78 -43z" />
    <glyph glyph-name="uring" unicode="&#x16f;" horiz-adv-x="600" 
d="M84 431l-6 8c53 44 103 66 152 66c44 0 69 -23 60 -66l-55 -270c-19 -75 -2 -134 51 -134c47 0 92 28 137 84l78 381h110l12 -15l-84 -409c-5 -25 2 -37 20 -37c14 0 33 10 58 30l6 -8c-53 -44 -103 -66 -152 -66c-44 0 -69 23 -60 66l8 26l-2 4
c-59 -64 -124 -96 -195 -96c-95 0 -135 63 -116 155l56 274c6 25 -1 37 -20 37c-14 0 -33 -10 -58 -30zM342 625c11 51 51 82 100 82c52 0 80 -31 69 -82c-9 -51 -50 -82 -102 -82c-49 0 -76 31 -67 82zM386 625c-8 -36 4 -60 28 -60s44 24 52 60c8 37 -3 61 -28 61
c-23 0 -44 -24 -52 -61z" />
    <glyph glyph-name="Uhungarumlaut" unicode="&#x170;" horiz-adv-x="715" 
d="M864 690l-68 -19l-84 -411c-17 -82 -55 -147 -116 -195c-60 -47 -131 -71 -214 -71s-146 24 -187 72s-53 113 -36 194l83 408l-60 20l2 12h258l-2 -12l-68 -20l-83 -408c-29 -141 35 -220 152 -220c61 0 114 19 160 58s76 93 90 162l84 411l-61 19l2 10h150zM383 731
l-8 11l158 150l54 -68zM561 731l-8 11l158 150l54 -68z" />
    <glyph glyph-name="uhungarumlaut" unicode="&#x171;" horiz-adv-x="600" 
d="M84 431l-6 8c53 44 103 66 152 66c44 0 69 -23 60 -66l-55 -270c-19 -75 -2 -134 51 -134c47 0 92 28 137 84l78 381h110l12 -15l-84 -409c-5 -25 2 -37 20 -37c14 0 33 10 58 30l6 -8c-53 -44 -103 -66 -152 -66c-44 0 -69 23 -60 66l8 26l-2 4
c-59 -64 -124 -96 -195 -96c-95 0 -135 63 -116 155l56 274c6 25 -1 37 -20 37c-14 0 -33 -10 -58 -30zM255 547l-9 11l159 150l53 -67zM433 547l-9 11l158 150l54 -67z" />
    <glyph glyph-name="Uogonek" unicode="&#x172;" horiz-adv-x="715" 
d="M458 -166l4 -5c-41 -35 -77 -52 -109 -52c-38 0 -53 20 -44 61c11 55 52 109 123 160c-23 -3 -39 -4 -50 -4c-83 0 -146 24 -187 72s-53 113 -36 194l83 408l-60 20l2 12h258l-2 -12l-68 -20l-83 -408c-29 -141 35 -220 152 -220c61 0 114 19 160 58s76 93 90 162l84 411
l-61 19l2 10h150l-2 -10l-68 -19l-84 -411c-28 -141 -130 -236 -263 -260c-43 -45 -75 -107 -83 -144c-6 -29 4 -43 30 -43c25 0 46 7 62 21z" />
    <glyph glyph-name="uogonek" unicode="&#x173;" horiz-adv-x="600" 
d="M576 -143l4 -6c-41 -35 -77 -52 -110 -52c-37 0 -51 20 -43 61c10 51 45 100 106 148c-25 -9 -45 -13 -62 -13c-44 0 -69 23 -60 66l8 26l-2 4c-59 -64 -124 -96 -195 -96c-95 0 -135 63 -116 155l56 274c6 25 -1 37 -20 37c-14 0 -33 -10 -58 -30l-6 8
c53 44 103 66 152 66c44 0 69 -23 60 -66l-55 -270c-19 -75 -2 -134 51 -134c47 0 92 28 137 84l78 381h110l12 -15l-84 -409c-5 -25 2 -37 20 -37c14 0 33 10 58 30l6 -8c-17 -14 -36 -27 -58 -39c-43 -47 -74 -107 -81 -144c-6 -29 4 -43 30 -43c25 0 45 7 62 22z" />
    <glyph glyph-name="Wcircumflex" unicode="&#x174;" horiz-adv-x="1188" 
d="M839 0h-38l-107 503l-307 -503h-38l-142 668l-60 20l2 12h262l-2 -12l-68 -20l107 -537l240 399l-30 138l-60 20l2 12h263l-2 -12l-69 -20l108 -537l324 537l-84 20l3 12h181l-3 -12l-73 -20zM615 742l164 150h19l103 -150l-12 -11l-117 76l-149 -76z" />
    <glyph glyph-name="wcircumflex" unicode="&#x175;" horiz-adv-x="905" 
d="M655 0h-39l-65 274c-27 -39 -59 -81 -97 -127c-38 -45 -69 -81 -94 -107l-38 -40h-40l-102 426c-5 23 -18 35 -37 35c-15 0 -35 -10 -59 -30l-6 8c53 44 103 66 148 66c41 0 64 -20 76 -73l78 -357c72 88 127 162 166 223l-32 128c-6 23 -19 35 -38 35
c-15 0 -34 -10 -59 -30l-6 8c53 44 103 66 149 66c41 0 64 -20 76 -73l77 -357c11 12 22 26 66 82c22 29 42 55 59 79c17 25 34 51 49 78c16 27 25 49 28 64h-38c-41 0 -62 26 -54 63c7 36 37 62 74 62c41 0 65 -35 53 -88c-6 -29 -20 -62 -43 -101
c-22 -39 -47 -76 -75 -111c-55 -71 -113 -138 -150 -175zM432 558l164 150h18l103 -150l-11 -11l-118 77l-148 -77z" />
    <glyph glyph-name="Ycircumflex" unicode="&#x176;" horiz-adv-x="722" 
d="M409 688l-69 -20l137 -337l278 337l-80 20l2 12h181l-3 -12l-76 -20l-297 -362l-56 -275l57 -19l-2 -12h-256l2 12l69 19l56 275l-148 362l-57 20l2 12h262zM370 742l164 150h18l104 -150l-13 -11l-117 76l-148 -76z" />
    <glyph glyph-name="ycircumflex" unicode="&#x177;" horiz-adv-x="582" 
d="M112 -129l-7 -35c2 -3 5 -4 10 -4c11 0 35 14 71 43s72 63 109 102l-108 449c-5 23 -17 35 -36 35c-17 0 -37 -10 -60 -30l-6 8c53 44 103 66 148 66c40 0 65 -24 76 -73l80 -366c15 17 33 39 54 66c22 27 52 69 90 125c39 57 61 97 66 121h-38c-40 0 -62 26 -55 63
c7 36 38 62 75 62c41 0 64 -34 55 -86c-9 -41 -37 -98 -86 -169s-103 -140 -163 -206c-60 -65 -121 -122 -184 -171c-62 -49 -109 -73 -142 -73c-36 0 -73 22 -64 74c8 39 33 60 68 60c36 0 55 -24 47 -61zM268 558l164 150h18l104 -150l-12 -11l-118 77l-148 -77z" />
    <glyph glyph-name="Ydieresis" unicode="&#x178;" horiz-adv-x="722" 
d="M409 688l-69 -20l137 -337l278 337l-80 20l2 12h181l-3 -12l-76 -20l-297 -362l-56 -275l57 -19l-2 -12h-256l2 12l69 19l56 275l-148 362l-57 20l2 12h262zM343 807c8 41 43 70 83 70c41 0 65 -29 57 -70c-8 -40 -45 -70 -85 -70s-64 30 -55 70zM568 807
c8 41 43 70 83 70s64 -29 56 -70c-8 -40 -44 -70 -84 -70s-64 30 -55 70z" />
    <glyph glyph-name="Zacute" unicode="&#x179;" horiz-adv-x="608" 
d="M576 0h-539l3 15l530 663h-316l-75 -106h-17l26 128h523l-3 -15l-530 -663h331l75 106h18zM381 731l-9 11l168 150l53 -68z" />
    <glyph glyph-name="zacute" unicode="&#x17a;" horiz-adv-x="492" 
d="M114 359l-10 12c58 49 102 84 132 104c31 20 54 30 71 30c43 0 96 -20 137 -20c49 0 84 8 103 23l10 -12l-382 -385l2 -3c25 11 47 16 64 16c15 0 37 -6 65 -18s50 -18 67 -18c40 0 86 22 139 66l10 -12c-121 -101 -201 -152 -241 -152c-11 0 -30 6 -55 18
c-25 13 -50 19 -75 19c-40 0 -93 -16 -117 -36l-10 12l385 386l-2 4c-18 -7 -38 -11 -59 -11c-15 0 -37 4 -64 12c-27 9 -49 13 -67 13c-31 0 -65 -16 -103 -48zM285 547l-8 11l168 150l53 -67z" />
    <glyph glyph-name="Zdotaccent" unicode="&#x17b;" horiz-adv-x="608" 
d="M576 0h-539l3 15l530 663h-316l-75 -106h-17l26 128h523l-3 -15l-530 -663h331l75 106h18zM398 823c9 43 46 74 89 74c41 0 66 -31 58 -74c-9 -43 -45 -73 -88 -73s-67 30 -59 73z" />
    <glyph glyph-name="zdotaccent" unicode="&#x17c;" horiz-adv-x="492" 
d="M114 359l-10 12c58 49 102 84 132 104c31 20 54 30 71 30c43 0 96 -20 137 -20c49 0 84 8 103 23l10 -12l-382 -385l2 -3c25 11 47 16 64 16c15 0 37 -6 65 -18s50 -18 67 -18c40 0 86 22 139 66l10 -12c-121 -101 -201 -152 -241 -152c-11 0 -30 6 -55 18
c-25 13 -50 19 -75 19c-40 0 -93 -16 -117 -36l-10 12l385 386l-2 4c-18 -7 -38 -11 -59 -11c-15 0 -37 4 -64 12c-27 9 -49 13 -67 13c-31 0 -65 -16 -103 -48zM302 640c9 43 46 73 89 73s67 -32 58 -73c-8 -43 -45 -74 -88 -74s-67 31 -59 74z" />
    <glyph glyph-name="Zcaron" unicode="&#x17d;" horiz-adv-x="608" 
d="M576 0h-539l3 15l530 663h-316l-75 -106h-17l26 128h523l-3 -15l-530 -663h331l75 106h18zM626 881l-164 -150h-19l-103 150l13 11l116 -77l149 77z" />
    <glyph glyph-name="zcaron" unicode="&#x17e;" horiz-adv-x="492" 
d="M114 359l-10 12c58 49 102 84 132 104c31 20 54 30 71 30c43 0 96 -20 137 -20c49 0 84 8 103 23l10 -12l-382 -385l2 -3c25 11 47 16 64 16c15 0 37 -6 65 -18s50 -18 67 -18c40 0 86 22 139 66l10 -12c-121 -101 -201 -152 -241 -152c-11 0 -30 6 -55 18
c-25 13 -50 19 -75 19c-40 0 -93 -16 -117 -36l-10 12l385 386l-2 4c-18 -7 -38 -11 -59 -11c-15 0 -37 4 -64 12c-27 9 -49 13 -67 13c-31 0 -65 -16 -103 -48zM530 697l-164 -150h-19l-103 150l13 11l116 -76l149 76z" />
    <glyph glyph-name="longs" unicode="&#x17f;" horiz-adv-x="436" 
d="M-1 -137l-9 -47c37 0 65 61 96 205l111 546c22 105 95 157 218 157c41 0 75 -8 101 -23c27 -15 37 -38 31 -70c-8 -36 -33 -60 -68 -60c-39 0 -60 28 -51 73l11 58c-9 5 -17 7 -24 7c-40 0 -75 -54 -92 -142l-112 -546c-31 -145 -113 -226 -236 -226
c-72 0 -102 29 -94 73c8 36 38 61 71 61c36 0 55 -26 47 -66z" />
    <glyph glyph-name="uni018F" unicode="&#x18f;" horiz-adv-x="727" 
d="M240 592l-9 11c80 69 172 103 275 103c105 0 182 -32 231 -96c50 -64 64 -150 42 -259s-71 -195 -147 -260s-164 -97 -264 -97c-89 0 -156 26 -201 77s-60 118 -43 199c5 24 11 42 18 55l24 20h475c41 201 -15 324 -187 324c-82 0 -153 -26 -214 -77zM371 11
c120 0 222 110 267 319l-378 -26c-40 -195 -3 -293 111 -293z" />
    <glyph glyph-name="florin" unicode="&#x192;" horiz-adv-x="393" 
d="M14 -137l-9 -47c37 0 65 61 96 205l94 457h-74l2 10l77 19l12 60c22 105 95 157 220 157c41 0 74 -7 100 -22c27 -15 37 -37 30 -68c-7 -35 -34 -58 -67 -58c-39 0 -61 28 -52 73l11 53c-9 5 -17 7 -24 7c-40 0 -75 -54 -92 -142l-14 -67h158l-4 -22h-158l-94 -457
c-31 -145 -113 -226 -236 -226c-72 0 -102 29 -94 73c8 36 38 61 71 61c35 0 54 -26 47 -66z" />
    <glyph glyph-name="uni01DD" unicode="&#x1dd;" horiz-adv-x="556" 
d="M112 234l17 15h331c30 147 -15 220 -134 220c-53 0 -104 -20 -151 -59l-8 12c65 55 138 82 219 82c164 0 234 -100 203 -249c-16 -79 -52 -142 -109 -189s-122 -71 -195 -71c-66 0 -117 18 -152 55s-46 86 -34 145c5 19 9 32 13 39zM283 10c69 0 141 76 174 224l-233 -17
c-28 -138 -8 -207 59 -207z" />
    <glyph glyph-name="Aringacute" unicode="&#x1fa;" horiz-adv-x="754" 
d="M455 777c9 49 52 81 101 81c51 0 77 -32 68 -81c-9 -43 -35 -70 -78 -80l143 -666l60 -19l-2 -12h-262l2 12l68 19l-40 196h-286l-124 -196l84 -19l-1 -12h-181l2 12l73 19l423 665c-39 7 -59 37 -50 81zM510 249l-64 320l-204 -320h268zM462 843l-8 10l167 150l54 -67z
M499 777c-7 -36 5 -60 28 -60c24 0 45 23 53 60c8 36 -4 60 -28 60s-45 -24 -53 -60z" />
    <glyph glyph-name="aringacute" unicode="&#x1fb;" horiz-adv-x="585" 
d="M625 69l5 -8c-53 -44 -103 -66 -151 -66c-45 0 -71 23 -59 66l5 21l-2 3c-58 -60 -121 -90 -190 -90c-115 0 -156 95 -127 242c36 175 148 267 323 267c45 0 88 -8 127 -23l64 26l12 -14l-85 -417c-6 -25 0 -37 19 -37c15 0 34 10 59 30zM429 114l71 351
c-26 16 -52 24 -79 24c-88 0 -152 -82 -184 -234c-13 -65 -14 -118 -3 -159c12 -41 35 -61 68 -61c41 0 83 26 127 79zM353 607c9 49 51 81 100 81c51 0 78 -32 69 -81c-11 -51 -51 -82 -103 -82c-49 0 -77 31 -66 82zM397 607c-22 -79 68 -79 80 0c7 37 -4 60 -28 60
s-45 -24 -52 -60zM361 677l-9 10l168 150l53 -67z" />
    <glyph glyph-name="AEacute" unicode="&#x1fc;" horiz-adv-x="829" 
d="M349 10l66 16l9 201h-197l-122 -196l84 -19l-1 -12h-181l2 12l73 19l419 669h415l-26 -128h-17l-30 106h-278l-13 -306h174l40 82h15l-37 -185h-16l-6 81h-170l-13 -328h180l73 106h17l-26 -128h-436zM425 249l15 320l-200 -320h185zM534 731l-8 11l168 150l53 -68z" />
    <glyph glyph-name="aeacute" unicode="&#x1fd;" horiz-adv-x="799" 
d="M372 503c67 0 116 -14 145 -41c48 28 103 42 164 42c113 0 180 -43 161 -134c-7 -33 -21 -54 -62 -78s-127 -37 -252 -40l-31 -147c19 -50 62 -75 130 -75c56 0 108 20 155 59l9 -12c-67 -55 -141 -82 -223 -82s-141 23 -178 69c-61 -47 -128 -70 -199 -70
c-92 0 -129 41 -116 110c15 47 30 76 80 97c18 8 33 14 46 19s34 11 62 16l69 14l85 14l22 109c15 69 -11 114 -71 114c-21 0 -44 -6 -67 -19l-16 -82c-9 -47 -44 -76 -85 -76c-40 0 -62 27 -53 70c8 39 34 69 78 90c45 22 94 33 147 33zM381 87l33 162l-62 -10
c-12 -2 -28 -6 -47 -11s-32 -10 -40 -15c-26 -15 -55 -45 -60 -94c-12 -56 6 -84 55 -84c41 0 81 17 121 52zM547 350l-16 -83c125 5 180 34 196 110c13 63 -7 112 -62 112c-41 0 -79 -28 -114 -84c2 -15 1 -34 -4 -55zM448 547l-8 11l167 150l54 -67z" />
    <glyph glyph-name="Oslashacute" unicode="&#x1fe;" horiz-adv-x="760" 
d="M167 76l-84 -76h-39l106 96c-45 64 -57 149 -35 254c22 108 70 194 145 259s163 97 263 97c92 0 163 -28 212 -83l85 77h38l-107 -97c44 -65 56 -150 35 -253c-22 -109 -71 -195 -146 -260c-75 -64 -162 -96 -262 -96c-92 0 -162 27 -211 82zM650 349
c14 70 19 129 15 176l-424 -382c15 -89 61 -134 140 -134c121 0 224 116 269 340zM252 349c-14 -69 -19 -128 -15 -175l424 382c-16 90 -63 135 -141 135c-120 0 -223 -118 -268 -342zM456 731l-8 11l168 150l53 -68z" />
    <glyph glyph-name="oslashacute" unicode="&#x1ff;" horiz-adv-x="579" 
d="M132 49l-55 -49h-40l78 69c-35 46 -44 106 -28 180c15 77 51 138 107 185c57 47 123 70 198 70c65 0 117 -18 154 -54l57 50h41l-80 -71c33 -46 43 -106 28 -180c-15 -77 -51 -139 -107 -185s-122 -69 -197 -69c-67 0 -119 18 -156 54zM465 249c8 40 12 75 12 104
l-273 -241c7 -68 36 -102 87 -102c77 0 143 83 174 239zM214 249c-8 -40 -12 -74 -12 -103l274 242c-7 67 -36 101 -87 101c-77 0 -143 -83 -175 -240zM328 547l-8 11l168 150l53 -67z" />
    <glyph glyph-name="Scommaaccent" unicode="&#x218;" horiz-adv-x="588" 
d="M63 9l-8 10l30 148h19c3 -63 29 -109 65 -130c37 -20 72 -28 109 -28c103 0 177 55 196 146c8 44 1 73 -25 92c-15 11 -23 17 -47 26c-23 9 -35 14 -66 23l-36 11l-33 12c-29 12 -35 17 -59 30c-23 15 -29 26 -42 45c-17 26 -21 64 -11 109c23 120 120 203 275 203
c62 0 114 -15 157 -45l52 29l8 -10l-30 -147h-18c-6 132 -98 158 -157 158c-89 0 -159 -56 -175 -135c-8 -40 -3 -66 25 -87c15 -10 28 -18 41 -23s33 -13 61 -22c33 -12 44 -16 73 -28s40 -19 63 -35c47 -33 70 -79 55 -158c-25 -125 -127 -209 -300 -209
c-69 0 -125 15 -170 45zM199 -250l-9 12c28 24 58 61 62 78c1 5 0 8 -2 10c-31 0 -47 22 -42 53c7 31 33 52 64 52c29 0 49 -22 41 -59c-7 -39 -45 -88 -114 -146z" />
    <glyph glyph-name="scommaaccent" unicode="&#x219;" horiz-adv-x="468" 
d="M394 415l13 57c-19 11 -41 17 -64 17c-64 0 -110 -36 -119 -85c-11 -49 17 -67 88 -92c60 -23 100 -42 119 -57c34 -28 46 -66 36 -113c-19 -91 -93 -147 -234 -147c-112 0 -173 36 -160 99c8 37 35 58 67 58c36 0 53 -25 44 -68l-11 -57c17 -11 39 -17 66 -17
c71 0 124 35 135 90c11 52 -22 74 -102 102c-29 10 -51 18 -66 24c-14 7 -29 16 -46 28c-32 24 -39 56 -30 103c19 89 89 147 222 147c105 0 166 -35 154 -99c-8 -37 -36 -58 -68 -58c-35 0 -52 25 -44 68zM161 -250l-9 12c29 24 59 61 62 78c1 4 0 7 -1 10
c-49 -4 -57 61 -20 91c38 30 95 12 83 -45c-8 -39 -46 -88 -115 -146z" />
    <glyph glyph-name="uni021A" unicode="&#x21a;" horiz-adv-x="672" 
d="M742 572l-29 106h-174l-132 -647l60 -19l-2 -12h-258l2 12l68 19l133 647h-174l-73 -106h-17l26 128h613l-26 -128h-17zM253 -250l-9 12c29 24 58 61 62 78c1 4 0 7 -1 10c-31 0 -48 22 -43 53c7 65 128 73 106 -7c-9 -41 -47 -90 -115 -146z" />
    <glyph glyph-name="uni021B" unicode="&#x21b;" horiz-adv-x="393" 
d="M186 478h-60l2 10c73 17 139 61 196 131l12 -15l-21 -104h159l-4 -22h-159l-71 -345c-15 -69 5 -103 58 -103c30 0 58 11 85 34l10 -11c-47 -39 -99 -58 -156 -58c-97 0 -139 55 -123 138zM140 -250l-9 12c28 24 58 61 62 78c1 5 0 8 -2 10c-31 0 -47 22 -42 53
c7 31 33 52 64 52c29 0 49 -20 41 -59c-7 -39 -45 -88 -114 -146z" />
    <glyph glyph-name="dotlessj" unicode="&#x237;" horiz-adv-x="277" 
d="M-1 -137l-9 -47c37 0 65 61 96 205l82 403c6 25 0 37 -19 37c-15 0 -34 -10 -59 -30l-6 8c53 44 104 66 153 66c43 0 68 -23 59 -66l-85 -418c-31 -145 -113 -226 -236 -226c-72 0 -102 29 -94 73c8 36 38 61 71 61c36 0 55 -26 47 -66z" />
    <glyph glyph-name="circumflex" unicode="&#x2c6;" horiz-adv-x="360" 
d="M150 558l164 150h19l103 -150l-12 -11l-118 77l-147 -77z" />
    <glyph glyph-name="caron" unicode="&#x2c7;" horiz-adv-x="360" 
d="M465 697l-165 -150h-18l-103 150l12 11l117 -76l148 76z" />
    <glyph glyph-name="breve" unicode="&#x2d8;" horiz-adv-x="459" 
d="M423 642c7 36 35 60 68 60c35 0 52 -22 45 -55c-7 -31 -29 -54 -67 -70s-78 -24 -120 -24c-70 -2 -161 29 -148 95c7 32 34 54 67 54s52 -24 44 -60c-15 -74 22 -73 40 -73c15 0 21 1 36 9c16 8 28 29 35 64z" />
    <glyph glyph-name="dotaccent" unicode="&#x2d9;" horiz-adv-x="265" 
d="M196 640c8 41 45 73 88 73s67 -30 59 -73c-9 -43 -46 -74 -89 -74s-67 31 -58 74z" />
    <glyph glyph-name="ring" unicode="&#x2da;" horiz-adv-x="241" 
d="M170 625c11 51 51 82 100 82c52 0 80 -31 69 -82c-9 -51 -50 -82 -102 -82c-49 0 -76 31 -67 82zM214 625c-7 -36 4 -60 28 -60s45 24 52 60c8 37 -3 61 -28 61c-23 0 -44 -24 -52 -61z" />
    <glyph glyph-name="ogonek" unicode="&#x2db;" horiz-adv-x="181" 
d="M136 -166l4 -5c-41 -35 -77 -52 -109 -52c-37 0 -52 20 -43 61c12 57 54 111 126 162h12c-43 -47 -75 -107 -83 -144c-6 -29 4 -43 31 -43c25 0 46 7 62 21z" />
    <glyph glyph-name="tilde" unicode="&#x2dc;" horiz-adv-x="418" 
d="M163 574l-10 12c75 63 126 95 151 95c13 0 30 -8 52 -23c23 -15 42 -23 57 -23c30 0 63 15 100 45l10 -12c-79 -65 -131 -97 -157 -97c-11 0 -29 8 -52 23s-43 23 -58 23c-27 0 -58 -14 -93 -43z" />
    <glyph glyph-name="hungarumlaut" unicode="&#x2dd;" horiz-adv-x="446" 
d="M159 547l-9 11l158 150l54 -67zM337 547l-9 11l158 150l54 -67z" />
    <glyph glyph-name="uni0400" unicode="&#x400;" horiz-adv-x="617" 
d="M282 350l-67 -328h291l73 106h17l-25 -128h-554l1 10l67 16l133 648l-61 16l2 10h544l-26 -128h-17l-30 106h-281l-63 -306h227l39 82h17l-38 -185h-16l-6 81h-227zM354 824l80 68l107 -150l-12 -11z" />
    <glyph glyph-name="afii10023" unicode="&#x401;" horiz-adv-x="617" 
d="M282 350l-67 -328h291l73 106h17l-25 -128h-554l1 10l67 16l133 648l-61 16l2 10h544l-26 -128h-17l-30 106h-281l-63 -306h227l39 82h17l-38 -185h-16l-6 81h-227zM294 823c8 41 43 71 84 71c40 0 64 -30 56 -71c-9 -40 -44 -70 -84 -70c-41 0 -65 30 -56 70zM518 823
c9 41 44 71 85 71c40 0 64 -30 55 -71c-8 -40 -43 -70 -83 -70c-41 0 -65 30 -57 70z" />
    <glyph glyph-name="afii10051" unicode="&#x402;" horiz-adv-x="813" 
d="M566 -110l-9 -47c39 0 68 62 97 205l37 182c21 103 -3 155 -74 155c-52 0 -102 -19 -150 -57l-60 -297l55 -19l-1 -12h-254l2 12l68 19l133 647h-177l-72 -106h-18l26 128h619l-27 -128h-17l-29 106h-176l-54 -264l-15 -61l2 -3c67 47 160 75 231 75
c105 0 145 -68 122 -172l-42 -205c-29 -145 -113 -226 -238 -226c-75 0 -104 29 -96 73c7 36 36 61 71 61s54 -26 46 -66z" />
    <glyph glyph-name="afii10052" unicode="&#x403;" 
d="M368 731l-9 11l167 150l54 -68zM608 678h-259l-132 -647l90 -19l-2 -12h-288l2 12l68 19l131 643l-61 16l2 10h522l-26 -128h-18z" />
    <glyph glyph-name="afii10053" unicode="&#x404;" horiz-adv-x="693" 
d="M692 109l8 -12c-79 -69 -172 -103 -279 -103c-105 0 -183 32 -232 96s-63 151 -40 260s71 195 146 259c75 65 165 97 268 97c82 0 145 -19 189 -56l54 26l7 -10l-29 -144h-17c-3 64 -27 110 -66 131c-37 21 -72 28 -113 28c-151 0 -251 -104 -298 -312h342l-4 -22h-343
c-40 -199 21 -317 190 -317c83 0 155 26 217 79z" />
    <glyph glyph-name="afii10054" unicode="&#x405;" horiz-adv-x="585" 
d="M63 9l-8 10l30 148h19c3 -63 29 -109 65 -130c37 -20 72 -28 109 -28c103 0 177 55 196 146c8 44 1 73 -25 92c-15 11 -23 17 -47 26c-23 9 -35 14 -66 23l-36 11l-33 12c-29 12 -35 17 -59 30c-23 15 -29 26 -42 45c-17 26 -21 64 -11 109c23 120 120 203 275 203
c62 0 114 -15 157 -45l52 29l8 -10l-30 -147h-18c-6 132 -98 158 -157 158c-89 0 -159 -56 -175 -135c-8 -40 -3 -66 25 -87c15 -10 28 -18 41 -23s33 -13 61 -22c33 -12 44 -16 73 -28s40 -19 63 -35c47 -33 70 -79 55 -158c-25 -125 -127 -209 -300 -209
c-69 0 -125 15 -170 45z" />
    <glyph glyph-name="afii10055" unicode="&#x406;" horiz-adv-x="292" 
d="M412 688l-66 -20l-130 -637l58 -19l-2 -12h-255l2 12l69 19l130 637l-60 20l2 12h254z" />
    <glyph glyph-name="afii10056" unicode="&#x407;" horiz-adv-x="292" 
d="M412 688l-66 -20l-130 -637l58 -19l-2 -12h-255l2 12l69 19l130 637l-60 20l2 12h254zM146 807c8 41 43 70 83 70c41 0 65 -29 57 -70c-8 -40 -44 -70 -85 -70c-40 0 -63 30 -55 70zM334 807c9 41 44 70 84 70s65 -29 57 -70c-9 -40 -45 -70 -85 -70s-64 30 -56 70z" />
    <glyph glyph-name="afii10057" unicode="&#x408;" horiz-adv-x="292" 
d="M86 21l133 647l-61 20l2 12h254l-3 -12l-65 -20l-133 -647c-20 -99 -93 -165 -222 -226l-10 11c54 63 89 134 105 215z" />
    <glyph glyph-name="afii10058" unicode="&#x409;" horiz-adv-x="1083" 
d="M240 143l164 531l-61 16l2 10h519l-2 -10l-68 -16l-59 -287h124c79 0 140 -17 182 -52s57 -82 45 -141c-13 -60 -47 -107 -103 -142c-55 -35 -123 -52 -202 -52h-318l1 10l68 16l133 652h-240l-162 -532c-31 -101 -77 -151 -137 -151c-48 0 -88 24 -77 80
c9 41 39 66 76 66c40 0 60 -25 51 -69l-6 -31c1 -1 4 -2 7 -2c17 0 43 39 63 104zM731 365l-70 -343h100c96 0 170 59 193 172s-27 171 -123 171h-100z" />
    <glyph glyph-name="afii10059" unicode="&#x40a;" horiz-adv-x="1085" 
d="M17 0l2 12l68 19l130 637l-60 20l2 12h258l-2 -12l-68 -20l-60 -291h310l60 291l-60 20l3 12h258l-2 -12l-68 -20l-60 -291h123c79 0 140 -17 182 -51c43 -33 58 -79 45 -137c-11 -58 -45 -104 -101 -138c-55 -34 -123 -51 -202 -51h-318l2 10l67 16l67 329h-310
l-66 -324l60 -19l-2 -12h-258zM724 355l-69 -333h100c96 0 170 58 191 167c23 109 -26 166 -122 166h-100z" />
    <glyph glyph-name="afii10060" unicode="&#x40b;" horiz-adv-x="855" 
d="M467 328l-60 -297l55 -19l-1 -12h-254l2 12l68 19l133 647h-177l-72 -106h-18l26 128h619l-27 -128h-17l-29 106h-176l-54 -264l-15 -61l2 -3c67 47 160 75 231 75c105 0 145 -68 122 -173l-45 -221l61 -19l-2 -12h-261l2 12l70 19l42 202c21 101 -4 152 -75 152
c-52 0 -102 -19 -150 -57z" />
    <glyph glyph-name="afii10061" unicode="&#x40c;" horiz-adv-x="700" 
d="M681 41l7 -9c-28 -25 -66 -38 -114 -38c-84 0 -113 47 -113 143l-1 94c-1 81 -28 118 -115 118h-67l-65 -318l60 -19l-1 -12h-259l2 12l69 19l130 637l-61 20l3 12h258l-2 -12l-68 -20l-64 -310l3 12c83 0 144 40 181 119l33 73c41 91 87 144 168 144c57 0 93 -27 82 -80
c-9 -44 -35 -66 -76 -66s-59 26 -51 69l8 39c-3 3 -8 4 -15 4c-29 0 -60 -36 -93 -109l-33 -74c-27 -59 -64 -99 -111 -120h20c132 0 186 -38 189 -134l2 -91c1 -84 11 -119 48 -119c14 0 29 5 46 16zM429 731l-8 11l168 150l53 -68z" />
    <glyph glyph-name="uni040D" unicode="&#x40d;" horiz-adv-x="751" 
d="M421 824l80 68l107 -150l-13 -11zM17 0l2 12l68 19l130 637l-60 20l2 12h258l-2 -12l-68 -20l-115 -562l441 547l3 15l-61 20l3 12h259l-3 -12l-68 -20l-131 -637l61 -19l-2 -12h-259l2 12l69 19l115 566l-441 -548l-3 -18l60 -19l-2 -12h-258z" />
    <glyph glyph-name="afii10062" unicode="&#x40e;" horiz-adv-x="694" 
d="M579 763l13 62c7 37 36 61 69 61s52 -23 45 -55c-7 -31 -29 -55 -68 -71c-38 -15 -78 -23 -119 -23s-78 8 -110 23c-32 16 -45 40 -39 71c7 33 35 55 68 55s51 -24 44 -61l-13 -62c19 -7 36 -11 53 -11c16 0 35 4 57 11zM372 180l-151 488l-60 20l2 12h262l-2 -12
l-69 -20l111 -366l270 366l-85 20l3 12h180l-2 -12l-72 -20l-356 -480c-51 -71 -94 -121 -127 -150s-69 -44 -109 -44c-27 0 -50 6 -69 18s-25 33 -19 63c8 41 39 67 78 67c37 0 58 -26 50 -65l-10 -48c4 -2 8 -3 11 -3c35 0 90 51 164 154z" />
    <glyph glyph-name="afii10145" unicode="&#x40f;" horiz-adv-x="743" 
d="M327 -154l7 154h-317l1 10l67 16l132 642l-60 20l2 12h258l-2 -12l-68 -20l-132 -646h321l132 646l-60 20l2 12h259l-3 -12l-68 -20l-132 -642l62 -16l-2 -10h-315l-57 -154h-27z" />
    <glyph glyph-name="afii10017" unicode="&#x410;" horiz-adv-x="754" 
d="M508 700h38l143 -669l60 -19l-2 -12h-262l2 12l68 19l-40 196h-286l-124 -196l84 -19l-1 -12h-181l2 12l73 19zM510 249l-64 320l-204 -320h268z" />
    <glyph glyph-name="afii10018" unicode="&#x411;" horiz-adv-x="648" 
d="M612 678h-263l-58 -279h128c79 0 140 -18 181 -54c42 -35 57 -84 44 -145s-47 -110 -103 -146s-124 -54 -203 -54h-321l1 10l67 16l133 648l-61 16l2 10h526l-26 -128h-17zM287 377l-72 -355h103c97 0 170 59 194 178c24 117 -25 177 -121 177h-104z" />
    <glyph glyph-name="afii10019" unicode="&#x412;" horiz-adv-x="662" 
d="M157 690l2 10h331c145 0 230 -67 207 -174c-17 -87 -91 -147 -195 -167c112 -20 172 -84 152 -176c-11 -57 -45 -101 -102 -134c-56 -33 -124 -49 -205 -49h-330l1 10l67 16l133 648zM282 348l-67 -326h113c99 0 172 55 195 162c23 108 -29 164 -129 164h-112zM462 678
h-113l-63 -308h112c83 0 147 53 167 154s-20 154 -103 154z" />
    <glyph glyph-name="afii10020" unicode="&#x413;" 
d="M608 678h-259l-132 -647l90 -19l-2 -12h-288l2 12l68 19l131 643l-61 16l2 10h522l-26 -128h-18z" />
    <glyph glyph-name="afii10021" unicode="&#x414;" horiz-adv-x="712" 
d="M638 -154l-22 154h-520l-85 -154h-26l35 176h81c23 9 54 56 74 121l163 531l-60 16l2 10h551l-2 -10l-68 -16l-133 -652h72l-36 -176h-26zM632 678h-267l-162 -532c-20 -63 -42 -105 -67 -124h362z" />
    <glyph glyph-name="afii10022" unicode="&#x415;" horiz-adv-x="617" 
d="M282 350l-67 -328h291l73 106h17l-25 -128h-554l1 10l67 16l133 648l-61 16l2 10h544l-26 -128h-17l-30 106h-281l-63 -306h227l39 82h17l-38 -185h-16l-6 81h-227z" />
    <glyph glyph-name="afii10024" unicode="&#x416;" horiz-adv-x="1067" 
d="M996 629l7 39c-3 3 -7 4 -12 4c-25 0 -56 -36 -91 -109l-33 -74c-28 -59 -63 -99 -106 -120h21c131 0 183 -38 182 -147l-1 -78c-1 -84 8 -119 44 -119c13 0 28 5 45 16l7 -9c-28 -25 -65 -38 -110 -38c-81 0 -110 48 -107 143l2 81c3 92 -22 131 -110 131h-65l-65 -318
l61 -19l-2 -12h-259l2 12l68 19l65 318h-64c-88 0 -129 -38 -165 -131l-30 -81c-37 -95 -85 -143 -166 -143c-44 0 -75 13 -94 38l10 9c13 -11 25 -16 38 -16c36 0 60 35 93 119l32 78c44 108 110 147 242 147h21c-35 21 -54 61 -57 120l-5 74c-4 73 -19 109 -45 109
c-4 0 -9 -1 -14 -4l-7 -39c-10 -46 -36 -69 -79 -69c-39 0 -58 23 -49 66c11 53 56 80 112 80c76 0 98 -48 103 -144l6 -73c5 -79 46 -119 122 -119l62 298l-61 20l2 12h259l-2 -12l-69 -20l-65 -319l5 20v1c75 0 132 40 171 119l34 73c48 97 88 144 163 144
c56 0 92 -27 81 -80c-9 -43 -38 -66 -77 -66c-40 0 -59 26 -50 69z" />
    <glyph glyph-name="afii10025" unicode="&#x417;" horiz-adv-x="608" 
d="M187 537h-17l28 139l12 10l44 -21c51 27 112 41 185 41c144 0 227 -69 204 -180c-17 -85 -89 -146 -193 -167c109 -19 171 -84 151 -177c-12 -57 -46 -103 -102 -137s-124 -51 -204 -51c-79 0 -139 14 -180 43l-53 -23l-8 10l28 141h18c3 -57 28 -100 64 -119
s69 -26 105 -26c103 0 177 55 200 164c23 111 -32 164 -141 164c-30 0 -59 -1 -86 -4l6 29c30 -2 58 -3 83 -3c99 0 159 51 180 154c21 105 -23 157 -108 157c-31 0 -61 -6 -105 -25c-43 -17 -84 -60 -111 -119z" />
    <glyph glyph-name="afii10026" unicode="&#x418;" horiz-adv-x="751" 
d="M17 0l2 12l68 19l130 637l-60 20l2 12h258l-2 -12l-68 -20l-115 -562l441 547l3 15l-61 20l3 12h259l-3 -12l-68 -20l-131 -637l61 -19l-2 -12h-259l2 12l69 19l115 566l-441 -548l-3 -18l60 -19l-2 -12h-258z" />
    <glyph glyph-name="afii10027" unicode="&#x419;" horiz-adv-x="751" 
d="M589 779l12 63c8 36 36 60 69 60s52 -23 45 -55c-6 -31 -28 -54 -67 -70s-78 -24 -119 -24c-42 0 -79 8 -111 24c-31 16 -44 40 -38 71c7 32 34 54 67 54s52 -24 44 -60l-12 -63c16 -7 34 -10 53 -10c18 0 37 3 57 10zM17 0l2 12l68 19l130 637l-60 20l2 12h258l-2 -12
l-68 -20l-115 -562l441 547l3 15l-61 20l3 12h259l-3 -12l-68 -20l-131 -637l61 -19l-2 -12h-259l2 12l69 19l115 566l-441 -548l-3 -18l60 -19l-2 -12h-258z" />
    <glyph glyph-name="afii10028" unicode="&#x41a;" horiz-adv-x="696" 
d="M681 41l7 -9c-28 -25 -66 -38 -114 -38c-84 0 -113 47 -113 143l-1 94c-1 81 -28 118 -115 118h-67l-65 -318l60 -19l-1 -12h-259l2 12l69 19l130 637l-61 20l3 12h258l-2 -12l-68 -20l-64 -310l3 12c83 0 144 40 181 119l33 73c41 91 87 144 168 144c57 0 93 -27 82 -80
c-9 -44 -35 -66 -76 -66s-59 26 -51 69l8 39c-3 3 -8 4 -15 4c-29 0 -60 -36 -93 -109l-33 -74c-27 -59 -64 -99 -111 -120h20c132 0 186 -38 189 -134l2 -91c1 -84 11 -119 48 -119c14 0 29 5 46 16z" />
    <glyph glyph-name="afii10029" unicode="&#x41b;" horiz-adv-x="744" 
d="M240 143l164 531l-61 16l2 10h533l-2 -10l-67 -16l-131 -643l60 -19l-2 -12h-258l2 12l68 19l132 647h-250l-162 -532c-31 -101 -79 -151 -142 -151c-48 0 -88 24 -77 80c9 41 39 66 76 66c40 0 60 -25 51 -69l-6 -31c1 -1 4 -2 7 -2c17 0 43 39 63 104z" />
    <glyph glyph-name="afii10030" unicode="&#x41c;" horiz-adv-x="925" 
d="M1009 688l-66 -20l-86 -637l58 -19l-2 -12h-255l2 12l68 19l76 564l-372 -595h-38l-134 596l-157 -567l58 -19l-2 -10h-147l1 10l68 19l176 639l-60 20l2 12h171l122 -569l354 569h165z" />
    <glyph glyph-name="afii10031" unicode="&#x41d;" horiz-adv-x="751" 
d="M17 0l2 12l68 19l130 637l-60 20l2 12h258l-2 -12l-68 -20l-62 -301h329l62 301l-61 20l3 12h258l-2 -12l-68 -20l-131 -637l61 -19l-2 -12h-259l2 12l68 19l65 314h-329l-64 -314l60 -19l-2 -12h-258z" />
    <glyph glyph-name="afii10032" unicode="&#x41e;" horiz-adv-x="760" 
d="M148 350c22 108 70 194 145 259s163 97 263 97c101 0 175 -32 223 -97c49 -65 62 -151 40 -259c-22 -109 -71 -195 -146 -260c-75 -64 -162 -96 -262 -96s-174 32 -223 96c-49 65 -62 151 -40 260zM553 691c-120 0 -223 -118 -268 -342s8 -340 129 -340s224 116 269 340
s-9 342 -130 342z" />
    <glyph glyph-name="afii10033" unicode="&#x41f;" horiz-adv-x="743" 
d="M17 0l2 12l68 19l131 643l-61 16l2 10h710l-2 -10l-68 -16l-131 -643l60 -19l-2 -12h-259l2 12l69 19l132 647h-321l-132 -647l60 -19l-2 -12h-258z" />
    <glyph glyph-name="afii10034" unicode="&#x420;" horiz-adv-x="634" 
d="M436 678h-87l-132 -647l97 -19l-2 -12h-295l2 12l68 19l131 643l-61 16l2 10h296c81 0 142 -18 184 -54c43 -36 58 -85 45 -147s-48 -111 -105 -147s-125 -54 -206 -54h-73l-11 15l2 7h72c93 0 165 62 189 179s-23 179 -116 179z" />
    <glyph glyph-name="afii10035" unicode="&#x421;" horiz-adv-x="693" 
d="M692 108l8 -12c-79 -68 -172 -102 -279 -102c-105 0 -183 32 -232 96s-63 151 -40 260s71 195 146 259c75 65 164 97 267 97c83 0 146 -19 190 -56l54 26l7 -10l-29 -144h-17c-3 64 -30 111 -70 131c-40 21 -74 28 -113 28c-147 0 -253 -110 -297 -326
c-41 -203 16 -325 189 -325c83 0 155 26 216 78z" />
    <glyph glyph-name="afii10036" unicode="&#x422;" horiz-adv-x="672" 
d="M751 572l-29 106h-173l-133 -647l60 -19l-2 -12h-258l2 12l68 19l133 647h-174l-73 -106h-17l26 128h614l-27 -128h-17z" />
    <glyph glyph-name="afii10037" unicode="&#x423;" horiz-adv-x="694" 
d="M372 180l-151 488l-60 20l2 12h262l-2 -12l-69 -20l111 -366l270 366l-85 20l3 12h180l-2 -12l-72 -20l-356 -480c-51 -71 -94 -121 -127 -150s-69 -44 -109 -44c-27 0 -50 6 -69 18s-25 33 -19 63c8 41 39 67 78 67c37 0 58 -26 50 -65l-10 -48c4 -2 8 -3 11 -3
c35 0 90 51 164 154z" />
    <glyph glyph-name="afii10038" unicode="&#x424;" horiz-adv-x="889" 
d="M736 688l-65 -20l-10 -47c102 0 178 -24 229 -73s67 -115 50 -198c-17 -84 -60 -150 -131 -199s-157 -73 -259 -73l-9 -47l57 -19l-2 -12h-256l2 12l69 19l9 47c-102 0 -178 24 -229 73s-68 115 -51 199c17 83 61 149 132 198s157 73 259 73l10 47l-61 20l3 12h255z
M423 93l105 513c-125 0 -216 -86 -251 -257c-35 -169 22 -256 146 -256zM658 606l-105 -513c124 0 216 87 251 256c35 171 -22 257 -146 257z" />
    <glyph glyph-name="afii10039" unicode="&#x425;" horiz-adv-x="737" 
d="M466 12l69 19l-145 295l-274 -295l81 -19l-2 -12h-181l2 12l76 19l288 312l-159 325l-56 20l2 12h259l-2 -12l-69 -20l131 -271l243 271l-81 20l3 12h181l-2 -12l-77 -20l-257 -289l173 -348l56 -19l-2 -12h-259z" />
    <glyph glyph-name="afii10040" unicode="&#x426;" horiz-adv-x="747" 
d="M671 -154l-25 154h-629l1 10l67 16l132 642l-60 20l2 12h258l-2 -12l-68 -20l-132 -646h316l132 646l-60 20l2 12h259l-3 -12l-68 -20l-132 -646h72l-36 -176h-26z" />
    <glyph glyph-name="afii10041" unicode="&#x427;" horiz-adv-x="707" 
d="M415 688l-68 -20l-37 -180c-23 -110 9 -165 95 -165c59 0 114 13 165 40l63 305l-61 20l2 12h259l-2 -12l-68 -20l-131 -637l61 -19l-2 -12h-259l2 12l68 19l64 312c-66 -37 -141 -56 -225 -56c-133 0 -187 70 -164 185l40 196l-60 20l2 12h259z" />
    <glyph glyph-name="afii10042" unicode="&#x428;" horiz-adv-x="1088" 
d="M17 0l1 10l67 16l132 642l-60 20l2 12h258l-2 -12l-68 -20l-132 -646h268l132 646l-60 20l3 12h258l-3 -12l-68 -20l-132 -646h268l133 646l-61 20l2 12h259l-2 -12l-69 -20l-131 -642l61 -16l-1 -10h-1055z" />
    <glyph glyph-name="afii10043" unicode="&#x429;" horiz-adv-x="1098" 
d="M1021 -154l-24 154h-980l1 10l67 16l132 642l-60 20l2 12h258l-2 -12l-68 -20l-132 -646h268l132 646l-60 20l3 12h258l-3 -12l-68 -20l-132 -646h268l133 646l-61 20l2 12h259l-2 -12l-69 -20l-132 -646h72l-36 -176h-26z" />
    <glyph glyph-name="afii10044" unicode="&#x42a;" horiz-adv-x="816" 
d="M587 690l-68 -16l-59 -287h124c79 0 140 -17 182 -52s57 -82 45 -141c-13 -60 -47 -107 -103 -142c-55 -35 -123 -52 -202 -52h-318l2 10l66 16l134 652h-147l-73 -106h-17l26 128h410zM456 365l-70 -343h100c96 0 170 59 193 172s-27 171 -123 171h-100z" />
    <glyph glyph-name="afii10045" unicode="&#x42b;" horiz-adv-x="908" 
d="M415 688l-68 -20l-58 -281h124c79 0 140 -17 182 -52s57 -82 45 -141c-13 -60 -47 -107 -103 -142c-55 -35 -123 -52 -203 -52h-317l1 10l67 16l132 642l-60 20l2 12h258zM285 365l-70 -343h99c97 0 171 59 194 172s-27 171 -124 171h-99zM1028 688l-65 -20l-131 -637
l58 -19l-2 -12h-256l2 12l69 19l130 637l-61 20l3 12h256z" />
    <glyph glyph-name="afii10046" unicode="&#x42c;" horiz-adv-x="645" 
d="M415 688l-68 -20l-58 -281h124c79 0 140 -17 182 -52s57 -82 45 -141c-13 -60 -47 -107 -103 -142c-55 -35 -123 -52 -203 -52h-317l1 10l67 16l132 642l-60 20l2 12h258zM285 365l-70 -343h99c97 0 171 59 194 172s-27 171 -124 171h-99z" />
    <glyph glyph-name="afii10047" unicode="&#x42d;" horiz-adv-x="694" 
d="M590 347h-343l4 22h343c37 204 -20 312 -169 312c-39 0 -75 -7 -123 -28c-48 -20 -94 -66 -122 -131h-17l29 144l12 10l42 -26c60 37 131 56 212 56c103 0 180 -32 229 -97c49 -64 63 -150 40 -259s-72 -196 -147 -260s-165 -96 -269 -96c-87 0 -151 19 -193 56l-53 -26
l-8 10l29 144h17c7 -137 117 -158 184 -158c157 0 258 109 303 327z" />
    <glyph glyph-name="afii10048" unicode="&#x42e;" horiz-adv-x="1007" 
d="M17 0l2 12l68 19l130 637l-60 20l2 12h258l-2 -12l-68 -20l-62 -301h126c25 103 72 186 142 247s150 92 240 92c93 0 162 -32 207 -97s56 -151 34 -259c-22 -109 -69 -195 -140 -260c-71 -64 -153 -96 -246 -96s-161 32 -206 95c-44 63 -56 149 -35 256h-126l-64 -314
l60 -19l-2 -12h-258zM545 349c-43 -231 0 -340 107 -340s200 116 245 340c43 231 1 342 -107 342c-107 0 -200 -118 -245 -342z" />
    <glyph glyph-name="afii10049" unicode="&#x42f;" horiz-adv-x="672" 
d="M20 32l10 9c13 -11 25 -16 38 -16c33 0 55 30 90 110l33 74c35 77 79 117 154 133c-116 19 -173 84 -153 177c11 56 44 100 97 132c54 33 120 49 197 49h312l-2 -10l-67 -16l-132 -643l61 -19l-2 -12h-266l2 12l75 19l62 301h-56c-81 0 -123 -39 -160 -127l-31 -76
c-37 -88 -87 -135 -167 -135c-45 0 -76 13 -95 38zM533 354l67 324h-104c-85 0 -150 -54 -173 -162c-23 -109 20 -162 107 -162h103z" />
    <glyph glyph-name="afii10065" unicode="&#x430;" horiz-adv-x="585" 
d="M625 69l5 -8c-53 -44 -103 -66 -151 -66c-45 0 -71 23 -59 66l5 21l-2 3c-58 -60 -121 -90 -190 -90c-115 0 -156 95 -127 242c36 175 148 267 323 267c45 0 88 -8 127 -23l64 26l12 -14l-85 -417c-6 -25 0 -37 19 -37c15 0 34 10 59 30zM429 114l71 351
c-26 16 -52 24 -79 24c-88 0 -152 -82 -184 -234c-13 -65 -14 -118 -3 -159c12 -41 35 -61 68 -61c41 0 83 26 127 79z" />
    <glyph glyph-name="afii10066" unicode="&#x431;" horiz-adv-x="592" 
d="M262 410h4c45 56 126 94 211 94c74 0 129 -23 166 -70s47 -109 31 -187c-16 -77 -52 -138 -107 -184c-55 -45 -122 -68 -199 -68c-167 0 -227 112 -182 335c13 64 32 119 55 166c47 93 105 137 166 166c126 56 258 26 306 65l12 -14c-53 -89 -132 -102 -211 -108
c-105 -8 -210 -17 -252 -195zM301 249c-29 -161 -1 -239 74 -239c76 0 140 83 172 239c29 163 2 240 -74 240c-75 0 -140 -83 -172 -240z" />
    <glyph glyph-name="afii10067" unicode="&#x432;" horiz-adv-x="524" 
d="M542 133c-17 -84 -112 -138 -237 -138c-164 0 -226 94 -193 253c32 160 133 256 294 256c116 0 183 -50 168 -126c-13 -60 -67 -103 -146 -118c84 -12 127 -59 114 -127zM300 10c60 0 110 43 127 124c15 77 -13 116 -85 116h-107c-33 -168 -14 -240 65 -240zM395 489
c-73 0 -123 -70 -156 -219h106c60 0 97 36 112 108c15 74 -6 111 -62 111z" />
    <glyph glyph-name="afii10068" unicode="&#x433;" horiz-adv-x="449" 
d="M497 386c-9 -49 -56 -88 -109 -115c-76 -37 -170 -75 -187 -151c-11 -56 26 -91 93 -91c48 0 96 20 143 60l9 -12c-67 -55 -137 -82 -212 -82c-113 0 -174 52 -159 128c11 49 56 89 108 114c76 38 172 74 187 149c9 47 -18 85 -83 85c-46 0 -92 -20 -138 -60l-9 12
c65 55 135 82 208 82c111 0 164 -50 149 -119z" />
    <glyph glyph-name="afii10069" unicode="&#x434;" horiz-adv-x="582" 
d="M542 427h4c38 189 -134 272 -264 281l23 19c47 -5 75 -8 120 -19c45 -9 75 -21 111 -44c85 -51 134 -150 95 -343c-44 -219 -156 -326 -316 -326c-76 0 -132 23 -169 68c-37 46 -47 107 -32 184c16 78 52 140 107 187c56 47 121 70 195 70c68 0 114 -30 126 -77zM488 249
c29 161 0 240 -75 240c-76 0 -139 -81 -171 -240c-31 -161 -2 -239 73 -239c76 0 141 83 173 239z" />
    <glyph glyph-name="afii10070" unicode="&#x435;" horiz-adv-x="534" 
d="M238 250c-30 -147 16 -220 137 -220c56 0 108 20 155 59l9 -12c-67 -55 -141 -82 -223 -82c-167 0 -237 100 -206 252c16 79 52 142 108 188s126 69 211 69c113 0 180 -43 161 -134c-7 -35 -21 -57 -68 -82s-143 -38 -284 -38zM413 489c-68 0 -137 -72 -172 -224
c151 0 218 29 234 112c13 63 -7 112 -62 112z" />
    <glyph glyph-name="afii10072" unicode="&#x436;" horiz-adv-x="958" 
d="M162 63l-9 -47c19 0 42 21 69 63s47 91 58 148c44 212 -69 234 -96 234c-21 0 -43 -10 -68 -30l-6 8c49 40 111 66 152 66s175 -24 130 -249l-12 -46l111 117l35 173h107l11 -15l-59 -284l118 125c45 116 128 179 232 179c69 0 100 -28 92 -73c-7 -36 -37 -61 -72 -61
s-54 26 -47 66l10 47c-19 0 -43 -21 -70 -63s-46 -91 -57 -148c-44 -212 71 -234 97 -234c20 0 42 10 67 30l6 -8c-49 -40 -110 -66 -151 -66c-40 0 -177 24 -131 249c2 11 6 26 11 46l-111 -117l-34 -173h-106l-12 15l58 284l-116 -124c-45 -116 -129 -180 -233 -180
c-69 0 -100 28 -92 73c8 36 37 61 72 61s54 -26 46 -66z" />
    <glyph glyph-name="afii10073" unicode="&#x437;" horiz-adv-x="500" 
d="M359 504c128 0 193 -48 177 -125c-13 -61 -66 -104 -145 -119c84 -13 127 -60 114 -128c-17 -85 -108 -137 -251 -137c-55 0 -101 9 -138 26c-37 18 -52 44 -45 78c7 35 35 59 70 59c36 0 56 -25 47 -72l-12 -58c23 -11 46 -17 70 -17c71 0 115 41 132 123
c15 77 -15 116 -90 116c-19 0 -41 -1 -65 -3l5 26c24 -2 45 -3 62 -3c65 0 104 36 118 107c15 74 -6 111 -65 111c-21 0 -44 -6 -69 -17l-11 -58c-9 -47 -41 -72 -77 -72c-33 0 -53 23 -46 59c7 34 32 60 76 77c44 18 92 27 143 27z" />
    <glyph glyph-name="afii10074" unicode="&#x438;" horiz-adv-x="600" 
d="M84 431l-6 8c53 44 103 66 152 66c44 0 69 -23 60 -66l-55 -270c-19 -75 -2 -134 51 -134c47 0 92 28 137 84l78 381h110l12 -15l-84 -409c-5 -25 2 -37 20 -37c14 0 33 10 58 30l6 -8c-53 -44 -103 -66 -152 -66c-44 0 -69 23 -60 66l8 26l-2 4
c-59 -64 -124 -96 -195 -96c-95 0 -135 63 -116 155l56 274c6 25 -1 37 -20 37c-14 0 -33 -10 -58 -30z" />
    <glyph glyph-name="afii10075" unicode="&#x439;" horiz-adv-x="600" 
d="M473 579l12 63c8 36 36 60 69 60s52 -23 45 -55c-7 -31 -29 -54 -68 -70c-38 -16 -78 -24 -119 -24s-78 8 -110 24s-45 40 -39 71c7 32 35 54 68 54s51 -23 44 -60l-13 -63c17 -7 35 -10 53 -10c19 0 38 3 58 10zM84 431l-6 8c53 44 103 66 152 66c44 0 69 -23 60 -66
l-55 -270c-19 -75 -2 -134 51 -134c47 0 92 28 137 84l78 381h110l12 -15l-84 -409c-5 -25 2 -37 20 -37c14 0 33 10 58 30l6 -8c-53 -44 -103 -66 -152 -66c-44 0 -69 23 -60 66l8 26l-2 4c-59 -64 -124 -96 -195 -96c-95 0 -135 63 -116 155l56 274c6 25 -1 37 -20 37
c-14 0 -33 -10 -58 -30z" />
    <glyph glyph-name="afii10076" unicode="&#x43a;" horiz-adv-x="551" 
d="M84 431l-6 8c53 44 103 66 152 66c44 0 69 -23 60 -66l-89 -439h-110l-13 15l84 409c6 25 -1 37 -20 37c-14 0 -33 -10 -58 -30zM466 441l6 32c-28 -9 -58 -32 -91 -70s-59 -75 -80 -111c53 -11 95 -54 112 -90c9 -18 19 -41 30 -69s20 -48 26 -59c13 -23 28 -35 46 -35
c14 0 33 10 58 30l6 -8c-43 -35 -101 -65 -141 -65c-45 0 -77 24 -95 72c-5 13 -11 33 -18 62c-12 59 -27 98 -62 118l18 31c23 39 36 65 71 110c47 64 102 112 167 115c47 0 77 -29 68 -73c-7 -37 -37 -61 -73 -61c-39 0 -56 28 -48 71z" />
    <glyph glyph-name="afii10077" unicode="&#x43b;" horiz-adv-x="549" 
d="M149 58l-4 -21c25 0 63 88 115 263c9 32 18 57 25 74s18 35 33 54c45 53 113 68 266 72l-87 -424c-5 -25 2 -37 21 -37c15 0 35 10 58 30l6 -8c-53 -44 -103 -66 -152 -66c-44 0 -69 23 -60 66l84 412c-51 0 -88 -14 -112 -42s-45 -72 -62 -131c-10 -36 -18 -64 -25 -85
s-15 -45 -25 -72c-9 -27 -18 -48 -27 -63c-26 -47 -62 -90 -108 -85c-47 0 -71 25 -63 64c7 36 36 60 71 60c33 0 53 -24 46 -61z" />
    <glyph glyph-name="afii10078" unicode="&#x43c;" horiz-adv-x="807" 
d="M149 58l-5 -24c27 0 52 47 88 187l72 279h110l66 -370l231 370h109l-65 -424c-3 -25 3 -37 20 -37c16 0 36 10 59 30l6 -8c-53 -44 -104 -66 -152 -66c-44 0 -67 22 -60 66l55 360l-261 -421h-37l-81 422l-53 -201c-21 -83 -43 -142 -64 -176c-21 -33 -50 -50 -89 -50
c-51 0 -74 27 -66 64c7 36 36 60 71 60c33 0 53 -24 46 -61z" />
    <glyph glyph-name="afii10079" unicode="&#x43d;" horiz-adv-x="603" 
d="M251 245l-50 -245h-110l-13 15l84 409c6 25 -1 37 -20 37c-14 0 -33 -10 -58 -30l-6 8c53 44 103 66 152 66c44 0 69 -23 60 -66l-35 -172h200l48 233h110l12 -15l-84 -409c-5 -25 2 -37 21 -37c15 0 34 10 57 30l6 -8c-53 -44 -103 -66 -152 -66c-44 0 -69 23 -60 66
l38 184h-200z" />
    <glyph glyph-name="afii10080" unicode="&#x43e;" horiz-adv-x="579" 
d="M111 249c15 77 51 138 107 185c57 47 123 70 198 70s131 -23 168 -70s48 -108 32 -185c-15 -77 -51 -139 -107 -185s-122 -69 -197 -69s-132 23 -169 69s-48 108 -32 185zM238 249c-29 -161 1 -239 77 -239c77 0 143 83 174 239c31 161 0 240 -76 240
c-77 0 -143 -83 -175 -240z" />
    <glyph glyph-name="afii10081" unicode="&#x43f;" horiz-adv-x="605" 
d="M84 431l-6 8c53 44 103 66 152 66c44 0 69 -23 60 -66l-8 -28l2 -3c57 61 137 96 201 96c97 0 132 -69 111 -174l-52 -254c-5 -25 2 -37 20 -37c14 0 33 10 58 30l6 -8c-53 -44 -104 -66 -153 -66c-43 0 -68 23 -59 66l51 251c10 41 11 77 2 107c-8 30 -27 45 -56 45
c-40 0 -94 -33 -135 -84l-77 -380h-110l-13 15l84 409c6 25 -1 37 -20 37c-14 0 -33 -10 -58 -30z" />
    <glyph glyph-name="afii10082" unicode="&#x440;" horiz-adv-x="584" 
d="M249 -200h-273l3 12l62 19l121 593c6 25 -1 37 -20 37c-14 0 -33 -10 -58 -30l-6 8c53 44 103 66 152 66c44 0 69 -23 60 -66l-7 -22l2 -3c57 60 119 90 188 90c116 0 158 -95 127 -243c-33 -169 -141 -266 -293 -266c-43 0 -77 8 -102 24l-39 -188l85 -19zM279 385
l-71 -351c26 -16 52 -24 79 -24c88 0 152 82 183 234c27 129 4 220 -61 220c-43 0 -87 -26 -130 -79z" />
    <glyph glyph-name="afii10083" unicode="&#x441;" horiz-adv-x="548" 
d="M461 378l19 89c-21 15 -43 22 -66 22c-81 0 -144 -84 -172 -220c-31 -152 7 -240 127 -240c55 0 106 20 154 60l9 -12c-67 -55 -140 -82 -221 -82c-163 0 -232 98 -200 254c32 159 142 255 305 255c98 0 204 -41 185 -131c-9 -45 -43 -71 -84 -71c-43 0 -65 28 -56 76z
" />
    <glyph glyph-name="afii10084" unicode="&#x442;" horiz-adv-x="875" 
d="M84 431l-6 8c53 44 103 66 152 66c44 0 69 -23 60 -66l-9 -30l2 -3c55 64 128 98 185 98c61 0 95 -33 104 -100c59 63 135 100 195 100c91 0 122 -67 99 -174l-52 -254c-5 -25 2 -37 20 -37c14 0 33 10 58 30l6 -8c-53 -44 -103 -66 -152 -66c-44 0 -69 23 -60 66l51 251
c21 101 6 152 -45 152c-32 0 -81 -30 -121 -81c1 -17 0 -35 -4 -53l-67 -330h-111l-12 15l61 297c21 101 7 152 -41 152c-35 0 -82 -34 -119 -87l-77 -377h-110l-13 15l84 409c6 25 -1 37 -20 37c-14 0 -33 -10 -58 -30z" />
    <glyph glyph-name="afii10085" unicode="&#x443;" horiz-adv-x="582" 
d="M112 -129l-7 -35c2 -3 5 -4 10 -4c11 0 35 14 71 43s72 63 109 102l-108 449c-5 23 -17 35 -36 35c-17 0 -37 -10 -60 -30l-6 8c53 44 103 66 148 66c40 0 65 -24 76 -73l80 -366c15 17 33 39 54 66c22 27 52 69 90 125c39 57 61 97 66 121h-38c-40 0 -62 26 -55 63
c7 36 38 62 75 62c41 0 64 -34 55 -86c-9 -41 -37 -98 -86 -169s-103 -140 -163 -206c-60 -65 -121 -122 -184 -171c-62 -49 -109 -73 -142 -73c-36 0 -73 22 -64 74c8 39 33 60 68 60c36 0 55 -24 47 -61z" />
    <glyph glyph-name="afii10086" unicode="&#x444;" horiz-adv-x="819" 
d="M586 466l3 -3c38 28 83 42 136 42c123 0 164 -94 133 -242c-35 -171 -134 -265 -277 -265c-31 0 -59 6 -83 17l-38 -184l56 -19l-3 -12h-243l2 12l62 19l35 167l9 31l-2 3c-36 -25 -81 -38 -134 -38c-125 0 -166 94 -135 242c35 171 137 266 281 266c28 0 55 -6 81 -17
l40 199l-56 13l2 13l174 17l11 -14l-43 -211zM304 23c25 0 51 9 76 27l86 421c-19 9 -38 14 -58 14c-82 0 -139 -79 -171 -236c-29 -139 -5 -226 67 -226zM663 473c-27 0 -53 -9 -78 -28l-84 -416c21 -9 41 -14 58 -14c81 0 137 79 169 236c29 139 6 222 -65 222z" />
    <glyph glyph-name="afii10087" unicode="&#x445;" horiz-adv-x="563" 
d="M163 61l-6 -29c43 15 91 80 146 196l-84 196c-11 25 -24 37 -40 37c-15 0 -34 -10 -57 -30l-6 8c51 44 93 66 128 66c43 0 74 -22 93 -66l48 -114c59 119 122 179 190 179c44 0 71 -29 62 -74c-7 -36 -38 -60 -74 -60c-37 0 -57 27 -48 67l6 30
c-41 -14 -83 -68 -127 -162l99 -229c10 -25 23 -37 39 -37c15 0 33 10 56 30l6 -8c-52 -44 -95 -66 -129 -66c-41 0 -71 22 -90 66l-64 148c-21 -48 -45 -90 -81 -137s-82 -77 -127 -77c-44 0 -71 28 -62 73c7 36 38 61 74 61c37 0 57 -27 48 -68z" />
    <glyph glyph-name="afii10088" unicode="&#x446;" horiz-adv-x="600" 
d="M613 66l4 3l6 -8l-4 -3c-13 -12 -23 -27 -28 -46c-3 -15 -1 -30 4 -47c6 -17 8 -29 7 -36c-4 -23 -33 -56 -87 -101l-5 8c19 19 30 36 33 52c7 32 -13 67 -10 83c2 13 13 31 34 52c-35 -19 -67 -28 -96 -28c-44 0 -69 23 -60 66l8 26l-2 4c-59 -64 -124 -96 -195 -96
c-95 0 -135 63 -116 155l56 274c6 25 -1 37 -20 37c-14 0 -33 -10 -58 -30l-6 8c53 44 103 66 152 66c44 0 69 -23 60 -66l-55 -270c-19 -75 -2 -134 51 -134c47 0 92 28 137 84l78 381h110l12 -15l-84 -409c-5 -25 2 -37 20 -37c15 0 33 9 54 27z" />
    <glyph glyph-name="afii10089" unicode="&#x447;" horiz-adv-x="583" 
d="M436 268l48 232h110l12 -15l-84 -409c-5 -25 2 -37 20 -37c14 0 33 10 58 30l6 -8c-53 -44 -103 -66 -152 -66c-44 0 -69 23 -60 66l38 187c-49 -37 -106 -56 -170 -56c-95 0 -135 60 -116 152l16 80c6 25 -1 37 -20 37c-14 0 -33 -10 -58 -30l-6 8c53 44 103 66 152 66
c44 0 69 -23 60 -66l-16 -79c-17 -88 0 -132 52 -132c40 0 77 13 110 40z" />
    <glyph glyph-name="afii10090" unicode="&#x448;" horiz-adv-x="875" 
d="M892 69l6 -8c-53 -44 -103 -66 -152 -66c-44 0 -69 23 -60 66l8 30l-2 3c-55 -64 -127 -98 -184 -98c-61 0 -95 33 -104 100c-59 -63 -135 -100 -194 -100c-92 0 -123 67 -100 174l52 254c6 25 -1 37 -20 37c-14 0 -33 -10 -58 -30l-6 8c53 44 103 66 152 66
c44 0 69 -23 60 -66l-51 -251c-21 -101 -6 -152 45 -152c33 0 82 30 121 81c-1 17 0 35 4 53l68 330h110l12 -15l-62 -297c-19 -101 -5 -152 42 -152c35 0 82 34 119 87l77 377h111l12 -15l-84 -409c-5 -25 2 -37 20 -37c14 0 33 10 58 30z" />
    <glyph glyph-name="afii10091" unicode="&#x449;" horiz-adv-x="875" 
d="M888 66l4 3l6 -8l-6 -5c-13 -12 -22 -27 -25 -44c-3 -14 -2 -30 3 -47c6 -17 8 -29 7 -36c-5 -23 -34 -56 -87 -101l-5 8c19 19 30 36 33 52c3 15 2 31 -4 47s-8 28 -6 36c2 13 13 31 34 52c-35 -19 -67 -28 -96 -28c-44 0 -69 23 -60 66l8 30l-2 3
c-55 -64 -127 -98 -184 -98c-61 0 -95 33 -104 100c-59 -63 -135 -100 -194 -100c-92 0 -123 67 -100 174l52 254c6 25 -1 37 -20 37c-14 0 -33 -10 -58 -30l-6 8c53 44 103 66 152 66c44 0 69 -23 60 -66l-51 -251c-21 -101 -6 -152 45 -152c33 0 82 30 121 81
c-1 17 0 35 4 53l68 330h110l12 -15l-62 -297c-19 -101 -5 -152 42 -152c35 0 82 34 119 87l77 377h111l12 -15l-84 -409c-5 -25 2 -37 20 -37c15 0 33 9 54 27z" />
    <glyph glyph-name="afii10092" unicode="&#x44a;" horiz-adv-x="581" 
d="M403 505l6 -7c-35 -61 -66 -133 -95 -214c37 11 72 17 103 17c117 0 184 -59 165 -150c-19 -96 -121 -156 -266 -156c-132 0 -187 57 -164 171c15 76 65 176 133 261c-10 -3 -19 -4 -28 -4c-11 0 -26 5 -45 14s-37 14 -54 14c-28 0 -53 -9 -75 -27l-6 7
c63 52 126 80 158 80c10 0 24 -5 41 -15c18 -9 36 -14 55 -14c29 0 53 8 72 23zM371 274c-21 0 -42 -4 -64 -11c-15 -45 -27 -88 -36 -129c-17 -83 -1 -119 54 -119c59 0 111 44 128 128s-14 131 -82 131z" />
    <glyph glyph-name="afii10093" unicode="&#x44b;" horiz-adv-x="779" 
d="M585 431l-5 8c53 44 103 66 152 66c44 0 69 -23 60 -66l-73 -363c-6 -25 0 -37 19 -37c15 0 34 10 59 30l5 -8c-53 -44 -103 -66 -152 -66c-43 0 -68 23 -60 66l74 363c6 25 -1 37 -20 37c-14 0 -34 -10 -59 -30zM84 431l-6 8c53 44 103 66 152 66c44 0 69 -23 60 -66
l-32 -160c41 15 80 22 117 22c116 0 184 -59 165 -150c-9 -48 -38 -86 -86 -114c-47 -28 -106 -42 -176 -42c-59 0 -106 12 -139 35c-33 24 -45 61 -35 111l58 283c6 25 -1 37 -20 37c-14 0 -33 -10 -58 -30zM328 274c-25 0 -49 -5 -74 -16l-33 -160c-9 -47 12 -83 64 -83
c56 0 110 45 127 129s-16 130 -84 130z" />
    <glyph glyph-name="afii10094" unicode="&#x44c;" horiz-adv-x="539" 
d="M84 431l-6 8c53 44 103 66 152 66c44 0 69 -23 60 -66l-32 -160c41 15 80 22 117 22c116 0 184 -59 165 -150c-9 -48 -38 -86 -86 -114c-47 -28 -106 -42 -176 -42c-59 0 -106 12 -139 35c-33 24 -45 61 -35 111l58 283c6 25 -1 37 -20 37c-14 0 -33 -10 -58 -30z
M328 274c-25 0 -49 -5 -74 -16l-33 -160c-9 -47 12 -83 64 -83c56 0 110 45 127 129s-16 130 -84 130z" />
    <glyph glyph-name="afii10095" unicode="&#x44d;" horiz-adv-x="534" 
d="M354 504c165 0 235 -100 203 -256c-32 -157 -143 -253 -315 -253c-51 0 -94 9 -129 27c-35 19 -49 45 -42 80c8 35 36 59 71 59c36 0 56 -27 47 -72l-13 -59c25 -13 48 -20 71 -20c87 0 151 87 183 236h-199l5 22h198c25 141 -8 220 -91 220c-23 0 -46 -6 -69 -17
l-11 -58c-9 -47 -41 -72 -77 -72c-35 0 -53 23 -46 58c7 34 32 60 75 78s90 27 139 27z" />
    <glyph glyph-name="afii10096" unicode="&#x44e;" horiz-adv-x="810" 
d="M251 245l-50 -245h-110l-13 15l84 409c6 25 -1 37 -20 37c-14 0 -33 -10 -58 -30l-6 8c53 44 103 66 152 66c44 0 69 -23 60 -66l-35 -172h88c19 72 54 129 107 172s114 65 183 65c73 0 126 -23 161 -70c35 -46 45 -108 29 -185c-15 -77 -50 -139 -104 -185
s-117 -69 -190 -69c-71 0 -125 22 -161 67c-35 45 -46 106 -31 183h-86zM466 249c-31 -161 -4 -239 67 -239s132 83 163 239c31 161 6 240 -65 240s-134 -84 -165 -240z" />
    <glyph glyph-name="afii10097" unicode="&#x44f;" horiz-adv-x="566" 
d="M358 500h234l-87 -424c-5 -25 2 -37 20 -37c14 0 33 10 58 30l6 -8c-53 -44 -103 -66 -152 -66c-44 0 -69 23 -60 66l37 182h-1l-1 -8h-43c-52 0 -82 -24 -111 -84l-25 -54c-17 -36 -25 -51 -45 -72c-19 -21 -43 -30 -78 -30c-45 0 -76 10 -91 31l9 8c7 -7 16 -11 26 -11
c23 0 34 18 63 78l23 47c27 54 71 86 131 96c-93 9 -145 56 -130 127c17 79 104 129 217 129zM355 255h62l46 225h-62c-68 0 -117 -39 -133 -112c-15 -75 19 -113 87 -113z" />
    <glyph glyph-name="uni0450" unicode="&#x450;" horiz-adv-x="534" 
d="M238 250c-30 -147 16 -220 137 -220c56 0 108 20 155 59l9 -12c-67 -55 -141 -82 -223 -82c-167 0 -237 100 -206 252c16 79 52 142 108 188s126 69 211 69c113 0 180 -43 161 -134c-7 -35 -21 -57 -68 -82s-143 -38 -284 -38zM413 489c-68 0 -137 -72 -172 -224
c151 0 218 29 234 112c13 63 -7 112 -62 112zM325 641l81 67l106 -150l-13 -11z" />
    <glyph glyph-name="afii10071" unicode="&#x451;" horiz-adv-x="534" 
d="M238 250c-30 -147 16 -220 137 -220c56 0 108 20 155 59l9 -12c-67 -55 -141 -82 -223 -82c-167 0 -237 100 -206 252c16 79 52 142 108 188s126 69 211 69c113 0 180 -43 161 -134c-7 -35 -21 -57 -68 -82s-143 -38 -284 -38zM413 489c-68 0 -137 -72 -172 -224
c151 0 218 29 234 112c13 63 -7 112 -62 112zM254 613c9 40 44 70 84 70c41 0 65 -30 56 -70c-8 -41 -43 -71 -84 -71c-40 0 -64 30 -56 71zM479 613c9 40 44 70 84 70c41 0 64 -30 56 -70c-9 -41 -44 -71 -84 -71s-64 30 -56 71z" />
    <glyph glyph-name="afii10099" unicode="&#x452;" horiz-adv-x="605" 
d="M278 380l-77 -380h-110l-13 15l117 571h-59l2 9l62 13l15 76l-56 13l2 13l174 17l11 -14l-21 -105h173l-4 -22h-174l-17 -86l-21 -89l2 -3c57 60 137 96 200 96c97 0 133 -67 112 -174l-64 -309c-29 -145 -113 -226 -237 -226c-72 0 -102 29 -94 73c8 36 37 61 72 61
s54 -26 46 -66l-9 -47c39 0 68 62 97 205l60 291c21 101 4 152 -51 152c-37 0 -95 -33 -138 -84z" />
    <glyph glyph-name="afii10100" unicode="&#x453;" horiz-adv-x="463" 
d="M282 547l-8 11l167 150l53 -67zM497 386c-9 -49 -56 -88 -109 -115c-76 -37 -170 -75 -187 -151c-11 -56 26 -91 93 -91c48 0 96 20 143 60l9 -12c-67 -55 -137 -82 -212 -82c-113 0 -174 52 -159 128c11 49 56 89 108 114c76 38 172 74 187 149c9 47 -18 85 -83 85
c-46 0 -92 -20 -138 -60l-9 12c65 55 135 82 208 82c111 0 164 -50 149 -119z" />
    <glyph glyph-name="afii10101" unicode="&#x454;" horiz-adv-x="543" 
d="M429 489c-88 0 -156 -81 -188 -221h227l-4 -22h-227c-29 -144 14 -216 131 -216c55 0 107 20 154 59l9 -12c-67 -55 -141 -82 -222 -82c-163 0 -231 97 -200 250c17 79 52 141 107 188s125 71 209 71c50 0 93 -9 128 -27c36 -17 51 -43 44 -77c-7 -36 -37 -59 -70 -59
c-36 0 -56 25 -47 72l12 59c-17 11 -38 17 -63 17z" />
    <glyph glyph-name="afii10102" unicode="&#x455;" horiz-adv-x="468" 
d="M394 415l13 57c-19 11 -41 17 -64 17c-64 0 -110 -36 -119 -85c-11 -49 17 -67 88 -92c60 -23 100 -42 119 -57c34 -28 46 -66 36 -113c-19 -91 -93 -147 -234 -147c-112 0 -173 36 -160 99c8 37 35 58 67 58c36 0 53 -25 44 -68l-11 -57c17 -11 39 -17 66 -17
c71 0 124 35 135 90c11 52 -22 74 -102 102c-29 10 -51 18 -66 24c-14 7 -29 16 -46 28c-32 24 -39 56 -30 103c19 89 89 147 222 147c105 0 166 -35 154 -99c-8 -37 -36 -58 -68 -58c-35 0 -52 25 -44 68z" />
    <glyph glyph-name="afii10103" unicode="&#x456;" horiz-adv-x="277" 
d="M84 431l-6 8c53 44 103 66 152 66c44 0 69 -23 60 -66l-74 -363c-5 -25 2 -37 21 -37c15 0 34 10 57 30l6 -8c-48 -40 -108 -66 -151 -66c-44 0 -70 23 -61 66l74 363c6 25 -1 37 -20 37c-14 0 -33 -10 -58 -30zM278 719c47 0 73 -32 64 -79c-10 -72 -112 -106 -148 -57
c-40 46 15 142 84 136z" />
    <glyph glyph-name="afii10104" unicode="&#x457;" horiz-adv-x="277" 
d="M106 623c8 41 43 71 83 71c41 0 65 -30 57 -71c-8 -40 -44 -70 -84 -70s-64 30 -56 70zM277 623c8 41 43 71 83 71s65 -30 57 -71c-9 -40 -44 -70 -84 -70c-41 0 -65 30 -56 70zM84 431l-6 8c53 44 103 66 152 66c44 0 69 -23 60 -66l-74 -363c-5 -25 2 -37 20 -37
c14 0 33 10 58 30l6 -8c-53 -44 -103 -66 -152 -66c-44 0 -69 23 -60 66l74 363c6 25 -1 37 -20 37c-14 0 -33 -10 -58 -30z" />
    <glyph glyph-name="afii10105" unicode="&#x458;" horiz-adv-x="278" 
d="M-1 -137l-9 -47c37 0 65 61 96 205l82 403c6 25 0 37 -19 37c-15 0 -34 -10 -59 -30l-6 8c53 44 104 66 153 66c43 0 68 -23 59 -66l-85 -418c-31 -145 -113 -226 -236 -226c-72 0 -102 29 -94 73c8 36 38 61 71 61c36 0 55 -26 47 -66zM284 719c47 0 73 -32 64 -79
c-10 -72 -112 -106 -148 -57c-40 46 15 142 84 136z" />
    <glyph glyph-name="afii10106" unicode="&#x459;" horiz-adv-x="812" 
d="M149 58l-4 -21c25 0 63 88 115 263c8 27 15 47 20 62c12 31 34 72 61 89c46 31 114 49 241 49l-45 -221c41 15 80 22 117 22c57 0 101 -14 132 -41s42 -64 33 -109c-9 -48 -38 -86 -86 -114c-47 -28 -106 -42 -177 -42c-59 0 -105 12 -138 35c-33 24 -45 61 -35 111
l68 332c-51 0 -88 -14 -111 -42c-23 -27 -43 -71 -60 -131c-10 -36 -18 -64 -25 -85s-15 -45 -25 -72c-9 -27 -18 -48 -27 -63c-26 -47 -62 -90 -108 -85c-47 0 -71 25 -63 64c7 36 36 60 71 60c33 0 53 -24 46 -61zM608 274c-25 0 -50 -5 -76 -16l-32 -160
c-9 -47 12 -83 64 -83c56 0 109 45 126 129c17 83 -15 130 -82 130z" />
    <glyph glyph-name="afii10107" unicode="&#x45a;" horiz-adv-x="856" 
d="M251 245l-50 -245h-110l-13 15l84 409c6 25 -1 37 -20 37c-14 0 -33 -10 -58 -30l-6 8c53 44 103 66 152 66c44 0 69 -23 60 -66l-35 -172h192l48 233h111l11 -15l-42 -206c41 15 80 22 117 22c116 0 183 -59 166 -150c-20 -96 -123 -156 -263 -156
c-59 0 -106 12 -139 35c-33 24 -45 61 -35 111l22 104h-192zM646 274c-25 0 -50 -5 -75 -16l-33 -160c-9 -47 12 -83 64 -83c56 0 110 45 127 129s-16 130 -83 130z" />
    <glyph glyph-name="afii10108" unicode="&#x45b;" horiz-adv-x="617" 
d="M622 69l6 -8c-53 -44 -104 -66 -153 -66c-44 0 -68 23 -59 66l51 251c21 101 4 152 -51 152c-37 0 -95 -33 -138 -84l-77 -380h-110l-13 15l117 571h-59l2 9l62 13l15 76l-56 13l2 13l174 17l11 -14l-21 -105h173l-4 -22h-174l-17 -86l-21 -89l2 -3c57 60 137 96 200 96
c97 0 133 -67 112 -174l-52 -254c-5 -25 2 -37 20 -37c14 0 33 10 58 30z" />
    <glyph glyph-name="afii10109" unicode="&#x45c;" horiz-adv-x="551" 
d="M84 431l-6 8c53 44 103 66 152 66c44 0 69 -23 60 -66l-89 -439h-110l-13 15l84 409c6 25 -1 37 -20 37c-14 0 -33 -10 -58 -30zM466 441l6 32c-28 -9 -58 -32 -91 -70s-59 -75 -80 -111c53 -11 95 -54 112 -90c9 -18 19 -41 30 -69s20 -48 26 -59c13 -23 28 -35 46 -35
c14 0 33 10 58 30l6 -8c-43 -35 -101 -65 -141 -65c-45 0 -77 24 -95 72c-5 13 -11 33 -18 62c-12 59 -27 98 -62 118l18 31c23 39 36 65 71 110c47 64 102 112 167 115c47 0 77 -29 68 -73c-7 -37 -37 -61 -73 -61c-39 0 -56 28 -48 71zM320 547l-9 11l168 150l53 -67z" />
    <glyph glyph-name="uni045D" unicode="&#x45d;" horiz-adv-x="600" 
d="M84 431l-6 8c53 44 103 66 152 66c44 0 69 -23 60 -66l-55 -270c-19 -75 -2 -134 51 -134c47 0 92 28 137 84l78 381h110l12 -15l-84 -409c-5 -25 2 -37 20 -37c14 0 33 10 58 30l6 -8c-53 -44 -103 -66 -152 -66c-44 0 -69 23 -60 66l8 26l-2 4
c-59 -64 -124 -96 -195 -96c-95 0 -135 63 -116 155l56 274c6 25 -1 37 -20 37c-14 0 -33 -10 -58 -30zM308 641l81 67l106 -150l-12 -11z" />
    <glyph glyph-name="afii10110" unicode="&#x45e;" horiz-adv-x="582" 
d="M491 579l13 63c7 36 35 60 68 60c35 0 52 -22 45 -55c-7 -31 -29 -54 -67 -70s-78 -24 -119 -24c-71 -2 -162 29 -149 95c7 32 34 54 67 54s52 -24 45 -60l-13 -63c16 -7 34 -10 53 -10c18 0 37 3 57 10zM112 -129l-7 -35c2 -3 5 -4 10 -4c11 0 35 14 71 43
s72 63 109 102l-108 449c-5 23 -17 35 -36 35c-17 0 -37 -10 -60 -30l-6 8c53 44 103 66 148 66c40 0 65 -24 76 -73l80 -366c15 17 33 39 54 66c22 27 52 69 90 125c39 57 61 97 66 121h-38c-40 0 -62 26 -55 63c7 36 38 62 75 62c41 0 64 -34 55 -86
c-9 -41 -37 -98 -86 -169s-103 -140 -163 -206c-60 -65 -121 -122 -184 -171c-62 -49 -109 -73 -142 -73c-36 0 -73 22 -64 74c8 39 33 60 68 60c36 0 55 -24 47 -61z" />
    <glyph glyph-name="afii10193" unicode="&#x45f;" horiz-adv-x="600" 
d="M84 431l-6 8c53 44 103 66 152 66c44 0 69 -23 60 -66l-55 -270c-19 -75 -2 -134 51 -134c47 0 92 28 137 84l78 381h110l12 -15l-84 -409c-5 -25 2 -37 20 -37c14 0 33 10 58 30l6 -8c-53 -44 -103 -66 -152 -66c-44 0 -69 23 -60 66l8 26l-2 4
c-29 -31 -62 -56 -100 -74c-7 -9 -11 -19 -14 -30c-3 -15 -1 -30 4 -47c6 -17 8 -30 7 -37c-4 -23 -33 -56 -86 -101l-6 8c19 17 30 35 34 52c7 32 -14 67 -11 83c3 17 18 37 45 62c-23 -8 -45 -12 -68 -12c-95 0 -135 63 -116 155l56 274c6 25 -1 37 -20 37
c-14 0 -33 -10 -58 -30z" />
    <glyph glyph-name="afii10050" unicode="&#x490;" horiz-adv-x="533" 
d="M157 690l2 10h421l71 106h17l-26 -128h-293l-132 -647l90 -19l-2 -12h-288l2 12l68 19l131 643z" />
    <glyph glyph-name="afii10098" unicode="&#x491;" horiz-adv-x="414" 
d="M91 76l87 424h248l57 91h17l-23 -113h-178l-86 -417c-14 -89 -148 -85 -212 0l9 8c15 -20 31 -30 46 -30c19 0 30 12 35 37z" />
    <glyph glyph-name="uni04D8" unicode="&#x4d8;" horiz-adv-x="727" 
d="M240 592l-9 11c80 69 172 103 275 103c105 0 182 -32 231 -96c50 -64 64 -150 42 -259s-71 -195 -147 -260s-164 -97 -264 -97c-89 0 -156 26 -201 77s-60 118 -43 199c5 24 11 42 18 55l24 20h475c41 201 -15 324 -187 324c-82 0 -153 -26 -214 -77zM371 11
c120 0 222 110 267 319l-378 -26c-40 -195 -3 -293 111 -293z" />
    <glyph glyph-name="afii10846" unicode="&#x4d9;" horiz-adv-x="556" 
d="M112 234l17 15h331c30 147 -15 220 -134 220c-53 0 -104 -20 -151 -59l-8 12c65 55 138 82 219 82c164 0 234 -100 203 -249c-16 -79 -52 -142 -109 -189s-122 -71 -195 -71c-66 0 -117 18 -152 55s-46 86 -34 145c5 19 9 32 13 39zM283 10c69 0 141 76 174 224l-233 -17
c-28 -138 -8 -207 59 -207z" />
    <glyph glyph-name="Wgrave" unicode="&#x1e80;" horiz-adv-x="1188" 
d="M839 0h-38l-107 503l-307 -503h-38l-142 668l-60 20l2 12h262l-2 -12l-68 -20l107 -537l240 399l-30 138l-60 20l2 12h263l-2 -12l-69 -20l108 -537l324 537l-84 20l3 12h181l-3 -12l-73 -20zM654 824l80 68l107 -150l-13 -11z" />
    <glyph glyph-name="wgrave" unicode="&#x1e81;" horiz-adv-x="905" 
d="M655 0h-39l-65 274c-27 -39 -59 -81 -97 -127c-38 -45 -69 -81 -94 -107l-38 -40h-40l-102 426c-5 23 -18 35 -37 35c-15 0 -35 -10 -59 -30l-6 8c53 44 103 66 148 66c41 0 64 -20 76 -73l78 -357c72 88 127 162 166 223l-32 128c-6 23 -19 35 -38 35
c-15 0 -34 -10 -59 -30l-6 8c53 44 103 66 149 66c41 0 64 -20 76 -73l77 -357c11 12 22 26 66 82c22 29 42 55 59 79c17 25 34 51 49 78c16 27 25 49 28 64h-38c-41 0 -62 26 -54 63c7 36 37 62 74 62c41 0 65 -35 53 -88c-6 -29 -20 -62 -43 -101
c-22 -39 -47 -76 -75 -111c-55 -71 -113 -138 -150 -175zM470 641l80 67l106 -150l-12 -11z" />
    <glyph glyph-name="Wacute" unicode="&#x1e82;" horiz-adv-x="1188" 
d="M839 0h-38l-107 503l-307 -503h-38l-142 668l-60 20l2 12h262l-2 -12l-68 -20l107 -537l240 399l-30 138l-60 20l2 12h263l-2 -12l-69 -20l108 -537l324 537l-84 20l3 12h181l-3 -12l-73 -20zM685 731l-8 11l167 150l54 -68z" />
    <glyph glyph-name="wacute" unicode="&#x1e83;" horiz-adv-x="905" 
d="M655 0h-39l-65 274c-27 -39 -59 -81 -97 -127c-38 -45 -69 -81 -94 -107l-38 -40h-40l-102 426c-5 23 -18 35 -37 35c-15 0 -35 -10 -59 -30l-6 8c53 44 103 66 148 66c41 0 64 -20 76 -73l78 -357c72 88 127 162 166 223l-32 128c-6 23 -19 35 -38 35
c-15 0 -34 -10 -59 -30l-6 8c53 44 103 66 149 66c41 0 64 -20 76 -73l77 -357c11 12 22 26 66 82c22 29 42 55 59 79c17 25 34 51 49 78c16 27 25 49 28 64h-38c-41 0 -62 26 -54 63c7 36 37 62 74 62c41 0 65 -35 53 -88c-6 -29 -20 -62 -43 -101
c-22 -39 -47 -76 -75 -111c-55 -71 -113 -138 -150 -175zM501 547l-9 11l168 150l53 -67z" />
    <glyph glyph-name="Wdieresis" unicode="&#x1e84;" horiz-adv-x="1187" 
d="M844 0h-38l-107 503l-307 -503h-38l-142 668l-60 20l2 12h262l-2 -12l-69 -20l108 -537l240 399l-30 138l-60 20l2 12h263l-2 -12l-69 -20l108 -537l324 537l-84 20l3 12h181l-3 -12l-73 -20zM584 807c8 41 43 70 84 70c40 0 64 -29 56 -70c-8 -40 -44 -70 -84 -70
c-41 0 -64 30 -56 70zM809 807c8 41 43 70 83 70c41 0 65 -29 57 -70c-8 -40 -45 -70 -85 -70s-63 30 -55 70z" />
    <glyph glyph-name="wdieresis" unicode="&#x1e85;" horiz-adv-x="905" 
d="M655 0h-39l-65 274c-27 -39 -59 -81 -97 -127c-38 -45 -69 -81 -94 -107l-38 -40h-40l-102 426c-5 23 -18 35 -37 35c-15 0 -35 -10 -59 -30l-6 8c53 44 103 66 148 66c41 0 64 -20 76 -73l78 -357c72 88 127 162 166 223l-32 128c-6 23 -19 35 -38 35
c-15 0 -34 -10 -59 -30l-6 8c53 44 103 66 149 66c41 0 64 -20 76 -73l77 -357c11 12 22 26 66 82c22 29 42 55 59 79c17 25 34 51 49 78c16 27 25 49 28 64h-38c-41 0 -62 26 -54 63c7 36 37 62 74 62c41 0 65 -35 53 -88c-6 -29 -20 -62 -43 -101
c-22 -39 -47 -76 -75 -111c-55 -71 -113 -138 -150 -175zM406 623c9 41 44 71 84 71s65 -30 56 -71c-8 -40 -43 -70 -84 -70c-40 0 -64 30 -56 70zM631 623c8 41 43 71 84 71c40 0 64 -30 56 -71c-8 -40 -44 -70 -84 -70c-41 0 -64 30 -56 70z" />
    <glyph glyph-name="Ygrave" unicode="&#x1ef2;" horiz-adv-x="722" 
d="M409 688l-69 -20l137 -337l278 337l-80 20l2 12h181l-3 -12l-76 -20l-297 -362l-56 -275l57 -19l-2 -12h-256l2 12l69 19l56 275l-148 362l-57 20l2 12h262zM408 824l81 68l106 -150l-13 -11z" />
    <glyph glyph-name="ygrave" unicode="&#x1ef3;" horiz-adv-x="582" 
d="M112 -129l-7 -35c2 -3 5 -4 10 -4c11 0 35 14 71 43s72 63 109 102l-108 449c-5 23 -17 35 -36 35c-17 0 -37 -10 -60 -30l-6 8c53 44 103 66 148 66c40 0 65 -24 76 -73l80 -366c15 17 33 39 54 66c22 27 52 69 90 125c39 57 61 97 66 121h-38c-40 0 -62 26 -55 63
c7 36 38 62 75 62c41 0 64 -34 55 -86c-9 -41 -37 -98 -86 -169s-103 -140 -163 -206c-60 -65 -121 -122 -184 -171c-62 -49 -109 -73 -142 -73c-36 0 -73 22 -64 74c8 39 33 60 68 60c36 0 55 -24 47 -61zM306 641l80 67l107 -150l-13 -11z" />
    <glyph glyph-name="figuredash" unicode="&#x2012;" horiz-adv-x="497" 
d="M529 333h-425l6 34h425z" />
    <glyph glyph-name="endash" unicode="&#x2013;" horiz-adv-x="497" 
d="M516 271h-425l7 34h425z" />
    <glyph glyph-name="emdash" unicode="&#x2014;" horiz-adv-x="695" 
d="M714 271h-623l7 34h623z" />
    <glyph glyph-name="quoteleft" unicode="&#x2018;" horiz-adv-x="206" 
d="M292 705l10 -12c-35 -29 -71 -74 -75 -95c-1 -5 -1 -9 1 -12c39 0 61 -27 54 -64c-8 -39 -41 -66 -80 -66c-37 0 -60 27 -52 72c10 47 57 106 142 177z" />
    <glyph glyph-name="quoteright" unicode="&#x2019;" horiz-adv-x="206" 
d="M156 456l-9 13c17 15 33 32 48 51s24 33 26 44c1 4 0 8 -1 11c-37 0 -61 28 -53 65s40 65 79 65c37 0 61 -27 52 -72c-10 -48 -57 -107 -142 -177z" />
    <glyph glyph-name="quotesinglbase" unicode="&#x201a;" horiz-adv-x="206" 
d="M38 -119l-10 12c36 29 71 75 75 96c1 5 1 9 -1 11c-37 0 -61 26 -53 65c8 37 40 65 79 65c37 0 61 -27 52 -72c-9 -47 -57 -106 -142 -177z" />
    <glyph glyph-name="quotedblleft" unicode="&#x201c;" horiz-adv-x="373" 
d="M460 705l10 -12c-35 -29 -71 -74 -75 -95c-1 -5 -1 -9 1 -12c39 0 60 -27 53 -64c-8 -39 -40 -66 -79 -66c-37 0 -60 27 -52 72c4 21 15 44 34 69s35 44 50 57c15 14 34 31 58 51zM292 705l10 -12c-35 -29 -71 -74 -75 -95c-1 -5 -1 -9 1 -12c39 0 61 -27 54 -64
c-8 -39 -41 -66 -80 -66c-37 0 -60 27 -52 72c10 47 57 106 142 177z" />
    <glyph glyph-name="quotedblright" unicode="&#x201d;" horiz-adv-x="373" 
d="M156 456l-9 13c17 15 33 32 48 51s24 33 26 44c1 4 0 8 -1 11c-37 0 -61 28 -53 65s40 65 79 65c37 0 61 -27 52 -72c-10 -48 -57 -107 -142 -177zM324 456l-9 13c17 15 33 32 48 51s24 33 26 44c1 4 0 8 -1 11c-39 0 -61 28 -53 65s40 65 79 65c37 0 60 -27 51 -72
c-9 -48 -56 -107 -141 -177z" />
    <glyph glyph-name="quotedblbase" unicode="&#x201e;" horiz-adv-x="373" 
d="M38 -119l-10 12c36 29 71 75 75 96c1 5 1 9 -1 11c-37 0 -61 26 -53 65c8 37 40 65 79 65c37 0 61 -27 52 -72c-9 -47 -57 -106 -142 -177zM206 -119l-10 12c36 29 71 75 75 96c1 5 1 9 -1 11c-39 0 -61 26 -53 65c8 37 40 65 79 65c37 0 60 -27 52 -72
c-9 -47 -57 -106 -142 -177z" />
    <glyph glyph-name="dagger" unicode="&#x2020;" horiz-adv-x="515" 
d="M350 490c9 93 -2 158 1 169c5 25 27 45 54 45c25 0 40 -20 35 -45c-1 -5 -10 -24 -26 -57c-15 -33 -29 -70 -42 -112c43 4 81 11 115 20s54 14 59 14c25 0 41 -18 36 -45s-28 -45 -55 -45c-5 0 -22 5 -52 14s-66 16 -107 20c-25 -137 -43 -257 -55 -360
c-11 -103 -18 -158 -19 -167c-9 -59 -105 -59 -90 0c3 14 19 71 49 172s61 220 93 355c-43 -4 -81 -11 -115 -20s-54 -14 -59 -14c-25 0 -41 18 -36 45c5 25 27 45 54 45c5 0 23 -5 53 -14s66 -16 107 -20z" />
    <glyph glyph-name="daggerdbl" unicode="&#x2021;" horiz-adv-x="515" 
d="M350 490c9 93 -2 158 1 169c5 25 27 45 54 45c25 0 40 -20 35 -45c-1 -5 -10 -24 -26 -57c-15 -33 -29 -70 -42 -112c43 4 81 11 115 20s54 14 59 14c25 0 41 -18 36 -45s-28 -45 -55 -45c-5 0 -22 5 -52 14s-66 16 -107 20l-48 -230c43 4 82 11 116 20s53 14 58 14
c60 4 40 -94 -18 -90c-5 0 -23 4 -53 13s-66 16 -107 20c-11 -72 -18 -135 -19 -188s-2 -82 -3 -86c-9 -59 -105 -59 -90 0c3 22 46 110 90 274c-43 -4 -81 -11 -115 -20c-33 -9 -53 -13 -58 -13c-27 0 -42 18 -37 45c7 27 30 45 55 45c5 0 23 -5 53 -14s65 -16 106 -20
l48 230c-43 -4 -81 -11 -115 -20s-54 -14 -59 -14c-25 0 -41 18 -36 45c5 25 27 45 54 45c5 0 23 -5 53 -14s66 -16 107 -20z" />
    <glyph glyph-name="bullet" unicode="&#x2022;" horiz-adv-x="242" 
d="M98 300c11 55 58 94 111 94s84 -39 73 -94c-11 -53 -58 -93 -111 -93s-84 40 -73 93z" />
    <glyph glyph-name="ellipsis" unicode="&#x2026;" horiz-adv-x="612" 
d="M53 63c9 39 43 67 80 67c39 0 61 -30 53 -67c-7 -39 -41 -67 -80 -67c-37 0 -60 30 -53 67zM256 63c9 39 43 67 80 67c39 0 61 -30 53 -67c-8 -39 -41 -67 -80 -67c-37 0 -60 30 -53 67zM459 63c8 39 42 67 79 67c39 0 62 -28 54 -67c-7 -39 -41 -67 -80 -67
c-37 0 -60 30 -53 67z" />
    <glyph glyph-name="perthousand" unicode="&#x2030;" horiz-adv-x="1057" 
d="M149 525c11 55 34 98 68 131s73 50 116 50c88 0 132 -70 111 -181c-11 -55 -34 -99 -68 -132s-73 -49 -117 -49c-87 0 -133 70 -110 181zM228 525c-21 -113 -7 -166 34 -166s81 57 104 166c20 113 5 166 -36 166s-81 -58 -102 -166zM735 700l-559 -700h-43l559 700h43z
M608 356c87 0 131 -72 110 -181c-11 -55 -34 -99 -69 -132c-34 -33 -73 -49 -116 -49s-75 16 -96 49c-20 33 -24 77 -13 132c23 111 96 181 184 181zM502 175c-21 -113 -6 -166 35 -166s80 57 103 166c20 113 6 166 -35 166c-43 0 -82 -58 -103 -166zM942 356
c87 0 133 -72 110 -181c-23 -111 -97 -181 -184 -181c-88 0 -133 70 -110 181s96 181 184 181zM837 175c-23 -113 -6 -166 35 -166s79 57 102 166c21 113 6 166 -35 166s-81 -57 -102 -166z" />
    <glyph glyph-name="guilsinglleft" unicode="&#x2039;" horiz-adv-x="254" 
d="M225 115l-138 156l4 18l201 155l8 -10l-127 -154l64 -154z" />
    <glyph glyph-name="guilsinglright" unicode="&#x203a;" horiz-adv-x="254" 
d="M143 444l137 -155l-4 -18l-200 -156l-8 11l126 154l-63 154z" />
    <glyph glyph-name="fraction" unicode="&#x2044;" horiz-adv-x="344" 
d="M485 700l-447 -700h-37l448 700h36z" />
    <glyph glyph-name="Euro" unicode="&#x20ac;" horiz-adv-x="693" 
d="M126 395h-19l6 34h25c32 86 83 154 152 203s149 74 238 74c84 0 149 -19 195 -56h53l-26 -128h-17c-7 137 -117 159 -184 159c-127 0 -226 -85 -278 -252h331l-6 -34h-335l-9 -40c-4 -17 -7 -33 -9 -50h334l-7 -34h-330c-9 -153 54 -241 202 -241c82 0 154 26 215 78
l9 -12c-80 -68 -173 -102 -279 -102c-184 0 -289 104 -282 277h-24l7 34h20c1 8 3 23 7 45c4 20 8 35 11 45z" />
    <glyph glyph-name="uni20B4" unicode="&#x20b4;" horiz-adv-x="561" 
d="M162 271h-57l7 34h459l-7 -34h-285c-37 -31 -59 -67 -68 -108c-16 -80 34 -134 145 -134c63 0 118 20 167 60l9 -12c-67 -55 -146 -82 -237 -82c-153 0 -232 66 -213 161c9 43 35 81 80 115zM589 395h-458l7 34h284c36 31 58 68 66 109c17 83 -23 133 -131 133
c-59 0 -113 -20 -161 -60l-8 12c67 55 130 82 230 82c152 0 216 -66 197 -159c-9 -44 -35 -83 -79 -117h60z" />
    <glyph glyph-name="uni20BD" unicode="&#x20bd;" horiz-adv-x="634" 
d="M118 185h-64l2 10l67 12l18 91h-64l2 10l67 12l72 354l-61 16l2 10h296c81 0 142 -18 184 -54c43 -36 58 -85 45 -147s-48 -111 -105 -147s-125 -54 -206 -54h-102l-19 -91h199l-4 -22h-199l-31 -154l97 -19l-2 -12h-295l2 12l68 19zM436 678h-87l-73 -358h87
c93 0 165 62 189 179s-23 179 -116 179z" />
    <glyph glyph-name="afii61352" unicode="&#x2116;" horiz-adv-x="1043" 
d="M17 0l1 10l68 19l131 639l-60 20l2 12h199l264 -522l102 493l-61 19l2 10h150l-2 -10l-67 -19l-137 -671h-36l-336 657l-129 -628l60 -19l-1 -10h-150zM808 525c11 55 33 98 67 131s73 50 116 50c87 0 132 -72 111 -181c-24 -111 -97 -181 -184 -181
c-88 0 -133 70 -110 181zM886 525c-21 -113 -6 -166 35 -166s80 57 103 166c20 113 5 166 -36 166s-81 -58 -102 -166zM1045 271h-285l7 34h284z" />
    <glyph glyph-name="trademark" unicode="&#x2122;" horiz-adv-x="819" 
d="M450 634l-16 54h-83l-66 -321l30 -10l-1 -7h-137l1 7l34 10l66 321h-83l-39 -54h-8l13 66h312l-14 -66h-9zM926 693l-33 -10l-43 -316l29 -10l-1 -7h-136l1 7l34 10l38 276l-184 -293h-21l-67 294l-77 -279l30 -10l-1 -5h-75l1 5l33 10l88 318l-30 10l1 7h92l60 -277
l174 277h88z" />
    <glyph glyph-name="arrowleft" unicode="&#x2190;" horiz-adv-x="715" 
d="M211 123l-170 155v19l170 155l11 -11l-87 -136h539v-34h-539l87 -138z" />
    <glyph glyph-name="arrowup" unicode="&#x2191;" horiz-adv-x="715" 
d="M193 434l155 170h18l155 -170l-10 -11l-137 86v-538h-34v539l-137 -87z" />
    <glyph glyph-name="arrowright" unicode="&#x2192;" horiz-adv-x="715" 
d="M504 452l170 -155v-19l-170 -155l-11 10l87 138h-539v34h538l-86 136z" />
    <glyph glyph-name="arrowdown" unicode="&#x2193;" horiz-adv-x="715" 
d="M521 141l-155 -170h-18l-155 170l10 10l137 -86v539h34v-539l137 86z" />
    <glyph glyph-name="uni2196" unicode="&#x2196;" horiz-adv-x="715" 
d="M138 275l-11 230l13 13l230 -11v-15l-157 -36l380 -381l-23 -23l-381 381l-37 -159z" />
    <glyph glyph-name="uni2197" unicode="&#x2197;" horiz-adv-x="715" 
d="M345 507l230 11l13 -13l-11 -231h-15l-36 158l-381 -381l-24 24l381 381l-158 36z" />
    <glyph glyph-name="uni2198" unicode="&#x2198;" horiz-adv-x="715" 
d="M577 300l11 -230l-13 -13l-230 11l-1 15l159 36l-382 381l25 24l380 -381l36 158z" />
    <glyph glyph-name="uni2199" unicode="&#x2199;" horiz-adv-x="715" 
d="M370 68l-230 -11l-14 13l11 230h15l36 -158l382 381l23 -24l-381 -380l158 -37v-14z" />
    <glyph glyph-name="minus" unicode="&#x2212;" horiz-adv-x="448" 
d="M479 333h-375l6 34h376z" />
    <glyph glyph-name="commaaccent" unicode="&#xf6c3;" horiz-adv-x="205" 
d="M20 -250l-9 12c28 24 58 61 62 78c1 5 0 8 -2 10c-31 0 -47 22 -42 53c5 29 34 52 63 52c31 0 50 -20 42 -59c-7 -39 -45 -88 -114 -146z" />
    <glyph glyph-name="dollaroldstyle" unicode="&#xf724;" horiz-adv-x="468" 
d="M252 -4l-9 -46h-24l9 45c-109 1 -168 36 -155 99c8 37 35 58 67 58c36 0 53 -25 44 -68l-11 -57c15 -11 35 -16 58 -17l39 192c-25 9 -36 12 -57 21s-30 15 -46 24c-32 23 -47 56 -37 110c17 84 81 141 201 146l10 47h24l-10 -46c104 -1 163 -36 151 -99
c-8 -37 -36 -58 -68 -58c-35 0 -52 25 -44 68l13 57c-18 11 -36 16 -55 17l-36 -179c24 -9 29 -11 50 -20c11 -4 20 -8 25 -11c11 -5 33 -17 41 -26c29 -23 46 -59 35 -111c-19 -93 -91 -142 -215 -146zM374 100c9 48 -18 71 -82 95l-37 -185c63 5 110 39 119 90zM224 404
c-11 -44 13 -65 69 -86l35 170c-56 -5 -96 -39 -104 -84z" />
    <glyph glyph-name="zerooldstyle" unicode="&#xf730;" horiz-adv-x="640" 
d="M446 506c82 0 144 -23 185 -70c41 -46 54 -108 39 -186c-16 -78 -54 -140 -115 -187c-61 -46 -132 -69 -213 -69c-82 0 -144 23 -185 69c-41 47 -54 109 -38 187s54 140 114 186c61 47 132 70 213 70zM538 250c32 157 -7 241 -95 241c-43 0 -82 -21 -117 -62
c-34 -41 -59 -100 -75 -179s-15 -139 2 -180c18 -41 49 -61 92 -61c87 0 160 84 193 241z" />
    <glyph glyph-name="oneoldstyle" unicode="&#xf731;" horiz-adv-x="369" 
d="M334 0h-292l2 12l87 19l88 428h-95l4 16l211 32l12 -14l-94 -462l79 -19z" />
    <glyph glyph-name="twooldstyle" unicode="&#xf732;" horiz-adv-x="507" 
d="M471 0h-435l9 45l76 48c17 11 40 26 69 46s51 36 66 48s32 27 53 46s37 36 48 51c23 31 44 71 52 108c13 63 -14 97 -70 97c-22 0 -44 -7 -67 -21l-18 -90c-9 -47 -43 -76 -87 -76c-41 0 -63 25 -54 72c8 40 34 72 78 95c45 23 98 35 161 35c128 0 199 -43 182 -123
c-9 -48 -53 -99 -101 -138c-24 -19 -55 -40 -93 -62c-37 -22 -71 -40 -101 -55c-29 -15 -65 -32 -108 -52h299l58 96h17z" />
    <glyph glyph-name="threeoldstyle" unicode="&#xf733;" horiz-adv-x="551" 
d="M388 50c21 103 -32 138 -135 138h-37l4 22h35c93 0 149 47 168 142c17 88 -13 133 -73 133c-25 0 -49 -6 -71 -19l-16 -81c-9 -47 -42 -76 -83 -76c-40 0 -63 26 -54 69c5 28 22 52 50 72c57 41 128 56 197 56c128 0 196 -61 177 -157c-17 -77 -80 -129 -179 -148
c113 -23 161 -76 144 -160c-15 -73 -66 -131 -154 -174s-199 -67 -332 -71l-8 10c217 25 339 106 367 244z" />
    <glyph glyph-name="fouroldstyle" unicode="&#xf734;" 
d="M459 0l-40 -200h-125l41 200h-290l2 15c75 97 133 182 175 257c43 75 72 151 88 228h126c-18 -87 -57 -167 -116 -240s-142 -152 -247 -239h266l36 176l133 110l11 -14l-55 -272h70l-4 -21h-71z" />
    <glyph glyph-name="fiveoldstyle" unicode="&#xf735;" horiz-adv-x="518" 
d="M364 56c19 95 -19 150 -122 150c-47 0 -89 -12 -126 -37l-10 13l96 316c139 0 251 6 334 17l-20 -98h-297l-95 -226c51 29 108 43 170 43c152 0 217 -75 196 -187c-33 -157 -218 -241 -473 -251l-8 10c227 28 328 117 355 250z" />
    <glyph glyph-name="sixoldstyle" unicode="&#xf736;" horiz-adv-x="576" 
d="M277 375c40 32 88 48 145 48c68 0 119 -19 153 -58s44 -90 31 -155s-44 -118 -95 -157s-111 -58 -181 -58c-168 0 -235 120 -195 316c52 255 234 394 501 414l7 -10c-208 -44 -315 -159 -366 -340zM266 327c-38 -176 -30 -315 58 -317c71 0 130 77 155 201
c24 119 -9 191 -84 191c-51 0 -100 -28 -129 -75z" />
    <glyph glyph-name="sevenoldstyle" unicode="&#xf737;" horiz-adv-x="528" 
d="M253 -200h-125c12 61 33 120 64 178c31 57 62 105 93 144s70 87 117 144s85 108 114 151h-325l-63 -96h-17l36 179h431l-3 -15c-18 -35 -57 -106 -118 -212c-60 -105 -105 -193 -136 -263c-31 -69 -53 -139 -68 -210z" />
    <glyph glyph-name="eightoldstyle" unicode="&#xf738;" horiz-adv-x="565" 
d="M619 564c-15 -73 -67 -128 -158 -164c97 -43 139 -90 118 -197c-25 -127 -120 -209 -296 -209c-152 0 -214 64 -194 167c11 49 36 89 73 117c37 29 72 46 123 65c-80 37 -115 82 -95 181c25 120 110 202 263 202c132 0 187 -63 166 -162zM349 316l-42 17
c-61 -33 -97 -75 -114 -160c-23 -109 13 -163 106 -163c95 0 158 55 177 148c20 99 -33 123 -127 158zM407 424l20 -9c51 35 83 82 96 143c20 99 -9 152 -85 152c-75 0 -131 -55 -147 -135c-8 -40 -3 -70 15 -90s52 -40 101 -61z" />
    <glyph glyph-name="nineoldstyle" unicode="&#xf739;" 
d="M426 125c-39 -31 -86 -47 -142 -47c-136 0 -209 81 -184 209c13 66 46 119 97 158c52 40 113 60 184 60c165 0 230 -116 190 -309c-51 -249 -222 -382 -513 -400l-8 10c113 18 197 53 253 105s97 123 123 214zM439 173c43 211 24 317 -55 317c-73 0 -135 -80 -162 -205
c-24 -117 13 -187 86 -187c53 0 96 25 131 75z" />
    <glyph glyph-name="T_h" horiz-adv-x="1191" 
d="M666 15l135 663h-262l-132 -647l60 -19l-2 -12h-258l2 12l68 19l133 647h-174l-73 -106h-17l26 128h574l175 25l12 -15l-43 -210l-21 -89l2 -3c57 60 136 96 200 96c97 0 132 -67 111 -174l-51 -254c-6 -25 1 -37 20 -37c14 0 33 10 58 30l5 -8
c-53 -44 -103 -66 -151 -66c-44 0 -69 23 -61 66l52 251c20 84 6 152 -50 152c-39 0 -97 -33 -138 -84l-78 -380h-111z" />
    <glyph glyph-name="T_h.caron" horiz-adv-x="1191" 
d="M666 15l135 663h-262l-132 -647l60 -19l-2 -12h-258l2 12l68 19l133 647h-174l-73 -106h-17l26 128h574l175 25l12 -15l-43 -210l-21 -89l2 -3c57 60 136 96 200 96c97 0 132 -67 111 -174l-51 -254c-6 -25 1 -37 20 -37c14 0 33 10 58 30l5 -8
c-53 -44 -103 -66 -151 -66c-44 0 -69 23 -61 66l52 251c20 84 6 152 -50 152c-39 0 -97 -33 -138 -84l-78 -380h-111zM658 881l-164 -150h-18l-104 150l12 11l117 -77l149 77z" />
    <glyph glyph-name="T_h.commaaccent" horiz-adv-x="1191" 
d="M666 15l135 663h-262l-132 -647l60 -19l-2 -12h-258l2 12l68 19l133 647h-174l-73 -106h-17l26 128h574l175 25l12 -15l-43 -210l-21 -89l2 -3c57 60 136 96 200 96c97 0 132 -67 111 -174l-51 -254c-6 -25 1 -37 20 -37c14 0 33 10 58 30l5 -8
c-53 -44 -103 -66 -151 -66c-44 0 -69 23 -61 66l52 251c20 84 6 152 -50 152c-39 0 -97 -33 -138 -84l-78 -380h-111zM253 -250l-9 12c29 24 58 61 62 78c1 4 0 7 -1 10c-31 0 -48 22 -43 53c7 65 128 73 106 -7c-9 -41 -47 -90 -115 -146z" />
    <glyph glyph-name="A.smcp" horiz-adv-x="603" 
d="M392 504h32l112 -479l44 -15l-1 -10h-210l2 10l50 15l-30 134h-205l-87 -134l63 -15l-1 -10h-137l1 10l55 15zM387 176l-48 217l-141 -217h189z" />
    <glyph glyph-name="Aacute.smcp" horiz-adv-x="603" 
d="M392 504h32l112 -479l44 -15l-1 -10h-210l2 10l50 15l-30 134h-205l-87 -134l63 -15l-1 -10h-137l1 10l55 15zM387 176l-48 217l-141 -217h189zM355 525l-6 8l124 115l46 -56z" />
    <glyph glyph-name="Abreve.smcp" horiz-adv-x="603" 
d="M392 504h32l112 -479l44 -15l-1 -10h-210l2 10l50 15l-30 134h-205l-87 -134l63 -15l-1 -10h-137l1 10l55 15zM387 176l-48 217l-141 -217h189zM463 592c6 66 107 59 90 6c-5 -24 -22 -42 -51 -53s-59 -17 -91 -17c-31 0 -59 6 -84 17c-24 11 -34 29 -29 53
c5 25 26 42 53 42c28 0 42 -17 35 -48c-5 -17 -6 -29 -1 -37c11 -15 15 -15 28 -15c14 0 39 0 50 52z" />
    <glyph glyph-name="Acircumflex.smcp" horiz-adv-x="603" 
d="M392 504h32l112 -479l44 -15l-1 -10h-210l2 10l50 15l-30 134h-205l-87 -134l63 -15l-1 -10h-137l1 10l55 15zM387 176l-48 217l-141 -217h189zM305 533l123 115h15l77 -115l-9 -8l-90 54l-110 -54z" />
    <glyph glyph-name="Agrave.smcp" horiz-adv-x="603" 
d="M392 504h32l112 -479l44 -15l-1 -10h-210l2 10l50 15l-30 134h-205l-87 -134l63 -15l-1 -10h-137l1 10l55 15zM387 176l-48 217l-141 -217h189zM331 592l67 56l79 -115l-9 -8z" />
    <glyph glyph-name="Adieresis.smcp" horiz-adv-x="603" 
d="M392 504h32l112 -479l44 -15l-1 -10h-210l2 10l50 15l-30 134h-205l-87 -134l63 -15l-1 -10h-137l1 10l55 15zM387 176l-48 217l-141 -217h189zM327 529c-32 0 -51 23 -44 55s34 55 67 55s51 -23 44 -55s-34 -55 -67 -55zM495 529c-32 0 -51 23 -44 55s34 55 67 55
s52 -23 45 -55s-35 -55 -68 -55z" />
    <glyph glyph-name="Amacron.smcp" horiz-adv-x="603" 
d="M392 504h32l112 -479l44 -15l-1 -10h-210l2 10l50 15l-30 134h-205l-87 -134l63 -15l-1 -10h-137l1 10l55 15zM387 176l-48 217l-141 -217h189zM517 569h-194l5 28h194z" />
    <glyph glyph-name="Aogonek.smcp" horiz-adv-x="603" 
d="M550 -122l4 -4c-33 -26 -62 -39 -85 -39c-27 0 -38 15 -32 45c9 42 41 82 98 120h-166l2 10l50 15l-30 134h-205l-87 -134l63 -15l-1 -10h-137l1 10l55 15l312 479h32l112 -479l44 -15l-1 -10h-35c-32 -35 -57 -79 -62 -106c-4 -20 4 -30 24 -30c17 0 31 5 44 14z
M387 176l-48 217l-141 -217h189z" />
    <glyph glyph-name="Aring.smcp" horiz-adv-x="603" 
d="M392 504h32l112 -479l44 -15l-1 -10h-210l2 10l50 15l-30 134h-205l-87 -134l63 -15l-1 -10h-137l1 10l55 15zM387 176l-48 217l-141 -217h189zM360 583c7 36 38 60 75 60c39 0 59 -23 52 -60c-8 -37 -38 -60 -77 -60c-37 0 -58 24 -50 60zM451 583c5 29 -1 43 -20 43
c-24 4 -46 -49 -35 -74c13 -26 47 -7 55 31z" />
    <glyph glyph-name="Atilde.smcp" horiz-adv-x="603" 
d="M392 504h32l112 -479l44 -15l-1 -10h-210l2 10l50 15l-30 134h-205l-87 -134l63 -15l-1 -10h-137l1 10l55 15zM387 176l-48 217l-141 -217h189zM289 546l-7 8c59 50 99 75 119 75c9 0 22 -6 39 -17s32 -16 43 -16c25 0 50 11 76 33l8 -9c-61 -51 -101 -76 -122 -76
c-9 0 -22 5 -41 16c-18 11 -33 17 -44 17c-20 0 -44 -10 -71 -31z" />
    <glyph glyph-name="AE.smcp" horiz-adv-x="652" 
d="M269 8l50 12l6 139h-140l-86 -134l63 -15l-1 -10h-137l1 10l55 15l309 479h307l-19 -96h-14l-25 79h-195l-9 -218h121l30 60h13l-28 -138h-12l-6 60h-118l-10 -234h125l57 79h13l-18 -96h-333zM326 176l9 217l-139 -217h130z" />
    <glyph glyph-name="AEacute.smcp" horiz-adv-x="652" 
d="M269 8l50 12l6 139h-140l-86 -134l63 -15l-1 -10h-137l1 10l55 15l309 479h307l-19 -96h-14l-25 79h-195l-9 -218h121l30 60h13l-28 -138h-12l-6 60h-118l-10 -234h125l57 79h13l-18 -96h-333zM326 176l9 217l-139 -217h130zM411 525l-6 8l125 115l45 -56z" />
    <glyph glyph-name="B.smcp" horiz-adv-x="540" 
d="M132 496l1 8h254c109 0 175 -48 159 -125c-13 -61 -67 -105 -146 -120c84 -15 128 -60 115 -127c-16 -81 -107 -132 -230 -132h-254l1 8l50 12l95 464zM240 250l-47 -233h75c69 0 119 37 135 116s-19 117 -87 117h-76zM364 487h-75l-46 -220h76c56 0 99 37 114 110
c16 75 -13 110 -69 110z" />
    <glyph glyph-name="C.smcp" horiz-adv-x="552" 
d="M533 79l8 -9c-61 -50 -131 -75 -209 -75c-79 0 -137 23 -174 69c-37 47 -48 109 -31 188c16 78 52 140 107 186c56 47 122 70 199 70c60 0 106 -12 139 -37l44 20l5 -8l-22 -109h-13c-3 43 -18 73 -44 90s-55 25 -88 25c-108 0 -178 -77 -210 -232
c-31 -155 15 -232 136 -232c60 0 111 18 153 54z" />
    <glyph glyph-name="Cacute.smcp" horiz-adv-x="552" 
d="M533 79l8 -9c-61 -50 -131 -75 -209 -75c-79 0 -137 23 -174 69c-37 47 -48 109 -31 188c16 78 52 140 107 186c56 47 122 70 199 70c60 0 106 -12 139 -37l44 20l5 -8l-22 -109h-13c-3 43 -18 73 -44 90s-55 25 -88 25c-108 0 -178 -77 -210 -232
c-31 -155 15 -232 136 -232c60 0 111 18 153 54zM383 525l-6 8l125 115l45 -56z" />
    <glyph glyph-name="Ccaron.smcp" horiz-adv-x="552" 
d="M533 79l8 -9c-61 -50 -131 -75 -209 -75c-79 0 -137 23 -174 69c-37 47 -48 109 -31 188c16 78 52 140 107 186c56 47 122 70 199 70c60 0 106 -12 139 -37l44 20l5 -8l-22 -109h-13c-3 43 -18 73 -44 90s-55 25 -88 25c-108 0 -178 -77 -210 -232
c-31 -155 15 -232 136 -232c60 0 111 18 153 54zM567 640l-123 -115h-15l-77 115l9 8l89 -54l111 54z" />
    <glyph glyph-name="Ccedilla.smcp" horiz-adv-x="552" 
d="M264 -85l64 80c-156 3 -234 101 -201 257c16 78 52 140 107 186c56 47 122 70 199 70c60 0 106 -12 139 -37l44 20l5 -8l-22 -109h-13c-3 43 -18 73 -44 90s-55 25 -88 25c-108 0 -178 -77 -210 -232c-31 -155 15 -232 136 -232c60 0 111 18 153 54l8 -9
c-59 -48 -125 -73 -200 -75l-22 -28c39 0 62 -12 57 -36c-4 -24 -36 -58 -96 -102l-3 5c24 21 38 40 41 55c4 20 -9 26 -54 26z" />
    <glyph glyph-name="Ccircumflex.smcp" horiz-adv-x="552" 
d="M533 79l8 -9c-61 -50 -131 -75 -209 -75c-79 0 -137 23 -174 69c-37 47 -48 109 -31 188c16 78 52 140 107 186c56 47 122 70 199 70c60 0 106 -12 139 -37l44 20l5 -8l-22 -109h-13c-3 43 -18 73 -44 90s-55 25 -88 25c-108 0 -178 -77 -210 -232
c-31 -155 15 -232 136 -232c60 0 111 18 153 54zM331 533l124 115h15l76 -115l-9 -8l-89 54l-111 -54z" />
    <glyph glyph-name="Cdotaccent.smcp" horiz-adv-x="552" 
d="M533 79l8 -9c-61 -50 -131 -75 -209 -75c-79 0 -137 23 -174 69c-37 47 -48 109 -31 188c16 78 52 140 107 186c56 47 122 70 199 70c60 0 106 -12 139 -37l44 20l5 -8l-22 -109h-13c-3 43 -18 73 -44 90s-55 25 -88 25c-108 0 -178 -77 -210 -232
c-31 -155 15 -232 136 -232c60 0 111 18 153 54zM462 654c33 0 53 -24 46 -59c-5 -33 -35 -59 -70 -59c-33 0 -55 24 -48 59s37 59 72 59z" />
    <glyph glyph-name="D.smcp" horiz-adv-x="585" 
d="M132 496l1 8h248c77 0 134 -23 171 -68c38 -45 49 -107 33 -184c-16 -78 -52 -140 -108 -185s-122 -67 -198 -67h-248l1 8l50 12l95 464zM378 487h-89l-96 -470h89c85 0 154 75 186 234c32 160 -5 236 -90 236z" />
    <glyph glyph-name="Dcaron.smcp" horiz-adv-x="585" 
d="M132 496l1 8h248c77 0 134 -23 171 -68c38 -45 49 -107 33 -184c-16 -78 -52 -140 -108 -185s-122 -67 -198 -67h-248l1 8l50 12l95 464zM378 487h-89l-96 -470h89c85 0 154 75 186 234c32 160 -5 236 -90 236zM522 640l-122 -115h-16l-77 115l9 8l89 -54l111 54z" />
    <glyph glyph-name="Dcroat.smcp" horiz-adv-x="585" 
d="M128 248h-47l1 8l49 9l46 219l-45 12l1 8h248c77 0 134 -23 171 -68c38 -45 49 -107 33 -184c-16 -78 -52 -140 -108 -185s-122 -67 -198 -67h-248l1 8l50 12zM378 487h-89l-46 -222h111l-3 -17h-111l-47 -231h89c85 0 154 75 186 234c32 160 -5 236 -90 236z" />
    <glyph glyph-name="Eth.smcp" horiz-adv-x="585" 
d="M128 248h-45l1 8l47 9l46 219l-45 12l1 8h248c77 0 134 -23 171 -68c38 -45 49 -107 33 -184c-16 -78 -52 -140 -108 -185s-122 -67 -198 -67h-248l1 8l50 12zM378 487h-89l-46 -222h111l-3 -17h-111l-47 -231h89c85 0 154 75 186 234c32 160 -5 236 -90 236z" />
    <glyph glyph-name="Thorn.smcp" horiz-adv-x="515" 
d="M336 494l-49 -15l-16 -76h71c123 0 192 -56 175 -143c-9 -44 -34 -79 -77 -105c-43 -25 -95 -38 -156 -38h-49l-9 11l1 6h48c64 0 111 41 130 126c16 85 -14 126 -78 126h-59l-74 -361l73 -15l-1 -10h-235l1 10l51 15l92 454l-44 15l2 10h205z" />
    <glyph glyph-name="E.smcp" horiz-adv-x="501" 
d="M241 251l-48 -234h204l58 79h13l-19 -96h-418l1 8l50 12l95 464l-45 12l1 8h411l-19 -96h-13l-26 79h-197l-45 -218h159l30 60h13l-28 -138h-12l-6 60h-159z" />
    <glyph glyph-name="Eacute.smcp" horiz-adv-x="501" 
d="M241 251l-48 -234h204l58 79h13l-19 -96h-418l1 8l50 12l95 464l-45 12l1 8h411l-19 -96h-13l-26 79h-197l-45 -218h159l30 60h13l-28 -138h-12l-6 60h-159zM301 525l-7 8l125 115l45 -56z" />
    <glyph glyph-name="Ebreve.smcp" horiz-adv-x="501" 
d="M241 251l-48 -234h204l58 79h13l-19 -96h-418l1 8l50 12l95 464l-45 12l1 8h411l-19 -96h-13l-26 79h-197l-45 -218h159l30 60h13l-28 -138h-12l-6 60h-159zM409 592c7 66 106 59 91 6c-5 -24 -22 -42 -51 -53s-60 -17 -91 -17c-32 0 -60 6 -85 17c-24 11 -34 29 -29 53
c5 25 26 42 54 42c27 0 39 -17 34 -48c-5 -17 -6 -29 -1 -37c11 -15 16 -15 29 -15c16 -1 35 1 49 52z" />
    <glyph glyph-name="Ecaron.smcp" horiz-adv-x="501" 
d="M241 251l-48 -234h204l58 79h13l-19 -96h-418l1 8l50 12l95 464l-45 12l1 8h411l-19 -96h-13l-26 79h-197l-45 -218h159l30 60h13l-28 -138h-12l-6 60h-159zM488 640l-123 -115h-16l-77 115l10 8l88 -54l111 54z" />
    <glyph glyph-name="Ecircumflex.smcp" horiz-adv-x="501" 
d="M241 251l-48 -234h204l58 79h13l-19 -96h-418l1 8l50 12l95 464l-45 12l1 8h411l-19 -96h-13l-26 79h-197l-45 -218h159l30 60h13l-28 -138h-12l-6 60h-159zM251 533l123 115h15l77 -115l-9 -8l-90 54l-110 -54z" />
    </font>
</defs>
</svg>
