<?xml version="1.0" standalone="no"?>
<!DOCTYPE svg PUBLIC "-//W3C//DTD SVG 1.1//EN" "http://www.w3.org/Graphics/SVG/1.1/DTD/svg11.dtd" >
<svg xmlns="http://www.w3.org/2000/svg" xmlns:xlink="http://www.w3.org/1999/xlink" version="1.1">
<metadata>
Created by FontForge 20150715 at Tue Nov  3 08:14:55 2015
 By Jimmy Wärting
Copyright \(c\) 2014 by Andriy Konstantynov. All rights reserved.
</metadata>
<defs>
<font id="AngleciaProDisplay-Bold" horiz-adv-x="316" >
  <font-face 
    font-family="Anglecia Pro Display"
    font-weight="700"
    font-stretch="normal"
    units-per-em="1000"
    panose-1="2 5 0 3 8 0 0 0 0 0"
    ascent="782"
    descent="-218"
    x-height="500"
    cap-height="700"
    bbox="-177.816 -250 1328 1023"
    underline-thickness="50"
    underline-position="-100"
    unicode-range="U+0020-FB04"
  />
<missing-glyph horiz-adv-x="211" 
 />
    <glyph glyph-name="ff" unicode="ff" horiz-adv-x="741" 
d="M11 486l60 23v21c0 54 27 97 82 129c55 33 128 49 219 49c41 0 77 -6 108 -19c38 23 88 35 151 35c46 0 85 -7 118 -22s50 -39 50 -74c0 -41 -24 -70 -68 -70c-47 0 -82 35 -82 94v51c-5 3 -11 5 -18 5c-32 0 -48 -52 -48 -156v-52h153v-26h-153v-436l90 -22v-16h-317v16
l53 22v436h-164v-436l79 -22v-16h-313v16l60 22v436h-60v12zM386 500l23 9v43c0 50 14 89 42 116c-20 16 -45 24 -76 24c-89 0 -130 -63 -130 -162v-30h141z" />
    <glyph glyph-name="fi" unicode="fi" horiz-adv-x="654" 
d="M643 0h-287v16l53 22v422l-55 14h-109v-436l83 -22v-16h-317v16l60 22v436h-60v12l60 23v32c0 113 107 183 316 183c127 0 190 -34 190 -103c0 -48 -30 -77 -79 -77c-53 0 -92 35 -92 99v53c-11 8 -26 12 -43 12c-79 0 -118 -56 -118 -167v-41h104l217 9l17 -18v-453
l60 -22v-16z" />
    <glyph glyph-name="fl" unicode="fl" horiz-adv-x="662" 
d="M657 0h-295v16l61 22v634c-16 24 -41 36 -74 36c-69 0 -104 -52 -104 -156v-52h134v-26h-134v-436l90 -22v-16h-324v16l60 22v436h-60v12l60 23v43c0 115 98 172 295 172c43 0 79 -3 109 -8l105 13l17 -18v-673l60 -22v-16z" />
    <glyph glyph-name="ffi" unicode="ffi" horiz-adv-x="992" 
d="M980 0h-286v16l53 22v422l-55 14h-109v-436l83 -22v-16h-313v16l56 22v436h-164v-436l79 -22v-16h-313v16l60 22v436h-60v12l60 23v21c0 54 27 97 81 129c55 33 124 49 209 49c57 0 100 -11 131 -33c51 33 129 49 232 49c127 0 190 -34 190 -103c0 -48 -29 -77 -78 -77
c-53 0 -92 35 -92 99v53c-11 8 -26 12 -44 12c-78 0 -117 -56 -117 -167v-41h104l216 9l17 -18v-453l60 -22v-16zM386 500l23 9v32c0 46 18 84 55 115c-25 24 -56 36 -92 36c-85 0 -127 -66 -127 -162v-30h141z" />
    <glyph glyph-name="ffl" unicode="ffl" horiz-adv-x="1006" 
d="M994 0h-295v16l62 22v634c-16 24 -41 36 -74 36c-69 0 -104 -52 -104 -156v-52h133v-26h-133v-436l90 -22v-16h-324v16l60 22v436h-164v-436l79 -22v-16h-313v16l60 22v436h-60v12l60 23v21c0 54 27 97 81 129c55 33 125 49 211 49c52 0 94 -9 125 -26
c47 28 118 42 215 42c42 0 79 -3 110 -8l104 13l17 -18v-673l60 -22v-16zM386 500l23 9v43c0 47 16 83 49 110c-23 20 -51 30 -86 30c-85 0 -127 -66 -127 -162v-30h141z" />
    <glyph glyph-name="f_f_j" unicode="ffj" horiz-adv-x="992" 
d="M747 32v428l-55 14h-109v-436l90 -22v-16h-320v16l56 22v436h-164v-436l79 -22v-16h-313v16l60 22v436h-60v12l60 23v21c0 54 27 97 81 129c55 33 124 49 209 49c57 0 100 -11 131 -33c51 33 129 49 232 49c127 0 190 -34 190 -103c0 -48 -29 -77 -78 -77
c-53 0 -92 35 -92 99v53c-11 8 -26 12 -44 12c-78 0 -117 -56 -117 -167v-41h104l216 9l17 -18v-459c0 -105 -77 -172 -222 -237l-12 12c41 65 61 140 61 225zM386 500l23 9v32c0 46 18 84 55 115c-25 24 -56 36 -92 36c-85 0 -127 -66 -127 -162v-30h141z" />
    <glyph glyph-name="f_j" unicode="fj" horiz-adv-x="654" 
d="M409 32v428l-55 14h-109v-436l90 -22v-16h-324v16l60 22v436h-60v12l60 23v32c0 113 107 183 316 183c127 0 190 -34 190 -103c0 -48 -30 -77 -79 -77c-53 0 -92 35 -92 99v53c-11 8 -26 12 -43 12c-79 0 -118 -56 -118 -167v-41h104l217 9l17 -18v-459
c0 -105 -76 -172 -223 -237l-12 12c41 65 61 140 61 225z" />
    <glyph glyph-name=".notdef" horiz-adv-x="211" 
 />
    <glyph glyph-name="NULL" horiz-adv-x="0" 
 />
    <glyph glyph-name="CR" horiz-adv-x="333" 
 />
    <glyph glyph-name="space" unicode=" " horiz-adv-x="211" 
 />
    <glyph glyph-name="exclam" unicode="!" horiz-adv-x="241" 
d="M134 218h-27c-13 90 -25 166 -38 227c-12 62 -21 104 -27 125c-6 22 -9 37 -9 46c0 52 36 88 87 88c52 0 87 -35 87 -87c0 -9 -3 -25 -9 -47c-12 -43 -40 -172 -64 -352zM42 74c0 47 33 79 78 79c47 0 79 -32 79 -79c0 -45 -32 -78 -79 -78c-45 0 -78 33 -78 78z" />
    <glyph glyph-name="quotedbl" unicode="&#x22;" horiz-adv-x="328" 
d="M104 472h-27c-5 41 -14 78 -27 111c-12 33 -18 54 -18 62c0 35 23 59 58 59s59 -24 59 -59c0 -7 -6 -28 -19 -61s-21 -71 -26 -112zM253 472h-26c-5 41 -14 78 -27 111s-19 54 -19 62c0 35 24 59 59 59s59 -24 59 -59c0 -8 -6 -29 -19 -62s-22 -70 -27 -111z" />
    <glyph glyph-name="numbersign" unicode="#" horiz-adv-x="558" 
d="M173 450h-106v41h119l61 209h45l-62 -209h183l61 209h45l-62 -209h75v-41h-88l-59 -200h106v-41h-118l-62 -209h-45l62 209h-182l-62 -209h-45l62 209h-75v41h87zM400 450h-183l-59 -200h182z" />
    <glyph glyph-name="dollar" unicode="$" horiz-adv-x="604" 
d="M301 -6l-1 -44h-27l1 44c-60 2 -116 15 -169 40h-64v141h19c19 -64 57 -111 98 -134c43 -23 79 -32 116 -32l7 259l-8 3c-22 7 -39 12 -51 15c-24 8 -69 26 -90 39s-51 38 -66 62c-13 25 -24 61 -24 102c0 129 83 216 251 217l1 44h28l-2 -45c48 -3 97 -16 146 -40h64
v-140h-19c-17 63 -50 109 -89 132c-37 23 -69 33 -102 34l-7 -242l9 -2l57 -20c28 -9 74 -29 97 -45c23 -15 54 -40 67 -65s24 -61 24 -101c0 -132 -86 -218 -266 -222zM427 142c0 64 -34 90 -119 118l-7 -250c80 7 126 56 126 132zM182 569c0 -59 31 -83 104 -110l6 231
c-71 -8 -110 -56 -110 -121z" />
    <glyph glyph-name="percent" unicode="%" horiz-adv-x="725" 
d="M190 707c91 0 153 -71 153 -182s-62 -182 -153 -182c-92 0 -154 71 -154 182s62 182 154 182zM190 692c-36 0 -54 -56 -54 -167s18 -167 54 -167s54 56 54 167s-18 167 -54 167zM603 700l-428 -700h-53l429 700h52zM536 357c91 0 153 -71 153 -182s-62 -182 -153 -182
c-92 0 -154 71 -154 182s62 182 154 182zM536 342c-36 0 -54 -56 -54 -167s18 -167 54 -167s54 56 54 167s-18 167 -54 167z" />
    <glyph glyph-name="ampersand" unicode="&#x26;" horiz-adv-x="760" 
d="M702 406l-64 -22c0 -82 -15 -152 -46 -210l105 -138l58 -20v-16h-248l-42 52c-50 -38 -110 -57 -179 -57c-73 0 -133 18 -181 53c-47 36 -71 84 -71 143c0 99 64 151 176 202c-41 58 -61 110 -61 156c0 95 68 156 197 156c107 0 160 -40 160 -120
c0 -62 -36 -115 -108 -160l179 -232c25 52 37 116 37 191l-63 22v12h151v-12zM334 31c45 0 84 14 117 41l-186 243c-42 -41 -63 -87 -63 -140c0 -96 44 -144 132 -144zM308 602c0 -45 17 -80 61 -139c68 37 108 74 108 129c0 53 -41 92 -96 92c-49 0 -73 -27 -73 -82z" />
    <glyph glyph-name="quotesingle" unicode="'" horiz-adv-x="181" 
d="M104 472h-27c-5 41 -14 78 -27 111c-12 33 -18 54 -18 62c0 35 23 59 58 59s59 -24 59 -59c0 -7 -6 -28 -19 -61s-21 -71 -26 -112z" />
    <glyph glyph-name="parenleft" unicode="(" horiz-adv-x="307" 
d="M272 755l12 -12c-33 -73 -56 -145 -70 -218c-13 -73 -20 -156 -20 -250s7 -177 20 -250c14 -73 37 -145 70 -218l-12 -12c-77 65 -135 135 -175 209c-39 74 -59 164 -59 271s20 197 59 271c40 74 98 144 175 209z" />
    <glyph glyph-name="parenright" unicode=")" horiz-adv-x="307" 
d="M36 -205l-12 12c33 73 56 145 69 218c14 73 21 156 21 250s-7 177 -21 250c-13 73 -36 145 -69 218l12 12c77 -65 135 -135 174 -209c40 -74 60 -164 60 -271s-20 -197 -60 -271c-39 -74 -97 -144 -174 -209z" />
    <glyph glyph-name="asterisk" unicode="*" horiz-adv-x="416" 
d="M215 496c-17 -29 -29 -56 -38 -83c-8 -27 -13 -42 -16 -46c-15 -20 -40 -25 -59 -10c-21 15 -25 40 -10 60c3 5 16 15 39 30c23 16 45 36 67 60c-32 7 -63 10 -92 9c-29 0 -45 1 -47 2c-23 7 -36 31 -28 54c8 24 31 35 55 28c4 -1 17 -11 39 -28c23 -17 49 -33 80 -46
c-4 33 -11 62 -20 88s-13 42 -13 47c-5 56 91 56 86 0c0 -5 -5 -21 -14 -47s-15 -55 -19 -88c30 13 56 28 77 45c22 17 36 27 41 28c24 8 47 -4 55 -27c7 -24 -5 -48 -29 -55c-5 -1 -20 -2 -46 -1s-57 -2 -92 -9c22 -25 44 -45 67 -61c23 -15 35 -25 38 -29
c15 -20 12 -47 -8 -60c-21 -15 -46 -11 -61 9c-3 4 -9 19 -17 46c-7 27 -19 55 -35 84z" />
    <glyph glyph-name="plus" unicode="+" horiz-adv-x="451" 
d="M205 279h-172v42h172v171h41v-171h172v-42h-172v-171h-41v171z" />
    <glyph glyph-name="comma" unicode="," horiz-adv-x="219" 
d="M64 -126l-13 13c15 15 29 33 42 54c13 20 20 36 20 47c0 5 -1 9 -4 12c-45 0 -78 31 -78 76s33 77 78 77c47 0 79 -31 79 -82c0 -35 -14 -70 -43 -107c-15 -19 -27 -34 -38 -45c-11 -12 -25 -27 -43 -45z" />
    <glyph glyph-name="hyphen" unicode="-" horiz-adv-x="301" 
d="M268 266h-235v41h235v-41z" />
    <glyph glyph-name="period" unicode="." horiz-adv-x="219" 
d="M31 74c0 47 33 79 78 79c47 0 79 -32 79 -79c0 -45 -32 -78 -79 -78c-45 0 -78 33 -78 78z" />
    <glyph glyph-name="slash" unicode="/" horiz-adv-x="354" 
d="M353 750l-308 -850h-44l308 850h44z" />
    <glyph glyph-name="zero" unicode="0" horiz-adv-x="663" 
d="M119 90c-54 65 -81 151 -81 259s27 194 81 259s125 98 212 98s158 -33 212 -98c55 -65 82 -151 82 -259s-27 -194 -82 -259c-54 -64 -125 -96 -212 -96s-158 32 -212 96zM220 349c0 -227 37 -340 111 -340c75 0 112 113 112 340c0 228 -37 342 -112 342
c-74 0 -111 -114 -111 -342z" />
    <glyph glyph-name="one" unicode="1" horiz-adv-x="408" 
d="M382 0h-348v16l87 22v613h-93v20l250 38l17 -18v-653l87 -22v-16z" />
    <glyph glyph-name="two" unicode="2" horiz-adv-x="545" 
d="M514 0h-488v61c95 91 159 157 192 197c77 93 117 187 121 281v17c0 84 -30 132 -86 132c-17 0 -34 -5 -49 -15v-100c0 -64 -35 -99 -90 -99c-53 0 -90 32 -90 87c0 47 23 83 70 107s102 36 167 36c163 0 253 -64 253 -179c0 -61 -32 -124 -72 -173
c-20 -24 -49 -51 -87 -82c-37 -30 -72 -56 -104 -78l-126 -84h320l50 105h19v-213z" />
    <glyph glyph-name="three" unicode="3" horiz-adv-x="616" 
d="M233 669v-102c0 -63 -35 -98 -90 -98c-27 0 -48 8 -65 23s-25 37 -25 64s9 51 26 72c51 60 158 78 234 78c147 0 239 -69 239 -178c0 -87 -60 -145 -164 -168c119 -20 191 -84 191 -179c0 -57 -24 -102 -72 -137c-48 -34 -112 -51 -192 -51c-57 0 -116 10 -172 31
s-95 65 -95 120c0 53 37 87 90 87c55 0 90 -36 90 -99v-102c16 -9 34 -14 55 -14c72 0 121 53 121 164c0 119 -59 166 -163 166h-42v26h42c88 0 136 44 136 159c0 104 -37 152 -92 152c-19 0 -36 -5 -52 -14z" />
    <glyph glyph-name="four" unicode="4" horiz-adv-x="596" 
d="M555 0h-293v16l60 22v112h-286v15c55 110 96 205 122 286c27 81 40 164 40 249h174c0 -95 -26 -183 -77 -263c-51 -79 -128 -167 -230 -262h257v177l156 157l17 -18v-316h69v-25h-69v-112l60 -22v-16z" />
    <glyph glyph-name="five" unicode="5" horiz-adv-x="567" 
d="M218 119v-95c15 -9 31 -13 47 -13c63 0 95 63 95 190c0 129 -40 202 -151 202c-41 0 -77 -12 -109 -36l-14 13l28 319c148 0 269 6 364 18v-127h-327l-47 -199c47 30 104 45 172 45c168 0 259 -84 259 -220c0 -139 -93 -221 -266 -221c-38 0 -74 4 -107 11
c-65 16 -124 60 -124 125c0 55 36 87 89 87c56 0 91 -36 91 -99z" />
    <glyph glyph-name="six" unicode="6" horiz-adv-x="606" 
d="M211 390c29 22 69 33 119 33c72 0 130 -20 175 -59s67 -91 67 -155c0 -65 -23 -117 -69 -156s-107 -58 -182 -58c-92 0 -163 29 -213 88c-49 59 -74 135 -74 230c0 119 40 212 120 279s191 105 333 112l10 -10c-189 -39 -270 -141 -286 -304zM209 340
c0 -95 8 -173 23 -236s41 -94 76 -94c55 0 89 75 89 202c0 116 -35 189 -98 189c-40 0 -70 -20 -90 -61z" />
    <glyph glyph-name="seven" unicode="7" horiz-adv-x="552" 
d="M328 0h-173c0 103 29 191 74 263c23 36 47 70 72 101s51 67 80 108s53 80 72 118h-342l-55 -104h-19v214h471v-15c-14 -50 -38 -123 -73 -220c-68 -192 -107 -329 -107 -465z" />
    <glyph glyph-name="eight" unicode="8" horiz-adv-x="593" 
d="M522 555c0 -67 -39 -118 -116 -155c53 -23 91 -48 116 -76c25 -27 37 -66 37 -117c0 -131 -82 -213 -281 -213c-164 0 -244 57 -244 156c0 83 55 133 148 174c-80 36 -119 83 -119 176c0 124 71 206 246 206c140 0 213 -56 213 -151zM275 288l-56 20
c-33 -31 -49 -79 -49 -142c0 -107 40 -155 127 -155s134 49 134 129c0 41 -12 71 -36 90c-23 19 -63 38 -120 58zM187 572c0 -35 10 -63 31 -83c21 -19 59 -39 112 -59l24 -10c27 33 40 74 40 125c0 96 -34 144 -103 144c-68 0 -104 -48 -104 -117z" />
    <glyph glyph-name="nine" unicode="9" horiz-adv-x="605" 
d="M393 310c-31 -23 -70 -34 -117 -34c-71 0 -130 19 -175 58s-67 91 -67 155c0 65 23 117 69 156c47 39 108 59 184 59c184 0 283 -123 283 -319c0 -269 -195 -377 -467 -390l-10 10c105 20 180 54 224 103s69 116 76 202zM396 359c0 220 -33 330 -99 330
c-59 0 -95 -77 -95 -204c0 -115 36 -186 101 -186c40 0 71 20 93 60z" />
    <glyph glyph-name="colon" unicode=":" horiz-adv-x="219" 
d="M31 74c0 47 33 79 78 79c47 0 79 -32 79 -79c0 -45 -32 -78 -79 -78c-45 0 -78 33 -78 78zM31 425c0 47 33 79 78 79c47 0 79 -32 79 -79c0 -45 -32 -78 -79 -78c-45 0 -78 33 -78 78z" />
    <glyph glyph-name="semicolon" unicode=";" horiz-adv-x="219" 
d="M64 -126l-13 13c15 15 29 33 42 54c13 20 20 36 20 47c0 5 -1 9 -4 12c-45 0 -78 31 -78 76s33 77 78 77c47 0 79 -31 79 -82c0 -35 -14 -70 -43 -107c-15 -19 -27 -34 -38 -45c-11 -12 -25 -27 -43 -45zM31 425c0 47 33 79 78 79c47 0 79 -32 79 -79
c0 -45 -32 -78 -79 -78c-45 0 -78 33 -78 78z" />
    <glyph glyph-name="less" unicode="&#x3c;" horiz-adv-x="451" 
d="M43 290l348 162l17 -37l-300 -140l300 -140l-17 -37l-348 162v30z" />
    <glyph glyph-name="equal" unicode="=" horiz-adv-x="451" 
d="M418 353h-385v41h385v-41zM418 206h-385v41h385v-41z" />
    <glyph glyph-name="greater" unicode="&#x3e;" horiz-adv-x="451" 
d="M343 275l-300 140l17 37l348 -162v-30l-348 -162l-17 37z" />
    <glyph glyph-name="question" unicode="?" horiz-adv-x="532" 
d="M275 218h-27c-10 41 -14 73 -12 96s8 44 18 65c11 21 22 39 33 53c24 29 46 80 46 137c0 69 -30 119 -83 119c-16 0 -31 -5 -46 -14v-98c0 -64 -35 -99 -90 -99c-53 0 -90 32 -90 87c0 47 23 82 69 105s101 35 165 35c159 0 250 -62 250 -165c0 -60 -36 -110 -83 -143
c-66 -48 -150 -94 -150 -178zM184 75c0 23 7 41 22 56s34 22 57 22s42 -7 56 -22c15 -14 22 -33 22 -56c0 -47 -33 -79 -78 -79c-47 0 -79 32 -79 79z" />
    <glyph glyph-name="at" unicode="@" horiz-adv-x="938" 
d="M805 -33l13 -12c-78 -78 -193 -117 -344 -117c-135 0 -242 32 -320 97c-77 64 -116 152 -116 265c0 217 154 351 446 351c143 0 248 -30 315 -89s100 -139 100 -239c0 -152 -75 -228 -226 -228c-79 0 -128 20 -146 59l-2 2c-39 -41 -82 -61 -130 -61
c-97 0 -151 81 -151 204c0 151 80 226 241 226c37 0 74 -5 110 -16l62 20l16 -16v-351c0 -29 9 -44 27 -44c37 0 60 75 60 186c0 110 -21 191 -64 242c-42 52 -113 78 -214 78c-199 0 -305 -104 -305 -313c0 -103 27 -183 82 -242s144 -89 266 -89c125 0 219 29 280 87z
M524 77v319c-18 10 -34 15 -47 15c-55 0 -82 -65 -82 -194c0 -104 24 -177 71 -177c21 0 40 12 58 37z" />
    <glyph glyph-name="A" unicode="A" horiz-adv-x="774" 
d="M367 700h51l288 -662l64 -22v-16h-315v16l65 22l-75 176h-264l-77 -176l91 -22v-16h-192v16l73 22zM434 240l-120 282l-122 -282h242z" />
    <glyph glyph-name="B" unicode="B" horiz-adv-x="699" 
d="M11 688v12h365c77 0 140 -16 187 -48c48 -31 72 -74 72 -127c0 -84 -64 -144 -168 -165c120 -20 194 -85 194 -176c0 -56 -26 -101 -79 -134c-52 -33 -121 -50 -206 -50h-365v12l65 18v640zM257 346v-320h87c90 0 135 53 135 160s-45 160 -135 160h-87zM344 674h-87v-302
h87c73 0 109 50 109 151s-36 151 -109 151z" />
    <glyph glyph-name="C" unicode="C" horiz-adv-x="695" 
d="M646 111l13 -13c-69 -70 -157 -105 -265 -105c-109 0 -195 32 -260 96c-64 65 -96 151 -96 260s32 195 96 260c65 65 150 97 255 97c78 0 142 -16 192 -47l63 28l10 -10v-158h-19c-33 105 -102 157 -206 157c-135 0 -202 -106 -202 -318s78 -318 235 -318
c76 0 137 24 184 71z" />
    <glyph glyph-name="D" unicode="D" horiz-adv-x="753" 
d="M11 688v12h353c105 0 189 -32 254 -95s97 -149 97 -256s-32 -192 -97 -255s-149 -94 -254 -94h-353v12l65 18v640zM364 674h-107v-648h107c108 0 162 108 162 324s-54 324 -162 324z" />
    <glyph glyph-name="E" unicode="E" horiz-adv-x="633" 
d="M257 348v-322h258l63 114h19v-140h-586v12l65 18v640l-65 18v12h576v-141h-19l-63 115h-248v-300h199l28 87h18v-201h-18l-28 88h-199z" />
    <glyph glyph-name="F" unicode="F" horiz-adv-x="606" 
d="M460 260l-27 88h-176v-310l95 -22v-16h-341v16l65 22v632l-65 18v12h558v-141h-18l-64 115h-230v-300h176l27 87h18v-201h-18z" />
    <glyph glyph-name="G" unicode="G" horiz-adv-x="760" 
d="M748 331l-64 -22v-282l-17 -17l-85 22c-53 -26 -115 -39 -184 -39c-111 0 -199 32 -264 96c-64 64 -96 150 -96 259s32 196 97 261s152 97 259 97c79 0 143 -16 193 -47l64 28l10 -10v-158h-19c-34 105 -104 157 -210 157c-136 0 -205 -97 -205 -328
c0 -97 15 -175 46 -234s80 -88 147 -88c31 0 58 7 83 22v261l-65 22v15h310v-15z" />
    <glyph glyph-name="H" unicode="H" horiz-adv-x="785" 
d="M11 0v16l65 22v624l-65 22v16h311v-16l-65 -22v-293h271v293l-65 22v16h311v-16l-65 -22v-624l65 -22v-16h-311v16l65 22v305h-271v-305l65 -22v-16h-311z" />
    <glyph glyph-name="I" unicode="I" horiz-adv-x="334" 
d="M319 684l-63 -22v-624l63 -22v-16h-306v16l65 22v624l-65 22v16h306v-16z" />
    <glyph glyph-name="J" unicode="J" horiz-adv-x="334" 
d="M79 32v630l-65 22v16h305v-16l-64 -22v-630c0 -105 -78 -172 -227 -237l-12 12c42 67 63 142 63 225z" />
    <glyph glyph-name="K" unicode="K" horiz-adv-x="748" 
d="M321 684l-65 -22v-314l304 314l-89 22v16h204v-16l-79 -22l-175 -182l259 -444l62 -20v-16h-234l-210 360l-42 -45v-277l65 -22v-16h-311v16l65 22v624l-65 22v16h311v-16z" />
    <glyph glyph-name="L" unicode="L" horiz-adv-x="603" 
d="M257 662v-636h223l63 114h19v-140h-551v12l65 18v632l-65 22v16h311v-16z" />
    <glyph glyph-name="M" unicode="M" horiz-adv-x="967" 
d="M918 684l-63 -22l42 -624l64 -22v-16h-309v16l65 22l-37 528l-245 -566h-50l-250 567l-38 -533l64 -22v-12h-155v12l65 22l43 628l-65 22v16h213l225 -522l224 522h207v-16z" />
    <glyph glyph-name="N" unicode="N" horiz-adv-x="697" 
d="M11 0v12l65 22v628l-65 22v16h249l335 -459v425l-65 22v12h156v-12l-65 -22v-666h-47l-472 646v-612l65 -22v-12h-156z" />
    <glyph glyph-name="O" unicode="O" horiz-adv-x="764" 
d="M133 90c-63 65 -95 151 -95 259s32 194 95 259c64 65 147 98 249 98s185 -33 248 -98c64 -65 96 -151 96 -259s-32 -194 -95 -259s-146 -97 -249 -97s-186 32 -249 97zM227 349c0 -233 59 -341 155 -341c97 0 155 106 155 341c0 228 -52 342 -155 342
c-96 0 -155 -107 -155 -342z" />
    <glyph glyph-name="P" unicode="P" horiz-adv-x="668" 
d="M328 674h-71v-636l106 -22v-16h-352v16l65 22v632l-65 18v12h334c85 0 154 -18 206 -55c53 -37 79 -86 79 -148s-26 -111 -79 -148c-52 -37 -121 -55 -206 -55h-56l-17 17v9h56c80 0 120 59 120 177s-40 177 -120 177z" />
    <glyph glyph-name="Q" unicode="Q" horiz-adv-x="764" 
d="M761 -58l9 -9c-46 -46 -106 -69 -179 -69c-23 0 -46 2 -67 7c-43 9 -66 16 -103 40c-19 12 -32 21 -41 28l-40 33l-36 30c-82 15 -147 54 -195 115c-47 62 -71 139 -71 232c0 108 32 194 95 259s146 98 249 98c102 0 185 -33 248 -98c64 -65 96 -151 96 -259
c0 -169 -87 -293 -227 -337c20 -7 51 -24 92 -51s74 -41 99 -41c32 0 56 7 71 22zM227 349c0 -220 52 -330 156 -330c103 0 154 110 154 330c0 235 -58 342 -154 342s-156 -107 -156 -342z" />
    <glyph glyph-name="R" unicode="R" horiz-adv-x="722" 
d="M627 508c0 -88 -61 -156 -169 -177c32 -9 59 -35 81 -76l115 -219l62 -20v-16h-229l-164 321h-66v-283l65 -22v-16h-311v16l65 22v632l-65 18v12h339c83 0 150 -17 201 -52c51 -34 76 -81 76 -140zM333 674h-76v-327h76c75 0 112 55 112 164s-37 163 -112 163z" />
    <glyph glyph-name="S" unicode="S" horiz-adv-x="604" 
d="M55 5l-10 10v160h19c19 -65 57 -115 100 -136c44 -21 80 -30 117 -30c91 0 146 52 146 133c0 36 -11 62 -34 78c-22 17 -62 34 -120 51c-22 7 -39 12 -51 15c-24 8 -69 26 -90 39s-51 38 -66 62c-13 25 -24 61 -24 102c0 131 84 217 252 217c61 0 116 -14 167 -41l55 30
l10 -10v-160h-19c-17 64 -53 112 -92 135s-72 31 -105 31c-80 0 -128 -51 -128 -122c0 -33 10 -58 31 -73s57 -32 109 -49l57 -20l50 -21c21 -9 36 -17 47 -24c21 -15 54 -40 67 -65s24 -60 24 -101c0 -133 -89 -222 -276 -222c-67 0 -127 13 -180 40z" />
    <glyph glyph-name="T" unicode="T" horiz-adv-x="693" 
d="M652 559l-64 115h-151v-636l65 -22v-16h-311v16l65 22v636h-151l-64 -115h-18v141h647v-141h-18z" />
    <glyph glyph-name="U" unicode="U" horiz-adv-x="732" 
d="M720 688l-65 -22v-406c0 -83 -26 -148 -79 -196c-52 -47 -121 -71 -208 -71s-158 24 -212 72c-53 49 -80 114 -80 195v402l-65 22v16h311v-16l-65 -22v-402c0 -139 73 -205 182 -205c115 0 191 74 191 205v406l-65 22v12h155v-12z" />
    <glyph glyph-name="V" unicode="V" horiz-adv-x="774" 
d="M410 0h-50l-292 662l-65 22v16h316v-16l-66 -22l210 -484l207 484l-92 22v16h192v-16l-72 -22z" />
    <glyph glyph-name="W" unicode="W" horiz-adv-x="1222" 
d="M868 0h-50l-210 490l-205 -490h-50l-285 662l-65 22v16h316v-16l-66 -22l203 -484l138 343l-61 141l-65 22v16h316v-16l-66 -22l203 -484l198 484l-92 22v16h192v-16l-72 -22z" />
    <glyph glyph-name="X" unicode="X" horiz-adv-x="752" 
d="M432 16l65 22l-185 277l-197 -277l86 -22v-16h-191v16l77 22l211 298l-219 326l-60 22v16h310v-16l-65 -22l168 -254l167 254l-85 22v16h190v-16l-77 -22l-180 -276l235 -348l60 -22v-16h-310v16z" />
    <glyph glyph-name="Y" unicode="Y" horiz-adv-x="738" 
d="M319 684l-65 -22l186 -319l190 319l-86 22v16h191v-16l-77 -22l-208 -349v-275l64 -22v-16h-310v16l65 22v275l-206 349l-60 22v16h316v-16z" />
    <glyph glyph-name="Z" unicode="Z" horiz-adv-x="617" 
d="M593 0h-564v15l369 659h-274l-67 -115h-19v141h548v-15l-368 -659h289l67 114h19v-140z" />
    <glyph glyph-name="bracketleft" unicode="[" horiz-adv-x="331" 
d="M317 734l-113 -22v-874l113 -22v-16h-268v950h268v-16z" />
    <glyph glyph-name="backslash" unicode="\" horiz-adv-x="354" 
d="M45 750l308 -850h-44l-308 850h44z" />
    <glyph glyph-name="bracketright" unicode="]" horiz-adv-x="331" 
d="M13 -184l114 22v874l-114 22v16h269v-950h-269v16z" />
    <glyph glyph-name="asciicircum" unicode="^" horiz-adv-x="375" 
d="M23 506l152 199h25l152 -199l-10 -10l-155 102l-153 -102z" />
    <glyph glyph-name="underscore" unicode="_" horiz-adv-x="635" 
d="M635 -91h-634v41h634v-41z" />
    <glyph glyph-name="grave" unicode="`" horiz-adv-x="287" 
d="M29 627l90 91l139 -171l-11 -11z" />
    <glyph glyph-name="a" unicode="a" horiz-adv-x="588" 
d="M346 64l-3 3c-52 -49 -110 -73 -175 -73c-85 0 -132 43 -132 118c4 47 14 76 55 99c15 8 29 14 41 19s30 11 55 17s46 11 63 14l77 15l16 3v101c0 67 -26 108 -75 108c-13 0 -27 -4 -43 -13v-81c0 -64 -33 -99 -86 -99c-52 0 -87 33 -87 84c0 29 11 54 34 73
c47 40 109 51 184 51c159 0 246 -63 246 -156v-298c0 -13 7 -20 21 -20c13 0 24 4 32 12l9 -9c-23 -23 -69 -35 -136 -35c-55 0 -88 15 -96 67zM343 92v171c-21 -3 -36 -6 -44 -8c-7 -1 -18 -4 -32 -9c-14 -4 -23 -9 -28 -14c-15 -15 -34 -47 -30 -104c0 -54 17 -81 52 -81
c28 0 55 15 82 45z" />
    <glyph glyph-name="b" unicode="b" horiz-adv-x="607" 
d="M71 26v650l-60 16v16l217 21l17 -18v-211l-3 -65l3 -3c43 48 95 72 154 72c115 0 176 -95 176 -242c0 -179 -93 -267 -290 -267c-83 0 -155 10 -214 31zM245 407v-384c22 -8 40 -12 55 -12c67 0 100 76 100 229c0 125 -29 211 -84 211c-25 0 -49 -15 -71 -44z" />
    <glyph glyph-name="c" unicode="c" horiz-adv-x="567" 
d="M348 380v95c-15 9 -31 13 -46 13c-63 0 -96 -78 -96 -210c0 -155 44 -239 159 -239c51 0 96 20 136 60l12 -12c-60 -60 -123 -92 -219 -92c-168 0 -263 97 -263 256c0 157 93 253 270 253c99 0 227 -32 227 -136c0 -55 -36 -87 -89 -87c-56 0 -91 36 -91 99z" />
    <glyph glyph-name="d" unicode="d" horiz-adv-x="607" 
d="M536 711v-670l60 -15v-17l-217 -13l-17 17l3 51l-3 3c-43 -48 -95 -72 -154 -72c-115 0 -177 95 -177 242c0 172 87 267 244 267c29 0 58 -6 87 -18v190l-60 16v16l217 21zM362 92v380c-21 11 -40 16 -57 16c-66 0 -99 -77 -99 -230c0 -124 30 -211 86 -211
c24 0 47 15 70 45z" />
    <glyph glyph-name="e" unicode="e" horiz-adv-x="570" 
d="M529 267l-17 -17h-306c1 -137 47 -210 167 -210c53 0 98 20 137 59l12 -12c-61 -61 -135 -92 -222 -92c-85 0 -152 23 -199 68c-47 46 -70 107 -70 183c0 79 24 141 73 188s113 70 190 70c69 0 126 -18 171 -55c46 -37 69 -84 69 -143c0 -15 -2 -28 -5 -39zM299 489
c-52 0 -92 -71 -93 -224l164 21c0 135 -24 203 -71 203z" />
    <glyph glyph-name="f" unicode="f" horiz-adv-x="404" 
d="M11 486l60 23v43c0 115 74 172 221 172c47 0 87 -7 120 -22s50 -39 50 -74c0 -40 -25 -70 -68 -70c-48 0 -82 35 -82 94v51c-5 3 -11 5 -18 5c-33 0 -49 -52 -49 -156v-52h154v-26h-154v-436l90 -22v-16h-324v16l60 22v436h-60v12z" />
    <glyph glyph-name="g" unicode="g" horiz-adv-x="569" 
d="M535 484l-71 -23h-31c45 -30 67 -69 67 -116s-21 -85 -64 -113c-42 -28 -97 -42 -165 -42c-57 0 -103 9 -140 27c-13 -17 -20 -33 -20 -48c0 -29 22 -46 59 -46h164c135 0 203 -49 203 -147c0 -119 -100 -178 -301 -178c-142 0 -213 28 -213 83c0 41 32 73 96 97
c-48 17 -72 55 -72 112c0 55 22 90 70 135c-50 29 -75 69 -75 120c0 47 21 85 63 114c43 29 98 43 166 43c9 0 22 -1 39 -2h225v-16zM357 -33h-168c-7 0 -13 0 -17 1c-13 -21 -20 -42 -20 -65c0 -63 40 -87 120 -87c99 0 168 37 168 90c0 35 -27 61 -83 61zM271 205
c45 0 68 47 68 141s-23 141 -68 141c-46 0 -69 -47 -69 -141s23 -141 69 -141z" />
    <glyph glyph-name="h" unicode="h" horiz-adv-x="650" 
d="M245 405v-367l46 -22v-16h-280v16l60 22v638l-60 16v16l217 21l17 -18v-211l-3 -68l3 -3c50 50 108 75 174 75c51 0 91 -17 118 -51c28 -34 42 -76 42 -127v-288l60 -22v-16h-280v16l46 22v266c0 98 -23 147 -70 147c-33 0 -63 -15 -90 -46z" />
    <glyph glyph-name="i" unicode="i" 
d="M305 0h-294v16l60 22v418l-60 16v16l217 21l17 -18v-453l60 -22v-16zM251 638c0 -57 -40 -98 -99 -98s-98 39 -98 98s39 99 98 99s99 -40 99 -99z" />
    <glyph glyph-name="j" unicode="j" 
d="M71 32v424l-60 16v16l217 21l17 -18v-459c0 -104 -77 -172 -222 -237l-12 12c40 64 60 139 60 225zM251 638c0 -57 -40 -98 -99 -98s-98 39 -98 98s39 99 98 99s99 -40 99 -99z" />
    <glyph glyph-name="k" unicode="k" horiz-adv-x="624" 
d="M619 0h-215l-127 248l-32 -34v-176l60 -22v-16h-294v16l60 22v638l-60 16v16l217 21l17 -18v-464l217 215l-84 22v16h194v-16l-74 -22l-103 -105l168 -321l56 -20v-16z" />
    <glyph glyph-name="l" unicode="l" 
d="M305 0h-294v16l60 22v638l-60 16v16l217 21l17 -18v-673l60 -22v-16z" />
    <glyph glyph-name="m" unicode="m" horiz-adv-x="940" 
d="M245 403v-365l42 -22v-16h-276v16l60 22v418l-60 16v16l217 21l17 -18l-3 -59l3 -3c44 45 108 75 167 75s101 -27 126 -80c49 49 122 80 185 80c97 0 146 -74 146 -178v-288l60 -22v-16h-276v16l42 22v266c0 98 -22 147 -67 147c-31 0 -59 -15 -85 -44
c9 -23 14 -50 14 -81v-288l42 -22v-16h-258v16l42 22v266c0 98 -21 147 -62 147c-28 0 -53 -16 -76 -48z" />
    <glyph glyph-name="n" unicode="n" horiz-adv-x="650" 
d="M245 405v-367l46 -22v-16h-280v16l60 22v418l-60 16v16l217 21l17 -18l-3 -59l3 -3c47 45 117 75 180 75c100 0 154 -75 154 -178v-288l60 -22v-16h-280v16l46 22v266c0 98 -24 147 -72 147c-32 0 -61 -15 -88 -46z" />
    <glyph glyph-name="o" unicode="o" horiz-adv-x="587" 
d="M294 504c78 0 141 -23 189 -70c49 -46 73 -108 73 -185s-24 -139 -73 -185c-48 -46 -111 -69 -189 -69c-79 0 -142 23 -191 69c-48 46 -72 108 -72 185s24 139 72 185c49 47 112 70 191 70zM206 249c0 -159 29 -239 88 -239c58 0 87 80 87 239c0 160 -29 240 -87 240
c-59 0 -88 -80 -88 -240z" />
    <glyph glyph-name="p" unicode="p" horiz-adv-x="607" 
d="M335 -200h-324v16l60 22v618l-60 16v16l217 21l17 -18l-3 -56l3 -3c43 48 95 72 154 72c115 0 176 -95 176 -242c0 -171 -86 -267 -239 -267c-37 0 -68 6 -91 19v-176l90 -22v-16zM245 407v-379c20 -11 39 -17 57 -17c65 0 98 77 98 230c0 124 -29 210 -84 210
c-25 0 -49 -15 -71 -44z" />
    <glyph glyph-name="q" unicode="q" horiz-adv-x="594" 
d="M536 491v-653l60 -22v-16h-294v16l60 22v162l3 64l-3 3c-43 -48 -95 -72 -154 -72c-115 0 -177 96 -177 241c0 179 94 268 283 268c45 0 88 -6 131 -19l74 24zM362 92v379c-20 11 -39 17 -57 17c-66 0 -99 -77 -99 -230c0 -124 30 -211 86 -211c24 0 47 15 70 45z" />
    <glyph glyph-name="r" unicode="r" horiz-adv-x="540" 
d="M11 16l60 22v418l-60 16v16l217 21l17 -18l-3 -64l3 -3s34 80 127 80c35 0 67 -10 95 -31s42 -51 42 -92c0 -60 -34 -92 -89 -92c-56 0 -91 37 -91 101v78c-3 2 -7 3 -10 3c-27 0 -54 -33 -65 -60l-9 -20v-353l90 -22v-16h-324v16z" />
    <glyph glyph-name="s" unicode="s" horiz-adv-x="456" 
d="M51 4l-10 10v116h26c22 -80 71 -120 148 -120c64 0 104 32 104 84c0 16 -5 29 -15 39c-19 21 -37 25 -94 41c-19 5 -31 9 -37 10l-34 12c-16 6 -27 11 -34 16c-12 9 -40 28 -49 47s-19 48 -19 81c0 100 60 164 195 164c48 0 92 -8 131 -25l25 17l10 -10v-113h-26
c-21 77 -67 116 -136 116c-59 0 -91 -32 -91 -77c0 -41 24 -54 96 -78c26 -8 45 -14 58 -19s29 -12 48 -22c20 -10 35 -20 44 -31c19 -21 36 -58 36 -103c0 -100 -66 -164 -211 -164c-54 0 -101 8 -141 25z" />
    <glyph glyph-name="t" unicode="t" horiz-adv-x="425" 
d="M71 474h-58v12c84 24 156 71 215 140l17 -17v-109h155v-26h-155v-331c0 -69 25 -103 76 -103c31 0 57 11 77 32l11 -12c-41 -43 -96 -65 -165 -65c-111 0 -173 59 -173 148v331z" />
    <glyph glyph-name="u" unicode="u" horiz-adv-x="643" 
d="M572 491v-450l60 -15v-17l-217 -13l-17 17l3 54l-3 3c-47 -50 -103 -75 -168 -75c-100 0 -159 65 -159 149v312l-60 16v16l217 21l17 -18v-324c0 -80 23 -120 69 -120c31 0 59 16 84 47v362l-60 16v16l217 21z" />
    <glyph glyph-name="v" unicode="v" horiz-adv-x="604" 
d="M321 0h-43l-213 462l-60 22v16h298v-16l-60 -22l130 -289l131 289l-87 22v16h182v-16l-67 -22z" />
    <glyph glyph-name="w" unicode="w" horiz-adv-x="916" 
d="M652 0h-57l-134 318l-137 -318h-58l-201 462l-60 22v16h287v-16l-49 -22l123 -307l82 195l-48 112l-49 22v16h288v-16l-61 -22l114 -307l123 307l-87 22v16h182v-16l-67 -22z" />
    <glyph glyph-name="x" unicode="x" horiz-adv-x="603" 
d="M295 16l61 22l-118 173l-124 -173l81 -22v-16h-181v16l72 22l138 194l-153 230l-55 22v16h293v-16l-60 -22l107 -160l116 160l-80 22v16h180v-16l-72 -22l-129 -182l163 -242l55 -22v-16h-294v16z" />
    <glyph glyph-name="y" unicode="y" horiz-adv-x="604" 
d="M286 -19l-221 481l-60 22v16h298v-16l-60 -22l130 -289l131 289l-87 22v16h182v-16l-67 -22l-211 -462c-17 -37 -31 -66 -42 -85c-10 -20 -22 -40 -37 -61c-29 -43 -59 -57 -98 -57c-49 0 -99 26 -99 87c0 45 27 70 70 70c44 0 71 -27 71 -75v-34c2 -1 5 -1 9 -1
c23 0 42 34 91 137z" />
    <glyph glyph-name="z" unicode="z" horiz-adv-x="493" 
d="M465 0h-441v15l261 466h-186l-46 -104h-19v123h426v-15l-261 -466h201l46 104h19v-123z" />
    <glyph glyph-name="braceleft" unicode="{" horiz-adv-x="362" 
d="M100 275c100 -27 163 -113 163 -236c0 -153 24 -229 71 -229v-15c-69 0 -125 22 -168 66c-42 44 -63 103 -63 178c0 152 -24 228 -72 228v16c48 0 72 76 72 228c0 75 21 134 63 178c43 44 99 66 168 66v-15c-47 0 -71 -76 -71 -229c0 -123 -63 -209 -163 -236z" />
    <glyph glyph-name="bar" unicode="|" horiz-adv-x="184" 
d="M113 750v-950h-42v950h42z" />
    <glyph glyph-name="braceright" unicode="}" horiz-adv-x="362" 
d="M266 275c-100 27 -163 113 -163 236c0 153 -24 229 -72 229v15c69 0 125 -22 168 -66s64 -103 64 -178c0 -152 24 -228 71 -228v-16c-47 0 -71 -76 -71 -228c0 -75 -21 -134 -64 -178s-99 -66 -168 -66v15c48 0 72 76 72 229c0 123 63 209 163 236z" />
    <glyph glyph-name="asciitilde" unicode="~" horiz-adv-x="516" 
d="M38 225l-13 14c51 51 89 86 116 105s49 29 66 29c15 0 39 -9 72 -26c34 -17 60 -26 78 -26c33 0 87 21 120 54l14 -13c-91 -91 -154 -137 -189 -137c-13 0 -38 9 -73 26s-62 26 -81 26c-39 0 -75 -17 -110 -52z" />
    <glyph glyph-name="exclamdown" unicode="&#xa1;" horiz-adv-x="241" 
d="M107 500h27c12 -116 24 -214 36 -294c13 -79 22 -133 28 -162s9 -49 9 -61c0 -52 -35 -87 -87 -87c-51 0 -87 36 -87 88c0 13 3 33 9 61c6 29 15 83 27 162c13 80 25 178 38 293zM42 632c0 45 33 78 78 78c47 0 79 -33 79 -78c0 -47 -32 -80 -79 -80c-45 0 -78 33 -78 80
z" />
    <glyph glyph-name="cent" unicode="&#xa2;" horiz-adv-x="567" 
d="M299 -5v-45h-27v46c-155 8 -241 104 -241 255c0 148 82 243 241 252v47h27v-46h2c99 0 227 -32 227 -136c0 -55 -36 -87 -89 -87c-56 0 -91 36 -91 99v95c-17 9 -33 13 -48 13h-1v-438c19 -7 41 -11 66 -11c51 0 96 20 136 60l12 -12c-61 -61 -132 -91 -214 -92zM199 278
c0 -111 24 -182 73 -215v419c-49 -20 -73 -88 -73 -204z" />
    <glyph glyph-name="sterling" unicode="&#xa3;" horiz-adv-x="608" 
d="M71 344h-58v12l58 13v98c0 147 89 237 258 237c35 0 69 -4 100 -12c32 -7 60 -22 85 -43s38 -48 38 -80c0 -55 -35 -88 -90 -88s-90 36 -90 99v95c-13 9 -27 13 -42 13c-55 0 -85 -71 -85 -194v-125h178v-25h-178c0 -75 -22 -151 -67 -229c25 13 46 19 64 19
s48 -9 89 -26c42 -17 74 -26 96 -26c43 0 106 21 149 54l14 -13c-111 -91 -188 -137 -231 -137c-17 0 -47 9 -91 26c-43 18 -77 27 -101 27c-47 0 -92 -18 -135 -53l-14 14l53 42v302z" />
    <glyph glyph-name="currency" unicode="&#xa4;" horiz-adv-x="500" 
d="M84 300c0 41 11 76 32 105l-71 71l29 29l70 -71c30 23 65 35 106 35c42 0 77 -11 106 -34l69 70l30 -29l-70 -70c21 -29 32 -64 32 -106c0 -43 -11 -78 -33 -106l71 -70l-30 -29l-70 71c-29 -22 -64 -33 -105 -33s-76 11 -105 33l-71 -71l-29 29l72 71
c-22 28 -33 63 -33 105zM131 300c0 -71 48 -119 119 -119c72 0 120 48 120 119c0 72 -48 121 -120 121c-71 0 -119 -49 -119 -121z" />
    <glyph glyph-name="yen" unicode="&#xa5;" horiz-adv-x="738" 
d="M269 233h-102v41h102v39l-206 349l-60 22v16h316v-16l-65 -22l186 -319l190 319l-86 22v16h191v-16l-77 -22l-208 -349v-39h102v-41h-102v-79h102v-41h-102v-75l64 -22v-16h-310v16l65 22v75h-102v41h102v79z" />
    <glyph glyph-name="brokenbar" unicode="&#xa6;" horiz-adv-x="184" 
d="M71 750h42v-425h-42v425zM113 225v-425h-42v425h42z" />
    <glyph glyph-name="section" unicode="&#xa7;" horiz-adv-x="532" 
d="M90 431c-43 29 -64 66 -64 111c0 99 90 162 249 162c63 0 118 -12 163 -35c46 -23 69 -58 69 -105c0 -55 -37 -87 -90 -87c-55 0 -90 35 -90 99v98c-16 9 -32 14 -47 14c-29 0 -52 -12 -69 -35s-25 -48 -25 -77c0 -61 49 -105 110 -133c90 -39 202 -75 202 -166
c0 -41 -19 -77 -56 -109c44 -30 66 -67 66 -111c0 -100 -92 -162 -251 -162c-63 0 -118 12 -164 35s-69 58 -69 105c0 55 37 87 90 87c55 0 90 -35 90 -99v-98c16 -9 32 -14 48 -14c29 0 52 12 69 35s26 49 26 78c0 165 -313 140 -313 295c0 43 19 80 56 112zM424 178
c7 13 10 27 10 41c0 21 -12 42 -35 61s-49 35 -78 47l-110 45c-43 18 -78 34 -103 48c-7 -13 -10 -28 -10 -43c0 -27 16 -51 49 -72s81 -43 143 -68c62 -24 107 -44 134 -59z" />
    <glyph glyph-name="dieresis" unicode="&#xa8;" 
d="M-42 624c0 51 33 84 84 84c25 0 45 -8 60 -24c16 -15 24 -35 24 -60s-8 -45 -24 -61c-15 -15 -35 -23 -60 -23c-49 0 -84 35 -84 84zM191 624c0 51 35 84 84 84s84 -35 84 -84s-35 -84 -84 -84s-84 35 -84 84z" />
    <glyph glyph-name="copyright" unicode="&#xa9;" horiz-adv-x="782" 
d="M140 99c-69 69 -104 153 -104 251s35 182 104 251s153 104 251 104s182 -35 251 -104s104 -153 104 -251s-35 -182 -104 -251s-153 -104 -251 -104s-182 35 -251 104zM177 564c-59 -59 -89 -131 -89 -214s30 -155 89 -214s131 -89 214 -89s155 30 214 89s89 131 89 214
s-30 155 -89 214s-131 89 -214 89s-155 -30 -214 -89zM525 231l6 -6c-33 -35 -77 -53 -132 -53c-109 0 -178 69 -178 178c0 108 70 179 175 179c39 0 71 -8 96 -23l31 14l5 -5v-80h-8c-17 53 -52 79 -103 79c-67 0 -100 -53 -100 -159s39 -159 117 -159c37 0 68 12 91 35z
" />
    <glyph glyph-name="ordfeminine" unicode="&#xaa;" horiz-adv-x="305" 
d="M177 482l-1 2c-25 -25 -54 -37 -87 -37c-45 0 -67 19 -67 58c-4 28 17 46 38 56c6 4 17 8 32 11c15 4 28 7 37 8l47 9v51c0 36 -12 54 -37 54c-7 0 -14 -2 -20 -6v-41c6 -67 -94 -63 -88 -7c0 43 50 62 109 62c80 0 124 -31 124 -79v-148c0 -7 3 -10 10 -10s13 2 16 5
l5 -4c-12 -11 -35 -17 -69 -17c-29 0 -45 11 -49 33zM176 496v85c-29 -4 -35 -6 -50 -15c-13 -8 -16 -24 -16 -52c0 -27 9 -40 26 -40c13 0 27 7 40 22z" />
    <glyph glyph-name="guillemotleft" unicode="&#xab;" horiz-adv-x="420" 
d="M213 110l-191 157v25l191 157l10 -11l-94 -159l94 -158zM377 110l-191 157v25l191 157l11 -11l-95 -159l95 -158z" />
    <glyph glyph-name="logicalnot" unicode="&#xac;" horiz-adv-x="501" 
d="M426 329h-393v42h435v-142h-42v100z" />
    <glyph glyph-name="uni00AD" unicode="&#xad;" horiz-adv-x="301" 
d="M268 279h-235v42h235v-42z" />
    <glyph glyph-name="registered" unicode="&#xae;" horiz-adv-x="782" 
d="M140 99c-69 69 -104 153 -104 251s35 182 104 251s153 104 251 104s182 -35 251 -104s104 -153 104 -251s-35 -182 -104 -251s-153 -104 -251 -104s-182 35 -251 104zM177 564c-59 -59 -89 -131 -89 -214s30 -155 89 -214s131 -89 214 -89s155 30 214 89s89 131 89 214
s-30 155 -89 214s-131 89 -214 89s-155 -30 -214 -89zM535 440c0 -44 -31 -78 -84 -89c17 -5 30 -18 40 -39l58 -109l30 -10v-8h-116l-81 161h-32v-142l33 -11v-8h-157v8l33 11v316l-33 9v6h170c83 0 139 -36 139 -95zM387 522h-37v-163h37c37 0 55 27 55 81
c0 55 -18 82 -55 82z" />
    <glyph glyph-name="overscore" unicode="&#xaf;" horiz-adv-x="301" 
d="M289 589h-277v42h277v-42z" />
    <glyph glyph-name="degree" unicode="&#xb0;" horiz-adv-x="250" 
d="M124 507c-57 0 -98 40 -98 99s39 99 98 99s99 -40 99 -99s-40 -99 -99 -99zM124 550c64 -7 64 119 0 112c-28 0 -47 -23 -47 -56s19 -56 47 -56z" />
    <glyph glyph-name="plusminus" unicode="&#xb1;" horiz-adv-x="451" 
d="M205 329h-172v42h172v171h41v-171h172v-42h-172v-171h-41v171zM418 50h-385v41h385v-41z" />
    <glyph glyph-name="twosuperior" unicode="&#xb2;" horiz-adv-x="283" 
d="M262 350h-244v31c29 29 50 49 62 62c13 13 28 31 46 54c36 47 47 84 47 131c0 44 -14 66 -42 66c-8 0 -16 -2 -23 -7v-50c0 -32 -18 -51 -46 -51c-27 0 -45 17 -45 44c0 48 54 72 118 72c81 0 128 -33 128 -89c0 -35 -16 -68 -47 -98c-31 -29 -81 -66 -148 -110h160
l25 53h9v-108z" />
    <glyph glyph-name="threesuperior" unicode="&#xb3;" horiz-adv-x="319" 
d="M123 685v-52c0 -33 -15 -50 -46 -50c-27 0 -45 17 -45 45c0 26 14 45 41 57s57 18 89 18c73 0 120 -34 120 -89c0 -45 -27 -73 -82 -84c59 -11 95 -42 95 -89c0 -57 -52 -95 -132 -95c-54 -2 -132 19 -134 76c0 28 17 44 45 44c31 0 46 -17 46 -50v-51c7 -5 16 -7 27 -7
c35 0 59 27 59 82c0 56 -27 84 -81 84h-20v12h20c44 0 68 21 68 80c0 50 -15 75 -46 75c-11 0 -19 -2 -24 -6z" />
    <glyph glyph-name="acute" unicode="&#xb4;" horiz-adv-x="287" 
d="M40 536l-11 11l139 171l90 -91z" />
    <glyph glyph-name="mu" unicode="&#xb5;" horiz-adv-x="643" 
d="M71 -85v541l-60 16v16l217 21l17 -18v-324c0 -80 23 -120 69 -120c31 0 59 16 84 47v362l-60 16v16l217 21l17 -18v-450l60 -15v-17l-217 -13l-17 17l3 54l-3 3c-41 -50 -90 -75 -147 -75c-35 0 -63 12 -85 35c11 -27 25 -61 30 -76c7 -15 11 -31 11 -40
c0 -41 -26 -68 -67 -68c-40 0 -69 28 -69 69z" />
    <glyph glyph-name="paragraph" unicode="&#xb6;" horiz-adv-x="516" 
d="M335 82v122c-89 0 -160 22 -215 67s-82 105 -82 181c0 75 27 135 82 180s126 68 215 68h170v-16l-60 -22v-580c0 -128 -76 -208 -223 -287l-11 12c92 87 124 164 124 275z" />
    <glyph glyph-name="middot" unicode="&#xb7;" horiz-adv-x="219" 
d="M31 300c0 47 33 79 78 79c47 0 79 -32 79 -79c0 -45 -32 -78 -79 -78c-45 0 -78 33 -78 78z" />
    <glyph glyph-name="cedilla" unicode="&#xb8;" horiz-adv-x="183" 
d="M18 -126l71 126h17l-23 -43c59 0 88 -17 88 -51c0 -37 -35 -86 -106 -147l-6 7c25 25 37 49 37 74s-19 34 -78 34z" />
    <glyph glyph-name="onesuperior" unicode="&#xb9;" horiz-adv-x="215" 
d="M198 350h-176v8l43 11v306h-46v11l127 18l8 -8v-327l44 -11v-8z" />
    <glyph glyph-name="ordmasculine" unicode="&#xba;" horiz-adv-x="304" 
d="M20 575c0 76 54 127 131 127c79 0 132 -51 132 -127c0 -77 -53 -127 -132 -127c-77 0 -131 50 -131 127zM151 455c29 0 43 40 43 120s-14 120 -43 120c-28 0 -42 -40 -42 -120s14 -120 42 -120z" />
    <glyph glyph-name="guillemotright" unicode="&#xbb;" horiz-adv-x="420" 
d="M207 449l191 -157v-25l-191 -157l-11 11l95 159l-95 158zM42 449l191 -157v-25l-191 -157l-10 11l94 159l-94 158z" />
    <glyph glyph-name="onequarter" unicode="&#xbc;" horiz-adv-x="609" 
d="M578 0h-149v8l30 11v56h-141v8c55 108 80 183 80 267h89c0 -96 -51 -167 -154 -262h126v87l80 79l9 -8v-158h34v-13h-34v-56l30 -11v-8zM196 350h-175v8l43 11v306h-46v11l126 18l8 -8v-327l44 -11v-8zM474 700l-307 -700h-44l306 700h45z" />
    <glyph glyph-name="onehalf" unicode="&#xbd;" horiz-adv-x="643" 
d="M196 350h-175v8l43 11v306h-46v11l126 18l8 -8v-327l44 -11v-8zM474 700l-307 -700h-44l306 700h45zM618 0h-243v31c30 29 51 50 62 63c12 13 27 30 45 53c36 47 47 84 47 131c0 44 -14 66 -41 66c-9 0 -16 -2 -23 -7v-50c0 -32 -18 -51 -46 -51c-27 0 -45 17 -45 44
c0 48 54 72 118 72c81 0 126 -33 126 -89c0 -35 -16 -68 -47 -98c-31 -29 -79 -66 -146 -110h159l25 53h9v-108z" />
    <glyph glyph-name="threequarters" unicode="&#xbe;" horiz-adv-x="673" 
d="M118 685v-52c0 -33 -15 -50 -46 -50c-27 0 -45 17 -45 45c0 26 14 45 41 57s57 18 90 18c75 0 122 -34 122 -89c0 -45 -27 -73 -82 -84c59 -11 95 -42 95 -89c0 -57 -54 -95 -135 -95c-54 -2 -132 19 -134 76c0 28 18 44 46 44c30 0 45 -17 45 -50v-51c9 -5 18 -7 27 -7
c36 0 62 27 62 82c0 56 -27 84 -80 84h-21v12h21c45 0 67 27 67 80c0 50 -16 75 -47 75c-11 0 -19 -2 -26 -6zM643 0h-149v8l30 11v56h-141v8c55 108 80 183 80 267h89c0 -96 -51 -167 -154 -262h126v87l80 79l9 -8v-158h34v-13h-34v-56l30 -11v-8zM538 700l-306 -700h-45
l307 700h44z" />
    <glyph glyph-name="questiondown" unicode="&#xbf;" horiz-adv-x="532" 
d="M257 500h27c10 -51 14 -91 12 -120c-2 -28 -8 -55 -19 -82c-10 -27 -21 -49 -33 -67c-23 -36 -45 -100 -45 -172c0 -85 31 -147 84 -147c16 0 31 5 45 14v98c0 64 35 99 91 99c53 0 89 -32 89 -87c0 -47 -23 -82 -69 -105s-100 -35 -163 -35c-160 0 -252 77 -252 205
c0 75 37 135 82 175c67 60 151 117 151 224zM269 552c-45 0 -78 34 -78 79c0 47 33 79 78 79c47 0 79 -32 79 -79s-32 -79 -79 -79z" />
    <glyph glyph-name="Agrave" unicode="&#xc0;" horiz-adv-x="774" 
d="M367 700h51l288 -662l64 -22v-16h-315v16l65 22l-75 176h-264l-77 -176l91 -22v-16h-192v16l73 22zM434 240l-120 282l-122 -282h242zM256 819l89 90l139 -171l-11 -10z" />
    <glyph glyph-name="Aacute" unicode="&#xc1;" horiz-adv-x="774" 
d="M367 700h51l288 -662l64 -22v-16h-315v16l65 22l-75 176h-264l-77 -176l91 -22v-16h-192v16l73 22zM434 240l-120 282l-122 -282h242zM306 728l-10 10l138 171l90 -90z" />
    <glyph glyph-name="Acircumflex" unicode="&#xc2;" horiz-adv-x="774" 
d="M367 700h51l288 -662l64 -22v-16h-315v16l65 22l-75 176h-264l-77 -176l91 -22v-16h-192v16l73 22zM434 240l-120 282l-122 -282h242zM240 738l137 171h25l137 -171l-10 -10l-140 74l-138 -74z" />
    <glyph glyph-name="Atilde" unicode="&#xc3;" horiz-adv-x="774" 
d="M367 700h51l288 -662l64 -22v-16h-315v16l65 22l-75 176h-264l-77 -176l91 -22v-16h-192v16l73 22zM434 240l-120 282l-122 -282h242zM209 757l-13 13c43 43 75 72 97 88s40 24 55 24c12 0 32 -7 60 -22c29 -15 51 -22 66 -22c27 0 71 17 99 45l13 -13
c-76 -76 -129 -114 -158 -114c-11 0 -32 7 -61 22s-52 23 -68 23c-31 0 -61 -15 -90 -44z" />
    <glyph glyph-name="Adieresis" unicode="&#xc4;" horiz-adv-x="774" 
d="M367 700h51l288 -662l64 -22v-16h-315v16l65 22l-75 176h-264l-77 -176l91 -22v-16h-192v16l73 22zM434 240l-120 282l-122 -282h242zM212 754c-15 16 -23 36 -23 61s8 45 23 60c16 16 36 24 61 24s45 -8 60 -24c16 -15 24 -35 24 -60s-8 -45 -24 -61
c-15 -15 -35 -23 -60 -23s-45 8 -61 23zM506 899c49 0 84 -35 84 -84s-35 -84 -84 -84s-84 35 -84 84s33 84 84 84z" />
    <glyph glyph-name="Aring" unicode="&#xc5;" horiz-adv-x="774" 
d="M367 700h51l288 -662l64 -22v-16h-315v16l65 22l-75 176h-264l-77 -176l91 -22v-16h-192v16l73 22zM434 240l-120 282l-122 -282h242zM302 811c0 51 35 83 87 83c53 0 90 -32 90 -83c0 -52 -37 -84 -90 -84c-52 0 -87 32 -87 84zM357 811c-4 -76 68 -76 65 0
c3 77 -69 77 -65 0z" />
    <glyph glyph-name="AE" unicode="&#xc6;" horiz-adv-x="828" 
d="M321 12l64 18l-28 184h-178l-75 -176l91 -22v-16h-192v16l73 22l288 662h418v-141h-19l-63 115h-244l46 -300h150l27 87h18v-201h-18l-27 88h-146l51 -322h153l63 114h19v-140h-471v12zM354 240l-43 282l-121 -282h164z" />
    <glyph glyph-name="Ccedilla" unicode="&#xc7;" horiz-adv-x="695" 
d="M320 -126l67 119c-107 1 -192 34 -255 98s-94 150 -94 258c0 109 32 195 96 260c65 65 150 97 255 97c78 0 142 -16 192 -47l63 28l10 -10v-158h-19c-33 105 -102 157 -206 157c-135 0 -202 -106 -202 -318s78 -318 235 -318c76 0 137 24 184 71l13 -13
c-66 -67 -151 -102 -255 -105l-19 -36c59 0 88 -17 88 -51c0 -37 -35 -86 -105 -147l-7 7c25 25 37 49 37 74s-19 34 -78 34z" />
    <glyph glyph-name="Egrave" unicode="&#xc8;" horiz-adv-x="633" 
d="M257 348v-322h258l63 114h19v-140h-586v12l65 18v640l-65 18v12h576v-141h-19l-63 115h-248v-300h199l28 87h18v-201h-18l-28 88h-199zM182 819l89 90l139 -171l-11 -10z" />
    <glyph glyph-name="Eacute" unicode="&#xc9;" horiz-adv-x="633" 
d="M257 348v-322h258l63 114h19v-140h-586v12l65 18v640l-65 18v12h576v-141h-19l-63 115h-248v-300h199l28 87h18v-201h-18l-28 88h-199zM233 728l-11 10l139 171l89 -90z" />
    <glyph glyph-name="Ecircumflex" unicode="&#xca;" horiz-adv-x="633" 
d="M257 348v-322h258l63 114h19v-140h-586v12l65 18v640l-65 18v12h576v-141h-19l-63 115h-248v-300h199l28 87h18v-201h-18l-28 88h-199zM167 738l137 171h25l137 -171l-11 -10l-139 74l-139 -74z" />
    <glyph glyph-name="Edieresis" unicode="&#xcb;" horiz-adv-x="633" 
d="M257 348v-322h258l63 114h19v-140h-586v12l65 18v640l-65 18v12h576v-141h-19l-63 115h-248v-300h199l28 87h18v-201h-18l-28 88h-199zM139 754c-15 16 -23 36 -23 61s8 45 23 60c15 16 36 24 61 24s46 -8 61 -24c15 -15 23 -35 23 -60s-8 -45 -24 -61
c-15 -15 -35 -23 -60 -23s-45 8 -61 23zM372 754c-15 16 -23 36 -23 61s8 45 23 60c16 16 36 24 61 24s45 -8 60 -24c16 -15 24 -35 24 -60s-8 -45 -24 -61c-15 -15 -35 -23 -60 -23s-45 8 -61 23z" />
    <glyph glyph-name="Igrave" unicode="&#xcc;" horiz-adv-x="334" 
d="M319 684l-63 -22v-624l63 -22v-16h-306v16l65 22v624l-65 22v16h306v-16zM32 819l90 90l139 -171l-11 -10z" />
    <glyph glyph-name="Iacute" unicode="&#xcd;" horiz-adv-x="334" 
d="M319 684l-63 -22v-624l63 -22v-16h-306v16l65 22v624l-65 22v16h306v-16zM83 728l-11 10l139 171l90 -90z" />
    <glyph glyph-name="Icircumflex" unicode="&#xce;" horiz-adv-x="334" 
d="M319 684l-63 -22v-624l63 -22v-16h-306v16l65 22v624l-65 22v16h306v-16zM17 738l137 171h25l137 -171l-11 -10l-139 74l-138 -74z" />
    <glyph glyph-name="Idieresis" unicode="&#xcf;" horiz-adv-x="334" 
d="M319 684l-63 -22v-624l63 -22v-16h-306v16l65 22v624l-65 22v16h306v-16zM63 899c49 0 84 -35 84 -84s-35 -84 -84 -84s-85 35 -85 84s34 84 85 84zM210 754c-15 16 -23 36 -23 61s8 45 23 60c16 16 36 24 61 24s45 -8 60 -24c16 -15 24 -35 24 -60s-8 -45 -24 -61
c-15 -15 -35 -23 -60 -23s-45 8 -61 23z" />
    <glyph glyph-name="Eth" unicode="&#xd0;" horiz-adv-x="753" 
d="M76 343h-61v12l61 14v301l-65 18v12h353c105 0 189 -32 254 -95s97 -149 97 -256s-32 -192 -97 -255s-149 -94 -254 -94h-353v12l65 18v313zM364 674h-107v-305h139v-26h-139v-317h107c108 0 162 108 162 324s-54 324 -162 324z" />
    <glyph glyph-name="Ntilde" unicode="&#xd1;" horiz-adv-x="697" 
d="M11 0v12l65 22v628l-65 22v16h249l335 -459v425l-65 22v12h156v-12l-65 -22v-666h-47l-472 646v-612l65 -22v-12h-156zM167 757l-13 13c74 75 125 112 153 112c12 0 32 -7 60 -22c29 -15 51 -22 66 -22c27 0 71 17 99 45l13 -13c-77 -76 -130 -114 -159 -114
c-11 0 -31 7 -60 22s-52 23 -68 23c-31 0 -62 -15 -91 -44z" />
    <glyph glyph-name="Ograve" unicode="&#xd2;" horiz-adv-x="764" 
d="M133 90c-63 65 -95 151 -95 259s32 194 95 259c64 65 147 98 249 98s185 -33 248 -98c64 -65 96 -151 96 -259s-32 -194 -95 -259s-146 -97 -249 -97s-186 32 -249 97zM227 349c0 -233 59 -341 155 -341c97 0 155 106 155 341c0 228 -52 342 -155 342
c-96 0 -155 -107 -155 -342zM247 819l90 90l139 -171l-11 -10z" />
    <glyph glyph-name="Oacute" unicode="&#xd3;" horiz-adv-x="764" 
d="M133 90c-63 65 -95 151 -95 259s32 194 95 259c64 65 147 98 249 98s185 -33 248 -98c64 -65 96 -151 96 -259s-32 -194 -95 -259s-146 -97 -249 -97s-186 32 -249 97zM227 349c0 -233 59 -341 155 -341c97 0 155 106 155 341c0 228 -52 342 -155 342
c-96 0 -155 -107 -155 -342zM298 728l-11 10l139 171l90 -90z" />
    <glyph glyph-name="Ocircumflex" unicode="&#xd4;" horiz-adv-x="764" 
d="M133 90c-63 65 -95 151 -95 259s32 194 95 259c64 65 147 98 249 98s185 -33 248 -98c64 -65 96 -151 96 -259s-32 -194 -95 -259s-146 -97 -249 -97s-186 32 -249 97zM227 349c0 -233 59 -341 155 -341c97 0 155 106 155 341c0 228 -52 342 -155 342
c-96 0 -155 -107 -155 -342zM232 738l137 171h25l137 -171l-10 -10l-140 74l-138 -74z" />
    <glyph glyph-name="Otilde" unicode="&#xd5;" horiz-adv-x="764" 
d="M133 90c-63 65 -95 151 -95 259s32 194 95 259c64 65 147 98 249 98s185 -33 248 -98c64 -65 96 -151 96 -259s-32 -194 -95 -259s-146 -97 -249 -97s-186 32 -249 97zM227 349c0 -233 59 -341 155 -341c97 0 155 106 155 341c0 228 -52 342 -155 342
c-96 0 -155 -107 -155 -342zM201 757l-13 13c74 75 125 112 153 112c12 0 32 -7 60 -22c29 -15 51 -22 66 -22c27 0 71 17 99 45l13 -13c-76 -76 -129 -114 -158 -114c-11 0 -32 7 -61 22s-52 23 -68 23c-31 0 -62 -15 -91 -44z" />
    <glyph glyph-name="Odieresis" unicode="&#xd6;" horiz-adv-x="764" 
d="M133 90c-63 65 -95 151 -95 259s32 194 95 259c64 65 147 98 249 98s185 -33 248 -98c64 -65 96 -151 96 -259s-32 -194 -95 -259s-146 -97 -249 -97s-186 32 -249 97zM227 349c0 -233 59 -341 155 -341c97 0 155 106 155 341c0 228 -52 342 -155 342
c-96 0 -155 -107 -155 -342zM266 899c49 0 84 -35 84 -84s-35 -84 -84 -84s-85 35 -85 84s34 84 85 84zM499 899c49 0 84 -35 84 -84s-35 -84 -84 -84s-85 35 -85 84s34 84 85 84z" />
    <glyph glyph-name="multiply" unicode="&#xd7;" horiz-adv-x="451" 
d="M197 300l-152 151l29 30l152 -152l151 152l29 -30l-152 -151l152 -151l-29 -30l-151 152l-152 -152l-29 30z" />
    <glyph glyph-name="Oslash" unicode="&#xd8;" horiz-adv-x="764" 
d="M150 73l-67 -73h-45l89 96c-59 65 -89 149 -89 253c0 108 32 194 95 259c64 65 147 98 249 98c92 0 169 -27 230 -81l69 75h45l-90 -98c60 -65 90 -150 90 -253c0 -108 -32 -194 -95 -259s-146 -97 -249 -97c-93 0 -171 27 -232 80zM537 349c0 49 -3 95 -8 136l-287 -312
c24 -110 71 -165 140 -165c97 0 155 106 155 341zM227 349c0 -49 3 -94 8 -135l287 312c-23 110 -69 165 -140 165c-96 0 -155 -107 -155 -342z" />
    <glyph glyph-name="Ugrave" unicode="&#xd9;" horiz-adv-x="732" 
d="M720 688l-65 -22v-406c0 -83 -26 -148 -79 -196c-52 -47 -121 -71 -208 -71s-158 24 -212 72c-53 49 -80 114 -80 195v402l-65 22v16h311v-16l-65 -22v-402c0 -139 73 -205 182 -205c115 0 191 74 191 205v406l-65 22v12h155v-12zM260 819l89 90l139 -171l-11 -10z" />
    <glyph glyph-name="Uacute" unicode="&#xda;" horiz-adv-x="732" 
d="M720 688l-65 -22v-406c0 -83 -26 -148 -79 -196c-52 -47 -121 -71 -208 -71s-158 24 -212 72c-53 49 -80 114 -80 195v402l-65 22v16h311v-16l-65 -22v-402c0 -139 73 -205 182 -205c115 0 191 74 191 205v406l-65 22v12h155v-12zM311 728l-11 10l139 171l90 -90z" />
    <glyph glyph-name="Ucircumflex" unicode="&#xdb;" horiz-adv-x="732" 
d="M720 688l-65 -22v-406c0 -83 -26 -148 -79 -196c-52 -47 -121 -71 -208 -71s-158 24 -212 72c-53 49 -80 114 -80 195v402l-65 22v16h311v-16l-65 -22v-402c0 -139 73 -205 182 -205c115 0 191 74 191 205v406l-65 22v12h155v-12zM244 738l137 171h25l137 -171l-10 -10
l-140 74l-138 -74z" />
    <glyph glyph-name="Udieresis" unicode="&#xdc;" horiz-adv-x="732" 
d="M720 688l-65 -22v-406c0 -83 -26 -148 -79 -196c-52 -47 -121 -71 -208 -71s-158 24 -212 72c-53 49 -80 114 -80 195v402l-65 22v16h311v-16l-65 -22v-402c0 -139 73 -205 182 -205c115 0 191 74 191 205v406l-65 22v12h155v-12zM278 899c49 0 84 -35 84 -84
s-35 -84 -84 -84s-84 35 -84 84s33 84 84 84zM450 754c-15 16 -23 36 -23 61s8 45 23 60c16 16 36 24 61 24s45 -8 60 -24c16 -15 24 -35 24 -60s-8 -45 -24 -61c-15 -15 -35 -23 -60 -23s-45 8 -61 23z" />
    <glyph glyph-name="Yacute" unicode="&#xdd;" horiz-adv-x="738" 
d="M319 684l-65 -22l186 -319l190 319l-86 22v16h191v-16l-77 -22l-208 -349v-275l64 -22v-16h-310v16l65 22v275l-206 349l-60 22v16h316v-16zM288 728l-11 10l139 171l89 -90z" />
    <glyph glyph-name="Thorn" unicode="&#xde;" horiz-adv-x="668" 
d="M321 684l-64 -22v-102h88c85 0 154 -18 206 -54c53 -36 79 -84 79 -145s-26 -110 -79 -146c-52 -36 -121 -54 -206 -54h-56l-17 18v8h56c80 0 120 58 120 174c0 115 -40 173 -120 173h-71v-496l106 -22v-16h-352v16l65 22v624l-65 22v16h310v-16z" />
    <glyph glyph-name="germandbls" unicode="&#xdf;" horiz-adv-x="700" 
d="M339 4l-10 10v116h25c18 -80 59 -120 122 -120c55 0 87 32 87 83c0 45 -24 62 -93 89c-48 19 -67 28 -99 55s-46 65 -46 121c0 72 33 130 65 157c32 28 65 65 65 104c0 52 -43 89 -114 89c-72 0 -96 -37 -96 -156v-514l60 -22v-16h-294v16l60 22v436h-60v12l60 23v43
c0 123 83 172 234 172c134 0 201 -37 201 -110c0 -27 -12 -58 -37 -91c-24 -33 -36 -62 -36 -86c0 -45 26 -71 82 -92c49 -20 75 -34 107 -63c33 -28 49 -69 49 -124c0 -109 -62 -163 -185 -163c-47 0 -89 8 -124 25z" />
    <glyph glyph-name="agrave" unicode="&#xe0;" horiz-adv-x="588" 
d="M346 64l-3 3c-52 -49 -110 -73 -175 -73c-85 0 -132 43 -132 118c4 47 14 76 55 99c15 8 29 14 41 19s30 11 55 17s46 11 63 14l77 15l16 3v101c0 67 -26 108 -75 108c-13 0 -27 -4 -43 -13v-81c0 -64 -33 -99 -86 -99c-52 0 -87 33 -87 84c0 29 11 54 34 73
c47 40 109 51 184 51c159 0 246 -63 246 -156v-298c0 -13 7 -20 21 -20c13 0 24 4 32 12l9 -9c-23 -23 -69 -35 -136 -35c-55 0 -88 15 -96 67zM343 92v171c-21 -3 -36 -6 -44 -8c-7 -1 -18 -4 -32 -9c-14 -4 -23 -9 -28 -14c-15 -15 -34 -47 -30 -104c0 -54 17 -81 52 -81
c28 0 55 15 82 45zM138 627l89 91l139 -171l-11 -11z" />
    <glyph glyph-name="aacute" unicode="&#xe1;" horiz-adv-x="588" 
d="M346 64l-3 3c-52 -49 -110 -73 -175 -73c-85 0 -132 43 -132 118c4 47 14 76 55 99c15 8 29 14 41 19s30 11 55 17s46 11 63 14l77 15l16 3v101c0 67 -26 108 -75 108c-13 0 -27 -4 -43 -13v-81c0 -64 -33 -99 -86 -99c-52 0 -87 33 -87 84c0 29 11 54 34 73
c47 40 109 51 184 51c159 0 246 -63 246 -156v-298c0 -13 7 -20 21 -20c13 0 24 4 32 12l9 -9c-23 -23 -69 -35 -136 -35c-55 0 -88 15 -96 67zM343 92v171c-21 -3 -36 -6 -44 -8c-7 -1 -18 -4 -32 -9c-14 -4 -23 -9 -28 -14c-15 -15 -34 -47 -30 -104c0 -54 17 -81 52 -81
c28 0 55 15 82 45zM188 536l-10 11l138 171l90 -91z" />
    <glyph glyph-name="acircumflex" unicode="&#xe2;" horiz-adv-x="588" 
d="M346 64l-3 3c-52 -49 -110 -73 -175 -73c-85 0 -132 43 -132 118c4 47 14 76 55 99c15 8 29 14 41 19s30 11 55 17s46 11 63 14l77 15l16 3v101c0 67 -26 108 -75 108c-13 0 -27 -4 -43 -13v-81c0 -64 -33 -99 -86 -99c-52 0 -87 33 -87 84c0 29 11 54 34 73
c47 40 109 51 184 51c159 0 246 -63 246 -156v-298c0 -13 7 -20 21 -20c13 0 24 4 32 12l9 -9c-23 -23 -69 -35 -136 -35c-55 0 -88 15 -96 67zM343 92v171c-21 -3 -36 -6 -44 -8c-7 -1 -18 -4 -32 -9c-14 -4 -23 -9 -28 -14c-15 -15 -34 -47 -30 -104c0 -54 17 -81 52 -81
c28 0 55 15 82 45zM122 547l137 171h25l137 -171l-11 -11l-139 75l-138 -75z" />
    <glyph glyph-name="atilde" unicode="&#xe3;" horiz-adv-x="588" 
d="M346 64l-3 3c-52 -49 -110 -73 -175 -73c-85 0 -132 43 -132 118c4 47 14 76 55 99c15 8 29 14 41 19s30 11 55 17s46 11 63 14l77 15l16 3v101c0 67 -26 108 -75 108c-13 0 -27 -4 -43 -13v-81c0 -64 -33 -99 -86 -99c-52 0 -87 33 -87 84c0 29 11 54 34 73
c47 40 109 51 184 51c159 0 246 -63 246 -156v-298c0 -13 7 -20 21 -20c13 0 24 4 32 12l9 -9c-23 -23 -69 -35 -136 -35c-55 0 -88 15 -96 67zM343 92v171c-21 -3 -36 -6 -44 -8c-7 -1 -18 -4 -32 -9c-14 -4 -23 -9 -28 -14c-15 -15 -34 -47 -30 -104c0 -54 17 -81 52 -81
c28 0 55 15 82 45zM91 566l-13 13c74 75 125 112 153 112c12 0 32 -8 60 -23c29 -15 51 -22 66 -22c27 0 71 18 99 46l13 -13c-75 -76 -128 -114 -159 -114c-11 0 -31 7 -60 22s-52 23 -68 23c-31 0 -62 -15 -91 -44z" />
    <glyph glyph-name="adieresis" unicode="&#xe4;" horiz-adv-x="588" 
d="M346 64l-3 3c-52 -49 -110 -73 -175 -73c-85 0 -132 43 -132 118c4 47 14 76 55 99c15 8 29 14 41 19s30 11 55 17s46 11 63 14l77 15l16 3v101c0 67 -26 108 -75 108c-13 0 -27 -4 -43 -13v-81c0 -64 -33 -99 -86 -99c-52 0 -87 33 -87 84c0 29 11 54 34 73
c47 40 109 51 184 51c159 0 246 -63 246 -156v-298c0 -13 7 -20 21 -20c13 0 24 4 32 12l9 -9c-23 -23 -69 -35 -136 -35c-55 0 -88 15 -96 67zM343 92v171c-21 -3 -36 -6 -44 -8c-7 -1 -18 -4 -32 -9c-14 -4 -23 -9 -28 -14c-15 -15 -34 -47 -30 -104c0 -54 17 -81 52 -81
c28 0 55 15 82 45zM164 708c51 0 84 -33 84 -84c0 -25 -8 -45 -24 -61c-15 -15 -35 -23 -60 -23s-45 8 -61 23c-15 16 -23 36 -23 61c0 49 35 84 84 84zM397 708c51 0 85 -35 85 -84s-36 -84 -85 -84s-84 35 -84 84s35 84 84 84z" />
    <glyph glyph-name="aring" unicode="&#xe5;" horiz-adv-x="588" 
d="M346 64l-3 3c-52 -49 -110 -73 -175 -73c-85 0 -132 43 -132 118c4 47 14 76 55 99c15 8 29 14 41 19s30 11 55 17s46 11 63 14l77 15l16 3v101c0 67 -26 108 -75 108c-13 0 -27 -4 -43 -13v-81c0 -64 -33 -99 -86 -99c-52 0 -87 33 -87 84c0 29 11 54 34 73
c47 40 109 51 184 51c159 0 246 -63 246 -156v-298c0 -13 7 -20 21 -20c13 0 24 4 32 12l9 -9c-23 -23 -69 -35 -136 -35c-55 0 -88 15 -96 67zM343 92v171c-21 -3 -36 -6 -44 -8c-7 -1 -18 -4 -32 -9c-14 -4 -23 -9 -28 -14c-15 -15 -34 -47 -30 -104c0 -54 17 -81 52 -81
c28 0 55 15 82 45zM183 620c0 25 8 45 24 60s37 23 64 23s48 -8 64 -23c17 -15 25 -35 25 -60c0 -51 -36 -84 -89 -84c-52 0 -88 32 -88 84zM238 620c-3 -76 69 -76 65 0c0 36 -13 58 -32 58c-20 0 -33 -22 -33 -58z" />
    <glyph glyph-name="ae" unicode="&#xe6;" horiz-adv-x="837" 
d="M343 67c-52 -49 -110 -73 -175 -73c-85 0 -132 41 -132 110c0 46 23 80 69 102c33 16 105 34 217 54h1h1l1 1h1h1h1h1l1 1h1h1h1h1h1l1 1h1h1h1h1l1 1h1h1v116c0 67 -26 108 -75 108c-13 0 -27 -4 -43 -13v-81c0 -64 -33 -99 -86 -99c-52 0 -87 33 -87 84
c0 43 21 74 64 94s94 30 152 30c63 0 114 -12 153 -36c40 25 86 37 139 37c69 0 126 -18 171 -55c46 -37 69 -84 69 -143c0 -15 -2 -28 -5 -39l-17 -17h-279v-128c23 -55 70 -82 140 -82c53 0 99 20 138 59l11 -12c-63 -61 -123 -92 -226 -92c-96 0 -169 24 -219 72zM343 90
v158c-31 -5 -52 -9 -64 -12c-11 -3 -24 -8 -38 -17c-27 -17 -32 -45 -32 -97c0 -50 17 -75 52 -75c28 0 55 14 82 43zM499 347v-80l137 19c0 135 -24 203 -71 203c-34 0 -59 -32 -74 -95c5 -16 8 -32 8 -47z" />
    <glyph glyph-name="ccedilla" unicode="&#xe7;" horiz-adv-x="567" 
d="M217 -126l68 121c-161 4 -254 101 -254 256c0 157 93 253 270 253c99 0 227 -32 227 -136c0 -55 -36 -87 -89 -87c-56 0 -91 36 -91 99v95c-15 9 -31 13 -46 13c-63 0 -96 -78 -96 -210c0 -155 44 -239 159 -239c51 0 96 20 136 60l12 -12c-59 -59 -118 -89 -210 -92
l-20 -38c52 0 88 -16 88 -51c0 -37 -35 -86 -106 -147l-7 7c25 24 38 49 38 74s-20 34 -79 34z" />
    <glyph glyph-name="egrave" unicode="&#xe8;" horiz-adv-x="570" 
d="M529 267l-17 -17h-306c1 -137 47 -210 167 -210c53 0 98 20 137 59l12 -12c-61 -61 -135 -92 -222 -92c-85 0 -152 23 -199 68c-47 46 -70 107 -70 183c0 79 24 141 73 188s113 70 190 70c69 0 126 -18 171 -55c46 -37 69 -84 69 -143c0 -15 -2 -28 -5 -39zM299 489
c-52 0 -92 -71 -93 -224l164 21c0 135 -24 203 -71 203zM161 627l90 91l139 -171l-11 -11z" />
    <glyph glyph-name="eacute" unicode="&#xe9;" horiz-adv-x="570" 
d="M529 267l-17 -17h-306c1 -137 47 -210 167 -210c53 0 98 20 137 59l12 -12c-61 -61 -135 -92 -222 -92c-85 0 -152 23 -199 68c-47 46 -70 107 -70 183c0 79 24 141 73 188s113 70 190 70c69 0 126 -18 171 -55c46 -37 69 -84 69 -143c0 -15 -2 -28 -5 -39zM299 489
c-52 0 -92 -71 -93 -224l164 21c0 135 -24 203 -71 203zM211 536l-10 11l138 171l90 -91z" />
    <glyph glyph-name="ecircumflex" unicode="&#xea;" horiz-adv-x="570" 
d="M529 267l-17 -17h-306c1 -137 47 -210 167 -210c53 0 98 20 137 59l12 -12c-61 -61 -135 -92 -222 -92c-85 0 -152 23 -199 68c-47 46 -70 107 -70 183c0 79 24 141 73 188s113 70 190 70c69 0 126 -18 171 -55c46 -37 69 -84 69 -143c0 -15 -2 -28 -5 -39zM299 489
c-52 0 -92 -71 -93 -224l164 21c0 135 -24 203 -71 203zM145 547l137 171h25l137 -171l-10 -11l-140 75l-138 -75z" />
    <glyph glyph-name="edieresis" unicode="&#xeb;" horiz-adv-x="570" 
d="M529 267l-17 -17h-306c1 -137 47 -210 167 -210c53 0 98 20 137 59l12 -12c-61 -61 -135 -92 -222 -92c-85 0 -152 23 -199 68c-47 46 -70 107 -70 183c0 79 24 141 73 188s113 70 190 70c69 0 126 -18 171 -55c46 -37 69 -84 69 -143c0 -15 -2 -28 -5 -39zM299 489
c-52 0 -92 -71 -93 -224l164 21c0 135 -24 203 -71 203zM92 624c0 51 33 84 84 84s84 -33 84 -84c0 -49 -35 -84 -84 -84s-84 35 -84 84zM325 624c0 51 35 84 84 84s84 -33 84 -84c0 -49 -35 -84 -84 -84s-84 35 -84 84z" />
    <glyph glyph-name="igrave" unicode="&#xec;" 
d="M24 627l89 91l139 -171l-11 -11zM305 0h-294v16l60 22v418l-60 16v16l217 21l17 -18v-453l60 -22v-16z" />
    <glyph glyph-name="iacute" unicode="&#xed;" 
d="M75 536l-11 11l139 171l89 -91zM305 0h-294v16l60 22v418l-60 16v16l217 21l17 -18v-453l60 -22v-16z" />
    <glyph glyph-name="icircumflex" unicode="&#xee;" 
d="M305 0h-294v16l60 22v418l-60 16v16l217 21l17 -18v-453l60 -22v-16zM8 547l137 171h25l137 -171l-10 -11l-139 75l-139 -75z" />
    <glyph glyph-name="idieresis" unicode="&#xef;" 
d="M305 0h-294v16l60 22v418l-60 16v16l217 21l17 -18v-453l60 -22v-16zM145 624c0 -49 -35 -84 -84 -84s-84 35 -84 84s35 84 84 84s84 -33 84 -84zM167 624c0 51 35 84 84 84s84 -35 84 -84s-35 -84 -84 -84s-84 35 -84 84z" />
    <glyph glyph-name="eth" unicode="&#xf0;" horiz-adv-x="595" 
d="M327 538l-30 30l59 59c-73 47 -154 73 -244 77l23 25c116 -8 203 -28 262 -61l62 62l30 -30l-55 -55c86 -63 129 -169 129 -318c0 -225 -98 -332 -262 -332c-79 0 -143 23 -191 68c-48 46 -72 108 -72 185s24 139 72 186s111 70 188 70c75 0 134 -26 177 -77h4
c0 67 -30 125 -89 174zM385 249c0 160 -29 240 -86 240s-86 -80 -86 -240c0 -159 29 -239 86 -239s86 80 86 239z" />
    <glyph glyph-name="ntilde" unicode="&#xf1;" horiz-adv-x="650" 
d="M245 405v-367l46 -22v-16h-280v16l60 22v418l-60 16v16l217 21l17 -18l-3 -59l3 -3c47 45 117 75 180 75c100 0 154 -75 154 -178v-288l60 -22v-16h-280v16l46 22v266c0 98 -24 147 -72 147c-32 0 -61 -15 -88 -46zM144 566l-13 13c74 75 125 112 153 112
c12 0 32 -8 60 -23c29 -15 51 -22 66 -22c27 0 71 18 99 46l13 -13c-75 -76 -127 -114 -158 -114c-11 0 -32 7 -61 22s-52 23 -68 23c-31 0 -62 -15 -91 -44z" />
    <glyph glyph-name="ograve" unicode="&#xf2;" horiz-adv-x="587" 
d="M294 504c78 0 141 -23 189 -70c49 -46 73 -108 73 -185s-24 -139 -73 -185c-48 -46 -111 -69 -189 -69c-79 0 -142 23 -191 69c-48 46 -72 108 -72 185s24 139 72 185c49 47 112 70 191 70zM206 249c0 -159 29 -239 88 -239c58 0 87 80 87 239c0 160 -29 240 -87 240
c-59 0 -88 -80 -88 -240zM159 627l89 91l139 -171l-11 -11z" />
    <glyph glyph-name="oacute" unicode="&#xf3;" horiz-adv-x="587" 
d="M294 504c78 0 141 -23 189 -70c49 -46 73 -108 73 -185s-24 -139 -73 -185c-48 -46 -111 -69 -189 -69c-79 0 -142 23 -191 69c-48 46 -72 108 -72 185s24 139 72 185c49 47 112 70 191 70zM206 249c0 -159 29 -239 88 -239c58 0 87 80 87 239c0 160 -29 240 -87 240
c-59 0 -88 -80 -88 -240zM210 536l-11 11l139 171l89 -91z" />
    <glyph glyph-name="ocircumflex" unicode="&#xf4;" horiz-adv-x="587" 
d="M294 504c78 0 141 -23 189 -70c49 -46 73 -108 73 -185s-24 -139 -73 -185c-48 -46 -111 -69 -189 -69c-79 0 -142 23 -191 69c-48 46 -72 108 -72 185s24 139 72 185c49 47 112 70 191 70zM206 249c0 -159 29 -239 88 -239c58 0 87 80 87 239c0 160 -29 240 -87 240
c-59 0 -88 -80 -88 -240zM144 547l137 171h25l137 -171l-11 -11l-139 75l-139 -75z" />
    <glyph glyph-name="otilde" unicode="&#xf5;" horiz-adv-x="587" 
d="M294 504c78 0 141 -23 189 -70c49 -46 73 -108 73 -185s-24 -139 -73 -185c-48 -46 -111 -69 -189 -69c-79 0 -142 23 -191 69c-48 46 -72 108 -72 185s24 139 72 185c49 47 112 70 191 70zM206 249c0 -159 29 -239 88 -239c58 0 87 80 87 239c0 160 -29 240 -87 240
c-59 0 -88 -80 -88 -240zM113 566l-13 13c43 43 75 73 97 88c23 16 41 24 56 24c12 0 32 -8 60 -23s50 -22 65 -22c27 0 71 18 99 46l13 -13c-75 -76 -127 -114 -158 -114c-11 0 -31 7 -61 22c-29 15 -52 23 -68 23c-31 0 -61 -15 -90 -44z" />
    <glyph glyph-name="odieresis" unicode="&#xf6;" horiz-adv-x="587" 
d="M294 504c78 0 141 -23 189 -70c49 -46 73 -108 73 -185s-24 -139 -73 -185c-48 -46 -111 -69 -189 -69c-79 0 -142 23 -191 69c-48 46 -72 108 -72 185s24 139 72 185c49 47 112 70 191 70zM206 249c0 -159 29 -239 88 -239c58 0 87 80 87 239c0 160 -29 240 -87 240
c-59 0 -88 -80 -88 -240zM93 624c0 51 35 84 84 84s84 -33 84 -84c0 -49 -35 -84 -84 -84s-84 35 -84 84zM410 708c51 0 84 -33 84 -84c0 -25 -8 -45 -24 -61c-15 -15 -35 -23 -60 -23s-45 8 -61 23c-15 16 -23 36 -23 61c0 49 35 84 84 84z" />
    <glyph glyph-name="divide" unicode="&#xf7;" horiz-adv-x="451" 
d="M418 282h-385v42h385v-42zM225 101c-37 0 -65 27 -65 66s26 66 65 66s66 -27 66 -66s-27 -66 -66 -66zM160 438c0 39 26 66 65 66s66 -27 66 -66c0 -37 -27 -65 -66 -65c-37 0 -65 28 -65 65z" />
    <glyph glyph-name="oslash" unicode="&#xf8;" horiz-adv-x="587" 
d="M123 47l-45 -47h-47l66 69c-44 46 -66 106 -66 180c0 77 24 139 72 185c49 47 112 70 191 70c65 0 122 -17 169 -52l46 48h47l-68 -71c45 -47 68 -107 68 -180c0 -77 -24 -139 -73 -185c-48 -46 -111 -69 -189 -69c-69 0 -126 17 -171 52zM381 249c0 17 -1 39 -2 66
l-167 -174c12 -87 39 -131 82 -131c58 0 87 80 87 239zM206 249c0 -30 1 -51 2 -64l166 174c-11 87 -38 130 -80 130c-59 0 -88 -80 -88 -240z" />
    <glyph glyph-name="ugrave" unicode="&#xf9;" horiz-adv-x="643" 
d="M572 491v-450l60 -15v-17l-217 -13l-17 17l3 54l-3 3c-47 -50 -103 -75 -168 -75c-100 0 -159 65 -159 149v312l-60 16v16l217 21l17 -18v-324c0 -80 23 -120 69 -120c31 0 59 16 84 47v362l-60 16v16l217 21zM182 627l89 91l139 -171l-11 -11z" />
    <glyph glyph-name="uacute" unicode="&#xfa;" horiz-adv-x="643" 
d="M572 491v-450l60 -15v-17l-217 -13l-17 17l3 54l-3 3c-47 -50 -103 -75 -168 -75c-100 0 -159 65 -159 149v312l-60 16v16l217 21l17 -18v-324c0 -80 23 -120 69 -120c31 0 59 16 84 47v362l-60 16v16l217 21zM235 536l-11 11l139 171l89 -91z" />
    <glyph glyph-name="ucircumflex" unicode="&#xfb;" horiz-adv-x="643" 
d="M572 491v-450l60 -15v-17l-217 -13l-17 17l3 54l-3 3c-47 -50 -103 -75 -168 -75c-100 0 -159 65 -159 149v312l-60 16v16l217 21l17 -18v-324c0 -80 23 -120 69 -120c31 0 59 16 84 47v362l-60 16v16l217 21zM167 547l137 171h25l137 -171l-11 -11l-139 75l-139 -75z
" />
    <glyph glyph-name="udieresis" unicode="&#xfc;" horiz-adv-x="643" 
d="M572 491v-450l60 -15v-17l-217 -13l-17 17l3 54l-3 3c-47 -50 -103 -75 -168 -75c-100 0 -159 65 -159 149v312l-60 16v16l217 21l17 -18v-324c0 -80 23 -120 69 -120c31 0 59 16 84 47v362l-60 16v16l217 21zM199 708c49 0 84 -35 84 -84s-35 -84 -84 -84s-85 35 -85 84
s34 84 85 84zM348 624c0 51 33 84 84 84c25 0 45 -8 60 -24c16 -15 24 -35 24 -60s-8 -45 -24 -61c-15 -15 -35 -23 -60 -23c-49 0 -84 35 -84 84z" />
    <glyph glyph-name="yacute" unicode="&#xfd;" horiz-adv-x="604" 
d="M286 -19l-221 481l-60 22v16h298v-16l-60 -22l130 -289l131 289l-87 22v16h182v-16l-67 -22l-211 -462c-17 -37 -31 -66 -42 -85c-10 -20 -22 -40 -37 -61c-29 -43 -59 -57 -98 -57c-49 0 -99 26 -99 87c0 45 27 70 70 70c44 0 71 -27 71 -75v-34c2 -1 5 -1 9 -1
c23 0 42 34 91 137zM244 536l-10 11l138 171l90 -91z" />
    <glyph glyph-name="thorn" unicode="&#xfe;" horiz-adv-x="607" 
d="M335 -200h-324v16l60 22v837l-60 15v16l217 21l17 -17v-210l-3 -65l3 -3c43 48 95 72 154 72c115 0 176 -95 176 -242c0 -171 -86 -267 -239 -267c-37 0 -68 6 -91 19v-176l90 -22v-16zM245 407v-379c20 -11 39 -17 57 -17c65 0 98 77 98 230c0 124 -29 210 -84 210
c-25 0 -49 -15 -71 -44z" />
    <glyph glyph-name="ydieresis" unicode="&#xff;" horiz-adv-x="604" 
d="M286 -19l-221 481l-60 22v16h298v-16l-60 -22l130 -289l131 289l-87 22v16h182v-16l-67 -22l-211 -462c-17 -37 -31 -66 -42 -85c-10 -20 -22 -40 -37 -61c-29 -43 -59 -57 -98 -57c-49 0 -99 26 -99 87c0 45 27 70 70 70c44 0 71 -27 71 -75v-34c2 -1 5 -1 9 -1
c23 0 42 34 91 137zM110 624c0 51 33 84 84 84c25 0 45 -8 60 -24c16 -15 24 -35 24 -60s-8 -45 -24 -61c-15 -15 -35 -23 -60 -23c-49 0 -84 35 -84 84zM343 624c0 51 35 84 84 84s84 -35 84 -84s-35 -84 -84 -84s-84 35 -84 84z" />
    <glyph glyph-name="Amacron" unicode="&#x100;" horiz-adv-x="774" 
d="M367 700h51l288 -662l64 -22v-16h-315v16l65 22l-75 176h-264l-77 -176l91 -22v-16h-192v16l73 22zM434 240l-120 282l-122 -282h242zM528 789h-277v42h277v-42z" />
    <glyph glyph-name="amacron" unicode="&#x101;" horiz-adv-x="588" 
d="M346 64l-3 3c-52 -49 -110 -73 -175 -73c-85 0 -132 43 -132 118c4 47 14 76 55 99c15 8 29 14 41 19s30 11 55 17s46 11 63 14l77 15l16 3v101c0 67 -26 108 -75 108c-13 0 -27 -4 -43 -13v-81c0 -64 -33 -99 -86 -99c-52 0 -87 33 -87 84c0 29 11 54 34 73
c47 40 109 51 184 51c159 0 246 -63 246 -156v-298c0 -13 7 -20 21 -20c13 0 24 4 32 12l9 -9c-23 -23 -69 -35 -136 -35c-55 0 -88 15 -96 67zM343 92v171c-21 -3 -36 -6 -44 -8c-7 -1 -18 -4 -32 -9c-14 -4 -23 -9 -28 -14c-15 -15 -34 -47 -30 -104c0 -54 17 -81 52 -81
c28 0 55 15 82 45zM410 589h-277v42h277v-42z" />
    <glyph glyph-name="Abreve" unicode="&#x102;" horiz-adv-x="774" 
d="M367 700h51l288 -662l64 -22v-16h-315v16l65 22l-75 176h-264l-77 -176l91 -22v-16h-192v16l73 22zM434 240l-120 282l-122 -282h242zM436 820c0 47 26 74 67 74c40 0 67 -26 67 -65c0 -78 -110 -98 -181 -98c-27 0 -54 2 -79 7s-49 16 -70 31c-21 16 -32 36 -32 60
c0 39 27 65 68 65s67 -27 67 -74c0 -35 6 -57 18 -65s16 -9 28 -9c16 0 47 0 47 74z" />
    <glyph glyph-name="abreve" unicode="&#x103;" horiz-adv-x="588" 
d="M346 64l-3 3c-52 -49 -110 -73 -175 -73c-85 0 -132 43 -132 118c4 47 14 76 55 99c15 8 29 14 41 19s30 11 55 17s46 11 63 14l77 15l16 3v101c0 67 -26 108 -75 108c-13 0 -27 -4 -43 -13v-81c0 -64 -33 -99 -86 -99c-52 0 -87 33 -87 84c0 29 11 54 34 73
c47 40 109 51 184 51c159 0 246 -63 246 -156v-298c0 -13 7 -20 21 -20c13 0 24 4 32 12l9 -9c-23 -23 -69 -35 -136 -35c-55 0 -88 15 -96 67zM343 92v171c-21 -3 -36 -6 -44 -8c-7 -1 -18 -4 -32 -9c-14 -4 -23 -9 -28 -14c-15 -15 -34 -47 -30 -104c0 -54 17 -81 52 -81
c28 0 55 15 82 45zM325 629c0 47 27 74 68 74c40 0 67 -26 67 -65c0 -25 -11 -45 -32 -61c-43 -31 -93 -38 -149 -38c-28 0 -55 2 -80 7s-48 16 -69 31c-21 16 -32 36 -32 61c0 39 27 65 67 65s67 -27 67 -74c0 -74 31 -74 47 -74c12 0 16 1 28 9s18 30 18 65z" />
    <glyph glyph-name="Aogonek" unicode="&#x104;" horiz-adv-x="774" 
d="M766 -172l6 -6c-39 -39 -75 -58 -108 -58c-37 0 -56 21 -56 62c0 62 36 120 107 174h-260v16l65 22l-75 176h-264l-77 -176l91 -22v-16h-192v16l73 22l291 662h51l288 -662l64 -22v-16h-43c-33 -48 -56 -113 -56 -150c0 -27 13 -41 40 -41c24 0 42 6 55 19zM434 240
l-120 282l-122 -282h242z" />
    <glyph glyph-name="aogonek" unicode="&#x105;" horiz-adv-x="588" 
d="M573 -159l6 -6c-38 -38 -74 -57 -108 -57c-37 0 -55 20 -55 61c0 58 30 112 91 163c-22 -3 -44 -5 -65 -5c-55 0 -88 15 -96 67l-3 3c-52 -49 -110 -73 -175 -73c-85 0 -132 43 -132 118c4 47 14 76 55 99c15 8 29 14 41 19s30 11 55 17s46 11 63 14l77 15l16 3v101
c0 67 -26 108 -75 108c-13 0 -27 -4 -43 -13v-81c0 -64 -33 -99 -86 -99c-52 0 -87 33 -87 84c0 29 11 54 34 73c47 40 109 51 184 51c159 0 246 -63 246 -156v-298c0 -13 7 -20 21 -20c13 0 24 4 32 12l9 -9c-11 -11 -27 -20 -48 -25c-31 -47 -51 -108 -51 -144
c0 -27 13 -41 39 -41c24 0 42 6 55 19zM343 92v171c-21 -3 -36 -6 -44 -8c-7 -1 -18 -4 -32 -9c-14 -4 -23 -9 -28 -14c-15 -15 -34 -47 -30 -104c0 -54 17 -81 52 -81c28 0 55 15 82 45z" />
    <glyph glyph-name="Cacute" unicode="&#x106;" horiz-adv-x="695" 
d="M646 111l13 -13c-69 -70 -157 -105 -265 -105c-109 0 -195 32 -260 96c-64 65 -96 151 -96 260s32 195 96 260c65 65 150 97 255 97c78 0 142 -16 192 -47l63 28l10 -10v-158h-19c-33 105 -102 157 -206 157c-135 0 -202 -106 -202 -318s78 -318 235 -318
c76 0 137 24 184 71zM309 728l-11 10l139 171l89 -90z" />
    <glyph glyph-name="cacute" unicode="&#x107;" horiz-adv-x="567" 
d="M348 380v95c-15 9 -31 13 -46 13c-63 0 -96 -78 -96 -210c0 -155 44 -239 159 -239c51 0 96 20 136 60l12 -12c-60 -60 -123 -92 -219 -92c-168 0 -263 97 -263 256c0 157 93 253 270 253c99 0 227 -32 227 -136c0 -55 -36 -87 -89 -87c-56 0 -91 36 -91 99zM219 536
l-11 11l139 171l89 -91z" />
    <glyph glyph-name="Ccircumflex" unicode="&#x108;" horiz-adv-x="695" 
d="M646 111l13 -13c-69 -70 -157 -105 -265 -105c-109 0 -195 32 -260 96c-64 65 -96 151 -96 260s32 195 96 260c65 65 150 97 255 97c78 0 142 -16 192 -47l63 28l10 -10v-158h-19c-33 105 -102 157 -206 157c-135 0 -202 -106 -202 -318s78 -318 235 -318
c76 0 137 24 184 71zM240 738l137 171h25l137 -171l-11 -10l-139 74l-138 -74z" />
    <glyph glyph-name="ccircumflex" unicode="&#x109;" horiz-adv-x="567" 
d="M348 380v95c-15 9 -31 13 -46 13c-63 0 -96 -78 -96 -210c0 -155 44 -239 159 -239c51 0 96 20 136 60l12 -12c-60 -60 -123 -92 -219 -92c-168 0 -263 97 -263 256c0 157 93 253 270 253c99 0 227 -32 227 -136c0 -55 -36 -87 -89 -87c-56 0 -91 36 -91 99zM151 547
l137 171h25l137 -171l-11 -11l-139 75l-138 -75z" />
    <glyph glyph-name="Cdotaccent" unicode="&#x10a;" horiz-adv-x="695" 
d="M646 111l13 -13c-69 -70 -157 -105 -265 -105c-109 0 -195 32 -260 96c-64 65 -96 151 -96 260s32 195 96 260c65 65 150 97 255 97c78 0 142 -16 192 -47l63 28l10 -10v-158h-19c-33 105 -102 157 -206 157c-135 0 -202 -106 -202 -318s78 -318 235 -318
c76 0 137 24 184 71zM298 830c0 52 37 89 90 89c52 0 89 -37 89 -89c0 -53 -37 -90 -89 -90c-53 0 -90 37 -90 90z" />
    <glyph glyph-name="cdotaccent" unicode="&#x10b;" horiz-adv-x="567" 
d="M348 380v95c-15 9 -31 13 -46 13c-63 0 -96 -78 -96 -210c0 -155 44 -239 159 -239c51 0 96 20 136 60l12 -12c-60 -60 -123 -92 -219 -92c-168 0 -263 97 -263 256c0 157 93 253 270 253c99 0 227 -32 227 -136c0 -55 -36 -87 -89 -87c-56 0 -91 36 -91 99zM234 573
c-16 17 -24 38 -24 65s8 48 24 64c17 17 38 25 65 25s48 -8 64 -25c17 -16 25 -37 25 -64s-8 -48 -25 -65c-16 -16 -37 -24 -64 -24s-48 8 -65 24z" />
    <glyph glyph-name="Ccaron" unicode="&#x10c;" horiz-adv-x="695" 
d="M646 111l13 -13c-69 -70 -157 -105 -265 -105c-109 0 -195 32 -260 96c-64 65 -96 151 -96 260s32 195 96 260c65 65 150 97 255 97c78 0 142 -16 192 -47l63 28l10 -10v-158h-19c-33 105 -102 157 -206 157c-135 0 -202 -106 -202 -318s78 -318 235 -318
c76 0 137 24 184 71zM538 899l-137 -171h-25l-137 171l11 10l138 -74l139 74z" />
    <glyph glyph-name="ccaron" unicode="&#x10d;" horiz-adv-x="567" 
d="M348 380v95c-15 9 -31 13 -46 13c-63 0 -96 -78 -96 -210c0 -155 44 -239 159 -239c51 0 96 20 136 60l12 -12c-60 -60 -123 -92 -219 -92c-168 0 -263 97 -263 256c0 157 93 253 270 253c99 0 227 -32 227 -136c0 -55 -36 -87 -89 -87c-56 0 -91 36 -91 99zM451 707
l-137 -171h-26l-137 171l11 11l139 -75l139 75z" />
    <glyph glyph-name="Dcaron" unicode="&#x10e;" horiz-adv-x="753" 
d="M11 688v12h353c105 0 189 -32 254 -95s97 -149 97 -256s-32 -192 -97 -255s-149 -94 -254 -94h-353v12l65 18v640zM364 674h-107v-648h107c108 0 162 108 162 324s-54 324 -162 324zM516 899l-137 -171h-25l-137 171l10 10l139 -74l139 74z" />
    <glyph glyph-name="dcaron" unicode="&#x10f;" horiz-adv-x="712" 
d="M536 711v-670l60 -15v-17l-217 -13l-17 17l3 51l-3 3c-43 -48 -95 -72 -154 -72c-115 0 -177 95 -177 242c0 172 87 267 244 267c29 0 58 -6 87 -18v190l-60 16v16l217 21zM362 92v380c-21 11 -40 16 -57 16c-66 0 -99 -77 -99 -230c0 -124 30 -211 86 -211
c24 0 47 15 70 45zM608 513l-13 13c32 32 48 57 48 75c0 4 -1 7 -4 10c-33 0 -57 24 -57 57s24 58 57 58c35 0 60 -23 60 -62s-30 -89 -91 -151z" />
    <glyph glyph-name="Dcroat" unicode="&#x110;" horiz-adv-x="753" 
d="M76 343h-65v12l65 14v301l-65 18v12h353c105 0 189 -32 254 -95s97 -149 97 -256s-32 -192 -97 -255s-149 -94 -254 -94h-353v12l65 18v313zM364 674h-107v-305h139v-26h-139v-317h107c108 0 162 108 162 324s-54 324 -162 324z" />
    <glyph glyph-name="dslash" unicode="&#x111;" horiz-adv-x="607" 
d="M362 587h-165v26h165v63l-60 16v16l217 21l17 -18v-98l60 -14v-12h-60v-546l60 -15v-17l-217 -13l-17 17l3 51l-3 3c-43 -48 -95 -72 -154 -72c-115 0 -177 95 -177 242c0 172 87 267 244 267c29 0 58 -6 87 -18v101zM362 92v380c-21 11 -40 16 -57 16
c-66 0 -99 -77 -99 -230c0 -124 30 -211 86 -211c24 0 47 15 70 45z" />
    <glyph glyph-name="Emacron" unicode="&#x112;" horiz-adv-x="633" 
d="M257 348v-322h258l63 114h19v-140h-586v12l65 18v640l-65 18v12h576v-141h-19l-63 115h-248v-300h199l28 87h18v-201h-18l-28 88h-199zM455 789h-277v42h277v-42z" />
    <glyph glyph-name="emacron" unicode="&#x113;" horiz-adv-x="570" 
d="M529 267l-17 -17h-306c1 -137 47 -210 167 -210c53 0 98 20 137 59l12 -12c-61 -61 -135 -92 -222 -92c-85 0 -152 23 -199 68c-47 46 -70 107 -70 183c0 79 24 141 73 188s113 70 190 70c69 0 126 -18 171 -55c46 -37 69 -84 69 -143c0 -15 -2 -28 -5 -39zM299 489
c-52 0 -92 -71 -93 -224l164 21c0 135 -24 203 -71 203zM434 589h-277v42h277v-42z" />
    <glyph glyph-name="Ebreve" unicode="&#x114;" horiz-adv-x="633" 
d="M257 348v-322h258l63 114h19v-140h-586v12l65 18v640l-65 18v12h576v-141h-19l-63 115h-248v-300h199l28 87h18v-201h-18l-28 88h-199zM363 820c0 47 26 74 67 74s68 -26 68 -65c0 -24 -11 -44 -32 -60c-43 -31 -94 -38 -150 -38c-27 0 -54 2 -79 7s-49 16 -70 31
c-21 16 -32 36 -32 60c0 39 27 65 68 65s67 -27 67 -74c0 -74 31 -74 46 -74c19 -2 43 2 47 74z" />
    <glyph glyph-name="ebreve" unicode="&#x115;" horiz-adv-x="570" 
d="M529 267l-17 -17h-306c1 -137 47 -210 167 -210c53 0 98 20 137 59l12 -12c-61 -61 -135 -92 -222 -92c-85 0 -152 23 -199 68c-47 46 -70 107 -70 183c0 79 24 141 73 188s113 70 190 70c69 0 126 -18 171 -55c46 -37 69 -84 69 -143c0 -15 -2 -28 -5 -39zM299 489
c-52 0 -92 -71 -93 -224l164 21c0 135 -24 203 -71 203zM338 629c0 47 27 74 67 74c41 0 68 -26 68 -65c0 -25 -11 -45 -32 -61c-43 -31 -94 -38 -149 -38c-28 0 -55 2 -80 7s-49 16 -70 31c-21 16 -32 36 -32 61c0 39 27 65 68 65c40 0 67 -27 67 -74c4 -72 28 -76 47 -74
c15 0 46 0 46 74z" />
    <glyph glyph-name="Edotaccent" unicode="&#x116;" horiz-adv-x="633" 
d="M257 348v-322h258l63 114h19v-140h-586v12l65 18v640l-65 18v12h576v-141h-19l-63 115h-248v-300h199l28 87h18v-201h-18l-28 88h-199zM227 830c0 52 36 89 89 89s90 -37 90 -89c0 -53 -37 -90 -90 -90s-89 37 -89 90z" />
    <glyph glyph-name="edotaccent" unicode="&#x117;" horiz-adv-x="570" 
d="M529 267l-17 -17h-306c1 -137 47 -210 167 -210c53 0 98 20 137 59l12 -12c-61 -61 -135 -92 -222 -92c-85 0 -152 23 -199 68c-47 46 -70 107 -70 183c0 79 24 141 73 188s113 70 190 70c69 0 126 -18 171 -55c46 -37 69 -84 69 -143c0 -15 -2 -28 -5 -39zM299 489
c-52 0 -92 -71 -93 -224l164 21c0 135 -24 203 -71 203zM294 727c52 0 89 -36 89 -89s-37 -89 -89 -89c-53 0 -90 36 -90 89s37 89 90 89z" />
    <glyph glyph-name="Eogonek" unicode="&#x118;" horiz-adv-x="633" 
d="M594 -172l5 -6c-39 -39 -75 -58 -108 -58c-37 0 -55 21 -55 62c0 62 35 120 106 174h-531v12l65 18v640l-65 18v12h576v-141h-19l-63 115h-248v-300h199l28 87h18v-201h-18l-28 88h-199v-322h258l63 114h19v-140h-42c-33 -48 -56 -113 -56 -150c0 -27 13 -41 39 -41
c25 0 43 6 56 19z" />
    <glyph glyph-name="eogonek" unicode="&#x119;" horiz-adv-x="570" 
d="M529 -113l6 -6c-38 -38 -74 -57 -108 -57c-37 0 -55 20 -55 61c0 47 22 94 65 139c-39 -19 -84 -29 -137 -29c-85 0 -152 23 -199 68c-47 46 -70 107 -70 183c0 79 24 141 73 188s113 70 190 70c69 0 126 -18 171 -55c46 -37 69 -84 69 -143c0 -15 -2 -28 -5 -39l-17 -17
h-306c1 -137 47 -210 167 -210c53 0 98 20 137 59l12 -12c-13 -13 -24 -23 -35 -31c-35 -55 -52 -104 -52 -147c0 -27 13 -41 39 -41c25 0 44 6 55 19zM299 489c-52 0 -92 -71 -93 -224l164 21c0 135 -24 203 -71 203z" />
    <glyph glyph-name="Ecaron" unicode="&#x11a;" horiz-adv-x="633" 
d="M257 348v-322h258l63 114h19v-140h-586v12l65 18v640l-65 18v12h576v-141h-19l-63 115h-248v-300h199l28 87h18v-201h-18l-28 88h-199zM466 899l-137 -171h-25l-137 171l10 10l139 -74l139 74z" />
    <glyph glyph-name="ecaron" unicode="&#x11b;" horiz-adv-x="570" 
d="M529 267l-17 -17h-306c1 -137 47 -210 167 -210c53 0 98 20 137 59l12 -12c-61 -61 -135 -92 -222 -92c-85 0 -152 23 -199 68c-47 46 -70 107 -70 183c0 79 24 141 73 188s113 70 190 70c69 0 126 -18 171 -55c46 -37 69 -84 69 -143c0 -15 -2 -28 -5 -39zM299 489
c-52 0 -92 -71 -93 -224l164 21c0 135 -24 203 -71 203zM444 707l-137 -171h-25l-137 171l11 11l138 -75l140 75z" />
    <glyph glyph-name="Gcircumflex" unicode="&#x11c;" horiz-adv-x="760" 
d="M748 331l-64 -22v-282l-17 -17l-85 22c-53 -26 -115 -39 -184 -39c-111 0 -199 32 -264 96c-64 64 -96 150 -96 259s32 196 97 261s152 97 259 97c79 0 143 -16 193 -47l64 28l10 -10v-158h-19c-34 105 -104 157 -210 157c-136 0 -205 -97 -205 -328
c0 -97 15 -175 46 -234s80 -88 147 -88c31 0 58 7 83 22v261l-65 22v15h310v-15zM244 738l137 171h25l137 -171l-11 -10l-139 74l-139 -74z" />
    <glyph glyph-name="gcircumflex" unicode="&#x11d;" horiz-adv-x="569" 
d="M535 484l-71 -23h-31c45 -30 67 -69 67 -116s-21 -85 -64 -113c-42 -28 -97 -42 -165 -42c-57 0 -103 9 -140 27c-13 -17 -20 -33 -20 -48c0 -29 22 -46 59 -46h164c135 0 203 -49 203 -147c0 -119 -100 -178 -301 -178c-142 0 -213 28 -213 83c0 41 32 73 96 97
c-48 17 -72 55 -72 112c0 55 22 90 70 135c-50 29 -75 69 -75 120c0 47 21 85 63 114c43 29 98 43 166 43c9 0 22 -1 39 -2h225v-16zM357 -33h-168c-7 0 -13 0 -17 1c-13 -21 -20 -42 -20 -65c0 -63 40 -87 120 -87c99 0 168 37 168 90c0 35 -27 61 -83 61zM271 205
c45 0 68 47 68 141s-23 141 -68 141c-46 0 -69 -47 -69 -141s23 -141 69 -141zM121 547l137 171h25l137 -171l-11 -11l-139 75l-139 -75z" />
    <glyph glyph-name="Gbreve" unicode="&#x11e;" horiz-adv-x="760" 
d="M748 331l-64 -22v-282l-17 -17l-85 22c-53 -26 -115 -39 -184 -39c-111 0 -199 32 -264 96c-64 64 -96 150 -96 259s32 196 97 261s152 97 259 97c79 0 143 -16 193 -47l64 28l10 -10v-158h-19c-34 105 -104 157 -210 157c-136 0 -205 -97 -205 -328
c0 -97 15 -175 46 -234s80 -88 147 -88c31 0 58 7 83 22v261l-65 22v15h310v-15zM437 820c0 47 26 74 67 74c40 0 67 -26 67 -65c0 -78 -110 -98 -181 -98s-181 20 -181 98c0 39 27 65 67 65c41 0 67 -27 67 -74c0 -74 31 -74 47 -74s47 0 47 74z" />
    <glyph glyph-name="gbreve" unicode="&#x11f;" horiz-adv-x="569" 
d="M535 484l-71 -23h-31c45 -30 67 -69 67 -116s-21 -85 -64 -113c-42 -28 -97 -42 -165 -42c-57 0 -103 9 -140 27c-13 -17 -20 -33 -20 -48c0 -29 22 -46 59 -46h164c135 0 203 -49 203 -147c0 -119 -100 -178 -301 -178c-142 0 -213 28 -213 83c0 41 32 73 96 97
c-48 17 -72 55 -72 112c0 55 22 90 70 135c-50 29 -75 69 -75 120c0 47 21 85 63 114c43 29 98 43 166 43c9 0 22 -1 39 -2h225v-16zM357 -33h-168c-7 0 -13 0 -17 1c-13 -21 -20 -42 -20 -65c0 -63 40 -87 120 -87c99 0 168 37 168 90c0 35 -27 61 -83 61zM317 629
c0 47 27 74 67 74c41 0 68 -26 68 -65c0 -25 -11 -45 -32 -61c-43 -31 -94 -38 -149 -38c-28 0 -55 2 -80 7s-48 16 -69 31c-21 16 -32 36 -32 61c0 39 27 65 67 65s67 -27 67 -74c0 -74 31 -74 47 -74c12 0 16 1 28 9s18 30 18 65zM271 205c45 0 68 47 68 141
s-23 141 -68 141c-46 0 -69 -47 -69 -141s23 -141 69 -141z" />
    <glyph glyph-name="Gdotaccent" unicode="&#x120;" horiz-adv-x="760" 
d="M748 331l-64 -22v-282l-17 -17l-85 22c-53 -26 -115 -39 -184 -39c-111 0 -199 32 -264 96c-64 64 -96 150 -96 259s32 196 97 261s152 97 259 97c79 0 143 -16 193 -47l64 28l10 -10v-158h-19c-34 105 -104 157 -210 157c-136 0 -205 -97 -205 -328
c0 -97 15 -175 46 -234s80 -88 147 -88c31 0 58 7 83 22v261l-65 22v15h310v-15zM300 830c0 52 37 89 90 89s89 -37 89 -89c0 -53 -36 -90 -89 -90s-90 37 -90 90z" />
    <glyph glyph-name="gdotaccent" unicode="&#x121;" horiz-adv-x="569" 
d="M535 484l-71 -23h-31c45 -30 67 -69 67 -116s-21 -85 -64 -113c-42 -28 -97 -42 -165 -42c-57 0 -103 9 -140 27c-13 -17 -20 -33 -20 -48c0 -29 22 -46 59 -46h164c135 0 203 -49 203 -147c0 -119 -100 -178 -301 -178c-142 0 -213 28 -213 83c0 41 32 73 96 97
c-48 17 -72 55 -72 112c0 55 22 90 70 135c-50 29 -75 69 -75 120c0 47 21 85 63 114c43 29 98 43 166 43c9 0 22 -1 39 -2h225v-16zM357 -33h-168c-7 0 -13 0 -17 1c-13 -21 -20 -42 -20 -65c0 -63 40 -87 120 -87c99 0 168 37 168 90c0 35 -27 61 -83 61zM271 205
c45 0 68 47 68 141s-23 141 -68 141c-46 0 -69 -47 -69 -141s23 -141 69 -141zM206 573c-16 17 -24 38 -24 65s8 48 24 64c17 17 38 25 65 25s48 -8 64 -25c17 -16 25 -37 25 -64s-8 -48 -25 -65c-16 -16 -37 -24 -64 -24s-48 8 -65 24z" />
    <glyph glyph-name="Gcommaaccent" unicode="&#x122;" horiz-adv-x="760" 
d="M748 331l-64 -22v-282l-17 -17l-85 22c-53 -26 -115 -39 -184 -39c-111 0 -199 32 -264 96c-64 64 -96 150 -96 259s32 196 97 261s152 97 259 97c79 0 143 -16 193 -47l64 28l10 -10v-158h-19c-34 105 -104 157 -210 157c-136 0 -205 -97 -205 -328
c0 -97 15 -175 46 -234s80 -88 147 -88c31 0 58 7 83 22v261l-65 22v15h310v-15zM364 -250l-13 13c32 32 48 57 48 75c0 5 -1 8 -3 10c-35 0 -58 22 -58 57c0 33 23 58 58 58s59 -23 59 -62c0 -17 -6 -36 -17 -57s-21 -37 -32 -48c-10 -12 -24 -27 -42 -46z" />
    <glyph glyph-name="gcommaaccent" unicode="&#x123;" horiz-adv-x="569" 
d="M535 484l-71 -23h-31c45 -30 67 -69 67 -116s-21 -85 -64 -113c-42 -28 -97 -42 -165 -42c-57 0 -103 9 -140 27c-13 -17 -20 -33 -20 -48c0 -29 22 -46 59 -46h164c135 0 203 -49 203 -147c0 -119 -100 -178 -301 -178c-142 0 -213 28 -213 83c0 41 32 73 96 97
c-48 17 -72 55 -72 112c0 55 22 90 70 135c-50 29 -75 69 -75 120c0 47 21 85 63 114c43 29 98 43 166 43c9 0 22 -1 39 -2h225v-16zM357 -33h-168c-7 0 -13 0 -17 1c-13 -21 -20 -42 -20 -65c0 -63 40 -87 120 -87c99 0 168 37 168 90c0 35 -27 61 -83 61zM271 205
c45 0 68 47 68 141s-23 141 -68 141c-46 0 -69 -47 -69 -141s23 -141 69 -141zM259 704l43 46l13 -13c-32 -32 -48 -57 -48 -75c0 -5 1 -8 3 -10c35 0 58 -22 58 -57c0 -33 -23 -58 -58 -58s-59 23 -59 62c0 17 5 36 16 57s22 37 32 48z" />
    <glyph glyph-name="Hcircumflex" unicode="&#x124;" horiz-adv-x="785" 
d="M11 0v16l65 22v624l-65 22v16h311v-16l-65 -22v-293h271v293l-65 22v16h311v-16l-65 -22v-624l65 -22v-16h-311v16l65 22v305h-271v-305l65 -22v-16h-311zM244 738l137 171h25l137 -171l-11 -10l-139 74l-139 -74z" />
    <glyph glyph-name="hcircumflex" unicode="&#x125;" horiz-adv-x="650" 
d="M245 405v-367l46 -22v-16h-280v16l60 22v638l-60 16v16l217 21l17 -18v-211l-3 -68l3 -3c50 50 108 75 174 75c51 0 91 -17 118 -51c28 -34 42 -76 42 -127v-288l60 -22v-16h-280v16l46 22v266c0 98 -23 147 -70 147c-33 0 -63 -15 -90 -46zM175 755l137 171h25l137 -171
l-10 -10l-140 74l-138 -74z" />
    <glyph glyph-name="Hbar" unicode="&#x126;" horiz-adv-x="772" 
d="M76 499h-65v12l65 13v138l-65 22v16h311v-16l-65 -22v-138h258v138l-65 22v16h311v-16l-65 -22v-138l65 -13v-12h-65v-461l65 -22v-16h-311v16l65 22v305h-258v-305l65 -22v-16h-311v16l65 22v461zM257 499v-130h258v130h-258z" />
    <glyph glyph-name="hbar" unicode="&#x127;" horiz-adv-x="650" 
d="M11 593l60 13v70l-60 16v16l217 21l17 -18v-105h162v-25h-162v-81l-3 -68l3 -3c50 50 108 75 174 75c51 0 91 -17 118 -51c28 -34 42 -76 42 -127v-288l60 -22v-16h-280v16l46 22v266c0 98 -23 147 -70 147c-33 0 -63 -15 -90 -46v-367l46 -22v-16h-280v16l60 22v543h-60
v12z" />
    <glyph glyph-name="Itilde" unicode="&#x128;" horiz-adv-x="334" 
d="M319 684l-63 -22v-624l63 -22v-16h-306v16l65 22v624l-65 22v16h306v-16zM-14 757l-13 13c74 75 125 112 153 112c12 0 32 -7 60 -22s50 -22 65 -22c28 0 71 17 99 45l13 -13c-76 -76 -129 -114 -158 -114c-11 0 -31 7 -60 22s-52 23 -68 23c-31 0 -62 -15 -91 -44z" />
    <glyph glyph-name="itilde" unicode="&#x129;" 
d="M-22 566l-13 13c84 85 123 112 152 112c12 0 32 -8 60 -23c29 -15 51 -22 66 -22c27 0 71 18 99 46l13 -13c-75 -76 -127 -114 -158 -114c-11 0 -32 7 -61 22s-52 23 -68 23c-31 0 -61 -15 -90 -44zM305 0h-294v16l60 22v418l-60 16v16l217 21l17 -18v-453l60 -22v-16z
" />
    <glyph glyph-name="Imacron" unicode="&#x12a;" horiz-adv-x="334" 
d="M319 684l-63 -22v-624l63 -22v-16h-306v16l65 22v624l-65 22v16h306v-16zM305 789h-277v42h277v-42z" />
    <glyph glyph-name="imacron" unicode="&#x12b;" 
d="M305 0h-294v16l60 22v418l-60 16v16l217 21l17 -18v-453l60 -22v-16zM297 589h-277v42h277v-42z" />
    <glyph glyph-name="Ibreve" unicode="&#x12c;" horiz-adv-x="334" 
d="M319 684l-63 -22v-624l63 -22v-16h-306v16l65 22v624l-65 22v16h306v-16zM214 820c0 48 26 74 67 74c40 0 67 -26 67 -65c0 -78 -110 -98 -181 -98s-181 20 -181 98c0 39 26 65 67 65s67 -27 67 -74c0 -74 31 -74 47 -74s47 0 47 74z" />
    <glyph glyph-name="ibreve" unicode="&#x12d;" 
d="M191 629c0 47 27 74 67 74s67 -26 67 -65c0 -25 -11 -45 -32 -61c-43 -31 -93 -38 -149 -38c-28 0 -55 2 -80 7s-48 16 -69 31c-21 16 -32 36 -32 61c0 39 27 65 67 65s67 -27 67 -74c0 -74 31 -74 47 -74s47 0 47 74zM305 0h-294v16l60 22v418l-60 16v16l217 21l17 -18
v-453l60 -22v-16z" />
    <glyph glyph-name="Iogonek" unicode="&#x12e;" horiz-adv-x="334" 
d="M315 -172l6 -6c-39 -39 -75 -58 -108 -58c-37 0 -56 21 -56 62c0 62 36 120 107 174h-251v16l65 22v624l-65 22v16h306v-16l-63 -22v-624l63 -22v-16h-43c-33 -48 -56 -113 -56 -150c0 -27 13 -41 40 -41c24 0 42 6 55 19z" />
    <glyph glyph-name="iogonek" unicode="&#x12f;" 
d="M249 0h-238v16l60 22v418l-60 16v16l217 21l17 -18v-453l60 -22v-16h-44c-33 -48 -56 -113 -56 -150c0 -27 13 -41 40 -41c24 0 42 6 55 19l6 -6c-39 -39 -75 -58 -108 -58c-37 0 -56 21 -56 62c0 62 36 120 107 174zM251 638c0 -57 -40 -98 -99 -98s-98 39 -98 98
s39 99 98 99s99 -40 99 -99z" />
    <glyph glyph-name="Idot" unicode="&#x130;" horiz-adv-x="334" 
d="M319 684l-63 -22v-624l63 -22v-16h-306v16l65 22v624l-65 22v16h306v-16zM77 830c0 52 37 89 90 89c52 0 89 -37 89 -89c0 -53 -37 -90 -89 -90c-53 0 -90 37 -90 90z" />
    <glyph glyph-name="dotlessi" unicode="&#x131;" 
d="M305 0h-294v16l60 22v418l-60 16v16l217 21l17 -18v-453l60 -22v-16z" />
    <glyph glyph-name="IJ" unicode="&#x132;" horiz-adv-x="666" 
d="M319 684l-63 -22v-624l63 -22v-16h-306v16l65 22v624l-65 22v16h306v-16zM411 32v630l-65 22v16h305v-16l-63 -22v-630c0 -105 -79 -172 -228 -237l-12 12c42 67 63 142 63 225z" />
    <glyph glyph-name="ij" unicode="&#x133;" horiz-adv-x="632" 
d="M305 0h-294v16l60 22v418l-60 16v16l217 21l17 -18v-453l60 -22v-16zM251 638c0 -57 -40 -98 -99 -98s-98 39 -98 98s39 99 98 99s99 -40 99 -99zM387 32v424l-60 16v16l216 21l17 -18v-459c0 -105 -77 -172 -222 -237l-12 12c41 65 61 140 61 225zM369 638
c0 59 40 99 99 99s98 -40 98 -99s-39 -98 -98 -98s-99 41 -99 98z" />
    <glyph glyph-name="Jcircumflex" unicode="&#x134;" horiz-adv-x="334" 
d="M79 32v630l-65 22v16h305v-16l-64 -22v-630c0 -105 -78 -172 -227 -237l-12 12c42 67 63 142 63 225zM17 738l137 171h25l137 -171l-11 -10l-139 74l-138 -74z" />
    <glyph glyph-name="jcircumflex" unicode="&#x135;" 
d="M71 32v424l-60 16v16l217 21l17 -18v-459c0 -104 -77 -172 -222 -237l-12 12c40 64 60 139 60 225zM8 547l137 171h25l137 -171l-10 -11l-139 75l-139 -75z" />
    <glyph glyph-name="Kcommaaccent" unicode="&#x136;" horiz-adv-x="748" 
d="M321 684l-65 -22v-314l304 314l-89 22v16h204v-16l-79 -22l-175 -182l259 -444l62 -20v-16h-234l-210 360l-42 -45v-277l65 -22v-16h-311v16l65 22v624l-65 22v16h311v-16zM342 -250l-13 13c32 32 48 57 48 75c0 4 -1 7 -4 10c-35 0 -58 22 -58 57c0 33 25 58 58 58
s59 -23 59 -62s-30 -90 -90 -151z" />
    <glyph glyph-name="kcommaaccent" unicode="&#x137;" horiz-adv-x="624" 
d="M619 0h-215l-127 248l-32 -34v-176l60 -22v-16h-294v16l60 22v638l-60 16v16l217 21l17 -18v-464l217 215l-84 22v16h194v-16l-74 -22l-103 -105l168 -321l56 -20v-16zM280 -250l-13 13c32 32 48 57 48 75c0 4 -1 7 -4 10c-35 0 -58 22 -58 57c0 33 25 58 58 58
s59 -23 59 -62s-30 -90 -90 -151z" />
    <glyph glyph-name="Lacute" unicode="&#x139;" horiz-adv-x="603" 
d="M257 662v-636h223l63 114h19v-140h-551v12l65 18v632l-65 22v16h311v-16zM84 728l-11 10l139 171l89 -90z" />
    <glyph glyph-name="lacute" unicode="&#x13a;" 
d="M305 0h-294v16l60 22v638l-60 16v16l217 21l17 -18v-673l60 -22v-16zM75 745l-11 10l139 171l89 -90z" />
    <glyph glyph-name="Lcommaaccent" unicode="&#x13b;" horiz-adv-x="603" 
d="M257 662v-636h223l63 114h19v-140h-551v12l65 18v632l-65 22v16h311v-16zM271 -250l-12 13c32 32 48 57 48 75c0 4 -1 7 -4 10c-35 0 -58 22 -58 57c0 33 25 58 58 58s59 -23 59 -62c0 -40 -30 -90 -91 -151z" />
    <glyph glyph-name="lcommaaccent" unicode="&#x13c;" 
d="M305 0h-294v16l60 22v638l-60 16v16l217 21l17 -18v-673l60 -22v-16zM126 -250l-13 13c32 32 48 57 48 75c0 5 -1 8 -3 10c-35 0 -58 22 -58 57c0 33 23 58 58 58s59 -23 59 -62c0 -17 -6 -36 -17 -57s-21 -37 -32 -48c-10 -12 -24 -27 -42 -46z" />
    <glyph glyph-name="Lcaron" unicode="&#x13d;" horiz-adv-x="603" 
d="M257 662v-636h223l63 114h19v-140h-551v12l65 18v632l-65 22v16h311v-16zM317 899l-137 -171h-25l-137 171l10 10l139 -74l139 74z" />
    <glyph glyph-name="lcaron" unicode="&#x13e;" horiz-adv-x="422" 
d="M305 0h-294v16l60 22v638l-60 16v16l217 21l17 -18v-673l60 -22v-16zM317 513l-12 13c32 32 48 57 48 75c0 4 -1 7 -4 10c-53 -6 -76 65 -42 99s105 11 101 -46c0 -40 -30 -90 -91 -151z" />
    <glyph glyph-name="Ldot" unicode="&#x13f;" horiz-adv-x="603" 
d="M257 662v-636h223l63 114h19v-140h-551v12l65 18v632l-65 22v16h311v-16zM387 349c0 47 32 79 77 79c47 0 79 -32 79 -79c0 -45 -32 -78 -79 -78c-45 0 -77 33 -77 78z" />
    <glyph glyph-name="ldot" unicode="&#x140;" horiz-adv-x="500" 
d="M305 0h-294v16l60 22v638l-60 16v16l217 21l17 -18v-673l60 -22v-16zM327 300c0 47 32 79 77 79c47 0 79 -32 79 -79c0 -45 -32 -78 -79 -78c-45 0 -77 33 -77 78z" />
    <glyph glyph-name="Lslash" unicode="&#x141;" horiz-adv-x="603" 
d="M76 235l-55 -56l-18 18l73 74v391l-65 22v16h311v-16l-65 -22v-274l112 112l18 -18l-130 -130v-326h223l63 114h19v-140h-551v12l65 18v205z" />
    <glyph glyph-name="lslash" unicode="&#x142;" 
d="M71 251l-50 -51l-18 18l68 69v389l-60 16v16l217 21l17 -18v-285l51 50l18 -18l-69 -69v-351l60 -22v-16h-294v16l60 22v213z" />
    <glyph glyph-name="Nacute" unicode="&#x143;" horiz-adv-x="697" 
d="M11 0v12l65 22v628l-65 22v16h249l335 -459v425l-65 22v12h156v-12l-65 -22v-666h-47l-472 646v-612l65 -22v-12h-156zM265 728l-11 10l139 171l90 -90z" />
    <glyph glyph-name="nacute" unicode="&#x144;" horiz-adv-x="650" 
d="M245 405v-367l46 -22v-16h-280v16l60 22v418l-60 16v16l217 21l17 -18l-3 -59l3 -3c47 45 117 75 180 75c100 0 154 -75 154 -178v-288l60 -22v-16h-280v16l46 22v266c0 98 -24 147 -72 147c-32 0 -61 -15 -88 -46zM241 536l-11 11l139 171l90 -91z" />
    <glyph glyph-name="Ncommaaccent" unicode="&#x145;" horiz-adv-x="697" 
d="M11 0v12l65 22v628l-65 22v16h249l335 -459v425l-65 22v12h156v-12l-65 -22v-666h-47l-472 646v-612l65 -22v-12h-156zM316 -250l-13 13c32 32 48 57 48 75c0 4 -1 7 -4 10c-53 -6 -75 65 -41 99c32 33 104 13 100 -46c0 -39 -30 -90 -90 -151z" />
    <glyph glyph-name="ncommaaccent" unicode="&#x146;" horiz-adv-x="650" 
d="M245 405v-367l46 -22v-16h-280v16l60 22v418l-60 16v16l217 21l17 -18l-3 -59l3 -3c47 45 117 75 180 75c100 0 154 -75 154 -178v-288l60 -22v-16h-280v16l46 22v266c0 98 -24 147 -72 147c-32 0 -61 -15 -88 -46zM293 -250l-13 13c32 32 48 57 48 75c0 4 -1 7 -4 10
c-35 0 -57 22 -57 57s24 58 57 58c35 0 60 -23 60 -62c0 -17 -6 -36 -17 -57s-21 -37 -32 -48c-10 -12 -24 -27 -42 -46z" />
    <glyph glyph-name="Ncaron" unicode="&#x147;" horiz-adv-x="697" 
d="M11 0v12l65 22v628l-65 22v16h249l335 -459v425l-65 22v12h156v-12l-65 -22v-666h-47l-472 646v-612l65 -22v-12h-156zM498 899l-137 -171h-25l-137 171l11 10l138 -74l139 74z" />
    <glyph glyph-name="ncaron" unicode="&#x148;" horiz-adv-x="650" 
d="M245 405v-367l46 -22v-16h-280v16l60 22v418l-60 16v16l217 21l17 -18l-3 -59l3 -3c47 45 117 75 180 75c100 0 154 -75 154 -178v-288l60 -22v-16h-280v16l46 22v266c0 98 -24 147 -72 147c-32 0 -61 -15 -88 -46zM474 707l-137 -171h-25l-137 171l11 11l138 -75l140 75
z" />
    <glyph glyph-name="Eng" unicode="&#x14a;" horiz-adv-x="697" 
d="M11 0v12l65 22v628l-65 22v16h243l341 -593v559l-65 22v12h156v-12l-65 -22v-634c0 -105 -79 -172 -230 -237l-12 12c41 65 61 140 61 225v29l-338 585v-612l65 -22v-12h-156z" />
    <glyph glyph-name="eng" unicode="&#x14b;" horiz-adv-x="650" 
d="M405 32v272c0 98 -24 147 -72 147c-32 0 -61 -15 -88 -46v-367l60 -22v-16h-294v16l60 22v418l-60 16v16l217 21l17 -18l-3 -59l3 -3c47 45 117 75 180 75c100 0 154 -75 154 -178v-294c0 -105 -76 -172 -223 -237l-12 12c41 65 61 140 61 225z" />
    <glyph glyph-name="Omacron" unicode="&#x14c;" horiz-adv-x="764" 
d="M133 90c-63 65 -95 151 -95 259s32 194 95 259c64 65 147 98 249 98s185 -33 248 -98c64 -65 96 -151 96 -259s-32 -194 -95 -259s-146 -97 -249 -97s-186 32 -249 97zM227 349c0 -233 59 -341 155 -341c97 0 155 106 155 341c0 228 -52 342 -155 342
c-96 0 -155 -107 -155 -342zM520 789h-276v42h276v-42z" />
    <glyph glyph-name="omacron" unicode="&#x14d;" horiz-adv-x="587" 
d="M294 504c78 0 141 -23 189 -70c49 -46 73 -108 73 -185s-24 -139 -73 -185c-48 -46 -111 -69 -189 -69c-79 0 -142 23 -191 69c-48 46 -72 108 -72 185s24 139 72 185c49 47 112 70 191 70zM206 249c0 -159 29 -239 88 -239c58 0 87 80 87 239c0 160 -29 240 -87 240
c-59 0 -88 -80 -88 -240zM432 589h-277v42h277v-42z" />
    <glyph glyph-name="Obreve" unicode="&#x14e;" horiz-adv-x="764" 
d="M133 90c-63 65 -95 151 -95 259s32 194 95 259c64 65 147 98 249 98s185 -33 248 -98c64 -65 96 -151 96 -259s-32 -194 -95 -259s-146 -97 -249 -97s-186 32 -249 97zM227 349c0 -233 59 -341 155 -341c97 0 155 106 155 341c0 228 -52 342 -155 342
c-96 0 -155 -107 -155 -342zM429 820c0 47 26 74 67 74c40 0 67 -26 67 -65c0 -78 -110 -98 -181 -98s-181 20 -181 98c0 39 27 65 67 65c41 0 67 -27 67 -74c0 -74 31 -74 47 -74s47 0 47 74z" />
    <glyph glyph-name="obreve" unicode="&#x14f;" horiz-adv-x="587" 
d="M294 504c78 0 141 -23 189 -70c49 -46 73 -108 73 -185s-24 -139 -73 -185c-48 -46 -111 -69 -189 -69c-79 0 -142 23 -191 69c-48 46 -72 108 -72 185s24 139 72 185c49 47 112 70 191 70zM206 249c0 -159 29 -239 88 -239c58 0 87 80 87 239c0 160 -29 240 -87 240
c-59 0 -88 -80 -88 -240zM340 629c0 47 27 74 67 74c41 0 68 -26 68 -65c0 -25 -11 -45 -32 -61c-43 -31 -94 -38 -149 -38c-28 0 -55 2 -80 7s-49 16 -70 31c-21 16 -32 36 -32 61c0 39 27 65 68 65c40 0 67 -27 67 -74c4 -72 28 -76 47 -74c15 0 46 0 46 74z" />
    <glyph glyph-name="Ohungarumlaut" unicode="&#x150;" horiz-adv-x="764" 
d="M133 90c-63 65 -95 151 -95 259s32 194 95 259c64 65 147 98 249 98s185 -33 248 -98c64 -65 96 -151 96 -259s-32 -194 -95 -259s-146 -97 -249 -97s-186 32 -249 97zM227 349c0 -233 59 -341 155 -341c97 0 155 106 155 341c0 228 -52 342 -155 342
c-96 0 -155 -107 -155 -342zM199 728l-10 10l124 171l90 -90zM392 728l-11 10l124 171l90 -90z" />
    <glyph glyph-name="ohungarumlaut" unicode="&#x151;" horiz-adv-x="587" 
d="M294 504c78 0 141 -23 189 -70c49 -46 73 -108 73 -185s-24 -139 -73 -185c-48 -46 -111 -69 -189 -69c-79 0 -142 23 -191 69c-48 46 -72 108 -72 185s24 139 72 185c49 47 112 70 191 70zM206 249c0 -159 29 -239 88 -239c58 0 87 80 87 239c0 160 -29 240 -87 240
c-59 0 -88 -80 -88 -240zM111 536l-11 11l125 171l89 -91zM303 536l-11 11l125 171l90 -91z" />
    <glyph glyph-name="OE" unicode="&#x152;" horiz-adv-x="1002" 
d="M647 348v-322h236l64 114h18v-140h-506c-28 -5 -54 -7 -77 -7c-103 0 -186 32 -249 97s-95 151 -95 259s32 194 95 259c64 65 147 98 249 98c27 0 51 -2 74 -6h499v-141h-18l-64 115h-226v-300h178l27 87h18v-201h-18l-27 88h-178zM382 8c39 0 70 26 92 78v527
c-22 52 -53 78 -92 78c-96 0 -155 -107 -155 -342c0 -233 59 -341 155 -341z" />
    <glyph glyph-name="oe" unicode="&#x153;" horiz-adv-x="907" 
d="M865 267l-17 -17h-305c1 -137 47 -210 167 -210c52 0 98 20 137 59l11 -12c-61 -61 -135 -92 -222 -92c-74 0 -132 20 -175 59c-45 -39 -100 -59 -167 -59c-79 0 -142 23 -191 69c-48 46 -72 108 -72 185s24 139 72 185c49 47 112 70 191 70c69 0 125 -21 168 -62
c45 41 101 62 168 62c69 0 126 -18 171 -55c46 -37 69 -84 69 -143c0 -15 -2 -28 -5 -39zM294 10c45 0 73 53 83 160c-6 24 -9 49 -9 76s3 53 9 77c-9 111 -37 166 -83 166c-59 0 -88 -80 -88 -240c0 -159 29 -239 88 -239zM635 489c-51 0 -91 -71 -92 -224l163 21
c0 135 -24 203 -71 203z" />
    <glyph glyph-name="Racute" unicode="&#x154;" horiz-adv-x="722" 
d="M627 508c0 -88 -61 -156 -169 -177c32 -9 59 -35 81 -76l115 -219l62 -20v-16h-229l-164 321h-66v-283l65 -22v-16h-311v16l65 22v632l-65 18v12h339c83 0 150 -17 201 -52c51 -34 76 -81 76 -140zM333 674h-76v-327h76c75 0 112 55 112 164s-37 163 -112 163zM267 728
l-11 10l139 171l89 -90z" />
    <glyph glyph-name="racute" unicode="&#x155;" horiz-adv-x="540" 
d="M11 16l60 22v418l-60 16v16l217 21l17 -18l-3 -64l3 -3s34 80 127 80c35 0 67 -10 95 -31s42 -51 42 -92c0 -60 -34 -92 -89 -92c-56 0 -91 37 -91 101v78c-3 2 -7 3 -10 3c-27 0 -54 -33 -65 -60l-9 -20v-353l90 -22v-16h-324v16zM191 536l-10 11l138 171l90 -91z" />
    <glyph glyph-name="Rcommaaccent" unicode="&#x156;" horiz-adv-x="722" 
d="M627 508c0 -88 -61 -156 -169 -177c32 -9 59 -35 81 -76l115 -219l62 -20v-16h-229l-164 321h-66v-283l65 -22v-16h-311v16l65 22v632l-65 18v12h339c83 0 150 -17 201 -52c51 -34 76 -81 76 -140zM333 674h-76v-327h76c75 0 112 55 112 164s-37 163 -112 163zM329 -250
l-13 13c32 32 48 57 48 75c0 4 -1 7 -4 10c-35 0 -58 22 -58 57c0 33 23 58 58 58s59 -23 59 -62s-30 -90 -90 -151z" />
    <glyph glyph-name="rcommaaccent" unicode="&#x157;" horiz-adv-x="540" 
d="M11 16l60 22v418l-60 16v16l217 21l17 -18l-3 -64l3 -3s34 80 127 80c35 0 67 -10 95 -31s42 -51 42 -92c0 -60 -34 -92 -89 -92c-56 0 -91 37 -91 101v78c-3 2 -7 3 -10 3c-27 0 -54 -33 -65 -60l-9 -20v-353l90 -22v-16h-324v16zM130 -250l-13 13c32 32 48 57 48 75
c0 4 -1 7 -4 10c-35 0 -57 22 -57 57s24 58 57 58c35 0 60 -23 60 -62c0 -17 -6 -36 -17 -57s-21 -37 -32 -48c-10 -12 -24 -27 -42 -46z" />
    <glyph glyph-name="Rcaron" unicode="&#x158;" horiz-adv-x="722" 
d="M627 508c0 -88 -61 -156 -169 -177c32 -9 59 -35 81 -76l115 -219l62 -20v-16h-229l-164 321h-66v-283l65 -22v-16h-311v16l65 22v632l-65 18v12h339c83 0 150 -17 201 -52c51 -34 76 -81 76 -140zM333 674h-76v-327h76c75 0 112 55 112 164s-37 163 -112 163zM498 899
l-137 -171h-25l-137 171l10 10l139 -74l139 74z" />
    <glyph glyph-name="rcaron" unicode="&#x159;" horiz-adv-x="540" 
d="M11 16l60 22v418l-60 16v16l217 21l17 -18l-3 -64l3 -3s34 80 127 80c35 0 67 -10 95 -31s42 -51 42 -92c0 -60 -34 -92 -89 -92c-56 0 -91 37 -91 101v78c-3 2 -7 3 -10 3c-27 0 -54 -33 -65 -60l-9 -20v-353l90 -22v-16h-324v16zM424 707l-137 -171h-25l-137 171l11 11
l138 -75l140 75z" />
    <glyph glyph-name="Sacute" unicode="&#x15a;" horiz-adv-x="604" 
d="M55 5l-10 10v160h19c19 -65 57 -115 100 -136c44 -21 80 -30 117 -30c91 0 146 52 146 133c0 36 -11 62 -34 78c-22 17 -62 34 -120 51c-22 7 -39 12 -51 15c-24 8 -69 26 -90 39s-51 38 -66 62c-13 25 -24 61 -24 102c0 131 84 217 252 217c61 0 116 -14 167 -41l55 30
l10 -10v-160h-19c-17 64 -53 112 -92 135s-72 31 -105 31c-80 0 -128 -51 -128 -122c0 -33 10 -58 31 -73s57 -32 109 -49l57 -20l50 -21c21 -9 36 -17 47 -24c21 -15 54 -40 67 -65s24 -60 24 -101c0 -133 -89 -222 -276 -222c-67 0 -127 13 -180 40zM214 728l-10 10
l138 171l90 -90z" />
    <glyph glyph-name="sacute" unicode="&#x15b;" horiz-adv-x="456" 
d="M51 4l-10 10v116h26c22 -80 71 -120 148 -120c64 0 104 32 104 84c0 16 -5 29 -15 39c-19 21 -37 25 -94 41c-19 5 -31 9 -37 10l-34 12c-16 6 -27 11 -34 16c-12 9 -40 28 -49 47s-19 48 -19 81c0 100 60 164 195 164c48 0 92 -8 131 -25l25 17l10 -10v-113h-26
c-21 77 -67 116 -136 116c-59 0 -91 -32 -91 -77c0 -41 24 -54 96 -78c26 -8 45 -14 58 -19s29 -12 48 -22c20 -10 35 -20 44 -31c19 -21 36 -58 36 -103c0 -100 -66 -164 -211 -164c-54 0 -101 8 -141 25zM147 536l-10 11l138 171l90 -91z" />
    <glyph glyph-name="Scircumflex" unicode="&#x15c;" horiz-adv-x="604" 
d="M55 5l-10 10v160h19c19 -65 57 -115 100 -136c44 -21 80 -30 117 -30c91 0 146 52 146 133c0 36 -11 62 -34 78c-22 17 -62 34 -120 51c-22 7 -39 12 -51 15c-24 8 -69 26 -90 39s-51 38 -66 62c-13 25 -24 61 -24 102c0 131 84 217 252 217c61 0 116 -14 167 -41l55 30
l10 -10v-160h-19c-17 64 -53 112 -92 135s-72 31 -105 31c-80 0 -128 -51 -128 -122c0 -33 10 -58 31 -73s57 -32 109 -49l57 -20l50 -21c21 -9 36 -17 47 -24c21 -15 54 -40 67 -65s24 -60 24 -101c0 -133 -89 -222 -276 -222c-67 0 -127 13 -180 40zM145 738l137 171h25
l137 -171l-11 -10l-139 74l-138 -74z" />
    <glyph glyph-name="scircumflex" unicode="&#x15d;" horiz-adv-x="456" 
d="M51 4l-10 10v116h26c22 -80 71 -120 148 -120c64 0 104 32 104 84c0 16 -5 29 -15 39c-19 21 -37 25 -94 41c-19 5 -31 9 -37 10l-34 12c-16 6 -27 11 -34 16c-12 9 -40 28 -49 47s-19 48 -19 81c0 100 60 164 195 164c48 0 92 -8 131 -25l25 17l10 -10v-113h-26
c-21 77 -67 116 -136 116c-59 0 -91 -32 -91 -77c0 -41 24 -54 96 -78c26 -8 45 -14 58 -19s29 -12 48 -22c20 -10 35 -20 44 -31c19 -21 36 -58 36 -103c0 -100 -66 -164 -211 -164c-54 0 -101 8 -141 25zM85 547l137 171h25l137 -171l-11 -11l-139 75l-139 -75z" />
    <glyph glyph-name="Scedilla" unicode="&#x15e;" horiz-adv-x="604" 
d="M213 -126l68 120c-63 1 -119 14 -170 40l-56 -29l-10 10v160h19c19 -65 57 -115 100 -136c44 -21 80 -30 117 -30c91 0 146 52 146 133c0 36 -11 62 -34 78c-22 17 -62 34 -120 51c-22 7 -39 12 -51 15c-24 8 -69 26 -90 39s-51 38 -66 62c-13 25 -24 61 -24 102
c0 131 84 217 252 217c61 0 116 -14 167 -41l55 30l10 -10v-160h-19c-17 64 -53 112 -92 135s-72 31 -105 31c-80 0 -128 -51 -128 -122c0 -33 10 -58 31 -73s57 -32 109 -49l57 -20l50 -21c21 -9 36 -17 47 -24c21 -15 54 -40 67 -65s24 -60 24 -101
c0 -132 -87 -219 -268 -222l-20 -37c52 0 88 -16 88 -51c0 -37 -35 -86 -106 -147l-6 7c25 25 37 49 37 74s-19 34 -79 34z" />
    <glyph glyph-name="scedilla" unicode="&#x15f;" horiz-adv-x="456" 
d="M140 -126l68 121c-51 1 -95 10 -133 25l-24 -16l-10 10v116h26c22 -80 71 -120 148 -120c64 0 104 32 104 84c0 16 -5 29 -15 39c-19 21 -37 25 -94 41c-19 5 -31 9 -37 10l-34 12c-16 6 -27 11 -34 16c-12 9 -40 28 -49 47s-19 48 -19 81c0 100 60 164 195 164
c48 0 92 -8 131 -25l25 17l10 -10v-113h-26c-21 77 -67 116 -136 116c-59 0 -91 -32 -91 -77c0 -41 24 -54 96 -78c26 -8 45 -14 58 -19s29 -12 48 -22c20 -10 35 -20 44 -31c19 -21 36 -58 36 -103c0 -99 -63 -161 -202 -164l-19 -38c52 0 88 -16 88 -51
c0 -37 -35 -86 -106 -147l-7 7c25 25 37 49 37 74s-19 34 -78 34z" />
    <glyph glyph-name="Scaron" unicode="&#x160;" horiz-adv-x="604" 
d="M55 5l-10 10v160h19c19 -65 57 -115 100 -136c44 -21 80 -30 117 -30c91 0 146 52 146 133c0 36 -11 62 -34 78c-22 17 -62 34 -120 51c-22 7 -39 12 -51 15c-24 8 -69 26 -90 39s-51 38 -66 62c-13 25 -24 61 -24 102c0 131 84 217 252 217c61 0 116 -14 167 -41l55 30
l10 -10v-160h-19c-17 64 -53 112 -92 135s-72 31 -105 31c-80 0 -128 -51 -128 -122c0 -33 10 -58 31 -73s57 -32 109 -49l57 -20l50 -21c21 -9 36 -17 47 -24c21 -15 54 -40 67 -65s24 -60 24 -101c0 -133 -89 -222 -276 -222c-67 0 -127 13 -180 40zM444 899l-137 -171
h-25l-137 171l11 10l138 -74l139 74z" />
    <glyph glyph-name="scaron" unicode="&#x161;" horiz-adv-x="456" 
d="M51 4l-10 10v116h26c22 -80 71 -120 148 -120c64 0 104 32 104 84c0 16 -5 29 -15 39c-19 21 -37 25 -94 41c-19 5 -31 9 -37 10l-34 12c-16 6 -27 11 -34 16c-12 9 -40 28 -49 47s-19 48 -19 81c0 100 60 164 195 164c48 0 92 -8 131 -25l25 17l10 -10v-113h-26
c-21 77 -67 116 -136 116c-59 0 -91 -32 -91 -77c0 -41 24 -54 96 -78c26 -8 45 -14 58 -19s29 -12 48 -22c20 -10 35 -20 44 -31c19 -21 36 -58 36 -103c0 -100 -66 -164 -211 -164c-54 0 -101 8 -141 25zM384 707l-137 -171h-25l-137 171l10 11l139 -75l139 75z" />
    <glyph glyph-name="Tcommaaccent" unicode="&#x162;" horiz-adv-x="693" 
d="M652 559l-64 115h-151v-636l65 -22v-16h-311v16l65 22v636h-151l-64 -115h-18v141h647v-141h-18zM314 -250l-12 13c32 32 48 57 48 75c0 4 -1 7 -4 10c-35 0 -58 22 -58 57c0 33 23 58 58 58s59 -23 59 -62c0 -40 -30 -90 -91 -151z" />
    <glyph glyph-name="tcommaaccent" unicode="&#x163;" horiz-adv-x="425" 
d="M71 474h-58v12c84 24 156 71 215 140l17 -17v-109h155v-26h-155v-331c0 -69 25 -103 76 -103c31 0 57 11 77 32l11 -12c-41 -43 -96 -65 -165 -65c-111 0 -173 59 -173 148v331zM195 -250l-13 13c32 32 48 57 48 75c0 4 -1 7 -4 10c-35 0 -58 22 -58 57c0 33 23 58 58 58
s59 -23 59 -62s-30 -90 -90 -151z" />
    <glyph glyph-name="Tcaron" unicode="&#x164;" horiz-adv-x="693" 
d="M652 559l-64 115h-151v-636l65 -22v-16h-311v16l65 22v636h-151l-64 -115h-18v141h647v-141h-18zM496 899l-137 -171h-25l-137 171l10 10l139 -74l139 74z" />
    <glyph glyph-name="tcaron" unicode="&#x165;" horiz-adv-x="425" 
d="M71 474h-58v12c84 24 156 71 215 140l17 -17v-109h155v-26h-155v-331c0 -69 25 -103 76 -103c31 0 57 11 77 32l11 -12c-41 -43 -96 -65 -165 -65c-111 0 -173 59 -173 148v331zM326 542l-13 13c32 32 48 57 48 75c0 4 -1 7 -4 10c-35 0 -58 22 -58 57c0 33 23 57 58 57
s59 -24 59 -61c0 -39 -30 -90 -90 -151z" />
    <glyph glyph-name="Tbar" unicode="&#x166;" horiz-adv-x="693" 
d="M256 350h-113v26h113v298h-151l-64 -115h-18v141h647v-141h-18l-64 115h-151v-298h113v-26h-113v-312l65 -22v-16h-311v16l65 22v312z" />
    <glyph glyph-name="tbar" unicode="&#x167;" horiz-adv-x="425" 
d="M71 314h-58v12l58 14v134h-58v12c84 24 156 71 215 140l17 -17v-109h155v-26h-155v-134h155v-26h-155v-171c0 -69 25 -103 76 -103c31 0 57 11 77 32l11 -12c-41 -43 -96 -65 -165 -65c-111 0 -173 59 -173 148v171z" />
    <glyph glyph-name="Utilde" unicode="&#x168;" horiz-adv-x="732" 
d="M720 688l-65 -22v-406c0 -83 -26 -148 -79 -196c-52 -47 -121 -71 -208 -71s-158 24 -212 72c-53 49 -80 114 -80 195v402l-65 22v16h311v-16l-65 -22v-402c0 -139 73 -205 182 -205c115 0 191 74 191 205v406l-65 22v12h155v-12zM214 757l-14 13c74 75 125 112 153 112
c12 0 32 -7 60 -22c29 -15 51 -22 66 -22c27 0 71 17 99 45l13 -13c-76 -76 -129 -114 -158 -114c-11 0 -32 7 -61 22s-52 23 -68 23c-31 0 -61 -15 -90 -44z" />
    <glyph glyph-name="utilde" unicode="&#x169;" horiz-adv-x="643" 
d="M572 491v-450l60 -15v-17l-217 -13l-17 17l3 54l-3 3c-47 -50 -103 -75 -168 -75c-100 0 -159 65 -159 149v312l-60 16v16l217 21l17 -18v-324c0 -80 23 -120 69 -120c31 0 59 16 84 47v362l-60 16v16l217 21zM139 566l-13 13c74 75 125 112 153 112c12 0 32 -8 60 -23
c29 -15 51 -22 66 -22c27 0 71 18 99 46l13 -13c-75 -76 -127 -114 -158 -114c-11 0 -32 7 -61 22s-52 23 -68 23c-31 0 -62 -15 -91 -44z" />
    <glyph glyph-name="Umacron" unicode="&#x16a;" horiz-adv-x="732" 
d="M720 688l-65 -22v-406c0 -83 -26 -148 -79 -196c-52 -47 -121 -71 -208 -71s-158 24 -212 72c-53 49 -80 114 -80 195v402l-65 22v16h311v-16l-65 -22v-402c0 -139 73 -205 182 -205c115 0 191 74 191 205v406l-65 22v12h155v-12zM533 789h-277v42h277v-42z" />
    <glyph glyph-name="umacron" unicode="&#x16b;" horiz-adv-x="643" 
d="M572 491v-450l60 -15v-17l-217 -13l-17 17l3 54l-3 3c-47 -50 -103 -75 -168 -75c-100 0 -159 65 -159 149v312l-60 16v16l217 21l17 -18v-324c0 -80 23 -120 69 -120c31 0 59 16 84 47v362l-60 16v16l217 21zM460 589h-277v42h277v-42z" />
    <glyph glyph-name="Ubreve" unicode="&#x16c;" horiz-adv-x="732" 
d="M720 688l-65 -22v-406c0 -83 -26 -148 -79 -196c-52 -47 -121 -71 -208 -71s-158 24 -212 72c-53 49 -80 114 -80 195v402l-65 22v16h311v-16l-65 -22v-402c0 -139 73 -205 182 -205c115 0 191 74 191 205v406l-65 22v12h155v-12zM441 820c0 47 26 74 67 74
c40 0 67 -26 67 -65c0 -78 -110 -98 -181 -98s-181 20 -181 98c0 39 27 65 67 65c41 0 67 -26 67 -74c0 -74 31 -74 47 -74s47 0 47 74z" />
    <glyph glyph-name="ubreve" unicode="&#x16d;" horiz-adv-x="643" 
d="M572 491v-450l60 -15v-17l-217 -13l-17 17l3 54l-3 3c-47 -50 -103 -75 -168 -75c-100 0 -159 65 -159 149v312l-60 16v16l217 21l17 -18v-324c0 -80 23 -120 69 -120c31 0 59 16 84 47v362l-60 16v16l217 21zM363 629c0 47 27 74 67 74c41 0 68 -26 68 -65
c0 -25 -11 -45 -32 -61c-43 -31 -94 -38 -150 -38c-27 0 -54 2 -79 7s-49 16 -70 31c-21 16 -32 36 -32 61c0 39 27 65 68 65c40 0 67 -27 67 -74c0 -74 31 -74 46 -74c19 -2 43 2 47 74z" />
    <glyph glyph-name="Uring" unicode="&#x16e;" horiz-adv-x="732" 
d="M720 688l-65 -22v-406c0 -83 -26 -148 -79 -196c-52 -47 -121 -71 -208 -71s-158 24 -212 72c-53 49 -80 114 -80 195v402l-65 22v16h311v-16l-65 -22v-402c0 -139 73 -205 182 -205c115 0 191 74 191 205v406l-65 22v12h155v-12zM393 894c53 0 89 -31 89 -83
s-36 -84 -89 -84c-52 0 -87 32 -87 84s35 83 87 83zM361 811c-4 -76 68 -76 65 0c3 77 -69 77 -65 0z" />
    <glyph glyph-name="uring" unicode="&#x16f;" horiz-adv-x="643" 
d="M572 491v-450l60 -15v-17l-217 -13l-17 17l3 54l-3 3c-47 -50 -103 -75 -168 -75c-100 0 -159 65 -159 149v312l-60 16v16l217 21l17 -18v-324c0 -80 23 -120 69 -120c31 0 59 16 84 47v362l-60 16v16l217 21zM314 703c53 0 89 -31 89 -83s-36 -84 -89 -84
c-52 0 -87 32 -87 84s35 83 87 83zM281 620c-3 -76 69 -76 66 0c0 76 -66 76 -66 0z" />
    <glyph glyph-name="Uhungarumlaut" unicode="&#x170;" horiz-adv-x="732" 
d="M720 688l-65 -22v-406c0 -83 -26 -148 -79 -196c-52 -47 -121 -71 -208 -71s-158 24 -212 72c-53 49 -80 114 -80 195v402l-65 22v16h311v-16l-65 -22v-402c0 -139 73 -205 182 -205c115 0 191 74 191 205v406l-65 22v12h155v-12zM212 728l-11 10l124 171l90 -90z
M404 728l-11 10l125 171l89 -90z" />
    <glyph glyph-name="uhungarumlaut" unicode="&#x171;" horiz-adv-x="643" 
d="M572 491v-450l60 -15v-17l-217 -13l-17 17l3 54l-3 3c-47 -50 -103 -75 -168 -75c-100 0 -159 65 -159 149v312l-60 16v16l217 21l17 -18v-324c0 -80 23 -120 69 -120c31 0 59 16 84 47v362l-60 16v16l217 21zM132 536l-11 11l125 171l89 -91zM324 536l-11 11l125 171
l89 -91z" />
    <glyph glyph-name="Uogonek" unicode="&#x172;" horiz-adv-x="732" 
d="M477 -172l6 -6c-39 -39 -75 -58 -108 -58c-37 0 -56 21 -56 62c0 61 34 118 102 171c-15 -3 -33 -4 -53 -4c-87 0 -158 24 -212 72c-53 49 -80 114 -80 195v402l-65 22v16h311v-16l-65 -22v-402c0 -139 73 -205 182 -205c115 0 191 74 191 205v406l-65 22v12h155v-12
l-65 -22v-406c0 -141 -83 -237 -218 -261c-33 -48 -55 -112 -55 -149c0 -27 13 -41 40 -41c24 0 42 6 55 19z" />
    <glyph glyph-name="uogonek" unicode="&#x173;" horiz-adv-x="643" 
d="M623 -166l6 -5c-37 -39 -73 -58 -108 -58c-37 0 -55 21 -55 62c0 63 35 120 104 172l-155 -9l-17 17l3 54l-3 3c-47 -50 -103 -75 -168 -75c-100 0 -159 65 -159 149v312l-60 16v16l217 21l17 -18v-324c0 -80 23 -120 69 -120c31 0 59 16 84 47v362l-60 16v16l217 21
l17 -18v-450l60 -15v-17l-49 -3c-32 -47 -54 -110 -54 -149c0 -28 13 -42 39 -42c24 0 42 6 55 19z" />
    <glyph glyph-name="Wcircumflex" unicode="&#x174;" horiz-adv-x="1222" 
d="M868 0h-50l-210 490l-205 -490h-50l-285 662l-65 22v16h316v-16l-66 -22l203 -484l138 343l-61 141l-65 22v16h316v-16l-66 -22l203 -484l198 484l-92 22v16h192v-16l-72 -22zM483 738l137 171h25l137 -171l-11 -10l-139 74l-139 -74z" />
    <glyph glyph-name="wcircumflex" unicode="&#x175;" horiz-adv-x="916" 
d="M652 0h-57l-134 318l-137 -318h-58l-201 462l-60 22v16h287v-16l-49 -22l123 -307l82 195l-48 112l-49 22v16h288v-16l-61 -22l114 -307l123 307l-87 22v16h182v-16l-67 -22zM351 547l137 171h26l137 -171l-11 -11l-139 75l-139 -75z" />
    <glyph glyph-name="Ycircumflex" unicode="&#x176;" horiz-adv-x="738" 
d="M319 684l-65 -22l186 -319l190 319l-86 22v16h191v-16l-77 -22l-208 -349v-275l64 -22v-16h-310v16l65 22v275l-206 349l-60 22v16h316v-16zM221 738l137 171h25l137 -171l-11 -10l-139 74l-138 -74z" />
    <glyph glyph-name="ycircumflex" unicode="&#x177;" horiz-adv-x="604" 
d="M286 -19l-221 481l-60 22v16h298v-16l-60 -22l130 -289l131 289l-87 22v16h182v-16l-67 -22l-211 -462c-17 -37 -31 -66 -42 -85c-10 -20 -22 -40 -37 -61c-29 -43 -59 -57 -98 -57c-49 0 -99 26 -99 87c0 45 27 70 70 70c44 0 71 -27 71 -75v-34c2 -1 5 -1 9 -1
c23 0 42 34 91 137zM159 547l137 171h25l137 -171l-11 -11l-139 75l-138 -75z" />
    <glyph glyph-name="Ydieresis" unicode="&#x178;" horiz-adv-x="738" 
d="M319 684l-65 -22l186 -319l190 319l-86 22v16h191v-16l-77 -22l-208 -349v-275l64 -22v-16h-310v16l65 22v275l-206 349l-60 22v16h316v-16zM192 754c-15 16 -23 36 -23 61s8 45 23 60c16 16 36 24 61 24s45 -8 60 -24c16 -15 24 -35 24 -60s-8 -45 -24 -61
c-15 -15 -35 -23 -60 -23s-45 8 -61 23zM486 899c51 0 84 -35 84 -84s-35 -84 -84 -84s-84 35 -84 84s35 84 84 84z" />
    <glyph glyph-name="Zacute" unicode="&#x179;" horiz-adv-x="617" 
d="M593 0h-564v15l369 659h-274l-67 -115h-19v141h548v-15l-368 -659h289l67 114h19v-140zM225 728l-11 10l139 171l90 -90z" />
    <glyph glyph-name="zacute" unicode="&#x17a;" horiz-adv-x="493" 
d="M465 0h-441v15l261 466h-186l-46 -104h-19v123h426v-15l-261 -466h201l46 104h19v-123zM163 536l-11 11l139 171l90 -91z" />
    <glyph glyph-name="Zdotaccent" unicode="&#x17b;" horiz-adv-x="617" 
d="M593 0h-564v15l369 659h-274l-67 -115h-19v141h548v-15l-368 -659h289l67 114h19v-140zM219 830c0 52 37 89 90 89c52 0 89 -37 89 -89c0 -53 -37 -90 -89 -90c-53 0 -90 37 -90 90z" />
    <glyph glyph-name="zdotaccent" unicode="&#x17c;" horiz-adv-x="493" 
d="M465 0h-441v15l261 466h-186l-46 -104h-19v123h426v-15l-261 -466h201l46 104h19v-123zM247 727c52 0 89 -36 89 -89s-37 -89 -89 -89c-53 0 -90 36 -90 89s37 89 90 89z" />
    <glyph glyph-name="Zcaron" unicode="&#x17d;" horiz-adv-x="617" 
d="M593 0h-564v15l369 659h-274l-67 -115h-19v141h548v-15l-368 -659h289l67 114h19v-140zM458 899l-137 -171h-25l-137 171l11 10l138 -74l139 74z" />
    <glyph glyph-name="zcaron" unicode="&#x17e;" horiz-adv-x="493" 
d="M465 0h-441v15l261 466h-186l-46 -104h-19v123h426v-15l-261 -466h201l46 104h19v-123zM396 707l-137 -171h-25l-137 171l10 11l139 -75l139 75z" />
    <glyph glyph-name="longs" unicode="&#x17f;" horiz-adv-x="477" 
d="M11 486l60 23v43c0 115 73 172 218 172c30 0 57 -3 81 -8c48 -9 92 -42 92 -93c0 -43 -25 -72 -68 -72c-48 0 -82 34 -82 93v59c-5 3 -11 5 -18 5c-33 0 -49 -52 -49 -156v-514l90 -22v-16h-324v16l60 22v436h-60v12z" />
    <glyph glyph-name="uni018F" unicode="&#x18f;" horiz-adv-x="734" 
d="M94 588l-12 13c68 70 155 105 260 105c108 0 194 -32 258 -96c65 -64 97 -150 97 -258c0 -109 -33 -196 -98 -261s-149 -98 -252 -98c-90 0 -164 25 -222 74c-58 50 -87 115 -87 195c0 21 2 39 7 56l23 23h439c0 212 -77 318 -231 318c-76 0 -137 -24 -182 -71zM346 11
c99 0 160 102 161 315l-292 -32c0 -205 43 -283 131 -283z" />
    <glyph glyph-name="florin" unicode="&#x192;" horiz-adv-x="429" 
d="M-34 -130l-12 -54c33 0 59 61 91 216l94 442h-75l3 12l80 23l9 43c25 115 111 172 257 172c47 0 85 -7 115 -22c31 -15 42 -39 35 -74c-9 -41 -40 -70 -83 -70c-48 0 -75 35 -62 94l10 51c-5 3 -10 5 -16 5c-33 0 -60 -52 -82 -156l-11 -52h154l-6 -26h-154l-94 -442
c-32 -153 -130 -237 -279 -237c-88 0 -127 31 -116 84c9 44 46 73 87 73c43 0 64 -31 55 -82z" />
    <glyph glyph-name="uni01DD" unicode="&#x1dd;" horiz-adv-x="570" 
d="M41 232l17 17h306c-1 137 -46 210 -162 210c-50 0 -94 -20 -133 -59l-12 12c60 60 122 92 218 92c168 0 264 -99 264 -251c0 -79 -25 -141 -74 -188s-112 -70 -189 -70c-69 0 -126 18 -172 55c-45 37 -68 84 -68 143c0 15 2 28 5 39zM272 10c51 0 91 71 92 224l-163 -21
c0 -135 24 -203 71 -203z" />
    <glyph glyph-name="Aringacute" unicode="&#x1fa;" horiz-adv-x="774" 
d="M301 778c0 51 36 83 88 83s89 -32 89 -83c0 -42 -20 -69 -59 -80l287 -660l64 -22v-16h-315v16l65 22l-75 176h-264l-77 -176l91 -22v-16h-192v16l73 22l289 658c-40 8 -64 38 -64 82zM434 240l-120 282l-122 -282h242zM286 841l-10 11l138 171l90 -91zM356 778
c0 -36 13 -58 33 -58c19 0 32 22 32 58c4 76 -68 76 -65 0z" />
    <glyph glyph-name="aringacute" unicode="&#x1fb;" horiz-adv-x="588" 
d="M346 64l-3 3c-52 -49 -110 -73 -175 -73c-85 0 -132 43 -132 118c4 47 14 76 55 99c15 8 29 14 41 19s30 11 55 17s46 11 63 14l77 15l16 3v101c0 67 -26 108 -75 108c-13 0 -27 -4 -43 -13v-81c0 -64 -33 -99 -86 -99c-52 0 -87 33 -87 84c0 29 11 54 34 73
c47 40 109 51 184 51c159 0 246 -63 246 -156v-298c0 -13 7 -20 21 -20c13 0 24 4 32 12l9 -9c-23 -23 -69 -35 -136 -35c-55 0 -88 15 -96 67zM343 92v171c-21 -3 -36 -6 -44 -8c-7 -1 -18 -4 -32 -9c-14 -4 -23 -9 -28 -14c-15 -15 -34 -47 -30 -104c0 -54 17 -81 52 -81
c28 0 55 15 82 45zM183 608c0 51 36 83 88 83s89 -32 89 -83c0 -52 -36 -84 -89 -84s-88 32 -88 84zM238 608c0 -36 13 -58 33 -58c19 0 32 22 32 58c4 76 -68 76 -65 0zM168 678l-10 11l138 170l90 -90z" />
    <glyph glyph-name="AEacute" unicode="&#x1fc;" horiz-adv-x="828" 
d="M321 12l64 18l-28 184h-178l-75 -176l91 -22v-16h-192v16l73 22l288 662h418v-141h-19l-63 115h-244l46 -300h150l27 87h18v-201h-18l-27 88h-146l51 -322h153l63 114h19v-140h-471v12zM354 240l-43 282l-121 -282h164zM386 728l-11 10l139 171l89 -90z" />
    <glyph glyph-name="aeacute" unicode="&#x1fd;" horiz-adv-x="837" 
d="M343 67c-52 -49 -110 -73 -175 -73c-85 0 -132 41 -132 110c0 46 23 80 69 102c33 16 105 34 217 54h1h1l1 1h1h1h1h1l1 1h1h1h1h1h1l1 1h1h1h1h1l1 1h1h1v116c0 67 -26 108 -75 108c-13 0 -27 -4 -43 -13v-81c0 -64 -33 -99 -86 -99c-52 0 -87 33 -87 84
c0 43 21 74 64 94s94 30 152 30c63 0 114 -12 153 -36c40 25 86 37 139 37c69 0 126 -18 171 -55c46 -37 69 -84 69 -143c0 -15 -2 -28 -5 -39l-17 -17h-279v-128c23 -55 70 -82 140 -82c53 0 99 20 138 59l11 -12c-63 -61 -123 -92 -226 -92c-96 0 -169 24 -219 72zM343 90
v158c-31 -5 -52 -9 -64 -12c-11 -3 -24 -8 -38 -17c-27 -17 -32 -45 -32 -97c0 -50 17 -75 52 -75c28 0 55 14 82 43zM499 347v-80l137 19c0 135 -24 203 -71 203c-34 0 -59 -32 -74 -95c5 -16 8 -32 8 -47zM335 536l-11 11l139 171l89 -91z" />
    <glyph glyph-name="Oslashacute" unicode="&#x1fe;" horiz-adv-x="764" 
d="M150 73l-67 -73h-45l89 96c-59 65 -89 149 -89 253c0 108 32 194 95 259c64 65 147 98 249 98c92 0 169 -27 230 -81l69 75h45l-90 -98c60 -65 90 -150 90 -253c0 -108 -32 -194 -95 -259s-146 -97 -249 -97c-93 0 -171 27 -232 80zM537 349c0 49 -3 95 -8 136l-287 -312
c24 -110 71 -165 140 -165c97 0 155 106 155 341zM227 349c0 -49 3 -94 8 -135l287 312c-23 110 -69 165 -140 165c-96 0 -155 -107 -155 -342zM298 728l-11 10l139 171l90 -90z" />
    <glyph glyph-name="oslashacute" unicode="&#x1ff;" horiz-adv-x="587" 
d="M123 47l-45 -47h-47l66 69c-44 46 -66 106 -66 180c0 77 24 139 72 185c49 47 112 70 191 70c65 0 122 -17 169 -52l46 48h47l-68 -71c45 -47 68 -107 68 -180c0 -77 -24 -139 -73 -185c-48 -46 -111 -69 -189 -69c-69 0 -126 17 -171 52zM381 249c0 17 -1 39 -2 66
l-167 -174c12 -87 39 -131 82 -131c58 0 87 80 87 239zM206 249c0 -30 1 -51 2 -64l166 174c-11 87 -38 130 -80 130c-59 0 -88 -80 -88 -240zM210 536l-11 11l139 171l90 -91z" />
    <glyph glyph-name="Scommaaccent" unicode="&#x218;" horiz-adv-x="604" 
d="M55 5l-10 10v160h19c19 -65 57 -115 100 -136c44 -21 80 -30 117 -30c91 0 146 52 146 133c0 36 -11 62 -34 78c-22 17 -62 34 -120 51c-22 7 -39 12 -51 15c-24 8 -69 26 -90 39s-51 38 -66 62c-13 25 -24 61 -24 102c0 131 84 217 252 217c61 0 116 -14 167 -41l55 30
l10 -10v-160h-19c-17 64 -53 112 -92 135s-72 31 -105 31c-80 0 -128 -51 -128 -122c0 -33 10 -58 31 -73s57 -32 109 -49l57 -20l50 -21c21 -9 36 -17 47 -24c21 -15 54 -40 67 -65s24 -60 24 -101c0 -133 -89 -222 -276 -222c-67 0 -127 13 -180 40zM253 -250l-12 13
c32 32 48 57 48 75c0 4 -1 7 -4 10c-35 0 -58 22 -58 57c0 33 25 58 58 58s59 -23 59 -62c0 -40 -30 -90 -91 -151z" />
    <glyph glyph-name="scommaaccent" unicode="&#x219;" horiz-adv-x="456" 
d="M51 4l-10 10v116h26c22 -80 71 -120 148 -120c64 0 104 32 104 84c0 16 -5 29 -15 39c-19 21 -37 25 -94 41c-19 5 -31 9 -37 10l-34 12c-16 6 -27 11 -34 16c-12 9 -40 28 -49 47s-19 48 -19 81c0 100 60 164 195 164c48 0 92 -8 131 -25l25 17l10 -10v-113h-26
c-21 77 -67 116 -136 116c-59 0 -91 -32 -91 -77c0 -41 24 -54 96 -78c26 -8 45 -14 58 -19s29 -12 48 -22c20 -10 35 -20 44 -31c19 -21 36 -58 36 -103c0 -100 -66 -164 -211 -164c-54 0 -101 8 -141 25zM182 -250l-13 13c32 32 48 57 48 75c0 4 -1 7 -4 10
c-35 0 -58 22 -58 57c0 33 25 58 58 58s59 -23 59 -62s-30 -90 -90 -151z" />
    <glyph glyph-name="uni021A" unicode="&#x21a;" horiz-adv-x="693" 
d="M652 559l-64 115h-151v-636l65 -22v-16h-311v16l65 22v636h-151l-64 -115h-18v141h647v-141h-18zM314 -250l-12 13c32 32 48 57 48 75c0 4 -1 7 -4 10c-35 0 -58 22 -58 57c0 33 23 58 58 58s59 -23 59 -62c0 -40 -30 -90 -91 -151z" />
    <glyph glyph-name="uni021B" unicode="&#x21b;" horiz-adv-x="425" 
d="M71 474h-58v12c84 24 156 71 215 140l17 -17v-109h155v-26h-155v-331c0 -69 25 -103 76 -103c31 0 57 11 77 32l11 -12c-41 -43 -96 -65 -165 -65c-111 0 -173 59 -173 148v331zM195 -250l-13 13c32 32 48 57 48 75c0 4 -1 7 -4 10c-35 0 -58 22 -58 57c0 33 23 58 58 58
s59 -23 59 -62s-30 -90 -90 -151z" />
    <glyph glyph-name="dotlessj" unicode="&#x237;" 
d="M71 32v424l-60 16v16l217 21l17 -18v-459c0 -104 -77 -172 -222 -237l-12 12c40 64 60 139 60 225z" />
    <glyph glyph-name="circumflex" unicode="&#x2c6;" horiz-adv-x="358" 
d="M29 547l137 171h25l137 -171l-10 -11l-140 75l-138 -75z" />
    <glyph glyph-name="caron" unicode="&#x2c7;" horiz-adv-x="358" 
d="M328 707l-137 -171h-25l-137 171l11 11l138 -75l140 75z" />
    <glyph glyph-name="breve" unicode="&#x2d8;" horiz-adv-x="490" 
d="M292 629c0 47 27 74 67 74s67 -26 67 -65c0 -25 -11 -45 -32 -61c-43 -31 -93 -38 -149 -38c-28 0 -55 2 -80 7s-48 16 -69 31c-21 16 -32 36 -32 61c0 39 27 65 67 65s67 -27 67 -74c0 -74 31 -74 47 -74s47 0 47 74z" />
    <glyph glyph-name="dotaccent" unicode="&#x2d9;" horiz-adv-x="305" 
d="M87 573c-16 17 -24 38 -24 65s8 48 24 64c17 17 38 25 65 25s48 -8 64 -25c17 -16 25 -37 25 -64s-8 -48 -25 -65c-16 -16 -37 -24 -64 -24s-48 8 -65 24z" />
    <glyph glyph-name="ring" unicode="&#x2da;" horiz-adv-x="242" 
d="M33 620c0 25 8 45 24 60s37 23 64 23s48 -8 64 -23c17 -15 25 -35 25 -60c0 -51 -36 -84 -89 -84c-52 0 -88 32 -88 84zM88 620c-3 -76 69 -76 65 0c0 36 -13 58 -32 58c-20 0 -33 -22 -33 -58z" />
    <glyph glyph-name="ogonek" unicode="&#x2db;" horiz-adv-x="182" 
d="M162 -172l5 -6c-39 -39 -75 -58 -108 -58c-37 0 -55 21 -55 62c0 62 35 120 106 174h12c-33 -48 -55 -113 -55 -150c0 -27 13 -41 39 -41c25 0 43 6 56 19z" />
    <glyph glyph-name="tilde" unicode="&#x2dc;" horiz-adv-x="443" 
d="M41 566l-13 13c43 43 75 73 97 88c23 16 41 24 56 24c12 0 32 -8 60 -23s50 -22 65 -22c27 0 71 18 99 46l13 -13c-75 -76 -127 -114 -158 -114c-11 0 -31 7 -61 22c-29 15 -52 23 -68 23c-31 0 -61 -15 -90 -44z" />
    <glyph glyph-name="hungarumlaut" unicode="&#x2dd;" horiz-adv-x="465" 
d="M40 536l-11 11l125 171l89 -91zM232 536l-11 11l125 171l90 -91z" />
    <glyph glyph-name="uni0400" unicode="&#x400;" horiz-adv-x="633" 
d="M257 348v-322h258l63 114h19v-140h-586v12l65 18v640l-65 18v12h576v-141h-19l-63 115h-248v-300h199l28 87h18v-201h-18l-28 88h-199zM182 819l89 90l139 -171l-11 -10z" />
    <glyph glyph-name="afii10023" unicode="&#x401;" horiz-adv-x="633" 
d="M257 348v-322h258l63 114h19v-140h-586v12l65 18v640l-65 18v12h576v-141h-19l-63 115h-248v-300h199l28 87h18v-201h-18l-28 88h-199zM116 824c0 51 33 84 84 84s84 -33 84 -84c0 -49 -35 -84 -84 -84s-84 35 -84 84zM349 824c0 51 35 84 84 84s84 -33 84 -84
c0 -49 -35 -84 -84 -84s-84 35 -84 84z" />
    <glyph glyph-name="afii10051" unicode="&#x402;" horiz-adv-x="847" 
d="M585 -115v-55c33 0 46 61 46 216v181c0 101 -30 152 -89 152c-37 0 -72 -16 -105 -47v-294l58 -22v-16h-304v16l65 22v636h-155l-63 -115h-19v141h655v-141h-19l-63 115h-155v-255l-3 -59l3 -3c31 23 66 41 105 54c40 14 77 21 110 21c104 0 160 -76 160 -176v-210
c0 -152 -82 -237 -234 -237c-91 0 -136 28 -136 84c0 44 30 73 71 73c44 0 72 -32 72 -81z" />
    <glyph glyph-name="afii10052" unicode="&#x403;" horiz-adv-x="590" 
d="M216 728l-11 10l139 171l90 -90zM483 674h-226v-636l95 -22v-16h-341v16l65 22v632l-65 18v12h554v-141h-18z" />
    <glyph glyph-name="afii10053" unicode="&#x404;" horiz-adv-x="695" 
d="M646 112l13 -13c-69 -71 -158 -106 -266 -106s-194 32 -259 96c-64 65 -96 151 -96 260s32 195 96 260c65 65 150 97 256 97c77 0 141 -16 191 -47l63 28l10 -10v-158h-19c-33 105 -101 157 -204 157c-133 0 -200 -95 -204 -304h313v-26h-313c3 -196 70 -306 234 -306
c77 0 139 24 185 72z" />
    <glyph glyph-name="afii10054" unicode="&#x405;" horiz-adv-x="602" 
d="M55 5l-10 10v160h19c19 -65 57 -115 100 -136c44 -21 80 -30 117 -30c91 0 146 52 146 133c0 36 -11 62 -34 78c-22 17 -62 34 -120 51c-22 7 -39 12 -51 15c-24 8 -69 26 -90 39s-51 38 -66 62c-13 25 -24 61 -24 102c0 131 84 217 252 217c61 0 116 -14 167 -41l55 30
l10 -10v-160h-19c-17 64 -53 112 -92 135s-72 31 -105 31c-80 0 -128 -51 -128 -122c0 -33 10 -58 31 -73s57 -32 109 -49l57 -20l50 -21c21 -9 36 -17 47 -24c21 -15 54 -40 67 -65s24 -60 24 -101c0 -133 -89 -222 -276 -222c-67 0 -127 13 -180 40z" />
    <glyph glyph-name="afii10055" unicode="&#x406;" horiz-adv-x="334" 
d="M319 684l-63 -22v-624l63 -22v-16h-306v16l65 22v624l-65 22v16h306v-16z" />
    <glyph glyph-name="afii10056" unicode="&#x407;" horiz-adv-x="334" 
d="M319 684l-63 -22v-624l63 -22v-16h-306v16l65 22v624l-65 22v16h306v-16zM63 899c49 0 84 -35 84 -84s-35 -84 -84 -84s-85 35 -85 84s34 84 85 84zM210 754c-15 16 -23 36 -23 61s8 45 23 60c16 16 36 24 61 24s45 -8 60 -24c16 -15 24 -35 24 -60s-8 -45 -24 -61
c-15 -15 -35 -23 -60 -23s-45 8 -61 23z" />
    <glyph glyph-name="afii10057" unicode="&#x408;" horiz-adv-x="334" 
d="M79 32v630l-65 22v16h305v-16l-64 -22v-630c0 -105 -78 -172 -227 -237l-12 12c42 67 63 142 63 225z" />
    <glyph glyph-name="afii10058" unicode="&#x409;" horiz-adv-x="1107" 
d="M211 129l53 541l-65 18v12h548v-12l-65 -18v-281h109c83 0 151 -18 202 -53s77 -82 77 -142c0 -59 -26 -106 -77 -141s-119 -53 -202 -53h-355v12l65 18v644h-215l-50 -540c-9 -93 -47 -139 -114 -139c-53 0 -101 26 -101 89c0 49 29 77 73 77c48 0 77 -30 77 -82v-27
c1 -1 4 -1 7 -1c13 0 28 29 33 78zM682 363v-337h78c79 0 128 53 128 168c0 116 -49 169 -128 169h-78z" />
    <glyph glyph-name="afii10059" unicode="&#x40a;" horiz-adv-x="1122" 
d="M11 0v16l65 22v624l-65 22v16h311v-16l-65 -22v-283h259v283l-65 22v16h310v-16l-65 -22v-283h110c83 0 150 -17 201 -52c51 -34 77 -80 77 -138c0 -57 -26 -103 -77 -138c-51 -34 -118 -51 -201 -51h-355v12l65 18v323h-259v-315l65 -22v-16h-311zM696 353v-327h78
c85 0 128 54 128 163s-43 164 -128 164h-78z" />
    <glyph glyph-name="afii10060" unicode="&#x40b;" horiz-adv-x="888" 
d="M437 332v-294l58 -22v-16h-304v16l65 22v636h-155l-63 -115h-19v141h655v-141h-19l-63 115h-155v-255l-3 -59l3 -3c31 23 66 41 105 54c40 14 77 21 110 21c104 0 160 -75 160 -178v-216l65 -22v-16h-311v16l65 22v194c0 98 -30 147 -89 147c-37 0 -72 -16 -105 -47z" />
    <glyph glyph-name="afii10061" unicode="&#x40c;" horiz-adv-x="748" 
d="M725 46l11 -10c-28 -29 -71 -43 -129 -43c-100 0 -143 50 -162 145l-18 94c-17 84 -45 116 -121 116h-51v-310l65 -22v-16h-310v16l65 22v624l-65 22v16h310v-16l-65 -22v-291c77 0 124 38 143 114l17 73c21 95 62 149 147 149c63 0 105 -29 105 -89
c0 -49 -26 -77 -73 -77c-49 0 -76 31 -76 82v38c-7 3 -11 4 -14 4c-25 0 -46 -35 -62 -106l-18 -74c-13 -55 -39 -94 -77 -115h30c135 0 200 -40 221 -137l19 -89c17 -80 33 -114 66 -114c14 0 28 5 42 16zM292 728l-11 10l139 171l89 -90z" />
    <glyph glyph-name="uni040D" unicode="&#x40d;" horiz-adv-x="787" 
d="M259 819l90 90l139 -171l-11 -10zM11 0v16l65 22v624l-65 22v16h311v-16l-65 -22v-538l273 523v15l-65 22v16h311v-16l-65 -22v-624l65 -22v-16h-311v16l65 22v539l-273 -523v-16l65 -22v-16h-311z" />
    <glyph glyph-name="afii10062" unicode="&#x40e;" horiz-adv-x="703" 
d="M416 754v66c0 47 26 74 67 74c40 0 67 -26 67 -65c0 -78 -110 -98 -181 -98s-181 20 -181 98c0 39 26 65 67 65s67 -27 67 -74v-66c31 -11 63 -11 94 0zM327 169l-256 493l-65 22v16h316v-16l-66 -22l164 -327l176 327l-91 22v16h192v-16l-73 -22l-260 -480
c-19 -35 -34 -62 -45 -80c-11 -17 -24 -36 -41 -56c-33 -40 -67 -53 -112 -53c-57 0 -111 24 -111 91c0 49 30 77 74 77c45 0 75 -31 75 -79v-47c2 -1 5 -1 9 -1c29 0 67 45 114 135z" />
    <glyph glyph-name="afii10145" unicode="&#x40f;" horiz-adv-x="779" 
d="M374 -159l-33 159h-330v12l65 18v632l-65 22v16h311v-16l-65 -22v-636h264v636l-65 22v16h311v-16l-65 -22v-632l65 -18v-12h-328l-33 -159h-32z" />
    <glyph glyph-name="afii10017" unicode="&#x410;" horiz-adv-x="774" 
d="M367 700h51l288 -662l64 -22v-16h-315v16l65 22l-75 176h-264l-77 -176l91 -22v-16h-192v16l73 22zM434 240l-120 282l-122 -282h242z" />
    <glyph glyph-name="afii10018" unicode="&#x411;" horiz-adv-x="678" 
d="M492 674h-235v-270h105c83 0 150 -18 201 -55c51 -36 77 -85 77 -147c0 -61 -26 -110 -77 -147s-118 -55 -201 -55h-351v12l65 18v640l-65 18v12h563v-141h-18zM257 379v-353h73c85 0 128 59 128 176c0 118 -43 177 -128 177h-73z" />
    <glyph glyph-name="afii10019" unicode="&#x412;" horiz-adv-x="699" 
d="M11 688v12h365c77 0 140 -16 187 -48c48 -31 72 -74 72 -127c0 -84 -64 -144 -168 -165c120 -20 194 -85 194 -176c0 -56 -26 -101 -79 -134c-52 -33 -121 -50 -206 -50h-365v12l65 18v640zM257 346v-320h87c90 0 135 53 135 160s-45 160 -135 160h-87zM344 674h-87v-302
h87c73 0 109 50 109 151s-36 151 -109 151z" />
    <glyph glyph-name="afii10020" unicode="&#x413;" horiz-adv-x="590" 
d="M483 674h-226v-636l95 -22v-16h-341v16l65 22v632l-65 18v12h554v-141h-18z" />
    <glyph glyph-name="afii10021" unicode="&#x414;" horiz-adv-x="735" 
d="M688 -159l-67 159h-508l-67 -159h-33v185h86c26 11 42 45 49 103l52 541l-65 18v12h582v-12l-65 -18v-644h69v-185h-33zM471 674h-243l-51 -540c-5 -51 -17 -87 -38 -108h332v648z" />
    <glyph glyph-name="afii10022" unicode="&#x415;" horiz-adv-x="633" 
d="M257 348v-322h258l63 114h19v-140h-586v12l65 18v640l-65 18v12h576v-141h-19l-63 115h-248v-300h199l28 87h18v-201h-18l-28 88h-199z" />
    <glyph glyph-name="afii10024" unicode="&#x416;" horiz-adv-x="1121" 
d="M221 661v-38c0 -51 -27 -82 -76 -82c-47 0 -74 28 -74 77c0 60 42 89 105 89c81 0 118 -50 142 -149l18 -73c20 -76 65 -114 134 -114v291l-65 22v16h310v-16l-65 -22v-291c69 0 114 38 134 114l18 73c25 99 62 149 142 149c63 0 105 -29 105 -89c0 -49 -27 -77 -74 -77
c-48 0 -76 31 -76 82v38c-5 3 -9 4 -11 4c-23 0 -43 -35 -61 -106l-18 -74c-15 -56 -39 -94 -74 -115h31c132 0 195 -39 215 -143l16 -83c16 -81 31 -114 62 -114c14 0 28 5 41 16l10 -10c-27 -29 -68 -43 -123 -43c-96 0 -139 52 -155 145l-15 87c-15 89 -42 123 -118 123
h-49v-310l65 -22v-16h-310v16l65 22v310h-49c-76 0 -103 -34 -118 -123l-15 -87c-15 -92 -59 -145 -155 -145c-55 0 -96 14 -123 43l10 10c13 -11 27 -16 41 -16c31 0 46 33 62 114l16 83c20 104 82 143 215 143h30c-34 21 -58 59 -72 115l-19 74c-18 71 -38 106 -61 106
c-2 0 -6 -1 -11 -4z" />
    <glyph glyph-name="afii10025" unicode="&#x417;" horiz-adv-x="624" 
d="M77 532h-19v151l10 10l63 -21c45 23 102 34 171 34c77 0 139 -16 186 -49c47 -32 71 -76 71 -131c0 -84 -61 -143 -164 -166c117 -21 191 -84 191 -177c0 -57 -26 -103 -78 -138c-51 -35 -119 -52 -202 -52c-77 0 -140 13 -189 39l-62 -24l-10 10v154h18
c39 -121 134 -148 197 -148c96 0 144 54 144 162c0 115 -53 160 -156 160c-23 0 -51 -1 -83 -3v33c29 -3 56 -4 83 -4c85 0 129 43 129 152c0 101 -39 152 -117 152c-51 0 -144 -20 -183 -144z" />
    <glyph glyph-name="afii10026" unicode="&#x418;" horiz-adv-x="787" 
d="M11 0v16l65 22v624l-65 22v16h311v-16l-65 -22v-538l273 523v15l-65 22v16h311v-16l-65 -22v-624l65 -22v-16h-311v16l65 22v539l-273 -523v-16l65 -22v-16h-311z" />
    <glyph glyph-name="afii10027" unicode="&#x419;" horiz-adv-x="787" 
d="M440 762v67c0 47 27 74 67 74c41 0 68 -26 68 -65c0 -25 -11 -45 -32 -61c-43 -31 -94 -38 -149 -38c-28 0 -55 2 -80 7s-48 16 -69 31c-21 16 -32 36 -32 61c0 39 27 65 67 65s67 -27 67 -74v-67c15 -5 30 -7 47 -7c16 0 31 2 46 7zM11 0v16l65 22v624l-65 22v16h311
v-16l-65 -22v-538l273 523v15l-65 22v16h311v-16l-65 -22v-624l65 -22v-16h-311v16l65 22v539l-273 -523v-16l65 -22v-16h-311z" />
    <glyph glyph-name="afii10028" unicode="&#x41a;" horiz-adv-x="746" 
d="M725 46l11 -10c-28 -29 -71 -43 -129 -43c-100 0 -143 50 -162 145l-18 94c-17 84 -45 116 -121 116h-51v-310l65 -22v-16h-310v16l65 22v624l-65 22v16h310v-16l-65 -22v-291c77 0 124 38 143 114l17 73c21 95 62 149 147 149c63 0 105 -29 105 -89
c0 -49 -26 -77 -73 -77c-49 0 -76 31 -76 82v38c-7 3 -11 4 -14 4c-25 0 -46 -35 -62 -106l-18 -74c-13 -55 -39 -94 -77 -115h30c135 0 200 -40 221 -137l19 -89c17 -80 33 -114 66 -114c14 0 28 5 42 16z" />
    <glyph glyph-name="afii10029" unicode="&#x41b;" horiz-adv-x="773" 
d="M211 129l53 541l-65 18v12h563v-12l-65 -18v-632l65 -22v-16h-311v16l65 22v636h-225l-50 -540c-9 -93 -52 -139 -119 -139c-53 0 -101 26 -101 89c0 49 29 77 73 77c48 0 77 -30 77 -82v-27c1 -1 4 -1 7 -1c13 0 28 29 33 78z" />
    <glyph glyph-name="afii10030" unicode="&#x41c;" horiz-adv-x="967" 
d="M918 684l-63 -22l42 -624l64 -22v-16h-309v16l65 22l-37 528l-245 -566h-50l-250 567l-38 -533l64 -22v-12h-155v12l65 22l43 628l-65 22v16h213l225 -522l224 522h207v-16z" />
    <glyph glyph-name="afii10031" unicode="&#x41d;" horiz-adv-x="785" 
d="M11 0v16l65 22v624l-65 22v16h311v-16l-65 -22v-293h271v293l-65 22v16h311v-16l-65 -22v-624l65 -22v-16h-311v16l65 22v305h-271v-305l65 -22v-16h-311z" />
    <glyph glyph-name="afii10032" unicode="&#x41e;" horiz-adv-x="764" 
d="M133 90c-63 65 -95 151 -95 259s32 194 95 259c64 65 147 98 249 98s185 -33 248 -98c64 -65 96 -151 96 -259s-32 -194 -95 -259s-146 -97 -249 -97s-186 32 -249 97zM227 349c0 -233 59 -341 155 -341c97 0 155 106 155 341c0 228 -52 342 -155 342
c-96 0 -155 -107 -155 -342z" />
    <glyph glyph-name="afii10033" unicode="&#x41f;" horiz-adv-x="779" 
d="M11 0v16l65 22v632l-65 18v12h756v-12l-65 -18v-632l65 -22v-16h-311v16l65 22v636h-264v-636l65 -22v-16h-311z" />
    <glyph glyph-name="afii10034" unicode="&#x420;" horiz-adv-x="673" 
d="M328 674h-71v-636l106 -22v-16h-352v16l65 22v632l-65 18v12h334c85 0 154 -18 206 -55c53 -37 79 -86 79 -148s-26 -111 -79 -148c-52 -37 -121 -55 -206 -55h-56l-17 17v9h56c80 0 120 59 120 177s-40 177 -120 177z" />
    <glyph glyph-name="afii10035" unicode="&#x421;" horiz-adv-x="695" 
d="M646 111l13 -13c-69 -70 -157 -105 -265 -105c-109 0 -195 32 -260 96c-64 65 -96 151 -96 260s32 195 96 260c65 65 150 97 255 97c78 0 142 -16 192 -47l63 28l10 -10v-158h-19c-33 105 -102 157 -206 157c-135 0 -202 -106 -202 -318s78 -318 235 -318
c76 0 137 24 184 71z" />
    <glyph glyph-name="afii10036" unicode="&#x422;" horiz-adv-x="693" 
d="M666 559l-63 115h-152v-636l65 -22v-16h-311v16l65 22v636h-151l-63 -115h-19v141h648v-141h-19z" />
    <glyph glyph-name="afii10037" unicode="&#x423;" horiz-adv-x="703" 
d="M327 169l-256 493l-65 22v16h316v-16l-66 -22l164 -327l176 327l-91 22v16h192v-16l-73 -22l-260 -480c-19 -35 -34 -62 -45 -80c-11 -17 -24 -36 -41 -56c-33 -40 -67 -53 -112 -53c-57 0 -111 24 -111 91c0 49 30 77 74 77c45 0 75 -31 75 -79v-47c2 -1 5 -1 9 -1
c29 0 67 45 114 135z" />
    <glyph glyph-name="afii10038" unicode="&#x424;" horiz-adv-x="949" 
d="M629 684l-64 -22v-43c105 0 189 -24 252 -73s94 -114 94 -197s-31 -148 -94 -197c-63 -48 -147 -72 -252 -72v-42l64 -22v-16h-310v16l65 22v42c-105 0 -189 24 -252 72c-63 49 -94 114 -94 197s31 148 94 197s147 73 252 73v43l-65 22v16h310v-16zM384 95v509
c-105 0 -157 -85 -157 -255c0 -169 52 -254 157 -254zM565 604v-509c105 0 157 85 157 254c0 170 -52 255 -157 255z" />
    <glyph glyph-name="afii10039" unicode="&#x425;" horiz-adv-x="752" 
d="M432 16l65 22l-185 277l-197 -277l86 -22v-16h-191v16l77 22l211 298l-219 326l-60 22v16h310v-16l-65 -22l168 -254l167 254l-85 22v16h190v-16l-77 -22l-180 -276l235 -348l60 -22v-16h-310v16z" />
    <glyph glyph-name="afii10040" unicode="&#x426;" horiz-adv-x="784" 
d="M734 -159l-69 159h-654v12l65 18v632l-65 22v16h311v-16l-65 -22v-636h259v636l-65 22v16h311v-16l-65 -22v-636h70v-185h-33z" />
    <glyph glyph-name="afii10041" unicode="&#x427;" horiz-adv-x="745" 
d="M323 684l-66 -22v-188c0 -98 36 -147 109 -147c42 0 83 10 122 31v304l-65 22v16h311v-16l-65 -22v-624l65 -22v-16h-311v16l65 22v300c-57 -38 -126 -57 -205 -57c-133 0 -207 74 -207 175v206l-65 22v16h312v-16z" />
    <glyph glyph-name="afii10042" unicode="&#x428;" horiz-adv-x="1129" 
d="M11 0v12l65 18v632l-65 22v16h311v-16l-65 -22v-636h217v636l-65 22v16h311v-16l-65 -22v-636h217v636l-65 22v16h311v-16l-65 -22v-632l65 -18v-12h-1107z" />
    <glyph glyph-name="afii10043" unicode="&#x429;" horiz-adv-x="1139" 
d="M1089 -159l-68 159h-1010v12l65 18v632l-65 22v16h311v-16l-65 -22v-636h217v636l-65 22v16h311v-16l-65 -22v-636h217v636l-65 22v16h311v-16l-65 -22v-636h69v-185h-33z" />
    <glyph glyph-name="afii10044" unicode="&#x42a;" horiz-adv-x="854" 
d="M494 688l-65 -18v-281h109c83 0 150 -18 201 -53s77 -82 77 -142c0 -59 -26 -107 -77 -142s-118 -52 -201 -52h-355v12l65 18v644h-133l-63 -115h-19v141h461v-12zM429 363v-337h78c79 0 127 53 127 168c0 113 -42 169 -127 169h-78z" />
    <glyph glyph-name="afii10045" unicode="&#x42b;" horiz-adv-x="982" 
d="M322 684l-65 -22v-273h109c83 0 151 -18 202 -53s77 -82 77 -142c0 -59 -26 -106 -77 -141s-119 -53 -202 -53h-355v12l65 18v632l-65 22v16h311v-16zM257 363v-337h78c85 0 128 56 128 168c0 113 -43 169 -128 169h-78zM969 684l-63 -22v-624l63 -22v-16h-309v16l65 22
v624l-65 22v16h309v-16z" />
    <glyph glyph-name="afii10046" unicode="&#x42c;" horiz-adv-x="683" 
d="M322 684l-65 -22v-273h109c83 0 151 -18 202 -53s77 -82 77 -142c0 -59 -26 -106 -77 -141s-119 -53 -202 -53h-355v12l65 18v632l-65 22v16h311v-16zM257 363v-337h78c85 0 128 56 128 168c0 113 -43 169 -128 169h-78z" />
    <glyph glyph-name="afii10047" unicode="&#x42d;" horiz-adv-x="695" 
d="M478 346h-313v26h313c-3 209 -71 304 -204 304c-103 0 -171 -52 -204 -157h-19v158l10 10l63 -28c50 31 113 47 190 47c107 0 192 -32 256 -97c65 -65 97 -151 97 -259c0 -109 -32 -195 -97 -260c-64 -65 -149 -97 -256 -97c-81 0 -147 16 -197 47l-62 -27l-10 10v158h18
c13 -41 33 -74 59 -99c52 -49 97 -58 150 -58c136 0 205 95 206 322z" />
    <glyph glyph-name="afii10048" unicode="&#x42e;" horiz-adv-x="1052" 
d="M11 0v16l65 22v624l-65 22v16h311v-16l-65 -22v-293h107c4 103 36 184 95 245c60 61 137 92 230 92c97 0 175 -33 235 -98s90 -151 90 -259s-30 -194 -90 -259c-60 -64 -138 -96 -235 -96c-96 0 -174 31 -234 94c-59 63 -90 148 -91 255h-107v-305l65 -22v-16h-311z
M553 349c0 -233 52 -340 136 -340s136 107 136 340c0 235 -52 342 -136 342s-136 -107 -136 -342z" />
    <glyph glyph-name="afii10049" unicode="&#x42f;" horiz-adv-x="722" 
d="M10 36l10 10c13 -11 27 -16 41 -16c29 0 44 30 61 106l18 77c16 73 57 114 130 129c-116 23 -185 87 -185 175c0 56 26 100 77 133s120 50 205 50h344v-12l-65 -18v-632l65 -22v-16h-322v16l76 22v290h-39c-69 0 -96 -34 -113 -119l-17 -81c-19 -90 -73 -135 -162 -135
c-56 0 -97 14 -124 43zM465 354v320h-81c-78 0 -117 -53 -117 -160s39 -160 117 -160h81z" />
    <glyph glyph-name="afii10065" unicode="&#x430;" horiz-adv-x="588" 
d="M346 64l-3 3c-52 -49 -110 -73 -175 -73c-85 0 -132 43 -132 118c4 47 14 76 55 99c15 8 29 14 41 19s30 11 55 17s46 11 63 14l77 15l16 3v101c0 67 -26 108 -75 108c-13 0 -27 -4 -43 -13v-81c0 -64 -33 -99 -86 -99c-52 0 -87 33 -87 84c0 29 11 54 34 73
c47 40 109 51 184 51c159 0 246 -63 246 -156v-298c0 -13 7 -20 21 -20c13 0 24 4 32 12l9 -9c-23 -23 -69 -35 -136 -35c-55 0 -88 15 -96 67zM343 92v171c-21 -3 -36 -6 -44 -8c-7 -1 -18 -4 -32 -9c-14 -4 -23 -9 -28 -14c-15 -15 -34 -47 -30 -104c0 -54 17 -81 52 -81
c28 0 55 15 82 45z" />
    <glyph glyph-name="afii10066" unicode="&#x431;" horiz-adv-x="605" 
d="M123 427h4c43 51 105 77 187 77c77 0 140 -23 187 -70c48 -47 72 -109 72 -186s-24 -139 -72 -185c-47 -45 -111 -68 -191 -68c-165 0 -262 105 -262 337c0 475 402 337 466 397l16 -18c-45 -239 -402 -19 -407 -284zM227 249c0 -159 29 -239 86 -239s86 80 86 239
c0 160 -29 240 -86 240s-86 -80 -86 -240z" />
    <glyph glyph-name="afii10067" unicode="&#x432;" horiz-adv-x="586" 
d="M11 488v12h352c105 0 177 -48 177 -123c0 -61 -46 -104 -118 -119c87 -15 137 -60 137 -127c0 -80 -77 -131 -196 -131h-352v12l60 18v440zM299 246h-54v-224h54c57 0 85 37 85 112s-28 112 -85 112zM245 478v-209h54c44 0 66 35 66 105c0 69 -22 104 -66 104h-54z" />
    <glyph glyph-name="afii10068" unicode="&#x433;" horiz-adv-x="479" 
d="M438 377l-43 97h-150v-436l90 -22v-16h-324v16l60 22v432l-60 18v12h446v-123h-19z" />
    <glyph glyph-name="afii10069" unicode="&#x434;" horiz-adv-x="600" 
d="M553 -137l-59 137h-388l-58 -137h-30v163h64c25 8 48 51 55 103l43 341l-60 18v12h459v-12l-60 -18v-444h63v-163h-29zM345 474h-142l-42 -340c-6 -52 -20 -88 -43 -108h227v448z" />
    <glyph glyph-name="afii10070" unicode="&#x435;" horiz-adv-x="570" 
d="M529 267l-17 -17h-306c1 -137 47 -210 167 -210c53 0 98 20 137 59l12 -12c-61 -61 -135 -92 -222 -92c-85 0 -152 23 -199 68c-47 46 -70 107 -70 183c0 79 24 141 73 188s113 70 190 70c69 0 126 -18 171 -55c46 -37 69 -84 69 -143c0 -15 -2 -28 -5 -39zM299 489
c-52 0 -92 -71 -93 -224l164 21c0 135 -24 203 -71 203z" />
    <glyph glyph-name="afii10072" unicode="&#x436;" horiz-adv-x="896" 
d="M705 419v45c-2 1 -5 1 -8 1c-20 0 -34 -23 -43 -70l-11 -54c-7 -36 -24 -62 -50 -77h52c97 0 151 -36 162 -107l8 -53c9 -55 19 -76 36 -76c8 0 17 4 27 12l9 -8c-21 -23 -77 -37 -124 -37c-73 0 -97 37 -112 106l-12 69c-12 60 -30 79 -78 79h-26v-211l53 -22v-16h-287
v16l60 22v211h-26c-48 0 -66 -19 -77 -79l-13 -69c-13 -69 -39 -106 -112 -106c-47 0 -102 13 -123 37l9 8c9 -8 18 -12 27 -12c15 0 27 25 35 76l8 53c12 71 66 107 163 107h51c-26 15 -43 41 -50 77l-11 54c-9 47 -23 70 -42 70c-4 0 -7 0 -8 -1v-45
c0 -48 -28 -76 -73 -76c-44 0 -70 26 -70 74c0 63 45 89 101 89c63 0 102 -37 116 -111l10 -54c9 -41 37 -76 85 -76v197l-60 22v16h294v-16l-60 -22v-197c48 0 77 35 85 76l11 54c14 74 53 111 116 111c56 0 101 -26 101 -89c0 -48 -27 -74 -70 -74c-47 0 -73 28 -73 76z
" />
    <glyph glyph-name="afii10073" unicode="&#x437;" horiz-adv-x="517" 
d="M163 247v29c19 -3 38 -4 57 -4c55 0 78 28 78 104c0 74 -24 111 -72 111c-27 0 -54 -10 -82 -31s-47 -54 -56 -100h-26v130l10 10l25 -17c51 17 107 25 167 25c132 0 209 -49 209 -126c0 -59 -45 -102 -120 -117c85 -15 137 -60 137 -128c0 -87 -83 -138 -242 -138
c-57 0 -108 8 -151 25s-64 44 -64 81c0 41 28 71 71 71c45 0 76 -32 76 -93v-56c19 -7 35 -11 50 -11c57 0 86 41 86 124s-30 114 -94 114c-17 0 -37 -1 -59 -3z" />
    <glyph glyph-name="afii10074" unicode="&#x438;" horiz-adv-x="650" 
d="M11 0v16l60 22v424l-60 22v16h280v-16l-46 -22v-247l-3 -91l3 -3l160 325v16l-46 22v16h280v-16l-60 -22v-424l60 -22v-16h-280v16l46 22v247l3 91l-3 3l-160 -325v-16l46 -22v-16h-280z" />
    <glyph glyph-name="afii10075" unicode="&#x439;" horiz-adv-x="650" 
d="M372 562v67c0 47 27 74 67 74s67 -26 67 -65c0 -25 -11 -45 -32 -61c-43 -31 -93 -38 -149 -38c-28 0 -55 2 -80 7s-48 16 -69 31c-21 16 -32 36 -32 61c0 39 27 65 67 65s67 -27 67 -74v-67c32 -9 62 -9 94 0zM11 0v16l60 22v424l-60 22v16h280v-16l-46 -22v-247l-3 -91
l3 -3l160 325v16l-46 22v16h280v-16l-60 -22v-424l60 -22v-16h-280v16l46 22v247l3 91l-3 3l-160 -325v-16l46 -22v-16h-280z" />
    <glyph glyph-name="afii10076" unicode="&#x43a;" horiz-adv-x="617" 
d="M419 420v44c-1 1 -4 2 -8 2c-19 0 -34 -24 -44 -71l-11 -54c-7 -36 -24 -62 -51 -77h52c99 0 155 -36 167 -107l9 -53c8 -51 20 -76 36 -76c9 0 18 4 28 12l9 -8c-21 -24 -77 -37 -125 -37c-76 0 -100 37 -115 106l-13 69c-12 60 -31 79 -80 79h-28v-211l53 -22v-16h-287
v16l60 22v424l-60 22v16h294v-16l-60 -22v-197c49 0 80 36 88 76l10 54c14 74 53 111 118 111c56 0 102 -25 102 -88c0 -48 -27 -74 -70 -74c-47 0 -74 28 -74 76z" />
    <glyph glyph-name="afii10077" unicode="&#x43b;" horiz-adv-x="620" 
d="M189 129l32 341l-60 18v12h447v-12l-60 -18v-432l60 -22v-16h-278v16l44 22v436h-130l-31 -340c-9 -92 -49 -139 -112 -139c-48 0 -91 25 -91 85c0 45 26 71 67 71c44 0 71 -28 71 -73v-26c2 -1 5 -1 8 -1c13 0 28 29 33 78z" />
    <glyph glyph-name="afii10078" unicode="&#x43c;" horiz-adv-x="779" 
d="M747 484l-60 -22l24 -424l60 -22v-16h-294v16l60 22l-20 370l-179 -408h-43l-183 409l-21 -375l60 -22v-12h-143v12l60 22l24 428l-60 22v16h218l138 -324l143 324h216v-16z" />
    <glyph glyph-name="afii10079" unicode="&#x43d;" horiz-adv-x="647" 
d="M11 0v16l60 22v424l-60 22v16h278v-16l-44 -22v-193h157v193l-44 22v16h278v-16l-60 -22v-424l60 -22v-16h-278v16l44 22v205h-157v-205l44 -22v-16h-278z" />
    <glyph glyph-name="afii10080" unicode="&#x43e;" horiz-adv-x="587" 
d="M294 504c78 0 141 -23 189 -70c49 -46 73 -108 73 -185s-24 -139 -73 -185c-48 -46 -111 -69 -189 -69c-79 0 -142 23 -191 69c-48 46 -72 108 -72 185s24 139 72 185c49 47 112 70 191 70zM206 249c0 -159 29 -239 88 -239c58 0 87 80 87 239c0 160 -29 240 -87 240
c-59 0 -88 -80 -88 -240z" />
    <glyph glyph-name="afii10081" unicode="&#x43f;" horiz-adv-x="647" 
d="M11 0v16l60 22v432l-60 18v12h625v-12l-60 -18v-432l60 -22v-16h-278v16l44 22v436h-157v-436l44 -22v-16h-278z" />
    <glyph glyph-name="afii10082" unicode="&#x440;" horiz-adv-x="607" 
d="M335 -200h-324v16l60 22v618l-60 16v16l217 21l17 -18l-3 -56l3 -3c43 48 95 72 154 72c115 0 176 -95 176 -242c0 -171 -86 -267 -239 -267c-37 0 -68 6 -91 19v-176l90 -22v-16zM245 407v-379c20 -11 39 -17 57 -17c65 0 98 77 98 230c0 124 -29 210 -84 210
c-25 0 -49 -15 -71 -44z" />
    <glyph glyph-name="afii10083" unicode="&#x441;" horiz-adv-x="567" 
d="M348 380v95c-15 9 -31 13 -46 13c-63 0 -96 -78 -96 -210c0 -155 44 -239 159 -239c51 0 96 20 136 60l12 -12c-60 -60 -123 -92 -219 -92c-168 0 -263 97 -263 256c0 157 93 253 270 253c99 0 227 -32 227 -136c0 -55 -36 -87 -89 -87c-56 0 -91 36 -91 99z" />
    <glyph glyph-name="afii10084" unicode="&#x442;" horiz-adv-x="556" 
d="M515 377l-43 97h-107v-436l60 -22v-16h-294v16l60 22v436h-107l-43 -97h-18v123h510v-123h-18z" />
    <glyph glyph-name="afii10085" unicode="&#x443;" horiz-adv-x="604" 
d="M286 -19l-221 481l-60 22v16h298v-16l-60 -22l130 -289l131 289l-87 22v16h182v-16l-67 -22l-211 -462c-17 -37 -31 -66 -42 -85c-10 -20 -22 -40 -37 -61c-29 -43 -59 -57 -98 -57c-49 0 -99 26 -99 87c0 45 27 70 70 70c44 0 71 -27 71 -75v-34c2 -1 5 -1 9 -1
c23 0 42 34 91 137z" />
    <glyph glyph-name="afii10086" unicode="&#x444;" horiz-adv-x="852" 
d="M510 464l3 -3c33 30 76 45 131 45c119 0 177 -95 177 -242c0 -173 -81 -265 -230 -265c-30 0 -56 5 -78 14v-175l60 -22v-16h-294v16l60 22v158l3 34l-3 3c-30 -27 -73 -40 -129 -40c-120 0 -179 95 -179 242c0 173 83 265 235 265c25 0 50 -4 73 -13v189l-60 16v16
l217 21l17 -18v-207zM287 29c19 0 37 7 52 22v422c-15 7 -29 10 -42 10c-63 0 -91 -73 -91 -234c0 -137 28 -220 81 -220zM566 465c-20 0 -38 -7 -53 -22v-417c15 -7 30 -10 43 -10c61 0 90 72 90 235c0 143 -27 214 -80 214z" />
    <glyph glyph-name="afii10087" unicode="&#x445;" horiz-adv-x="603" 
d="M295 16l61 22l-118 173l-124 -173l81 -22v-16h-181v16l72 22l138 194l-153 230l-55 22v16h293v-16l-60 -22l107 -160l116 160l-80 22v16h180v-16l-72 -22l-129 -182l163 -242l55 -22v-16h-294v16z" />
    <glyph glyph-name="afii10088" unicode="&#x446;" horiz-adv-x="656" 
d="M608 -137l-58 137h-539v12l60 18v432l-60 22v16h278v-16l-44 -22v-436h156v436l-45 22v16h278v-16l-60 -22v-436h63v-163h-29z" />
    <glyph glyph-name="afii10089" unicode="&#x447;" horiz-adv-x="634" 
d="M288 484l-43 -22v-112c0 -79 22 -118 66 -118c27 0 53 10 78 31v199l-43 22v16h277v-16l-60 -22v-424l60 -22v-16h-294v16l60 22v205c-45 -38 -98 -57 -160 -57c-101 0 -158 62 -158 146v130l-60 22v16h277v-16z" />
    <glyph glyph-name="afii10090" unicode="&#x448;" horiz-adv-x="926" 
d="M376 26v436l-41 22v16h256v-16l-41 -22v-436h131v436l-41 22v16h275v-16l-60 -22v-432l60 -18v-12h-904v12l60 18v432l-60 22v16h275v-16l-41 -22v-436h131z" />
    <glyph glyph-name="afii10091" unicode="&#x449;" horiz-adv-x="936" 
d="M888 -137l-58 137h-819v12l60 18v432l-60 22v16h275v-16l-41 -22v-436h131v436l-41 22v16h256v-16l-41 -22v-436h131v436l-41 22v16h275v-16l-60 -22v-436h63v-163h-30z" />
    <glyph glyph-name="afii10092" unicode="&#x44a;" horiz-adv-x="684" 
d="M23 500h392v-16l-60 -22v-177h108c116 0 194 -56 194 -143s-78 -142 -194 -142h-341v12l60 18v444h-98l-43 -97h-18v123zM399 263h-44v-241h44c55 0 83 40 83 120c0 81 -28 121 -83 121z" />
    <glyph glyph-name="afii10093" unicode="&#x44b;" horiz-adv-x="853" 
d="M353 0h-342v12l60 18v432l-60 22v16h294v-16l-60 -22v-177h108c115 0 194 -56 194 -143s-78 -142 -194 -142zM289 263h-44v-241h44c55 0 83 40 83 120c0 81 -28 121 -83 121zM842 484l-60 -22v-424l60 -22v-16h-294v16l60 22v424l-60 22v16h294v-16z" />
    <glyph glyph-name="afii10094" unicode="&#x44c;" horiz-adv-x="574" 
d="M353 0h-342v12l60 18v432l-60 22v16h294v-16l-60 -22v-177h108c115 0 194 -56 194 -143s-78 -142 -194 -142zM289 263h-44v-241h44c55 0 83 40 83 120c0 81 -28 121 -83 121z" />
    <glyph glyph-name="afii10095" unicode="&#x44d;" horiz-adv-x="540" 
d="M334 244h-174v26h174c-3 145 -42 218 -115 218c-56 0 -116 -40 -135 -132h-26v130l10 10l25 -17c41 17 86 25 137 25c176 0 278 -99 278 -259c0 -156 -93 -250 -280 -250c-31 0 -61 3 -88 8c-55 12 -107 46 -107 98c0 41 28 72 71 72c47 0 76 -31 76 -92v-58
c18 -8 35 -12 50 -12c68 0 103 78 104 233z" />
    <glyph glyph-name="afii10096" unicode="&#x44e;" horiz-adv-x="852" 
d="M11 0v16l60 22v424l-60 22v16h278v-16l-44 -22v-194h68c4 72 29 129 75 172c47 43 106 64 179 64c75 0 136 -23 183 -70s71 -108 71 -185s-23 -139 -70 -185s-108 -69 -184 -69c-75 0 -136 22 -183 67s-71 105 -72 181h-67v-205l44 -22v-16h-278zM487 249
c0 -159 27 -239 80 -239s79 80 79 239c0 160 -26 240 -79 240s-80 -80 -80 -240z" />
    <glyph glyph-name="afii10097" unicode="&#x44f;" horiz-adv-x="617" 
d="M10 32l9 8c10 -8 19 -12 28 -12c16 0 22 15 34 60c1 7 3 12 4 15l13 46c15 54 56 86 125 96c-95 9 -157 58 -157 127c0 79 76 128 191 128h349v-12l-60 -18v-432l60 -22v-16h-294v16l60 22v196h-29c-48 0 -69 -20 -84 -77l-15 -57c-8 -35 -14 -51 -30 -74
c-16 -21 -42 -31 -82 -31c-47 0 -101 13 -122 37zM330 257h42v221h-42c-59 0 -89 -37 -89 -111c0 -73 30 -110 89 -110z" />
    <glyph glyph-name="uni0450" unicode="&#x450;" horiz-adv-x="570" 
d="M529 267l-17 -17h-306c1 -137 47 -210 167 -210c53 0 98 20 137 59l12 -12c-61 -61 -135 -92 -222 -92c-85 0 -152 23 -199 68c-47 46 -70 107 -70 183c0 79 24 141 73 188s113 70 190 70c69 0 126 -18 171 -55c46 -37 69 -84 69 -143c0 -15 -2 -28 -5 -39zM299 489
c-52 0 -92 -71 -93 -224l164 21c0 135 -24 203 -71 203zM162 627l90 91l139 -171l-11 -11z" />
    <glyph glyph-name="afii10071" unicode="&#x451;" horiz-adv-x="570" 
d="M529 267l-17 -17h-306c1 -137 47 -210 167 -210c53 0 98 20 137 59l12 -12c-61 -61 -135 -92 -222 -92c-85 0 -152 23 -199 68c-47 46 -70 107 -70 183c0 79 24 141 73 188s113 70 190 70c69 0 126 -18 171 -55c46 -37 69 -84 69 -143c0 -15 -2 -28 -5 -39zM299 489
c-52 0 -92 -71 -93 -224l164 21c0 135 -24 203 -71 203zM114 552c-15 16 -23 36 -23 61s8 45 23 60c16 16 36 24 61 24s45 -8 60 -24c16 -15 24 -35 24 -60s-8 -45 -24 -61c-15 -15 -35 -23 -60 -23s-45 8 -61 23zM347 552c-15 16 -23 36 -23 61s8 45 23 60
c16 16 36 24 61 24s45 -8 60 -24c16 -15 24 -35 24 -60s-8 -45 -23 -61c-15 -15 -36 -23 -61 -23s-46 8 -61 23z" />
    <glyph glyph-name="afii10099" unicode="&#x452;" horiz-adv-x="650" 
d="M11 0v16l60 22v543h-60v12l60 13v70l-60 16v16l217 21l17 -18v-105h162v-25h-162v-81l-3 -68l3 -3c50 50 108 75 174 75c51 0 91 -17 118 -51c28 -34 42 -76 42 -127v-294c0 -105 -76 -172 -223 -237l-12 12c41 65 61 140 61 225v272c0 98 -23 147 -70 147
c-33 0 -63 -15 -90 -46v-367l60 -22v-16h-294z" />
    <glyph glyph-name="afii10100" unicode="&#x453;" horiz-adv-x="479" 
d="M161 536l-10 11l138 171l90 -91zM438 377l-43 97h-150v-436l90 -22v-16h-324v16l60 22v432l-60 18v12h446v-123h-19z" />
    <glyph glyph-name="afii10101" unicode="&#x454;" horiz-adv-x="554" 
d="M31 243c0 161 107 261 291 261c52 0 98 -8 139 -25l25 17l10 -10v-130h-26c-20 95 -81 133 -140 133c-81 0 -122 -73 -124 -219h206v-26h-206c1 -133 44 -204 159 -204c51 0 97 20 136 59l12 -12c-60 -60 -123 -92 -220 -92c-167 0 -262 96 -262 248z" />
    <glyph glyph-name="afii10102" unicode="&#x455;" horiz-adv-x="455" 
d="M50 4l-10 10v116h26c21 -80 70 -120 147 -120c65 0 105 32 105 84c0 20 -9 35 -18 44c-5 5 -13 9 -24 14c-21 9 -32 13 -68 22l-52 15c-10 3 -25 10 -44 19s-32 19 -41 29c-17 20 -35 56 -35 103c0 100 61 164 194 164c49 0 93 -8 132 -25l24 17l10 -10v-113h-25
c-22 77 -68 116 -137 116c-57 0 -91 -32 -91 -77c0 -41 24 -54 97 -78c26 -8 45 -14 58 -19s29 -12 48 -22c20 -10 35 -20 44 -31c19 -21 36 -58 36 -103c0 -100 -65 -164 -212 -164c-53 0 -100 8 -140 25z" />
    <glyph glyph-name="afii10103" unicode="&#x456;" 
d="M305 0h-294v16l60 22v418l-60 16v16l217 21l17 -18v-453l60 -22v-16zM251 638c0 -57 -40 -98 -99 -98s-98 39 -98 98s39 99 98 99s99 -40 99 -99z" />
    <glyph glyph-name="afii10104" unicode="&#x457;" 
d="M305 0h-294v16l60 22v418l-60 16v16l217 21l17 -18v-453l60 -22v-16zM145 624c0 -49 -35 -84 -84 -84s-84 35 -84 84s35 84 84 84s84 -33 84 -84zM167 624c0 51 35 84 84 84s84 -35 84 -84s-35 -84 -84 -84s-84 35 -84 84z" />
    <glyph glyph-name="afii10105" unicode="&#x458;" 
d="M71 32v424l-60 16v16l217 21l17 -18v-459c0 -104 -77 -172 -222 -237l-12 12c40 64 60 139 60 225zM251 638c0 -57 -40 -98 -99 -98s-98 39 -98 98s39 99 98 99s99 -40 99 -99z" />
    <glyph glyph-name="afii10106" unicode="&#x459;" horiz-adv-x="877" 
d="M656 0h-342v12l60 18v444h-130l-31 -340c-9 -92 -49 -139 -112 -139c-48 0 -91 25 -91 85c0 45 26 71 67 71c44 0 71 -28 71 -73v-26c2 -1 5 -1 8 -1c13 0 28 29 33 78l32 341l-60 18v12h447v-12l-60 -19v-184h108c115 0 194 -56 194 -143s-78 -142 -194 -142zM592 263
h-44v-241h44c55 0 83 40 83 120c0 81 -28 121 -83 121z" />
    <glyph glyph-name="afii10107" unicode="&#x45a;" horiz-adv-x="901" 
d="M683 0h-325v16l44 21v206h-157v-205l44 -22v-16h-278v16l60 22v424l-60 22v16h278v-16l-44 -22v-193h157v193l-44 22v16h278v-16l-60 -22v-193h107c115 0 192 -52 192 -135s-77 -134 -192 -134zM620 243h-44v-221h44c53 0 80 37 80 110c0 74 -27 111 -80 111z" />
    <glyph glyph-name="afii10108" unicode="&#x45b;" horiz-adv-x="650" 
d="M11 593l60 13v70l-60 16v16l217 21l17 -18v-105h162v-25h-162v-81l-3 -68l3 -3c50 50 108 75 174 75c51 0 91 -17 118 -51c28 -34 42 -76 42 -127v-288l60 -22v-16h-280v16l46 22v266c0 98 -23 147 -70 147c-33 0 -63 -15 -90 -46v-367l46 -22v-16h-280v16l60 22v543h-60
v12z" />
    <glyph glyph-name="afii10109" unicode="&#x45c;" horiz-adv-x="617" 
d="M419 420v44c-1 1 -4 2 -8 2c-19 0 -34 -24 -44 -71l-11 -54c-7 -36 -24 -62 -51 -77h52c99 0 155 -36 167 -107l9 -53c8 -51 20 -76 36 -76c9 0 18 4 28 12l9 -8c-21 -24 -77 -37 -125 -37c-76 0 -100 37 -115 106l-13 69c-12 60 -31 79 -80 79h-28v-211l53 -22v-16h-287
v16l60 22v424l-60 22v16h294v-16l-60 -22v-197c49 0 80 36 88 76l10 54c14 74 53 111 118 111c56 0 102 -25 102 -88c0 -48 -27 -74 -70 -74c-47 0 -74 28 -74 76zM225 536l-11 11l139 171l89 -91z" />
    <glyph glyph-name="uni045D" unicode="&#x45d;" horiz-adv-x="650" 
d="M11 0v16l60 22v424l-60 22v16h280v-16l-46 -22v-247l-3 -91l3 -3l160 325v16l-46 22v16h280v-16l-60 -22v-424l60 -22v-16h-280v16l46 22v247l3 91l-3 3l-160 -325v-16l46 -22v-16h-280zM190 627l90 91l139 -171l-11 -11z" />
    <glyph glyph-name="afii10110" unicode="&#x45e;" horiz-adv-x="604" 
d="M375 562v67c0 47 27 74 68 74c40 0 67 -26 67 -65c0 -25 -11 -45 -32 -61c-43 -31 -93 -38 -149 -38c-28 0 -55 2 -80 7s-48 16 -69 31c-21 16 -32 36 -32 61c0 39 27 65 67 65s67 -27 67 -74v-67c15 -5 30 -7 47 -7c16 0 31 2 46 7zM286 -19l-221 481l-60 22v16h298v-16
l-60 -22l130 -289l131 289l-87 22v16h182v-16l-67 -22l-211 -462c-17 -37 -31 -66 -42 -85c-10 -20 -22 -40 -37 -61c-29 -43 -59 -57 -98 -57c-49 0 -99 26 -99 87c0 45 27 70 70 70c44 0 71 -27 71 -75v-34c2 -1 5 -1 9 -1c23 0 42 34 91 137z" />
    <glyph glyph-name="afii10193" unicode="&#x45f;" horiz-adv-x="647" 
d="M309 -137l-29 137h-269v12l60 18v432l-60 22v16h278v-16l-44 -22v-436h157v436l-44 22v16h278v-16l-60 -22v-432l60 -18v-12h-269l-29 -137h-29z" />
    <glyph glyph-name="afii10050" unicode="&#x490;" horiz-adv-x="550" 
d="M11 688v12h439l59 115h19v-141h-271v-636l95 -22v-16h-341v16l65 22v632z" />
    <glyph glyph-name="afii10098" unicode="&#x491;" horiz-adv-x="448" 
d="M425 598v-124h-180v-436l90 -22v-16h-324v16l60 22v432l-60 18v12h346l50 98h18z" />
    <glyph glyph-name="uni04D8" unicode="&#x4d8;" horiz-adv-x="734" 
d="M94 588l-12 13c68 70 155 105 260 105c108 0 194 -32 258 -96c65 -64 97 -150 97 -258c0 -109 -33 -196 -98 -261s-149 -98 -252 -98c-90 0 -164 25 -222 74c-58 50 -87 115 -87 195c0 21 2 39 7 56l23 23h439c0 212 -77 318 -231 318c-76 0 -137 -24 -182 -71zM346 11
c99 0 160 102 161 315l-292 -32c0 -205 43 -283 131 -283z" />
    <glyph glyph-name="afii10846" unicode="&#x4d9;" horiz-adv-x="570" 
d="M41 232l17 17h306c-1 137 -46 210 -162 210c-50 0 -94 -20 -133 -59l-12 12c60 60 122 92 218 92c168 0 264 -99 264 -251c0 -79 -25 -141 -74 -188s-112 -70 -189 -70c-69 0 -126 18 -172 55c-45 37 -68 84 -68 143c0 15 2 28 5 39zM272 10c51 0 91 71 92 224l-163 -21
c0 -135 24 -203 71 -203z" />
    <glyph glyph-name="Wgrave" unicode="&#x1e80;" horiz-adv-x="1222" 
d="M868 0h-50l-210 490l-205 -490h-50l-285 662l-65 22v16h316v-16l-66 -22l203 -484l138 343l-61 141l-65 22v16h316v-16l-66 -22l203 -484l198 484l-92 22v16h192v-16l-72 -22zM498 819l90 90l139 -171l-11 -10z" />
    <glyph glyph-name="wgrave" unicode="&#x1e81;" horiz-adv-x="916" 
d="M652 0h-57l-134 318l-137 -318h-58l-201 462l-60 22v16h287v-16l-49 -22l123 -307l82 195l-48 112l-49 22v16h288v-16l-61 -22l114 -307l123 307l-87 22v16h182v-16l-67 -22zM365 627l89 91l139 -171l-11 -11z" />
    <glyph glyph-name="Wacute" unicode="&#x1e82;" horiz-adv-x="1222" 
d="M868 0h-50l-210 490l-205 -490h-50l-285 662l-65 22v16h316v-16l-66 -22l203 -484l138 343l-61 141l-65 22v16h316v-16l-66 -22l203 -484l198 484l-92 22v16h192v-16l-72 -22zM550 728l-11 10l139 171l89 -90z" />
    <glyph glyph-name="wacute" unicode="&#x1e83;" horiz-adv-x="916" 
d="M652 0h-57l-134 318l-137 -318h-58l-201 462l-60 22v16h287v-16l-49 -22l123 -307l82 195l-48 112l-49 22v16h288v-16l-61 -22l114 -307l123 307l-87 22v16h182v-16l-67 -22zM389 536l-11 11l139 171l89 -91z" />
    <glyph glyph-name="Wdieresis" unicode="&#x1e84;" horiz-adv-x="1222" 
d="M871 0h-50l-210 490l-205 -490h-50l-285 662l-65 22v16h316v-16l-66 -22l203 -484l138 343l-61 141l-65 22v16h315v-16l-65 -22l203 -484l198 484l-92 22v16h192v-16l-72 -22zM452 754c-15 16 -23 36 -23 61s8 45 23 60c16 16 36 24 61 24s45 -8 60 -24
c16 -15 24 -35 24 -60s-8 -45 -24 -61c-15 -15 -35 -23 -60 -23s-45 8 -61 23zM746 899c51 0 84 -35 84 -84s-35 -84 -84 -84s-84 35 -84 84s35 84 84 84z" />
    <glyph glyph-name="wdieresis" unicode="&#x1e85;" horiz-adv-x="916" 
d="M652 0h-57l-134 318l-137 -318h-58l-201 462l-60 22v16h287v-16l-49 -22l123 -307l82 195l-48 112l-49 22v16h288v-16l-61 -22l114 -307l123 307l-87 22v16h182v-16l-67 -22zM467 624c0 -49 -35 -84 -84 -84s-84 35 -84 84s35 84 84 84s84 -33 84 -84zM616 708
c51 0 84 -33 84 -84c0 -25 -8 -45 -24 -61c-15 -15 -35 -23 -60 -23s-45 8 -61 23c-15 16 -23 36 -23 61c0 49 35 84 84 84z" />
    <glyph glyph-name="Ygrave" unicode="&#x1ef2;" horiz-adv-x="738" 
d="M319 684l-65 -22l186 -319l190 319l-86 22v16h191v-16l-77 -22l-208 -349v-275l64 -22v-16h-310v16l65 22v275l-206 349l-60 22v16h316v-16zM237 819l89 90l139 -171l-11 -10z" />
    <glyph glyph-name="ygrave" unicode="&#x1ef3;" horiz-adv-x="604" 
d="M286 -19l-221 481l-60 22v16h298v-16l-60 -22l130 -289l131 289l-87 22v16h182v-16l-67 -22l-211 -462c-17 -37 -31 -66 -42 -85c-10 -20 -22 -40 -37 -61c-29 -43 -59 -57 -98 -57c-49 0 -99 26 -99 87c0 45 27 70 70 70c44 0 71 -27 71 -75v-34c2 -1 5 -1 9 -1
c23 0 42 34 91 137zM174 627l90 91l139 -171l-11 -11z" />
    <glyph glyph-name="figuredash" unicode="&#x2012;" horiz-adv-x="501" 
d="M468 329h-435v42h435v-42z" />
    <glyph glyph-name="endash" unicode="&#x2013;" horiz-adv-x="501" 
d="M468 266h-435v41h435v-41z" />
    <glyph glyph-name="emdash" unicode="&#x2014;" horiz-adv-x="701" 
d="M668 266h-635v41h635v-41z" />
    <glyph glyph-name="quoteleft" unicode="&#x2018;" horiz-adv-x="219" 
d="M155 705l14 -14c-32 -32 -63 -77 -63 -100c0 -5 1 -9 4 -12c47 0 78 -32 78 -77s-31 -76 -78 -76c-45 0 -79 32 -79 81c0 35 14 71 43 108c15 19 27 34 38 45c11 12 25 27 43 45z" />
    <glyph glyph-name="quoteright" unicode="&#x2019;" horiz-adv-x="219" 
d="M107 470l-43 -44l-13 13c15 15 29 33 42 53c13 21 20 37 20 48c0 5 -1 9 -4 12c-45 0 -78 31 -78 76s33 77 78 77c47 0 79 -31 79 -82c0 -35 -14 -70 -43 -107c-15 -19 -27 -34 -38 -46z" />
    <glyph glyph-name="quotesinglbase" unicode="&#x201a;" horiz-adv-x="219" 
d="M64 -126l-13 13c15 15 29 33 42 54c13 20 20 36 20 47c0 5 -1 9 -4 12c-45 0 -78 31 -78 76s33 77 78 77c47 0 79 -31 79 -82c0 -35 -14 -70 -43 -107c-15 -19 -27 -34 -38 -45c-11 -12 -25 -27 -43 -45z" />
    <glyph glyph-name="quotedblleft" unicode="&#x201c;" horiz-adv-x="407" 
d="M343 705l13 -14c-32 -32 -62 -77 -62 -100c0 -6 1 -10 4 -12c45 0 78 -32 78 -77s-33 -76 -78 -76c-47 0 -79 32 -79 81c0 35 14 71 43 108c15 19 27 34 38 45c11 12 25 27 43 45zM155 705l14 -14c-32 -32 -63 -77 -63 -100c0 -5 1 -9 4 -12c47 0 78 -32 78 -77
s-31 -76 -78 -76c-45 0 -79 32 -79 81c0 35 14 71 43 108c15 19 27 34 38 45c11 12 25 27 43 45z" />
    <glyph glyph-name="quotedblright" unicode="&#x201d;" horiz-adv-x="407" 
d="M107 470l-43 -44l-13 13c15 15 29 33 42 53c13 21 20 37 20 48c0 5 -1 9 -4 12c-45 0 -78 31 -78 76s33 77 78 77c47 0 79 -31 79 -82c0 -35 -14 -70 -43 -107c-15 -19 -27 -34 -38 -46zM295 470l-43 -44l-14 13c32 32 63 78 63 101c0 4 -1 8 -4 12c-47 0 -78 31 -78 76
s31 77 78 77c45 0 79 -31 79 -82c0 -35 -14 -70 -43 -107c-15 -19 -27 -34 -38 -46z" />
    <glyph glyph-name="quotedblbase" unicode="&#x201e;" horiz-adv-x="407" 
d="M64 -126l-13 13c15 15 29 33 42 54c13 20 20 36 20 47c0 5 -1 9 -4 12c-45 0 -78 31 -78 76s33 77 78 77c47 0 79 -31 79 -82c0 -35 -14 -70 -43 -107c-15 -19 -27 -34 -38 -45c-11 -12 -25 -27 -43 -45zM252 -126l-14 13c32 32 63 78 63 101c0 4 -1 8 -4 12
c-47 0 -78 31 -78 76s31 77 78 77c45 0 79 -31 79 -82c0 -35 -14 -70 -43 -107c-15 -19 -27 -34 -38 -45c-11 -12 -25 -27 -43 -45z" />
    <glyph glyph-name="dagger" unicode="&#x2020;" horiz-adv-x="548" 
d="M260 472c-5 41 -13 79 -26 112s-19 54 -19 61c0 35 23 59 58 59s60 -24 60 -59c0 -8 -6 -29 -19 -62s-22 -70 -27 -111c41 5 79 13 112 26c34 13 55 19 62 19c35 0 59 -25 59 -58c0 -35 -24 -59 -59 -59c-8 0 -29 6 -62 18c-33 13 -71 22 -112 27c5 -119 14 -225 27 -320
c13 -94 19 -151 19 -170c0 -35 -24 -59 -59 -59s-59 24 -59 59c0 19 6 75 19 169c13 95 21 202 26 321c-41 -5 -78 -14 -111 -27c-33 -12 -54 -18 -62 -18c-35 0 -59 23 -59 58s24 59 59 59c7 0 28 -6 61 -19c34 -13 71 -21 112 -26z" />
    <glyph glyph-name="daggerdbl" unicode="&#x2021;" horiz-adv-x="548" 
d="M260 472c-5 41 -13 79 -26 112s-19 54 -19 61c0 35 23 59 58 59s60 -24 60 -59c0 -8 -6 -29 -19 -62s-22 -70 -27 -111c41 5 79 13 112 26c34 13 55 19 62 19c35 0 59 -25 59 -58c0 -35 -24 -59 -59 -59c-8 0 -29 6 -62 18c-33 13 -71 22 -112 27v-218c41 5 79 14 112 27
s54 19 62 19c35 0 59 -24 59 -59s-26 -59 -59 -59c-8 0 -29 6 -62 19s-71 22 -112 27c5 -60 14 -114 27 -161s19 -76 19 -85c0 -35 -24 -59 -59 -59s-59 24 -59 59c0 9 6 37 19 84c13 48 21 102 26 162c-41 -5 -78 -14 -111 -27s-54 -19 -62 -19c-35 0 -59 24 -59 59
s24 59 59 59c8 0 29 -6 62 -19s70 -22 111 -27v218c-41 -5 -78 -14 -111 -27c-33 -12 -54 -18 -62 -18c-35 0 -59 23 -59 58s24 59 59 59c7 0 28 -6 61 -19c34 -13 71 -21 112 -26z" />
    <glyph glyph-name="bullet" unicode="&#x2022;" horiz-adv-x="258" 
d="M25 300c0 61 43 105 103 105c61 0 105 -44 105 -105c0 -60 -44 -104 -105 -104c-60 0 -103 44 -103 104z" />
    <glyph glyph-name="ellipsis" unicode="&#x2026;" horiz-adv-x="656" 
d="M31 74c0 47 33 79 78 79c47 0 79 -32 79 -79c0 -45 -32 -78 -79 -78c-45 0 -78 33 -78 78zM250 74c0 47 32 79 77 79c47 0 79 -32 79 -79c0 -45 -32 -78 -79 -78c-45 0 -77 33 -77 78zM468 74c0 47 31 79 78 79s79 -32 79 -79c0 -45 -34 -78 -79 -78s-78 33 -78 78z" />
    <glyph glyph-name="perthousand" unicode="&#x2030;" horiz-adv-x="1067" 
d="M190 707c91 0 153 -71 153 -182s-62 -182 -153 -182c-92 0 -154 71 -154 182s62 182 154 182zM190 692c-36 0 -54 -56 -54 -167s18 -167 54 -167s54 56 54 167s-18 167 -54 167zM603 700l-428 -700h-53l429 700h52zM536 357c91 0 153 -71 153 -182s-62 -182 -153 -182
c-92 0 -154 71 -154 182s62 182 154 182zM536 342c-36 0 -54 -56 -54 -167s18 -167 54 -167s54 56 54 167s-18 167 -54 167zM878 357c91 0 153 -71 153 -182s-62 -182 -153 -182c-92 0 -153 71 -153 182s61 182 153 182zM878 342c-36 0 -54 -56 -54 -167s18 -167 54 -167
s54 56 54 167s-18 167 -54 167z" />
    <glyph glyph-name="guilsinglleft" unicode="&#x2039;" horiz-adv-x="256" 
d="M213 110l-191 157v25l191 157l10 -11l-94 -159l94 -158z" />
    <glyph glyph-name="guilsinglright" unicode="&#x203a;" horiz-adv-x="256" 
d="M42 449l191 -157v-25l-191 -157l-10 11l94 159l-94 158z" />
    <glyph glyph-name="fraction" unicode="&#x2044;" horiz-adv-x="354" 
d="M353 700l-308 -700h-44l308 700h44z" />
    <glyph glyph-name="Euro" unicode="&#x20ac;" horiz-adv-x="695" 
d="M40 393h-17v41h23c16 84 54 150 115 199s137 73 228 73c79 0 144 -16 195 -47h70v-140h-19c-33 105 -102 157 -206 157c-119 0 -185 -81 -199 -242h295v-41h-298v-35c0 -13 1 -30 2 -51h296v-41h-293c20 -151 97 -226 230 -226c76 0 137 24 184 71l13 -13
c-69 -70 -157 -105 -265 -105c-94 0 -172 24 -234 72c-61 49 -100 116 -115 201h-22v41h17c-1 17 -2 31 -2 42c0 19 1 34 2 44z" />
    <glyph glyph-name="uni20B4" unicode="&#x20b4;" horiz-adv-x="573" 
d="M84 266h-53v41h483v-41h-273c-23 -31 -35 -64 -35 -99c0 -76 53 -128 158 -128c58 0 107 20 147 60l12 -12c-64 -63 -127 -92 -234 -92c-79 0 -141 15 -188 45c-47 31 -70 70 -70 118c0 39 18 75 53 108zM514 393h-483v41h272c23 29 35 63 35 102c0 83 -48 125 -143 125
c-57 0 -97 -15 -142 -60l-12 12c31 31 64 54 97 69c34 15 78 23 132 23c156 0 239 -66 239 -159c0 -44 -18 -81 -55 -112h60v-41z" />
    <glyph glyph-name="uni20BD" unicode="&#x20bd;" horiz-adv-x="673" 
d="M76 183h-65v12l65 14v85h-65v12l65 14v350l-65 18v12h334c85 0 154 -18 206 -55c53 -37 79 -86 79 -148s-26 -111 -79 -148c-52 -37 -121 -55 -206 -55h-88v-85h189v-26h-189v-145l106 -22v-16h-352v16l65 22v145zM328 674h-71v-354h71c80 0 120 59 120 177
s-40 177 -120 177z" />
    <glyph glyph-name="afii61352" unicode="&#x2116;" horiz-adv-x="1063" 
d="M11 0v12l65 22v628l-65 22v16h249l335 -459v425l-65 22v12h156v-12l-65 -22v-666h-47l-472 646v-612l65 -22v-12h-156zM752 392c-28 33 -42 78 -42 133s14 99 42 132c29 33 66 50 111 50s82 -17 110 -50c29 -33 43 -77 43 -132s-14 -100 -43 -133
c-28 -33 -65 -49 -110 -49s-82 16 -111 49zM863 358c36 0 54 56 54 167s-18 167 -54 167c-35 0 -53 -56 -53 -167s18 -167 53 -167zM1011 266h-296v41h296v-41z" />
    <glyph glyph-name="trademark" unicode="&#x2122;" horiz-adv-x="839" 
d="M329 630l-31 57h-75v-318l32 -11v-8h-156v8l32 11v318h-74l-32 -57h-10v70h324v-70h-10zM807 692l-32 -11l21 -312l32 -11v-8h-157v8l33 11l-18 263l-122 -282h-25l-124 283l-19 -266l32 -11v-6h-77v6l32 11l22 314l-33 11v8h108l112 -260l110 260h105v-8z" />
    <glyph glyph-name="arrowleft" unicode="&#x2190;" horiz-adv-x="717" 
d="M227 117l-191 157v25l191 157l10 -11l-82 -138h526v-41h-527l83 -139z" />
    <glyph glyph-name="arrowup" unicode="&#x2191;" horiz-adv-x="717" 
d="M189 418l157 190h25l157 -190l-11 -11l-138 83v-527h-41v527l-139 -83z" />
    <glyph glyph-name="arrowright" unicode="&#x2192;" horiz-adv-x="717" 
d="M490 456l191 -157v-25l-191 -157l-10 10l83 139h-527v41h526l-82 138z" />
    <glyph glyph-name="arrowdown" unicode="&#x2193;" horiz-adv-x="717" 
d="M528 154l-157 -191h-25l-157 191l10 10l139 -83v527h41v-526l138 82z" />
    <glyph glyph-name="uni2196" unicode="&#x2196;" horiz-adv-x="717" 
d="M146 260l-25 245l18 19l246 -25v-15l-155 -39l371 -373l-28 -28l-373 372l-40 -157z" />
    <glyph glyph-name="uni2197" unicode="&#x2197;" horiz-adv-x="717" 
d="M332 499l246 24l18 -18l-25 -246h-15l-39 156l-372 -372l-29 29l372 372l-157 40z" />
    <glyph glyph-name="uni2198" unicode="&#x2198;" horiz-adv-x="717" 
d="M571 312l25 -245l-18 -18l-246 24v15l157 39l-373 373l29 29l372 -372l40 156z" />
    <glyph glyph-name="uni2199" unicode="&#x2199;" horiz-adv-x="717" 
d="M385 73l-246 -24l-18 17l24 246h15l39 -157l374 374l28 -30l-372 -372l156 -40v-14z" />
    <glyph glyph-name="minus" unicode="&#x2212;" horiz-adv-x="451" 
d="M418 329h-385v42h385v-42z" />
    <glyph glyph-name="commaaccent" unicode="&#xf6c3;" horiz-adv-x="219" 
d="M78 -250l-13 13c32 32 48 57 48 75c0 4 -1 7 -4 10c-35 0 -58 22 -58 57c0 33 25 58 58 58s59 -23 59 -62s-30 -90 -90 -151z" />
    <glyph glyph-name="dollaroldstyle" unicode="&#xf724;" horiz-adv-x="456" 
d="M229 -5l-1 -45h-27l1 45c-51 2 -94 10 -127 25l-24 -16l-10 10v116h26c21 -76 66 -116 136 -120l6 164l-52 15c-10 3 -25 10 -44 19s-32 19 -41 29c-17 20 -35 56 -35 103c0 97 58 160 183 164l2 46h27l-2 -46c42 -2 81 -10 116 -25l25 17l10 -10v-113h-26
c-20 72 -62 110 -125 115l-6 -154c26 -8 45 -14 58 -19s29 -12 48 -22c20 -10 35 -20 44 -31c19 -21 36 -58 36 -103c0 -97 -62 -160 -198 -164zM319 94c0 40 -24 56 -84 73l-5 -157c56 5 89 37 89 84zM145 412c0 -36 21 -53 70 -69l5 145c-48 -5 -75 -36 -75 -76z" />
    <glyph glyph-name="zerooldstyle" unicode="&#xf730;" horiz-adv-x="657" 
d="M619 249c0 -77 -27 -139 -81 -186c-53 -46 -123 -69 -210 -69s-157 23 -210 69s-80 108 -80 186s27 140 80 187c54 47 124 70 210 70s156 -23 210 -70s81 -109 81 -187zM220 249c0 -164 41 -240 108 -240c73 0 109 80 109 240c0 161 -36 242 -109 242
c-67 0 -108 -77 -108 -242z" />
    <glyph glyph-name="oneoldstyle" unicode="&#xf731;" horiz-adv-x="408" 
d="M382 0h-348v16l87 22v413h-93v20l250 38l17 -18v-453l87 -22v-16z" />
    <glyph glyph-name="twooldstyle" unicode="&#xf732;" horiz-adv-x="544" 
d="M510 0h-477v61l96 68c21 16 47 37 76 62c30 26 52 48 65 67c28 37 52 89 52 141c0 56 -25 89 -69 89c-14 0 -28 -4 -42 -12v-96c0 -63 -34 -99 -90 -99c-55 0 -90 33 -90 88c0 46 22 80 67 101c45 22 101 33 167 33c145 0 232 -43 232 -120c0 -44 -33 -90 -74 -126
c-21 -17 -49 -36 -84 -57c-35 -20 -68 -37 -97 -51s-65 -31 -110 -51h310l50 105h18v-203z" />
    <glyph glyph-name="threeoldstyle" unicode="&#xf733;" horiz-adv-x="577" 
d="M364 50c0 103 -54 132 -147 132h-43v25h42c80 0 122 39 122 143c0 92 -33 133 -81 133c-17 0 -31 -4 -44 -12v-86c0 -64 -34 -99 -87 -99c-52 0 -86 33 -86 85c0 51 36 88 88 107c52 20 105 28 156 28c143 0 229 -62 229 -159c0 -77 -56 -131 -159 -151
c123 -23 185 -76 185 -160c0 -73 -44 -130 -132 -172c-87 -43 -202 -66 -343 -69l-10 10c223 32 310 116 310 245z" />
    <glyph glyph-name="fouroldstyle" unicode="&#xf734;" horiz-adv-x="586" 
d="M485 0v-200h-173v200h-276v15c53 97 93 184 119 259c27 75 40 151 40 226h174c0 -88 -25 -168 -76 -240c-50 -71 -126 -150 -228 -235h247v127l156 157l17 -18v-266h69v-25h-69z" />
    <glyph glyph-name="fiveoldstyle" unicode="&#xf735;" horiz-adv-x="538" 
d="M331 59c0 96 -47 144 -140 144c-42 0 -79 -12 -111 -36l-14 13l32 319c144 0 262 6 353 18v-127h-315l-52 -199c47 30 104 45 172 45c160 0 250 -78 250 -191c0 -53 -20 -99 -60 -136c-79 -75 -213 -109 -393 -114l-10 10c107 17 182 46 224 88c43 41 64 97 64 166z" />
    <glyph glyph-name="sixoldstyle" unicode="&#xf736;" horiz-adv-x="600" 
d="M211 390c29 22 68 33 116 33c71 0 128 -20 172 -59c45 -39 67 -91 67 -155c0 -65 -23 -117 -68 -156s-105 -58 -179 -58c-91 0 -162 29 -211 88s-74 136 -74 232c0 125 40 222 121 292c81 71 192 110 332 117l10 -10c-189 -41 -270 -151 -286 -324zM209 340
c0 -88 6 -161 19 -226c15 -64 41 -104 77 -104c55 0 86 75 86 202c0 116 -34 189 -95 189c-38 0 -67 -20 -87 -61z" />
    <glyph glyph-name="sevenoldstyle" unicode="&#xf737;" horiz-adv-x="534" 
d="M320 -200h-174c0 63 10 122 31 177s44 101 71 136s59 79 97 131c38 53 68 101 90 146h-324l-55 -104h-19v214h452v-15c-13 -45 -36 -118 -69 -218s-58 -186 -75 -258c-17 -71 -25 -141 -25 -209z" />
    <glyph glyph-name="eightoldstyle" unicode="&#xf738;" horiz-adv-x="588" 
d="M516 575c0 -71 -41 -124 -124 -159c55 -24 96 -51 122 -80s39 -70 39 -123c0 -146 -93 -219 -279 -219c-160 0 -240 57 -240 156c0 85 58 137 158 178c-87 39 -129 86 -129 186c0 128 71 212 243 212c139 0 210 -56 210 -151zM272 296l-47 18c-37 -33 -55 -82 -55 -148
c0 -107 39 -155 124 -155s132 49 132 132c0 45 -11 75 -43 99c-16 12 -31 21 -46 28s-36 15 -65 26zM327 443l18 -7c29 33 43 76 43 129c0 96 -33 144 -100 144s-101 -49 -101 -120c0 -37 10 -65 30 -85c21 -20 57 -40 110 -61z" />
    <glyph glyph-name="nineoldstyle" unicode="&#xf739;" horiz-adv-x="599" 
d="M387 110c-30 -23 -68 -34 -114 -34c-71 0 -128 19 -173 58c-44 39 -66 91 -66 155c0 65 23 117 69 156s107 59 182 59c90 0 159 -29 207 -87c49 -57 73 -134 73 -231c0 -128 -42 -223 -125 -286s-198 -98 -343 -105l-10 10c106 20 181 54 224 103c44 49 69 116 76 202z
M390 159c0 220 -32 330 -96 330c-57 0 -92 -76 -92 -204c0 -115 35 -186 98 -186c39 0 69 20 90 60z" />
    <glyph glyph-name="T_h" horiz-adv-x="1249" 
d="M844 405v-367l46 -22v-16h-280v16l60 22v636h-233v-636l65 -22v-16h-311v16l65 22v636h-151l-64 -115h-18v141h587l217 27l17 -17v-210l-3 -68l3 -3c45 45 110 75 174 75c51 0 91 -17 118 -51s41 -76 41 -127v-288l60 -22v-16h-279v16l46 22v266c0 98 -24 147 -71 147
c-33 0 -62 -15 -89 -46z" />
    <glyph glyph-name="T_h.caron" horiz-adv-x="1249" 
d="M844 405v-367l46 -22v-16h-280v16l60 22v636h-233v-636l65 -22v-16h-311v16l65 22v636h-151l-64 -115h-18v141h587l217 27l17 -17v-210l-3 -68l3 -3c45 45 110 75 174 75c51 0 91 -17 118 -51s41 -76 41 -127v-288l60 -22v-16h-279v16l46 22v266c0 98 -24 147 -71 147
c-33 0 -62 -15 -89 -46zM496 899l-137 -171h-25l-137 171l10 10l139 -74l139 74z" />
    <glyph glyph-name="T_h.commaaccent" horiz-adv-x="1249" 
d="M844 405v-367l46 -22v-16h-280v16l60 22v636h-233v-636l65 -22v-16h-311v16l65 22v636h-151l-64 -115h-18v141h587l217 27l17 -17v-210l-3 -68l3 -3c45 45 110 75 174 75c51 0 91 -17 118 -51s41 -76 41 -127v-288l60 -22v-16h-279v16l46 22v266c0 98 -24 147 -71 147
c-33 0 -62 -15 -89 -46zM314 -250l-12 13c32 32 48 57 48 75c0 4 -1 7 -4 10c-35 0 -58 22 -58 57c0 33 23 58 58 58s59 -23 59 -62c0 -40 -30 -90 -91 -151z" />
    <glyph glyph-name="A.smcp" horiz-adv-x="613" 
d="M290 504h41l214 -474l49 -17v-13h-252v13l49 17l-55 119h-186l-54 -119l69 -17v-13h-145v13l54 17zM328 169l-84 187l-85 -187h169z" />
    <glyph glyph-name="Aacute.smcp" horiz-adv-x="613" 
d="M290 504h41l214 -474l49 -17v-13h-252v13l49 17l-55 119h-186l-54 -119l69 -17v-13h-145v13l54 17zM328 169l-84 187l-85 -187h169zM242 523l-7 7l102 132l74 -75z" />
    <glyph glyph-name="Abreve.smcp" horiz-adv-x="613" 
d="M290 504h41l214 -474l49 -17v-13h-252v13l49 17l-55 119h-186l-54 -119l69 -17v-13h-145v13l54 17zM328 169l-84 187l-85 -187h169zM339 588c0 39 20 59 53 59s54 -20 54 -51c0 -19 -8 -34 -25 -46c-33 -23 -71 -27 -114 -27c-21 0 -41 2 -60 5c-37 7 -78 31 -78 68
c0 31 22 51 54 51c33 0 53 -20 53 -59c0 -35 10 -53 31 -53c10 0 32 0 32 53z" />
    <glyph glyph-name="Acircumflex.smcp" horiz-adv-x="613" 
d="M290 504h41l214 -474l49 -17v-13h-252v13l49 17l-55 119h-186l-54 -119l69 -17v-13h-145v13l54 17zM328 169l-84 187l-85 -187h169zM195 530l102 132h21l102 -132l-8 -7l-105 52l-104 -52z" />
    <glyph glyph-name="Agrave.smcp" horiz-adv-x="613" 
d="M290 504h41l214 -474l49 -17v-13h-252v13l49 17l-55 119h-186l-54 -119l69 -17v-13h-145v13l54 17zM328 169l-84 187l-85 -187h169zM205 587l74 75l102 -132l-7 -7z" />
    <glyph glyph-name="Adieresis.smcp" horiz-adv-x="613" 
d="M290 504h41l214 -474l49 -17v-13h-252v13l49 17l-55 119h-186l-54 -119l69 -17v-13h-145v13l54 17zM328 169l-84 187l-85 -187h169zM153 590c0 40 27 67 67 67s67 -27 67 -67c0 -39 -27 -66 -67 -66s-67 27 -67 66zM328 590c0 40 27 67 67 67s67 -27 67 -67
c0 -39 -27 -66 -67 -66s-67 27 -67 66z" />
    <glyph glyph-name="Amacron.smcp" horiz-adv-x="613" 
d="M290 504h41l214 -474l49 -17v-13h-252v13l49 17l-55 119h-186l-54 -119l69 -17v-13h-145v13l54 17zM328 169l-84 187l-85 -187h169zM414 566h-213v34h213v-34z" />
    <glyph glyph-name="Aogonek.smcp" horiz-adv-x="613" 
d="M591 -127l4 -4c-29 -29 -57 -44 -83 -44c-27 0 -40 15 -40 45c0 44 30 93 83 130h-213v13l49 17l-55 119h-186l-54 -119l69 -17v-13h-145v13l54 17l216 474h41l214 -474l49 -17v-13h-31c-24 -35 -41 -83 -41 -110c0 -19 9 -29 28 -29s32 4 41 12zM328 169l-84 187
l-85 -187h169z" />
    <glyph glyph-name="Aring.smcp" horiz-adv-x="613" 
d="M290 504h41l214 -474l49 -17v-13h-252v13l49 17l-55 119h-186l-54 -119l69 -17v-13h-145v13l54 17zM328 169l-84 187l-85 -187h169zM307 646c40 0 68 -24 68 -61s-28 -61 -68 -61c-39 0 -65 24 -65 61s26 61 65 61zM286 585c0 -27 7 -41 21 -41c15 0 22 14 22 41
c0 28 -7 42 -22 42c-12 0 -21 -17 -21 -42z" />
    <glyph glyph-name="Atilde.smcp" horiz-adv-x="613" 
d="M290 504h41l214 -474l49 -17v-13h-252v13l49 17l-55 119h-186l-54 -119l69 -17v-13h-145v13l54 17zM328 169l-84 187l-85 -187h169zM168 545l-10 10c59 59 99 88 120 88c9 0 24 -5 45 -16c22 -11 39 -16 50 -16c29 0 54 11 76 33l10 -10c-61 -59 -102 -89 -124 -89
c-8 0 -24 5 -47 16s-40 16 -51 16c-24 0 -47 -11 -69 -32z" />
    <glyph glyph-name="AE.smcp" horiz-adv-x="645" 
d="M245 10l48 13l-19 126h-124l-54 -119l69 -17v-13h-145v13l54 17l214 474h309v-106h-15l-51 86h-167l33 -214h101l22 65h14v-151h-14l-22 65h-98l36 -229h102l52 86h14v-106h-359v10zM271 169l-28 187l-84 -187h112z" />
    <glyph glyph-name="AEacute.smcp" horiz-adv-x="645" 
d="M245 10l48 13l-19 126h-124l-54 -119l69 -17v-13h-145v13l54 17l214 474h309v-106h-15l-51 86h-167l33 -214h101l22 65h14v-151h-14l-22 65h-98l36 -229h102l52 86h14v-106h-359v10zM271 169l-28 187l-84 -187h112zM302 523l-8 7l102 132l74 -75z" />
    <glyph glyph-name="B.smcp" horiz-adv-x="563" 
d="M24 494v10h281c117 0 196 -49 196 -126c0 -59 -47 -103 -126 -119c89 -15 145 -61 145 -126c0 -81 -87 -133 -215 -133h-281v10l48 13v458zM224 249v-229h55c59 0 89 38 89 114c0 77 -30 115 -89 115h-55zM279 484h-55v-215h55c47 0 70 36 70 107c0 72 -23 108 -70 108z
" />
    <glyph glyph-name="C.smcp" horiz-adv-x="548" 
d="M497 81l10 -9c-51 -51 -117 -77 -198 -77s-146 23 -194 69s-72 108 -72 187c0 78 24 140 72 187c49 47 112 71 191 71c53 0 99 -10 138 -30l51 21l7 -8v-120h-14c-27 75 -77 113 -148 113c-92 0 -139 -66 -139 -226c0 -143 43 -226 167 -226c53 0 96 16 129 48z" />
    <glyph glyph-name="Cacute.smcp" horiz-adv-x="548" 
d="M497 81l10 -9c-51 -51 -117 -77 -198 -77s-146 23 -194 69s-72 108 -72 187c0 78 24 140 72 187c49 47 112 71 191 71c53 0 99 -10 138 -30l51 21l7 -8v-120h-14c-27 75 -77 113 -148 113c-92 0 -139 -66 -139 -226c0 -143 43 -226 167 -226c53 0 96 16 129 48zM242 523
l-8 7l103 132l74 -75z" />
    <glyph glyph-name="Ccaron.smcp" horiz-adv-x="548" 
d="M497 81l10 -9c-51 -51 -117 -77 -198 -77s-146 23 -194 69s-72 108 -72 187c0 78 24 140 72 187c49 47 112 71 191 71c53 0 99 -10 138 -30l51 21l7 -8v-120h-14c-27 75 -77 113 -148 113c-92 0 -139 -66 -139 -226c0 -143 43 -226 167 -226c53 0 96 16 129 48zM418 654
l-102 -131h-20l-103 131l8 8l105 -53l104 53z" />
    <glyph glyph-name="Ccedilla.smcp" horiz-adv-x="548" 
d="M253 -95l52 90c-80 1 -144 25 -191 70c-47 46 -71 108 -71 186s24 140 72 187c49 47 112 71 191 71c53 0 99 -10 138 -30l51 21l7 -8v-120h-14c-27 75 -77 113 -148 113c-92 0 -139 -66 -139 -226c0 -143 43 -226 167 -226c53 0 96 16 129 48l10 -9
c-49 -49 -113 -75 -190 -77l-12 -24c43 0 65 -13 65 -38c0 -27 -27 -64 -81 -110l-4 5c17 17 25 33 25 50c0 20 -16 27 -57 27z" />
    <glyph glyph-name="Ccircumflex.smcp" horiz-adv-x="548" 
d="M497 81l10 -9c-51 -51 -117 -77 -198 -77s-146 23 -194 69s-72 108 -72 187c0 78 24 140 72 187c49 47 112 71 191 71c53 0 99 -10 138 -30l51 21l7 -8v-120h-14c-27 75 -77 113 -148 113c-92 0 -139 -66 -139 -226c0 -143 43 -226 167 -226c53 0 96 16 129 48zM194 530
l102 132h20l103 -132l-8 -7l-105 52l-104 -52z" />
    <glyph glyph-name="Cdotaccent.smcp" horiz-adv-x="548" 
d="M497 81l10 -9c-51 -51 -117 -77 -198 -77s-146 23 -194 69s-72 108 -72 187c0 78 24 140 72 187c49 47 112 71 191 71c53 0 99 -10 138 -30l51 21l7 -8v-120h-14c-27 75 -77 113 -148 113c-92 0 -139 -66 -139 -226c0 -143 43 -226 167 -226c53 0 96 16 129 48zM305 671
c41 0 71 -28 71 -71s-30 -71 -71 -71c-43 0 -72 28 -72 71s29 71 72 71z" />
    <glyph glyph-name="D.smcp" horiz-adv-x="599" 
d="M24 494v10h269c78 0 141 -23 189 -69c49 -45 73 -107 73 -184s-24 -139 -72 -184s-111 -67 -190 -67h-269v10l48 13v458zM293 484h-69v-464h69c70 0 105 77 105 232s-35 232 -105 232z" />
    <glyph glyph-name="Dcaron.smcp" horiz-adv-x="599" 
d="M24 494v10h269c78 0 141 -23 189 -69c49 -45 73 -107 73 -184s-24 -139 -72 -184s-111 -67 -190 -67h-269v10l48 13v458zM293 484h-69v-464h69c70 0 105 77 105 232s-35 232 -105 232zM405 654l-103 -131h-21l-101 131l8 8l103 -53l106 53z" />
    <glyph glyph-name="Dcroat.smcp" horiz-adv-x="599" 
d="M72 246h-48v10l48 10v215l-48 13v10h269c78 0 141 -23 189 -69c49 -45 73 -107 73 -184s-24 -139 -72 -184s-111 -67 -190 -67h-269v10l48 13v223zM293 484h-69v-218h94v-20h-94v-226h69c70 0 105 77 105 232s-35 232 -105 232z" />
    <glyph glyph-name="Eth.smcp" horiz-adv-x="599" 
d="M72 246h-45v10l45 10v215l-48 13v10h269c78 0 141 -23 189 -69c49 -45 73 -107 73 -184s-24 -139 -72 -184s-111 -67 -190 -67h-269v10l48 13v223zM293 484h-69v-218h94v-20h-94v-226h69c70 0 105 77 105 232s-35 232 -105 232z" />
    <glyph glyph-name="Thorn.smcp" horiz-adv-x="542" 
d="M271 491l-47 -17v-71h59c65 0 117 -13 156 -39c40 -26 60 -61 60 -104c0 -88 -87 -144 -216 -144h-35l-13 13v7h35c51 0 77 41 77 124c0 82 -26 123 -77 123h-46v-353l79 -17v-13h-279v13l48 17v444l-48 17v13h247v-13z" />
    <glyph glyph-name="E.smcp" horiz-adv-x="507" 
d="M224 249v-229h177l51 86h14v-106h-442v10l48 13v458l-48 13v10h434v-106h-14l-50 86h-170v-214h136l22 65h14v-151h-14l-22 65h-136z" />
    <glyph glyph-name="Eacute.smcp" horiz-adv-x="507" 
d="M224 249v-229h177l51 86h14v-106h-442v10l48 13v458l-48 13v10h434v-106h-14l-50 86h-170v-214h136l22 65h14v-151h-14l-22 65h-136zM187 523l-8 7l103 132l74 -75z" />
    <glyph glyph-name="Ebreve.smcp" horiz-adv-x="507" 
d="M224 249v-229h177l51 86h14v-106h-442v10l48 13v458l-48 13v10h434v-106h-14l-50 86h-170v-214h136l22 65h14v-151h-14l-22 65h-136zM285 588c0 39 20 59 53 59s54 -20 54 -51c0 -19 -8 -34 -25 -46c-33 -23 -72 -27 -113 -27c-21 0 -41 2 -60 5c-37 7 -78 31 -78 68
c0 31 20 51 53 51s53 -20 53 -59c0 -53 21 -53 32 -53c21 0 31 18 31 53z" />
    <glyph glyph-name="Ecaron.smcp" horiz-adv-x="507" 
d="M224 249v-229h177l51 86h14v-106h-442v10l48 13v458l-48 13v10h434v-106h-14l-50 86h-170v-214h136l22 65h14v-151h-14l-22 65h-136zM366 654l-102 -131h-21l-103 131l8 8l105 -53l104 53z" />
    <glyph glyph-name="Ecircumflex.smcp" horiz-adv-x="507" 
d="M224 249v-229h177l51 86h14v-106h-442v10l48 13v458l-48 13v10h434v-106h-14l-50 86h-170v-214h136l22 65h14v-151h-14l-22 65h-136zM140 530l103 132h21l102 -132l-9 -7l-104 52l-105 -52z" />
    <glyph glyph-name="Edieresis.smcp" horiz-adv-x="507" 
d="M224 249v-229h177l51 86h14v-106h-442v10l48 13v458l-48 13v10h434v-106h-14l-50 86h-170v-214h136l22 65h14v-151h-14l-22 65h-136zM99 590c0 40 28 67 67 67c40 0 67 -27 67 -67c0 -39 -27 -66 -67 -66c-39 0 -67 27 -67 66zM274 590c0 40 27 67 67 67s66 -27 66 -67
c0 -39 -26 -66 -66 -66s-67 27 -67 66z" />
    <glyph glyph-name="Edotaccent.smcp" horiz-adv-x="507" 
d="M224 249v-229h177l51 86h14v-106h-442v10l48 13v458l-48 13v10h434v-106h-14l-50 86h-170v-214h136l22 65h14v-151h-14l-22 65h-136zM254 671c43 0 71 -28 71 -71s-28 -71 -71 -71c-44 0 -73 28 -73 71s29 71 73 71z" />
    <glyph glyph-name="Egrave.smcp" horiz-adv-x="507" 
d="M224 249v-229h177l51 86h14v-106h-442v10l48 13v458l-48 13v10h434v-106h-14l-50 86h-170v-214h136l22 65h14v-151h-14l-22 65h-136zM150 587l74 75l103 -132l-9 -7z" />
    <glyph glyph-name="Emacron.smcp" horiz-adv-x="507" 
d="M224 249v-229h177l51 86h14v-106h-442v10l48 13v458l-48 13v10h434v-106h-14l-50 86h-170v-214h136l22 65h14v-151h-14l-22 65h-136zM360 566h-212v34h212v-34z" />
    <glyph glyph-name="Eogonek.smcp" horiz-adv-x="507" 
d="M463 -127l5 -4c-29 -29 -57 -44 -83 -44c-27 0 -40 15 -40 45c0 44 30 93 83 130h-404v10l48 13v458l-48 13v10h434v-106h-14l-50 86h-170v-214h136l22 65h14v-151h-14l-22 65h-136v-229h177l51 86h14v-106h-29c-29 -40 -43 -77 -43 -110c0 -19 10 -29 30 -29
c18 0 31 4 39 12z" />
    <glyph glyph-name="F.smcp" horiz-adv-x="486" 
d="M364 184l-22 65h-118v-219l70 -17v-13h-270v13l48 17v451l-48 13v10h421v-106h-14l-51 86h-156v-214h118l22 65h14v-151h-14z" />
    <glyph glyph-name="G.smcp" horiz-adv-x="602" 
d="M576 240l-48 -17v-206l-13 -13l-70 15c-38 -16 -82 -24 -133 -24c-83 0 -149 23 -197 69s-72 108 -72 186c0 79 24 142 73 189s113 70 194 70c54 0 100 -10 139 -30l52 21l7 -8v-120h-14c-29 75 -79 113 -151 113c-96 0 -142 -66 -142 -235c0 -153 43 -229 130 -229
c17 0 33 3 46 10v192l-48 17v12h247v-12z" />
    <glyph glyph-name="Gbreve.smcp" horiz-adv-x="602" 
d="M576 240l-48 -17v-206l-13 -13l-70 15c-38 -16 -82 -24 -133 -24c-83 0 -149 23 -197 69s-72 108 -72 186c0 79 24 142 73 189s113 70 194 70c54 0 100 -10 139 -30l52 21l7 -8v-120h-14c-29 75 -79 113 -151 113c-96 0 -142 -66 -142 -235c0 -153 43 -229 130 -229
c17 0 33 3 46 10v192l-48 17v12h247v-12zM338 588c0 39 20 59 53 59c32 0 53 -20 53 -51c0 -19 -8 -34 -25 -46c-33 -23 -70 -27 -113 -27c-21 0 -41 2 -60 5c-37 7 -78 31 -78 68c0 31 21 51 54 51s53 -20 53 -59c0 -53 21 -53 31 -53c11 0 32 0 32 53z" />
    <glyph glyph-name="Gcircumflex.smcp" horiz-adv-x="602" 
d="M576 240l-48 -17v-206l-13 -13l-70 15c-38 -16 -82 -24 -133 -24c-83 0 -149 23 -197 69s-72 108 -72 186c0 79 24 142 73 189s113 70 194 70c54 0 100 -10 139 -30l52 21l7 -8v-120h-14c-29 75 -79 113 -151 113c-96 0 -142 -66 -142 -235c0 -153 43 -229 130 -229
c17 0 33 3 46 10v192l-48 17v12h247v-12zM197 530l102 132h21l102 -132l-8 -7l-105 52l-104 -52z" />
    <glyph glyph-name="Gcommaaccent.smcp" horiz-adv-x="602" 
d="M576 240l-48 -17v-206l-13 -13l-70 15c-38 -16 -82 -24 -133 -24c-83 0 -149 23 -197 69s-72 108 -72 186c0 79 24 142 73 189s113 70 194 70c54 0 100 -10 139 -30l52 21l7 -8v-120h-14c-29 75 -79 113 -151 113c-96 0 -142 -66 -142 -235c0 -153 43 -229 130 -229
c17 0 33 3 46 10v192l-48 17v12h247v-12zM287 -180l-10 10c25 23 37 41 37 52c0 3 -1 5 -3 7c-27 0 -45 17 -45 44c-6 55 96 58 90 -2c0 -13 -4 -26 -13 -41c-16 -31 -27 -39 -56 -70z" />
    <glyph glyph-name="Gdotaccent.smcp" horiz-adv-x="602" 
d="M576 240l-48 -17v-206l-13 -13l-70 15c-38 -16 -82 -24 -133 -24c-83 0 -149 23 -197 69s-72 108 -72 186c0 79 24 142 73 189s113 70 194 70c54 0 100 -10 139 -30l52 21l7 -8v-120h-14c-29 75 -79 113 -151 113c-96 0 -142 -66 -142 -235c0 -153 43 -229 130 -229
c17 0 33 3 46 10v192l-48 17v12h247v-12zM254 548c-13 13 -19 31 -19 52s6 38 19 51c27 27 77 27 104 0c13 -13 20 -30 20 -51s-7 -39 -20 -52c-27 -25 -77 -25 -104 0z" />
    <glyph glyph-name="H.smcp" horiz-adv-x="626" 
d="M24 0v13l48 17v444l-48 17v13h248v-13l-48 -17v-208h178v208l-48 17v13h248v-13l-48 -17v-444l48 -17v-13h-248v13l48 17v216h-178v-216l48 -17v-13h-248z" />
    <glyph glyph-name="Hbar.smcp" horiz-adv-x="617" 
d="M72 356h-48v10l48 10v98l-48 17v13h248v-13l-48 -17v-98h169v98l-48 17v13h248v-13l-49 -17v-98l49 -10v-10h-49v-326l49 -17v-13h-248v13l48 17v216h-169v-216l48 -17v-13h-248v13l48 17v326zM224 356v-90h169v90h-169z" />
    <glyph glyph-name="Hcircumflex.smcp" horiz-adv-x="626" 
d="M24 0v13l48 17v444l-48 17v13h248v-13l-48 -17v-208h178v208l-48 17v13h248v-13l-48 -17v-444l48 -17v-13h-248v13l48 17v216h-178v-216l48 -17v-13h-248zM201 530l102 132h21l102 -132l-9 -7l-104 52l-104 -52z" />
    <glyph glyph-name="I.smcp" horiz-adv-x="297" 
d="M270 491l-48 -17v-444l48 -17v-13h-244v13l48 17v444l-48 17v13h244v-13z" />
    <glyph glyph-name="Iacute.smcp" horiz-adv-x="297" 
d="M270 491l-48 -17v-444l48 -17v-13h-244v13l48 17v444l-48 17v13h244v-13zM82 523l-8 7l103 132l74 -75z" />
    <glyph glyph-name="Ibreve.smcp" horiz-adv-x="297" 
d="M270 491l-47 -17v-444l47 -17v-13h-244v13l48 17v444l-48 17v13h244v-13zM180 588c0 39 20 59 53 59c32 0 53 -20 53 -51c0 -19 -8 -34 -25 -46c-33 -23 -70 -27 -113 -27c-21 0 -41 2 -60 5c-37 7 -78 31 -78 68c0 31 21 51 54 51s53 -20 53 -59c0 -53 21 -53 31 -53
c11 0 32 0 32 53z" />
    <glyph glyph-name="Icircumflex.smcp" horiz-adv-x="297" 
d="M270 491l-48 -17v-444l48 -17v-13h-244v13l48 17v444l-48 17v13h244v-13zM35 530l103 132h20l102 -132l-8 -7l-104 52l-105 -52z" />
    <glyph glyph-name="Idieresis.smcp" horiz-adv-x="296" 
d="M270 491l-47 -17v-444l47 -17v-13h-244v13l48 17v444l-48 17v13h244v-13zM1 590c0 40 27 67 67 67s67 -27 67 -67c0 -39 -27 -66 -67 -66s-67 27 -67 66zM162 590c0 40 26 67 66 67s67 -27 67 -67c0 -39 -27 -66 -67 -66s-66 27 -66 66z" />
    <glyph glyph-name="Idotaccent.smcp" horiz-adv-x="297" 
d="M270 491l-48 -17v-444l48 -17v-13h-244v13l48 17v444l-48 17v13h244v-13zM96 548c-13 13 -20 31 -20 52s7 38 20 51s31 20 52 20s38 -7 51 -20s20 -30 20 -51s-7 -39 -20 -52s-30 -19 -51 -19s-39 6 -52 19z" />
    <glyph glyph-name="Igrave.smcp" horiz-adv-x="297" 
d="M270 491l-48 -17v-444l48 -17v-13h-244v13l48 17v444l-48 17v13h244v-13zM44 587l74 75l103 -132l-8 -7z" />
    <glyph glyph-name="Imacron.smcp" horiz-adv-x="297" 
d="M270 491l-48 -17v-444l48 -17v-13h-244v13l48 17v444l-48 17v13h244v-13zM254 566h-211v34h211v-34z" />
    <glyph glyph-name="Iogonek.smcp" horiz-adv-x="296" 
d="M267 -127l4 -4c-28 -29 -55 -44 -82 -44s-41 15 -41 45c0 44 30 93 83 130h-205v13l48 17v444l-48 17v13h244v-13l-48 -17v-444l48 -17v-13h-30c-24 -35 -42 -83 -42 -110c0 -19 10 -29 29 -29c18 0 31 4 40 12z" />
    <glyph glyph-name="Itilde.smcp" horiz-adv-x="296" 
d="M270 491l-48 -17v-444l48 -17v-13h-244v13l48 17v444l-48 17v13h244v-13zM9 545l-10 10c59 59 98 88 119 88c9 0 25 -5 46 -16s38 -16 49 -16c29 0 55 11 77 33l9 -10c-59 -59 -101 -89 -124 -89c-7 0 -23 5 -46 16s-41 16 -52 16c-23 0 -46 -11 -68 -32z" />
    <glyph glyph-name="IJ.smcp" horiz-adv-x="557" 
d="M270 491l-48 -17v-444l48 -17v-13h-244v13l48 17v444l-48 17v13h244v-13zM335 28v446l-48 17v13h243v-13l-48 -17v-446c0 -79 -64 -128 -185 -176l-9 9c31 51 47 106 47 167z" />
    <glyph glyph-name="J.smcp" horiz-adv-x="296" 
d="M74 28v446l-48 17v13h244v-13l-48 -17v-446c0 -80 -63 -128 -186 -176l-8 9c31 51 46 107 46 167z" />
    <glyph glyph-name="Jcircumflex.smcp" horiz-adv-x="296" 
d="M74 28v446l-48 17v13h244v-13l-48 -17v-446c0 -80 -63 -128 -186 -176l-8 9c31 51 46 107 46 167zM35 530l103 132h20l103 -132l-9 -7l-104 52l-105 -52z" />
    <glyph glyph-name="K.smcp" horiz-adv-x="604" 
d="M272 491l-48 -17v-213l216 213l-67 17v13h156v-13l-60 -17l-120 -118l188 -327l46 -16v-13h-191l-146 256l-22 -21v-205l48 -17v-13h-248v13l48 17v444l-48 17v13h248v-13z" />
    <glyph glyph-name="Kcommaaccent.smcp" horiz-adv-x="604" 
d="M272 491l-48 -17v-213l216 213l-67 17v13h156v-13l-60 -17l-120 -118l188 -327l46 -16v-13h-191l-146 256l-22 -21v-205l48 -17v-13h-248v13l48 17v444l-48 17v13h248v-13zM277 -180l-9 10c24 23 36 40 36 52c0 4 -1 6 -3 7c-27 0 -44 17 -44 44c0 25 19 43 44 43
c27 0 45 -17 45 -45s-23 -65 -69 -111z" />
    <glyph glyph-name="L.smcp" horiz-adv-x="486" 
d="M224 474v-454h151l51 86h14v-106h-416v10l48 13v451l-48 17v13h248v-13z" />
    <glyph glyph-name="Lacute.smcp" horiz-adv-x="486" 
d="M224 474v-454h151l51 86h14v-106h-416v10l48 13v451l-48 17v13h248v-13zM83 523l-9 7l103 132l75 -75z" />
    <glyph glyph-name="Lcaron.smcp" horiz-adv-x="485" 
d="M224 474v-454h151l50 86h15v-106h-416v10l48 13v451l-48 17v13h248v-13zM261 654l-103 -131h-20l-102 131l8 8l104 -53l105 53z" />
    <glyph glyph-name="Lcommaaccent.smcp" horiz-adv-x="486" 
d="M224 474v-454h151l51 86h14v-106h-416v10l48 13v451l-48 17v13h248v-13zM220 -180l-10 10c24 23 36 40 36 52c0 4 -1 6 -3 7c-27 0 -44 17 -44 44c0 25 19 43 44 43c28 0 46 -17 46 -45c0 -13 -4 -26 -13 -41c-16 -31 -27 -39 -56 -70z" />
    <glyph glyph-name="Ldot.smcp" horiz-adv-x="486" 
d="M224 474v-454h151l51 86h14v-106h-416v10l48 13v451l-48 17v13h248v-13zM308 251c0 37 26 62 62 62c37 0 63 -25 63 -62c0 -35 -26 -61 -63 -61c-36 0 -62 26 -62 61z" />
    <glyph glyph-name="Lslash.smcp" horiz-adv-x="486" 
d="M73 159l-40 -39l-15 14l55 54v286l-48 17v13h248v-13l-49 -17v-188l78 74l14 -14l-92 -88v-238h152l50 86h15v-106h-416v10l48 13v136z" />
    <glyph glyph-name="M.smcp" horiz-adv-x="764" 
d="M712 491l-48 -17l31 -444l48 -17v-13h-248v13l48 17l-25 366l-179 -396h-41l-181 396l-28 -370l47 -16v-10h-115v10l48 16l31 448l-48 17v13h171l161 -356l159 356h169v-13z" />
    <glyph glyph-name="N.smcp" horiz-adv-x="551" 
d="M24 0v10l48 16v448l-48 17v13h201l233 -304v278l-48 16v10h117v-10l-48 -16v-478h-39l-347 460v-434l48 -16v-10h-117z" />
    <glyph glyph-name="Nacute.smcp" horiz-adv-x="551" 
d="M24 0v10l48 16v448l-48 17v13h201l233 -304v278l-48 16v10h117v-10l-48 -16v-478h-39l-347 460v-434l48 -16v-10h-117zM210 523l-8 7l102 132l74 -75z" />
    <glyph glyph-name="Ncaron.smcp" horiz-adv-x="551" 
d="M24 0v10l48 16v448l-48 17v13h201l233 -304v278l-48 16v10h117v-10l-48 -16v-478h-39l-347 460v-434l48 -16v-10h-117zM388 654l-102 -131h-21l-102 131l8 8l104 -53l105 53z" />
    <glyph glyph-name="Ncommaaccent.smcp" horiz-adv-x="551" 
d="M24 0v10l48 16v448l-48 17v13h201l233 -304v278l-48 16v10h117v-10l-48 -16v-478h-39l-347 460v-434l48 -16v-10h-117zM251 -180l-9 10c23 23 35 41 35 52c0 4 -1 6 -3 7c-27 0 -44 17 -44 44c0 25 19 43 44 43c28 0 46 -17 46 -45c0 -13 -4 -26 -13 -41
c-16 -31 -27 -39 -56 -70z" />
    <glyph glyph-name="Ntilde.smcp" horiz-adv-x="551" 
d="M24 0v10l48 16v448l-48 17v13h201l233 -304v278l-48 16v10h117v-10l-48 -16v-478h-39l-347 460v-434l48 -16v-10h-117zM136 545l-10 10c59 59 99 88 120 88c9 0 24 -5 45 -16c22 -11 39 -16 50 -16c29 0 54 11 76 33l10 -10c-61 -59 -102 -89 -124 -89c-8 0 -24 5 -47 16
s-40 16 -52 16c-24 0 -47 -11 -68 -32z" />
    <glyph glyph-name="Eng.smcp" horiz-adv-x="551" 
d="M24 0v10l48 16v448l-48 17v13h196l238 -418v392l-48 16v10h117v-10l-48 -16v-450c0 -79 -65 -128 -188 -176l-8 9c29 49 44 104 44 167v23l-234 409v-434l48 -16v-10h-117z" />
    <glyph glyph-name="O.smcp" horiz-adv-x="599" 
d="M43 251c0 77 24 140 71 187c48 47 110 71 186 71s138 -24 185 -71s71 -110 71 -187c0 -78 -24 -140 -71 -187c-47 -46 -109 -69 -185 -69s-138 23 -186 69c-47 47 -71 109 -71 187zM201 251c0 -163 33 -245 99 -245c65 0 98 82 98 245c0 165 -33 247 -98 247
c-66 0 -99 -82 -99 -247z" />
    <glyph glyph-name="Oacute.smcp" horiz-adv-x="599" 
d="M43 251c0 77 24 140 71 187c48 47 110 71 186 71s138 -24 185 -71s71 -110 71 -187c0 -78 -24 -140 -71 -187c-47 -46 -109 -69 -185 -69s-138 23 -186 69c-47 47 -71 109 -71 187zM201 251c0 -163 33 -245 99 -245c65 0 98 82 98 245c0 165 -33 247 -98 247
c-66 0 -99 -82 -99 -247zM234 523l-9 7l103 132l75 -75z" />
    <glyph glyph-name="Obreve.smcp" horiz-adv-x="599" 
d="M43 251c0 77 24 140 71 187c48 47 110 71 186 71s138 -24 185 -71s71 -110 71 -187c0 -78 -24 -140 -71 -187c-47 -46 -109 -69 -185 -69s-138 23 -186 69c-47 47 -71 109 -71 187zM201 251c0 -163 33 -245 99 -245c65 0 98 82 98 245c0 165 -33 247 -98 247
c-66 0 -99 -82 -99 -247zM331 588c0 39 20 59 53 59s54 -20 54 -51c0 -19 -8 -34 -25 -46c-33 -23 -70 -27 -113 -27c-21 0 -41 2 -60 5c-37 7 -78 31 -78 68c0 31 21 51 54 51c32 0 52 -20 52 -59c0 -53 21 -53 32 -53c10 0 31 0 31 53z" />
    <glyph glyph-name="Ocircumflex.smcp" horiz-adv-x="599" 
d="M43 251c0 77 24 140 71 187c48 47 110 71 186 71s138 -24 185 -71s71 -110 71 -187c0 -78 -24 -140 -71 -187c-47 -46 -109 -69 -185 -69s-138 23 -186 69c-47 47 -71 109 -71 187zM201 251c0 -163 33 -245 99 -245c65 0 98 82 98 245c0 165 -33 247 -98 247
c-66 0 -99 -82 -99 -247zM187 530l102 132h21l102 -132l-8 -7l-105 52l-104 -52z" />
    <glyph glyph-name="Odieresis.smcp" horiz-adv-x="599" 
d="M43 251c0 77 24 140 71 187c48 47 110 71 186 71s138 -24 185 -71s71 -110 71 -187c0 -78 -24 -140 -71 -187c-47 -46 -109 -69 -185 -69s-138 23 -186 69c-47 47 -71 109 -71 187zM201 251c0 -163 33 -245 99 -245c65 0 98 82 98 245c0 165 -33 247 -98 247
c-66 0 -99 -82 -99 -247zM145 590c0 40 28 67 68 67c39 0 67 -27 67 -67c0 -39 -28 -66 -67 -66c-40 0 -68 27 -68 66zM320 590c0 40 27 67 67 67s67 -27 67 -67c0 -39 -27 -66 -67 -66s-67 27 -67 66z" />
    <glyph glyph-name="Ograve.smcp" horiz-adv-x="599" 
d="M43 251c0 77 24 140 71 187c48 47 110 71 186 71s138 -24 185 -71s71 -110 71 -187c0 -78 -24 -140 -71 -187c-47 -46 -109 -69 -185 -69s-138 23 -186 69c-47 47 -71 109 -71 187zM201 251c0 -163 33 -245 99 -245c65 0 98 82 98 245c0 165 -33 247 -98 247
c-66 0 -99 -82 -99 -247zM196 587l74 75l103 -132l-8 -7z" />
    <glyph glyph-name="Ohungarumlaut.smcp" horiz-adv-x="599" 
d="M43 251c0 77 24 140 71 187c48 47 110 71 186 71s138 -24 185 -71s71 -110 71 -187c0 -78 -24 -140 -71 -187c-47 -46 -109 -69 -185 -69s-138 23 -186 69c-47 47 -71 109 -71 187zM201 251c0 -163 33 -245 99 -245c65 0 98 82 98 245c0 165 -33 247 -98 247
c-66 0 -99 -82 -99 -247zM160 523l-8 7l90 132l74 -75zM306 523l-8 7l90 132l74 -75z" />
    <glyph glyph-name="Omacron.smcp" horiz-adv-x="599" 
d="M43 251c0 77 24 140 71 187c48 47 110 71 186 71s138 -24 185 -71s71 -110 71 -187c0 -78 -24 -140 -71 -187c-47 -46 -109 -69 -185 -69s-138 23 -186 69c-47 47 -71 109 -71 187zM201 251c0 -163 33 -245 99 -245c65 0 98 82 98 245c0 165 -33 247 -98 247
c-66 0 -99 -82 -99 -247zM405 566h-211v34h211v-34z" />
    <glyph glyph-name="Oslash.smcp" horiz-adv-x="599" 
d="M129 51l-49 -51h-37l66 70c-44 46 -66 106 -66 181c0 77 24 140 71 187c48 47 110 71 186 71c67 0 124 -19 170 -58l50 53h36l-67 -71c45 -47 67 -107 67 -182c0 -78 -24 -140 -71 -187c-47 -46 -109 -69 -185 -69c-69 0 -126 19 -171 56zM201 251c0 -30 1 -57 3 -81
l187 197c-13 87 -43 131 -91 131c-66 0 -99 -82 -99 -247zM398 251c0 31 -1 58 -3 82l-187 -197c14 -87 45 -130 92 -130c65 0 98 82 98 245z" />
    <glyph glyph-name="Oslashacute.smcp" horiz-adv-x="599" 
d="M129 51l-49 -51h-37l66 70c-44 46 -66 106 -66 181c0 77 24 140 71 187c48 47 110 71 186 71c67 0 124 -19 170 -58l50 53h36l-67 -71c45 -47 67 -107 67 -182c0 -78 -24 -140 -71 -187c-47 -46 -109 -69 -185 -69c-69 0 -126 19 -171 56zM201 251c0 -30 1 -57 3 -81
l187 197c-13 87 -43 131 -91 131c-66 0 -99 -82 -99 -247zM398 251c0 31 -1 58 -3 82l-187 -197c14 -87 45 -130 92 -130c65 0 98 82 98 245zM234 523l-9 7l103 132l75 -75z" />
    <glyph glyph-name="Otilde.smcp" horiz-adv-x="599" 
d="M43 251c0 77 24 140 71 187c48 47 110 71 186 71s138 -24 185 -71s71 -110 71 -187c0 -78 -24 -140 -71 -187c-47 -46 -109 -69 -185 -69s-138 23 -186 69c-47 47 -71 109 -71 187zM201 251c0 -163 33 -245 99 -245c65 0 98 82 98 245c0 165 -33 247 -98 247
c-66 0 -99 -82 -99 -247zM160 545l-9 10c59 59 98 88 119 88c9 0 24 -5 46 -16s39 -16 50 -16c20 0 55 12 75 33l10 -10c-61 -59 -102 -89 -124 -89c-8 0 -23 5 -46 16s-40 16 -52 16c-24 0 -47 -11 -69 -32z" />
    <glyph glyph-name="OE.smcp" horiz-adv-x="777" 
d="M509 249v-229h162l51 86h14v-106h-377c-21 -3 -41 -5 -59 -5c-76 0 -138 23 -186 69c-47 47 -71 109 -71 187c0 77 24 140 71 187c48 47 110 71 186 71c17 0 36 -2 56 -5h373v-106h-15l-51 86h-154v-214h122l21 65h14v-151h-14l-21 65h-122zM300 6c29 0 50 21 64 63v365
c-14 43 -35 64 -64 64c-66 0 -99 -82 -99 -247c0 -163 33 -245 99 -245z" />
    <glyph glyph-name="P.smcp" horiz-adv-x="542" 
d="M270 484h-46v-454l79 -17v-13h-279v13l48 17v451l-48 13v10h259c129 0 216 -58 216 -147s-87 -147 -216 -147h-35l-13 14v6h35c51 0 77 42 77 127s-26 127 -77 127z" />
    <glyph glyph-name="Q.smcp" horiz-adv-x="600" 
d="M581 -39l7 -7c-37 -36 -84 -54 -142 -54c-18 0 -35 2 -52 6c-33 7 -48 9 -77 29c-15 9 -24 16 -29 19l-29 26c-15 13 -23 21 -25 22c-119 25 -191 120 -191 249c0 78 24 140 71 187c48 47 110 71 186 71s138 -24 185 -71s71 -110 71 -187c0 -117 -62 -205 -161 -240
c15 -5 36 -17 65 -36c29 -20 53 -30 70 -30c23 0 40 5 51 16zM201 251c0 -158 33 -237 99 -237c65 0 98 79 98 237c0 165 -33 247 -98 247c-66 0 -99 -82 -99 -247z" />
    <glyph glyph-name="R.smcp" horiz-adv-x="585" 
d="M496 365c0 -60 -43 -109 -122 -125c25 -7 46 -25 63 -56l81 -155l47 -16v-13h-188l-117 231h-36v-201l48 -17v-13h-248v13l48 17v451l-48 13v10h260c128 0 212 -54 212 -139zM270 484h-46v-233h46c49 0 74 39 74 117c0 77 -25 116 -74 116z" />
    <glyph glyph-name="Racute.smcp" horiz-adv-x="585" 
d="M496 365c0 -60 -43 -109 -122 -125c25 -7 46 -25 63 -56l81 -155l47 -16v-13h-188l-117 231h-36v-201l48 -17v-13h-248v13l48 17v451l-48 13v10h260c128 0 212 -54 212 -139zM270 484h-46v-233h46c49 0 74 39 74 117c0 77 -25 116 -74 116zM218 523l-8 7l103 132l74 -75z
" />
    <glyph glyph-name="Rcaron.smcp" horiz-adv-x="585" 
d="M496 365c0 -60 -43 -109 -122 -125c25 -7 46 -25 63 -56l81 -155l47 -16v-13h-188l-117 231h-36v-201l48 -17v-13h-248v13l48 17v451l-48 13v10h260c128 0 212 -54 212 -139zM270 484h-46v-233h46c49 0 74 39 74 117c0 77 -25 116 -74 116zM395 654l-102 -131h-21
l-102 131l8 8l104 -53l105 53z" />
    <glyph glyph-name="Rcommaaccent.smcp" horiz-adv-x="585" 
d="M496 365c0 -60 -43 -109 -122 -125c25 -7 46 -25 63 -56l81 -155l47 -16v-13h-188l-117 231h-36v-201l48 -17v-13h-248v13l48 17v451l-48 13v10h260c128 0 212 -54 212 -139zM270 484h-46v-233h46c49 0 74 39 74 117c0 77 -25 116 -74 116zM268 -180l-9 10
c23 23 35 41 35 52c0 4 -1 6 -3 7c-27 0 -44 17 -44 44c0 25 19 43 44 43c28 0 46 -17 46 -45c0 -13 -4 -26 -13 -41c-16 -31 -27 -39 -56 -70z" />
    <glyph glyph-name="S.smcp" horiz-adv-x="487" 
d="M56 2l-7 7v120h15c10 -32 25 -58 46 -77c43 -39 77 -46 116 -46c63 0 101 35 101 90c0 48 -28 65 -109 88l-53 17c-12 4 -27 11 -45 20s-31 19 -40 29c-17 20 -34 54 -34 97c0 97 63 162 191 162c43 0 84 -9 123 -28l44 21l8 -7v-120h-14c-28 89 -93 123 -149 123
c-55 0 -86 -37 -86 -82c0 -23 7 -39 20 -50c14 -10 40 -21 77 -34c27 -9 47 -17 60 -22c14 -5 30 -12 49 -23c52 -27 70 -59 75 -125c0 -101 -67 -167 -210 -167c-47 0 -92 9 -133 28z" />
    <glyph glyph-name="Sacute.smcp" horiz-adv-x="487" 
d="M56 2l-7 7v120h15c10 -32 25 -58 46 -77c43 -39 77 -46 116 -46c63 0 101 35 101 90c0 48 -28 65 -109 88l-53 17c-12 4 -27 11 -45 20s-31 19 -40 29c-17 20 -34 54 -34 97c0 97 63 162 191 162c43 0 84 -9 123 -28l44 21l8 -7v-120h-14c-28 89 -93 123 -149 123
c-55 0 -86 -37 -86 -82c0 -23 7 -39 20 -50c14 -10 40 -21 77 -34c27 -9 47 -17 60 -22c14 -5 30 -12 49 -23c52 -27 70 -59 75 -125c0 -101 -67 -167 -210 -167c-47 0 -92 9 -133 28zM175 523l-9 7l103 132l74 -75z" />
    <glyph glyph-name="Scaron.smcp" horiz-adv-x="487" 
d="M56 2l-7 7v120h15c10 -32 25 -58 46 -77c43 -39 77 -46 116 -46c63 0 101 35 101 90c0 48 -28 65 -109 88l-53 17c-12 4 -27 11 -45 20s-31 19 -40 29c-17 20 -34 54 -34 97c0 97 63 162 191 162c43 0 84 -9 123 -28l44 21l8 -7v-120h-14c-28 89 -93 123 -149 123
c-55 0 -86 -37 -86 -82c0 -23 7 -39 20 -50c14 -10 40 -21 77 -34c27 -9 47 -17 60 -22c14 -5 30 -12 49 -23c52 -27 70 -59 75 -125c0 -101 -67 -167 -210 -167c-47 0 -92 9 -133 28zM350 654l-102 -131h-21l-102 131l8 8l104 -53l104 53z" />
    <glyph glyph-name="Scedilla.smcp" horiz-adv-x="487" 
d="M174 -95l52 90c-44 1 -86 10 -125 28l-45 -21l-7 7v120h15c10 -32 25 -58 46 -77c43 -39 77 -46 116 -46c63 0 101 35 101 90c0 48 -28 65 -109 88l-53 17c-12 4 -27 11 -45 20s-31 19 -40 29c-17 20 -34 54 -34 97c0 97 63 162 191 162c43 0 84 -9 123 -28l44 21l8 -7
v-120h-14c-28 89 -93 123 -149 123c-55 0 -86 -37 -86 -82c0 -23 7 -39 20 -50c14 -10 40 -21 77 -34c27 -9 47 -17 60 -22c14 -5 30 -12 49 -23c52 -27 70 -59 75 -125c0 -100 -66 -166 -205 -167l-13 -24c43 0 65 -13 65 -38c0 -28 -27 -65 -80 -110l-5 5
c17 15 25 32 25 50c0 21 -14 27 -57 27z" />
    <glyph glyph-name="Scircumflex.smcp" horiz-adv-x="487" 
d="M56 2l-7 7v120h15c10 -32 25 -58 46 -77c43 -39 77 -46 116 -46c63 0 101 35 101 90c0 48 -28 65 -109 88l-53 17c-12 4 -27 11 -45 20s-31 19 -40 29c-17 20 -34 54 -34 97c0 97 63 162 191 162c43 0 84 -9 123 -28l44 21l8 -7v-120h-14c-28 89 -93 123 -149 123
c-55 0 -86 -37 -86 -82c0 -23 7 -39 20 -50c14 -10 40 -21 77 -34c27 -9 47 -17 60 -22c14 -5 30 -12 49 -23c52 -27 70 -59 75 -125c0 -101 -67 -167 -210 -167c-47 0 -92 9 -133 28zM125 530l102 132h21l102 -132l-9 -7l-104 52l-104 -52z" />
    <glyph glyph-name="Scommaaccent.smcp" horiz-adv-x="487" 
d="M56 2l-7 7v120h15c10 -32 25 -58 46 -77c43 -39 77 -46 116 -46c63 0 101 35 101 90c0 48 -28 65 -109 88l-53 17c-12 4 -27 11 -45 20s-31 19 -40 29c-17 20 -34 54 -34 97c0 97 63 162 191 162c43 0 84 -9 123 -28l44 21l8 -7v-120h-14c-28 89 -93 123 -149 123
c-55 0 -86 -37 -86 -82c0 -23 7 -39 20 -50c14 -10 40 -21 77 -34c27 -9 47 -17 60 -22c14 -5 30 -12 49 -23c52 -27 70 -59 75 -125c0 -101 -67 -167 -210 -167c-47 0 -92 9 -133 28zM206 -180l-11 10c17 16 37 41 37 52c0 4 -1 6 -3 7c-27 0 -44 17 -44 44
c0 25 19 43 44 43c27 0 45 -17 45 -45c0 -13 -4 -26 -12 -41c-16 -29 -28 -41 -56 -70z" />
    <glyph glyph-name="T.smcp" horiz-adv-x="554" 
d="M507 398l-51 86h-103v-454l48 -17v-13h-248v13l48 17v454h-104l-51 -86h-14v106h489v-106h-14z" />
    <glyph glyph-name="Tbar.smcp" horiz-adv-x="554" 
d="M201 252h-82v20h82v212h-104l-51 -86h-14v106h489v-106h-14l-51 86h-103v-212h81v-20h-81v-222l48 -17v-13h-248v13l48 17v222z" />
    </font>
</defs>
</svg>
